<svg xmlns="http://www.w3.org/2000/svg" xmlns:xlink="http://www.w3.org/1999/xlink" width="500" zoomAndPan="magnify" viewBox="0 0 375 374.999991" height="500" preserveAspectRatio="xMidYMid meet" version="1.0"><defs><g/></defs><path fill="#000000" d="M 287.25 108.5625 C 280.976562 106.675781 274.550781 108.4375 268.167969 108.527344 C 265.046875 108.574219 265.445312 113.402344 268.546875 113.355469 C 274.480469 113.269531 280.484375 111.542969 286.3125 113.320312 C 289.316406 114.21875 290.210938 109.445312 287.25 108.5625 Z M 287.25 108.5625 " fill-opacity="1" fill-rule="nonzero"/><path fill="#000000" d="M 272.875 156.582031 C 270.671875 154.355469 267.492188 158.011719 269.671875 160.214844 C 272.875 163.449219 276.421875 167.347656 276.613281 172.136719 C 276.738281 175.257812 281.570312 174.882812 281.449219 171.765625 C 281.1875 165.667969 276.96875 160.730469 272.875 156.582031 Z M 272.875 156.582031 " fill-opacity="1" fill-rule="nonzero"/><path fill="#73a0b1" d="M 222.132812 188.324219 L 222.132812 188.300781 C 221.8125 187.878906 221.441406 187.507812 221.019531 187.1875 C 217.21875 184.132812 211.125 184.167969 206.484375 184.039062 C 200.058594 183.863281 193.597656 183.363281 187.199219 184.203125 C 184.242188 184.59375 181.324219 185.425781 178.355469 185.652344 C 176.234375 185.8125 174.101562 185.871094 171.996094 186.046875 C 169.671875 186.242188 167.175781 186.402344 165.007812 187.328125 C 163.226562 188.089844 162.65625 190.375 165.261719 190.050781 C 165.628906 189.980469 165.988281 190.007812 166.339844 190.136719 C 166.695312 190.261719 166.988281 190.46875 167.230469 190.753906 C 168.792969 190.753906 170.351562 190.753906 171.910156 190.71875 C 179.8125 190.617188 187.722656 190.441406 195.621094 190.804688 C 200.289062 191.015625 204.890625 191.675781 209.554688 191.296875 C 212.898438 191.03125 216.367188 190.695312 219.546875 189.628906 C 220.230469 189.433594 220.878906 189.171875 221.5 188.832031 C 221.734375 188.699219 221.960938 188.546875 222.175781 188.378906 C 222.09375 188.417969 222.101562 188.378906 222.132812 188.324219 Z M 222.132812 188.324219 " fill-opacity="1" fill-rule="nonzero"/><path fill="#fdbe10" d="M 199.964844 151.265625 C 201.460938 145.226562 203.601562 139.425781 206.382812 133.859375 C 205.28125 133.390625 204.3125 132.734375 203.472656 131.882812 C 202.222656 132.507812 200.90625 132.875 199.515625 132.980469 C 198.125 133.085938 196.765625 132.925781 195.433594 132.5 C 194.011719 132.0625 192.6875 131.425781 191.457031 130.585938 C 189.101562 131.628906 186.421875 131.742188 183.84375 131.785156 L 182.367188 131.785156 C 189.746094 145.949219 191.242188 163.453125 191.292969 178.914062 L 191.292969 178.964844 C 191.898438 178.925781 192.503906 178.894531 193.109375 178.878906 C 194.058594 178.878906 195.003906 178.878906 195.949219 178.902344 C 195.625 178.636719 195.398438 178.304688 195.265625 177.90625 C 195.132812 177.507812 195.117188 177.105469 195.21875 176.699219 C 196.890625 168.242188 197.898438 159.644531 199.964844 151.265625 Z M 199.964844 151.265625 " fill-opacity="1" fill-rule="nonzero"/><path fill="#73a0b1" d="M 213.601562 225.375 C 211.945312 225.332031 210.726562 224.011719 211.0625 222.441406 C 210.941406 222.460938 210.816406 222.46875 210.695312 222.46875 C 201.070312 222.511719 191.46875 223.4375 181.839844 223.203125 C 177.839844 223.109375 172.03125 223.175781 167.757812 221.289062 C 166.460938 225.828125 167.699219 230.914062 173.058594 232.328125 C 179.273438 233.957031 185.71875 232.042969 192.011719 232.171875 C 195.457031 232.246094 198.898438 232.582031 202.34375 232.625 C 205.367188 232.667969 209.085938 232.867188 211.882812 231.570312 C 212.753906 231.144531 213.519531 230.582031 214.183594 229.878906 C 214.84375 229.175781 215.363281 228.375 215.730469 227.484375 C 216.425781 225.695312 215.261719 225.417969 213.601562 225.375 Z M 213.601562 225.375 " fill-opacity="1" fill-rule="nonzero"/><path fill="#fdbe10" d="M 191.273438 116.660156 C 189.835938 118.589844 190.652344 121.734375 191.625 123.675781 C 191.742188 123.910156 191.871094 124.132812 191.996094 124.34375 L 192.324219 124.03125 C 193.921875 122.453125 197.003906 119.492188 196.867188 116.96875 C 196.722656 114.890625 192.273438 115.34375 191.273438 116.660156 Z M 191.273438 116.660156 " fill-opacity="1" fill-rule="nonzero"/><path fill="#73a0b1" d="M 213.589844 209.789062 C 213.332031 209.378906 213.199219 208.9375 213.191406 208.453125 C 210.613281 209.644531 207.421875 209.859375 204.722656 210.023438 C 200.851562 210.261719 197 210.203125 193.109375 210.140625 C 184.699219 210.015625 175.496094 210.550781 167.8125 206.65625 C 166.613281 207.988281 165.703125 209.492188 165.085938 211.171875 C 164.632812 212.535156 164.785156 213.40625 165.488281 213.996094 C 166.179688 213.957031 166.75 214.203125 167.195312 214.734375 L 167.351562 214.773438 C 167.808594 214.882812 168.210938 215.097656 168.550781 215.421875 C 168.894531 215.746094 169.132812 216.136719 169.265625 216.585938 C 170.871094 217.386719 172.972656 217.640625 174.488281 217.84375 C 177.734375 218.25 180.992188 218.429688 184.261719 218.382812 C 192.960938 218.382812 201.632812 217.660156 210.328125 217.621094 C 210.824219 217.609375 211.285156 217.738281 211.703125 218.011719 C 212.125 218.285156 212.429688 218.648438 212.621094 219.109375 C 214.175781 216.101562 215.625 212.925781 213.589844 209.789062 Z M 213.589844 209.789062 " fill-opacity="1" fill-rule="nonzero"/><path fill="#73a0b1" d="M 214.316406 195.988281 C 214.238281 195.886719 214.167969 195.78125 214.105469 195.667969 C 211.835938 195.988281 209.523438 196.191406 207.222656 196.28125 C 204.847656 196.375 202.503906 196.023438 200.136719 195.859375 C 196.203125 195.589844 192.253906 195.464844 188.328125 195.429688 C 181.964844 195.375 175.636719 195.503906 169.296875 195.5625 C 168.667969 196.050781 167.957031 196.242188 167.167969 196.132812 C 166.371094 197.660156 165.804688 199.550781 166.5625 200.804688 C 167.082031 200.75 167.558594 200.871094 167.988281 201.164062 C 175.441406 205.921875 184.769531 205.167969 193.230469 205.308594 C 196.738281 205.367188 200.261719 205.429688 203.761719 205.21875 C 206.355469 205.0625 209.882812 205.117188 212.085938 203.507812 C 213.75 202.285156 215.5 203.628906 215.765625 205.214844 C 217.917969 202.660156 216.34375 198.636719 214.316406 195.988281 Z M 214.316406 195.988281 " fill-opacity="1" fill-rule="nonzero"/><path fill="#fdbe10" d="M 250.320312 113.074219 C 249.5 102.480469 247.558594 90.605469 241.148438 81.796875 C 233.625 71.453125 221.425781 69.613281 209.433594 68.632812 C 201.773438 68.0625 194.105469 67.925781 186.433594 68.222656 C 180.257812 68.433594 174.101562 68.773438 168.148438 70.554688 C 157.933594 73.605469 149.640625 79.953125 143.617188 88.707031 C 140.058594 93.902344 136.75 99.660156 135.144531 105.78125 C 133.472656 112.316406 132.933594 118.941406 133.527344 125.660156 C 134.570312 138.273438 137.5625 152.929688 148.933594 160.328125 C 153.640625 163.394531 158.964844 165.886719 162.601562 170.3125 C 164.871094 173.09375 166.371094 176.707031 167.707031 180.023438 C 167.921875 180.507812 167.953125 181.007812 167.8125 181.515625 C 170.433594 181.121094 173.167969 181.09375 175.535156 180.964844 C 179.214844 180.765625 182.800781 180.054688 186.4375 179.507812 L 186.4375 179.273438 C 186.4375 169.609375 185.777344 159.78125 183.617188 150.339844 C 182.117188 143.792969 179.980469 137.15625 176.554688 131.320312 C 175.378906 131.089844 174.269531 130.679688 173.226562 130.09375 C 170.046875 128.242188 169.304688 125 171.167969 121.835938 C 171.886719 120.617188 173.8125 119.855469 174.9375 121.09375 C 176.5625 122.875 178.042969 124.769531 179.378906 126.777344 C 181.703125 127.019531 184.027344 127.019531 186.355469 126.777344 C 186.851562 126.730469 187.296875 126.675781 187.71875 126.605469 C 187.304688 125.910156 186.957031 125.1875 186.671875 124.429688 C 185.394531 121.023438 185.117188 116.796875 187.402344 113.734375 C 189.789062 110.535156 194.78125 109.917969 198.265625 111.632812 C 201.957031 113.449219 202.328125 117.445312 200.65625 120.871094 C 199.421875 123.371094 197.800781 125.578125 195.785156 127.503906 C 196.644531 127.785156 197.527344 127.910156 198.433594 127.878906 C 199.335938 127.84375 200.207031 127.65625 201.046875 127.3125 C 199.863281 121.789062 202.957031 114.632812 209.703125 116.667969 C 210.664062 116.960938 211.6875 117.722656 211.65625 118.863281 C 211.566406 120.738281 211.15625 122.542969 210.421875 124.277344 C 209.691406 126.007812 208.683594 127.558594 207.398438 128.933594 C 207.773438 129.21875 208.1875 129.433594 208.636719 129.578125 C 209.980469 127.082031 211.570312 124.757812 213.410156 122.605469 C 215.683594 120.039062 219.53125 117.808594 222.207031 121.3125 C 224.546875 124.367188 220.296875 128.714844 218.261719 130.597656 C 216.226562 132.480469 214.066406 134.0625 211.449219 134.464844 C 209.898438 137.261719 208.558594 140.152344 207.421875 143.140625 C 203.335938 154.222656 202.246094 166.082031 199.96875 177.605469 C 199.875 178.179688 199.597656 178.648438 199.136719 179.011719 C 200.390625 179.066406 201.644531 179.121094 202.902344 179.132812 C 205.546875 179.160156 208.199219 179.230469 210.839844 179.441406 C 213.246094 179.585938 215.625 179.925781 217.976562 180.46875 C 221.097656 167.832031 235.808594 161.507812 242.28125 150.863281 C 249.253906 139.429688 251.34375 126.265625 250.320312 113.074219 Z M 250.320312 113.074219 " fill-opacity="1" fill-rule="nonzero"/><path fill="#73a0b1" d="M 205.65625 123.347656 C 205.957031 122.824219 206.195312 122.277344 206.378906 121.703125 C 205.972656 122.179688 205.734375 122.726562 205.65625 123.347656 Z M 205.65625 123.347656 " fill-opacity="1" fill-rule="nonzero"/><path fill="#000000" d="M 250.753906 90.199219 C 247.445312 80.621094 241.265625 72.445312 231.882812 68.203125 C 225.765625 65.417969 218.808594 64.699219 212.175781 64.058594 C 204.6875 63.375 197.1875 63.125 189.671875 63.3125 C 177.796875 63.527344 166.277344 64.621094 155.773438 70.613281 C 146.101562 76.136719 139.726562 85.171875 134.421875 94.667969 C 127.988281 106.195312 127.507812 120.328125 129.574219 133.074219 C 131.453125 144.65625 135.164062 156.355469 145.09375 163.515625 C 149.449219 166.664062 154.488281 168.820312 158.265625 172.699219 C 160.582031 175.066406 161.902344 178.597656 163.125 181.625 C 163.265625 181.976562 163.476562 182.28125 163.753906 182.535156 C 162.746094 182.914062 161.8125 183.425781 160.953125 184.078125 C 156.78125 187.308594 158.421875 193.003906 162.539062 194.515625 C 162.300781 195.109375 162.109375 195.683594 161.960938 196.148438 C 161 199.121094 161.175781 202.480469 163.191406 204.597656 C 161.570312 206.71875 160.292969 209.203125 160.011719 211.808594 C 159.65625 214.90625 161.167969 217.140625 163.527344 218.445312 C 160.941406 224.960938 162.585938 232.703125 169.433594 236 C 177.066406 239.671875 186.105469 236.707031 194.199219 237.035156 C 201.921875 237.34375 211.765625 239.222656 217.753906 233.0625 C 219.628906 231.132812 221.175781 228.164062 220.730469 225.410156 C 220.355469 223.085938 218.8125 221.78125 216.910156 221.128906 C 218.753906 217.148438 220.3125 213.324219 218.695312 209.179688 C 222.78125 205.527344 222.085938 199.28125 219.304688 194.6875 C 221.660156 194.121094 223.980469 193.269531 225.738281 191.578125 C 228.269531 189.152344 226.648438 185.796875 224.539062 183.808594 C 223.925781 183.238281 223.257812 182.738281 222.539062 182.308594 C 223.515625 177.914062 226.46875 174.414062 229.558594 171.207031 C 233.40625 167.214844 237.6875 163.671875 241.484375 159.632812 C 249.921875 150.65625 254.171875 138.105469 255.167969 126 C 255.65625 119.945312 255.53125 113.90625 254.785156 107.875 C 254.042969 101.847656 252.699219 95.957031 250.753906 90.199219 Z M 165.484375 213.996094 C 164.78125 213.40625 164.621094 212.515625 165.082031 211.171875 C 165.699219 209.492188 166.609375 207.988281 167.808594 206.65625 C 175.492188 210.550781 184.695312 210.015625 193.105469 210.140625 C 196.976562 210.203125 200.828125 210.261719 204.714844 210.023438 C 207.417969 209.859375 210.621094 209.644531 213.1875 208.453125 C 213.195312 208.9375 213.328125 209.378906 213.582031 209.789062 C 215.617188 212.925781 214.167969 216.097656 212.613281 219.128906 C 212.417969 218.667969 212.113281 218.300781 211.695312 218.03125 C 211.277344 217.757812 210.816406 217.628906 210.316406 217.640625 C 201.621094 217.675781 192.949219 218.390625 184.25 218.402344 C 180.980469 218.449219 177.722656 218.269531 174.480469 217.863281 C 172.960938 217.660156 170.847656 217.410156 169.253906 216.605469 C 169.121094 216.152344 168.882812 215.765625 168.542969 215.441406 C 168.203125 215.117188 167.800781 214.898438 167.34375 214.789062 L 167.183594 214.753906 C 166.746094 214.214844 166.179688 213.964844 165.484375 213.996094 Z M 215.730469 227.449219 C 215.363281 228.339844 214.84375 229.136719 214.183594 229.839844 C 213.519531 230.546875 212.753906 231.109375 211.882812 231.53125 C 209.066406 232.832031 205.347656 232.632812 202.34375 232.589844 C 198.898438 232.539062 195.457031 232.203125 192.011719 232.136719 C 185.71875 232.003906 179.289062 233.921875 173.058594 232.289062 C 167.699219 230.878906 166.460938 225.785156 167.757812 221.253906 C 172.050781 223.140625 177.859375 223.070312 181.839844 223.167969 C 191.46875 223.398438 201.070312 222.472656 210.695312 222.433594 C 210.816406 222.433594 210.941406 222.425781 211.0625 222.40625 C 210.726562 223.976562 211.945312 225.296875 213.601562 225.335938 C 215.261719 225.378906 216.425781 225.695312 215.730469 227.449219 Z M 215.730469 205.207031 C 215.46875 203.625 213.71875 202.28125 212.054688 203.503906 C 209.847656 205.113281 206.324219 205.058594 203.730469 205.214844 C 200.226562 205.425781 196.707031 205.363281 193.199219 205.304688 C 184.738281 205.164062 175.410156 205.917969 167.957031 201.160156 C 167.527344 200.863281 167.050781 200.746094 166.53125 200.800781 C 165.789062 199.542969 166.339844 197.65625 167.132812 196.128906 C 167.929688 196.234375 168.644531 196.042969 169.273438 195.546875 C 175.632812 195.488281 181.957031 195.355469 188.304688 195.410156 C 192.246094 195.445312 196.195312 195.574219 200.113281 195.839844 C 202.480469 196.003906 204.824219 196.359375 207.203125 196.261719 C 209.5 196.171875 211.796875 195.96875 214.082031 195.652344 C 214.144531 195.761719 214.214844 195.867188 214.292969 195.96875 C 216.34375 198.636719 217.917969 202.660156 215.742188 205.207031 Z M 221.484375 188.804688 C 220.863281 189.144531 220.210938 189.40625 219.53125 189.601562 C 216.351562 190.667969 212.871094 191.003906 209.535156 191.269531 C 204.871094 191.648438 200.269531 190.988281 195.605469 190.777344 C 187.703125 190.414062 179.796875 190.589844 171.890625 190.691406 C 170.332031 190.710938 168.773438 190.71875 167.210938 190.726562 C 166.972656 190.441406 166.675781 190.234375 166.324219 190.109375 C 165.972656 189.980469 165.613281 189.953125 165.246094 190.023438 C 162.636719 190.359375 163.210938 188.070312 164.988281 187.300781 C 167.15625 186.390625 169.65625 186.214844 171.976562 186.019531 C 174.09375 185.84375 176.222656 185.785156 178.335938 185.625 C 181.308594 185.398438 184.242188 184.566406 187.179688 184.175781 C 193.578125 183.335938 200.042969 183.835938 206.464844 184.011719 C 211.113281 184.140625 217.203125 184.105469 221.003906 187.160156 C 221.421875 187.480469 221.792969 187.851562 222.113281 188.277344 L 222.113281 188.296875 C 222.074219 188.351562 222.066406 188.394531 222.136719 188.339844 C 221.933594 188.515625 221.71875 188.675781 221.492188 188.824219 Z M 191.457031 130.585938 C 192.6875 131.425781 194.011719 132.0625 195.433594 132.5 C 196.765625 132.925781 198.125 133.085938 199.515625 132.980469 C 200.90625 132.875 202.222656 132.507812 203.472656 131.882812 C 204.3125 132.734375 205.28125 133.390625 206.382812 133.859375 C 203.601562 139.425781 201.460938 145.226562 199.964844 151.265625 C 197.898438 159.644531 196.890625 168.242188 195.222656 176.683594 C 195.121094 177.089844 195.136719 177.492188 195.269531 177.890625 C 195.402344 178.289062 195.628906 178.621094 195.953125 178.890625 C 195.007812 178.863281 194.0625 178.847656 193.113281 178.867188 C 192.5 178.867188 191.890625 178.914062 191.296875 178.953125 L 191.296875 178.898438 C 191.265625 163.429688 189.753906 145.933594 182.371094 131.785156 L 183.847656 131.785156 C 186.421875 131.742188 189.101562 131.628906 191.457031 130.585938 Z M 191.273438 116.660156 C 192.273438 115.300781 196.726562 114.890625 196.847656 116.96875 C 197.003906 119.484375 193.921875 122.453125 192.304688 124.03125 L 191.976562 124.34375 C 191.851562 124.132812 191.722656 123.890625 191.605469 123.675781 C 190.652344 121.734375 189.835938 118.589844 191.273438 116.660156 Z M 205.65625 123.347656 C 205.734375 122.726562 205.972656 122.179688 206.378906 121.703125 C 206.195312 122.277344 205.957031 122.824219 205.65625 123.347656 Z M 242.289062 150.882812 C 235.816406 161.523438 221.105469 167.851562 217.984375 180.488281 C 215.636719 179.945312 213.257812 179.601562 210.847656 179.460938 C 208.210938 179.25 205.558594 179.179688 202.914062 179.152344 C 201.65625 179.152344 200.402344 179.085938 199.148438 179.03125 C 199.605469 178.667969 199.882812 178.199219 199.976562 177.625 C 202.25 166.101562 203.34375 154.242188 207.433594 143.15625 C 208.566406 140.167969 209.910156 137.277344 211.457031 134.484375 C 214.066406 134.078125 216.167969 132.554688 218.273438 130.617188 C 220.375 128.679688 224.554688 124.386719 222.214844 121.332031 C 219.539062 117.828125 215.710938 120.054688 213.421875 122.625 C 211.578125 124.773438 209.984375 127.089844 208.636719 129.578125 C 208.1875 129.433594 207.773438 129.21875 207.398438 128.933594 C 208.683594 127.558594 209.691406 126.007812 210.421875 124.277344 C 211.15625 122.542969 211.566406 120.738281 211.65625 118.863281 C 211.6875 117.722656 210.664062 116.960938 209.703125 116.667969 C 202.957031 114.632812 199.863281 121.789062 201.046875 127.3125 C 200.207031 127.65625 199.335938 127.84375 198.433594 127.878906 C 197.527344 127.910156 196.644531 127.785156 195.785156 127.503906 C 197.804688 125.585938 199.4375 123.382812 200.679688 120.890625 C 202.347656 117.464844 201.980469 113.464844 198.289062 111.648438 C 194.804688 109.933594 189.8125 110.550781 187.425781 113.75 C 185.15625 116.816406 185.417969 121.039062 186.695312 124.449219 C 186.980469 125.203125 187.328125 125.929688 187.738281 126.621094 C 187.328125 126.695312 186.882812 126.75 186.378906 126.796875 C 184.050781 127.035156 181.726562 127.035156 179.398438 126.796875 C 178.066406 124.789062 176.585938 122.894531 174.960938 121.113281 C 173.835938 119.875 171.910156 120.636719 171.191406 121.851562 C 169.328125 125.03125 170.070312 128.261719 173.25 130.113281 C 174.292969 130.699219 175.402344 131.105469 176.578125 131.339844 C 180.011719 137.175781 182.140625 143.8125 183.636719 150.359375 C 185.800781 159.800781 186.441406 169.625 186.460938 179.292969 L 186.460938 179.523438 C 182.824219 180.066406 179.226562 180.78125 175.554688 180.980469 C 173.179688 181.113281 170.445312 181.140625 167.832031 181.535156 C 167.976562 181.023438 167.941406 180.527344 167.730469 180.042969 C 166.394531 176.726562 164.914062 173.113281 162.625 170.328125 C 158.988281 165.90625 153.664062 163.414062 148.953125 160.34375 C 137.597656 152.945312 134.59375 138.292969 133.550781 125.679688 C 132.957031 118.960938 133.496094 112.335938 135.167969 105.800781 C 136.769531 99.675781 140.082031 93.921875 143.640625 88.726562 C 149.648438 79.957031 157.945312 73.613281 168.171875 70.570312 C 174.125 68.792969 180.28125 68.453125 186.453125 68.242188 C 194.128906 67.941406 201.796875 68.078125 209.453125 68.652344 C 221.445312 69.617188 233.648438 71.457031 241.171875 81.8125 C 247.574219 90.585938 249.5 102.464844 250.320312 113.074219 C 251.34375 126.265625 249.253906 139.429688 242.289062 150.882812 Z M 242.289062 150.882812 " fill-opacity="1" fill-rule="nonzero"/><path fill="#000000" d="M 177.734375 29.71875 L 177.734375 43.335938 C 177.734375 46.457031 182.566406 46.058594 182.566406 42.960938 L 182.566406 29.347656 C 182.566406 26.222656 177.734375 26.609375 177.734375 29.71875 Z M 177.734375 29.71875 " fill-opacity="1" fill-rule="nonzero"/><path fill="#000000" d="M 133.128906 45.863281 C 133.042969 42.746094 128.207031 43.140625 128.292969 46.234375 C 128.378906 49.410156 129.328125 52.371094 130.566406 55.285156 C 131.722656 58.007812 133.046875 60.652344 133.140625 63.671875 C 133.238281 66.789062 138.070312 66.394531 137.976562 63.300781 C 137.777344 57.085938 133.296875 52.082031 133.128906 45.863281 Z M 133.128906 45.863281 " fill-opacity="1" fill-rule="nonzero"/><path fill="#000000" d="M 101.695312 118.304688 C 98.839844 113.765625 94.292969 110.863281 91.035156 106.683594 C 89.121094 104.230469 85.09375 106.925781 87.015625 109.40625 C 90.273438 113.582031 94.839844 116.515625 97.679688 121.03125 C 99.34375 123.664062 103.355469 120.945312 101.695312 118.304688 Z M 101.695312 118.304688 " fill-opacity="1" fill-rule="nonzero"/><path fill="#000000" d="M 244.714844 39.199219 C 240.703125 42.210938 236.597656 45.296875 234.203125 49.816406 C 232.742188 52.585938 237.09375 54.722656 238.546875 51.972656 C 240.527344 48.226562 244.109375 45.699219 247.425781 43.21875 C 249.917969 41.363281 247.21875 37.320312 244.714844 39.199219 Z M 244.714844 39.199219 " fill-opacity="1" fill-rule="nonzero"/><path fill="#000000" d="M 122.617188 163.363281 C 117.195312 158.628906 112.507812 168.40625 109.019531 170.917969 C 106.480469 172.734375 109.183594 176.761719 111.746094 174.9375 C 113.507812 173.675781 114.851562 171.898438 116.25 170.273438 C 116.992188 169.359375 117.804688 168.507812 118.683594 167.71875 C 119.136719 167.351562 119.738281 167.265625 119.449219 167 C 121.769531 169.058594 124.964844 165.414062 122.617188 163.363281 Z M 122.617188 163.363281 " fill-opacity="1" fill-rule="nonzero"/><g fill="#000000" fill-opacity="1"><g transform="translate(25.854136, 323.415593)"><g><path d="M 34.21875 -39.625 C 37.632812 -37.300781 40.335938 -34.273438 42.328125 -30.546875 C 44.316406 -26.816406 45.097656 -22.84375 44.671875 -18.625 C 44.242188 -14.945312 42.988281 -11.796875 40.90625 -9.171875 C 38.820312 -6.546875 36.265625 -4.5 33.234375 -3.03125 C 30.210938 -1.5625 27.003906 -0.75 23.609375 -0.59375 C 20.222656 -0.4375 16.96875 -1 13.84375 -2.28125 C 10.726562 -3.570312 8.101562 -5.65625 5.96875 -8.53125 C 4.863281 -9.9375 4.398438 -11.296875 4.578125 -12.609375 C 4.765625 -13.921875 5.332031 -15.066406 6.28125 -16.046875 C 7.226562 -17.023438 8.40625 -17.710938 9.8125 -18.109375 C 11.21875 -18.503906 12.640625 -18.519531 14.078125 -18.15625 C 15.515625 -17.789062 16.753906 -16.90625 17.796875 -15.5 C 18.285156 -14.820312 19.203125 -14.4375 20.546875 -14.34375 C 21.890625 -14.257812 23.234375 -14.320312 24.578125 -14.53125 C 25.921875 -14.75 26.867188 -14.976562 27.421875 -15.21875 C 28.703125 -15.832031 29.664062 -16.734375 30.3125 -17.921875 C 30.957031 -19.117188 31.1875 -20.421875 31 -21.828125 C 30.8125 -23.535156 30.195312 -24.941406 29.15625 -26.046875 C 28.125 -27.148438 26.890625 -28.113281 25.453125 -28.9375 C 24.015625 -29.757812 22.5625 -30.550781 21.09375 -31.3125 C 19.625 -32.082031 18.34375 -32.925781 17.25 -33.84375 C 14.1875 -36.53125 12.316406 -39.445312 11.640625 -42.59375 C 10.972656 -45.75 11.203125 -48.898438 12.328125 -52.046875 C 13.460938 -55.203125 15.222656 -58.0625 17.609375 -60.625 C 19.992188 -63.195312 22.710938 -65.1875 25.765625 -66.59375 C 27.421875 -67.382812 28.953125 -67.59375 30.359375 -67.21875 C 31.765625 -66.851562 32.972656 -66.164062 33.984375 -65.15625 C 34.992188 -64.15625 35.679688 -62.976562 36.046875 -61.625 C 36.410156 -60.28125 36.347656 -58.984375 35.859375 -57.734375 C 35.367188 -56.484375 34.332031 -55.488281 32.75 -54.75 C 31.707031 -54.257812 30.5 -53.585938 29.125 -52.734375 C 27.75 -51.878906 26.613281 -50.851562 25.71875 -49.65625 C 24.832031 -48.46875 24.664062 -47.140625 25.21875 -45.671875 C 25.53125 -44.691406 26.25 -43.847656 27.375 -43.140625 C 28.507812 -42.441406 29.71875 -41.816406 31 -41.265625 C 32.28125 -40.722656 33.351562 -40.175781 34.21875 -39.625 Z M 34.21875 -39.625 "/></g></g></g><g fill="#000000" fill-opacity="1"><g transform="translate(75.194648, 323.415593)"><g><path d="M 40.8125 -22.015625 C 42.53125 -22.503906 44.015625 -22.441406 45.265625 -21.828125 C 46.515625 -21.210938 47.488281 -20.296875 48.1875 -19.078125 C 48.894531 -17.859375 49.265625 -16.546875 49.296875 -15.140625 C 49.328125 -13.734375 48.957031 -12.429688 48.1875 -11.234375 C 47.425781 -10.046875 46.191406 -9.238281 44.484375 -8.8125 C 41.367188 -7.882812 38.171875 -7.207031 34.890625 -6.78125 C 31.617188 -6.351562 28.378906 -6.335938 25.171875 -6.734375 C 21.960938 -7.140625 18.890625 -8.164062 15.953125 -9.8125 C 12.160156 -12.007812 9.269531 -15.003906 7.28125 -18.796875 C 5.300781 -22.585938 4.398438 -26.65625 4.578125 -31 C 4.828125 -35.28125 5.898438 -39.390625 7.796875 -43.328125 C 9.691406 -47.273438 12.210938 -50.742188 15.359375 -53.734375 C 18.515625 -56.734375 22.09375 -59.046875 26.09375 -60.671875 C 30.09375 -62.296875 34.265625 -62.953125 38.609375 -62.640625 C 40.378906 -62.460938 41.800781 -61.867188 42.875 -60.859375 C 43.945312 -59.847656 44.648438 -58.65625 44.984375 -57.28125 C 45.328125 -55.90625 45.328125 -54.539062 44.984375 -53.1875 C 44.648438 -51.84375 43.945312 -50.742188 42.875 -49.890625 C 41.800781 -49.035156 40.378906 -48.703125 38.609375 -48.890625 C 35.429688 -49.128906 32.421875 -48.53125 29.578125 -47.09375 C 26.734375 -45.65625 24.332031 -43.648438 22.375 -41.078125 C 20.414062 -38.515625 19.164062 -35.675781 18.625 -32.5625 C 18.070312 -29.75 18.207031 -27.5 19.03125 -25.8125 C 19.851562 -24.132812 21.085938 -22.894531 22.734375 -22.09375 C 24.390625 -21.300781 26.269531 -20.8125 28.375 -20.625 C 30.488281 -20.445312 32.628906 -20.507812 34.796875 -20.8125 C 36.972656 -21.125 38.976562 -21.523438 40.8125 -22.015625 Z M 40.8125 -22.015625 "/></g></g></g><g fill="#000000" fill-opacity="1"><g transform="translate(129.120704, 323.415593)"><g><path d="M 39.34375 -64.109375 C 39.65625 -65.816406 40.359375 -67.066406 41.453125 -67.859375 C 42.554688 -68.660156 43.796875 -69.0625 45.171875 -69.0625 C 46.546875 -69.0625 47.859375 -68.691406 49.109375 -67.953125 C 50.367188 -67.222656 51.347656 -66.21875 52.046875 -64.9375 C 52.753906 -63.65625 52.925781 -62.15625 52.5625 -60.4375 C 49.257812 -43.5625 46.992188 -26.566406 45.765625 -9.453125 C 45.640625 -7.734375 45.070312 -6.335938 44.0625 -5.265625 C 43.0625 -4.203125 41.859375 -3.484375 40.453125 -3.109375 C 39.046875 -2.742188 37.679688 -2.742188 36.359375 -3.109375 C 35.046875 -3.484375 33.960938 -4.1875 33.109375 -5.21875 C 32.253906 -6.257812 31.890625 -7.671875 32.015625 -9.453125 C 32.191406 -12.316406 32.414062 -15.1875 32.6875 -18.0625 C 32.96875 -20.9375 33.257812 -23.8125 33.5625 -26.6875 L 21 -26.6875 C 20.570312 -23.019531 20.144531 -19.363281 19.71875 -15.71875 C 19.289062 -12.082031 18.863281 -8.460938 18.4375 -4.859375 C 18.1875 -3.085938 17.539062 -1.679688 16.5 -0.640625 C 15.46875 0.398438 14.25 1.085938 12.84375 1.421875 C 11.4375 1.753906 10.0625 1.753906 8.71875 1.421875 C 7.375 1.085938 6.300781 0.398438 5.5 -0.640625 C 4.707031 -1.679688 4.429688 -3.085938 4.671875 -4.859375 C 5.222656 -9.867188 5.804688 -14.894531 6.421875 -19.9375 C 7.035156 -24.988281 7.613281 -30.050781 8.15625 -35.125 C 8.46875 -37.507812 8.757812 -39.925781 9.03125 -42.375 C 9.3125 -44.820312 9.601562 -47.269531 9.90625 -49.71875 C 10.144531 -51.851562 10.34375 -54.113281 10.5 -56.5 C 10.65625 -58.882812 11.128906 -61.085938 11.921875 -63.109375 C 12.535156 -64.753906 13.46875 -65.957031 14.71875 -66.71875 C 15.96875 -67.488281 17.3125 -67.859375 18.75 -67.828125 C 20.1875 -67.796875 21.515625 -67.425781 22.734375 -66.71875 C 23.960938 -66.019531 24.835938 -65.054688 25.359375 -63.828125 C 25.878906 -62.609375 25.800781 -61.144531 25.125 -59.4375 C 24.394531 -57.476562 23.96875 -55.320312 23.84375 -52.96875 C 23.71875 -50.613281 23.535156 -48.394531 23.296875 -46.3125 C 23.171875 -45.332031 23.046875 -44.351562 22.921875 -43.375 C 22.804688 -42.40625 22.6875 -41.429688 22.5625 -40.453125 L 35.3125 -40.453125 C 35.863281 -44.359375 36.472656 -48.296875 37.140625 -52.265625 C 37.816406 -56.242188 38.550781 -60.191406 39.34375 -64.109375 Z M 39.34375 -64.109375 "/></g></g></g><g fill="#000000" fill-opacity="1"><g transform="translate(186.440071, 323.415593)"><g><path d="M 38.25 -19.359375 C 40.019531 -19.296875 41.4375 -18.773438 42.5 -17.796875 C 43.570312 -16.816406 44.273438 -15.640625 44.609375 -14.265625 C 44.953125 -12.890625 44.953125 -11.523438 44.609375 -10.171875 C 44.273438 -8.828125 43.570312 -7.710938 42.5 -6.828125 C 41.4375 -5.941406 40.019531 -5.53125 38.25 -5.59375 C 34.09375 -5.78125 29.929688 -5.765625 25.765625 -5.546875 C 21.609375 -5.335938 17.453125 -4.894531 13.296875 -4.21875 C 12.015625 -4.03125 10.671875 -4.164062 9.265625 -4.625 C 7.859375 -5.082031 6.679688 -5.832031 5.734375 -6.875 C 4.785156 -7.914062 4.429688 -9.265625 4.671875 -10.921875 C 5.710938 -19.359375 6.859375 -27.796875 8.109375 -36.234375 C 9.367188 -44.671875 10.734375 -53.109375 12.203125 -61.546875 C 12.378906 -62.585938 12.742188 -63.472656 13.296875 -64.203125 C 13.785156 -65.054688 14.488281 -65.773438 15.40625 -66.359375 C 16.320312 -66.941406 17.453125 -67.265625 18.796875 -67.328125 C 25.398438 -67.503906 32.003906 -67.378906 38.609375 -66.953125 C 40.378906 -66.828125 41.800781 -66.257812 42.875 -65.25 C 43.945312 -64.25 44.648438 -63.054688 44.984375 -61.671875 C 45.328125 -60.296875 45.328125 -58.9375 44.984375 -57.59375 C 44.648438 -56.25 43.945312 -55.148438 42.875 -54.296875 C 41.800781 -53.441406 40.378906 -53.078125 38.609375 -53.203125 C 34.085938 -53.503906 29.472656 -53.65625 24.765625 -53.65625 C 24.460938 -51.882812 24.15625 -50.109375 23.84375 -48.328125 C 23.539062 -46.554688 23.265625 -44.785156 23.015625 -43.015625 C 25.523438 -42.953125 27.941406 -42.800781 30.265625 -42.5625 C 32.097656 -42.375 33.703125 -41.679688 35.078125 -40.484375 C 36.453125 -39.296875 37.140625 -37.691406 37.140625 -35.671875 C 37.140625 -34.515625 36.816406 -33.382812 36.171875 -32.28125 C 35.535156 -31.1875 34.695312 -30.300781 33.65625 -29.625 C 32.613281 -28.945312 31.484375 -28.671875 30.265625 -28.796875 C 27.148438 -29.109375 24.03125 -29.265625 20.90625 -29.265625 C 20.664062 -27.546875 20.421875 -25.800781 20.171875 -24.03125 C 19.929688 -22.257812 19.6875 -20.515625 19.4375 -18.796875 C 22.5625 -19.109375 25.679688 -19.304688 28.796875 -19.390625 C 31.921875 -19.484375 35.070312 -19.472656 38.25 -19.359375 Z M 38.25 -19.359375 "/></g></g></g><g fill="#000000" fill-opacity="1"><g transform="translate(236.239147, 323.415593)"><g><path d="M 39.71875 -56.78125 C 42.832031 -53.96875 45.242188 -50.617188 46.953125 -46.734375 C 48.671875 -42.847656 49.285156 -38.765625 48.796875 -34.484375 C 48.367188 -30.941406 47.222656 -27.625 45.359375 -24.53125 C 43.492188 -21.445312 41.210938 -18.773438 38.515625 -16.515625 C 35.523438 -13.941406 31.992188 -11.875 27.921875 -10.3125 C 23.859375 -8.757812 19.960938 -7.367188 16.234375 -6.140625 C 15.191406 -5.773438 14.132812 -5.484375 13.0625 -5.265625 C 12 -5.054688 10.945312 -5.015625 9.90625 -5.140625 C 8.4375 -5.316406 7.164062 -6 6.09375 -7.1875 C 5.03125 -8.382812 4.523438 -9.71875 4.578125 -11.1875 C 5.015625 -27.820312 5.84375 -44.484375 7.0625 -61.171875 C 7.1875 -63.066406 7.8125 -64.394531 8.9375 -65.15625 C 10.070312 -65.925781 11.414062 -66.328125 12.96875 -66.359375 C 14.53125 -66.390625 16.046875 -66.28125 17.515625 -66.03125 C 18.367188 -65.914062 19.164062 -65.796875 19.90625 -65.671875 C 23.507812 -64.929688 26.992188 -63.90625 30.359375 -62.59375 C 33.722656 -61.28125 36.84375 -59.34375 39.71875 -56.78125 Z M 34.578125 -33.75 C 35.429688 -36.195312 35.566406 -38.425781 34.984375 -40.4375 C 34.410156 -42.457031 33.359375 -44.203125 31.828125 -45.671875 C 30.296875 -47.140625 28.488281 -48.363281 26.40625 -49.34375 C 24.332031 -50.320312 22.226562 -51.054688 20.09375 -51.546875 C 19.476562 -41.515625 18.988281 -31.546875 18.625 -21.640625 C 20.882812 -22.378906 23.066406 -23.222656 25.171875 -24.171875 C 27.285156 -25.117188 29.164062 -26.335938 30.8125 -27.828125 C 32.46875 -29.328125 33.722656 -31.300781 34.578125 -33.75 Z M 34.578125 -33.75 "/></g></g></g><g fill="#000000" fill-opacity="1"><g transform="translate(289.798363, 323.415593)"><g><path d="M 51 -56.046875 C 52.46875 -53.660156 53.472656 -50.984375 54.015625 -48.015625 C 54.566406 -45.046875 54.8125 -42.046875 54.75 -39.015625 C 54.695312 -35.992188 54.453125 -33.171875 54.015625 -30.546875 C 53.410156 -26.503906 52.160156 -22.679688 50.265625 -19.078125 C 48.367188 -15.472656 45.832031 -12.351562 42.65625 -9.71875 C 39.59375 -7.21875 36.039062 -5.382812 32 -4.21875 C 27.96875 -3.050781 24.023438 -3.082031 20.171875 -4.3125 C 17.609375 -5.101562 15.378906 -6.414062 13.484375 -8.25 C 11.585938 -10.082031 9.992188 -12.175781 8.703125 -14.53125 C 7.421875 -16.882812 6.476562 -19.285156 5.875 -21.734375 C 5.132812 -24.421875 4.703125 -27.523438 4.578125 -31.046875 C 4.460938 -34.566406 4.707031 -38.160156 5.3125 -41.828125 C 5.925781 -45.492188 6.9375 -48.914062 8.34375 -52.09375 C 9.75 -55.269531 11.644531 -57.898438 14.03125 -59.984375 C 16.476562 -62.492188 19.410156 -64.265625 22.828125 -65.296875 C 26.253906 -66.335938 29.769531 -66.691406 33.375 -66.359375 C 36.988281 -66.023438 40.351562 -64.984375 43.46875 -63.234375 C 46.59375 -61.492188 49.101562 -59.097656 51 -56.046875 Z M 34.296875 -20.359375 C 36.378906 -22.316406 37.925781 -24.59375 38.9375 -27.1875 C 39.945312 -29.789062 40.570312 -32.515625 40.8125 -35.359375 C 41.0625 -38.203125 41 -40.96875 40.625 -43.65625 C 40.257812 -46.34375 39.207031 -48.539062 37.46875 -50.25 C 35.726562 -51.96875 33.421875 -52.796875 30.546875 -52.734375 C 28.953125 -52.734375 27.40625 -52.335938 25.90625 -51.546875 C 24.40625 -50.753906 23.171875 -49.710938 22.203125 -48.421875 C 21.097656 -46.898438 20.300781 -45.066406 19.8125 -42.921875 C 19.320312 -40.785156 18.953125 -38.800781 18.703125 -36.96875 C 18.160156 -32.863281 18.378906 -28.828125 19.359375 -24.859375 C 19.660156 -23.691406 20.070312 -22.523438 20.59375 -21.359375 C 21.113281 -20.203125 21.863281 -19.257812 22.84375 -18.53125 C 24.425781 -17.363281 26.242188 -16.945312 28.296875 -17.28125 C 30.347656 -17.625 32.132812 -18.4375 33.65625 -19.71875 C 33.84375 -19.90625 34.054688 -20.117188 34.296875 -20.359375 Z M 34.296875 -20.359375 "/></g></g></g></svg>