<svg xmlns="http://www.w3.org/2000/svg" xmlns:xlink="http://www.w3.org/1999/xlink" width="220" zoomAndPan="magnify" viewBox="0 0 165 48.75" height="65" preserveAspectRatio="xMidYMid meet" version="1.0"><defs><g/></defs><g fill="#d9d9d9" fill-opacity="1"><g transform="translate(10.327958, 39.080789)"><g><path d="M 19.09375 -9.703125 C 19.976562 -9.671875 20.6875 -9.414062 21.21875 -8.9375 C 21.75 -8.46875 22.097656 -7.890625 22.265625 -7.203125 C 22.441406 -6.523438 22.441406 -5.84375 22.265625 -5.15625 C 22.097656 -4.46875 21.75 -3.898438 21.21875 -3.453125 C 20.6875 -3.015625 19.976562 -2.828125 19.09375 -2.890625 C 17.019531 -2.941406 14.941406 -2.921875 12.859375 -2.828125 C 10.785156 -2.742188 8.710938 -2.535156 6.640625 -2.203125 C 5.992188 -2.078125 5.320312 -2.128906 4.625 -2.359375 C 3.925781 -2.585938 3.335938 -2.957031 2.859375 -3.46875 C 2.390625 -3.988281 2.210938 -4.664062 2.328125 -5.5 C 2.847656 -9.738281 3.421875 -13.960938 4.046875 -18.171875 C 4.671875 -22.390625 5.351562 -26.585938 6.09375 -30.765625 C 6.175781 -31.285156 6.359375 -31.742188 6.640625 -32.140625 C 6.878906 -32.566406 7.226562 -32.914062 7.6875 -33.1875 C 8.144531 -33.46875 8.710938 -33.625 9.390625 -33.65625 C 12.679688 -33.769531 15.976562 -33.707031 19.28125 -33.46875 C 20.15625 -33.40625 20.859375 -33.117188 21.390625 -32.609375 C 21.929688 -32.109375 22.285156 -31.515625 22.453125 -30.828125 C 22.617188 -30.140625 22.617188 -29.460938 22.453125 -28.796875 C 22.285156 -28.128906 21.929688 -27.578125 21.390625 -27.140625 C 20.859375 -26.710938 20.15625 -26.53125 19.28125 -26.59375 C 17.019531 -26.75 14.710938 -26.828125 12.359375 -26.828125 C 12.203125 -25.941406 12.046875 -25.054688 11.890625 -24.171875 C 11.742188 -23.285156 11.609375 -22.398438 11.484375 -21.515625 C 12.742188 -21.484375 13.953125 -21.421875 15.109375 -21.328125 C 16.023438 -21.210938 16.828125 -20.863281 17.515625 -20.28125 C 18.203125 -19.695312 18.546875 -18.90625 18.546875 -17.90625 C 18.546875 -17.320312 18.382812 -16.753906 18.0625 -16.203125 C 17.738281 -15.648438 17.316406 -15.207031 16.796875 -14.875 C 16.273438 -14.539062 15.710938 -14.40625 15.109375 -14.46875 C 13.546875 -14.625 11.988281 -14.6875 10.4375 -14.65625 C 10.3125 -13.800781 10.1875 -12.9375 10.0625 -12.0625 C 9.945312 -11.195312 9.828125 -10.320312 9.703125 -9.4375 C 11.265625 -9.582031 12.820312 -9.6875 14.375 -9.75 C 15.925781 -9.8125 17.5 -9.796875 19.09375 -9.703125 Z M 19.09375 -9.703125 "/></g></g></g><g fill="#d9d9d9" fill-opacity="1"><g transform="translate(35.181653, 39.080789)"><g><path d="M 34.203125 -16.296875 C 34.234375 -13.703125 34.132812 -11.125 33.90625 -8.5625 C 33.675781 -6 33.4375 -3.4375 33.1875 -0.875 C 33.09375 0.0078125 32.796875 0.710938 32.296875 1.234375 C 31.796875 1.753906 31.191406 2.101562 30.484375 2.28125 C 29.785156 2.46875 29.097656 2.46875 28.421875 2.28125 C 27.753906 2.101562 27.210938 1.753906 26.796875 1.234375 C 26.390625 0.710938 26.234375 0.0078125 26.328125 -0.875 C 26.535156 -2.882812 26.757812 -4.957031 27 -7.09375 C 27.25 -9.226562 27.410156 -11.363281 27.484375 -13.5 C 27.566406 -15.632812 27.425781 -17.710938 27.0625 -19.734375 C 27 -20.097656 26.894531 -20.453125 26.75 -20.796875 C 26.613281 -21.148438 26.53125 -21.515625 26.5 -21.890625 C 26.164062 -21.515625 25.789062 -21.128906 25.375 -20.734375 C 24.96875 -20.335938 24.660156 -19.972656 24.453125 -19.640625 C 23.742188 -18.597656 23.195312 -17.503906 22.8125 -16.359375 C 22.4375 -15.222656 22.140625 -14.039062 21.921875 -12.8125 C 21.804688 -12.050781 21.488281 -11.472656 20.96875 -11.078125 C 20.445312 -10.679688 19.847656 -10.453125 19.171875 -10.390625 C 18.503906 -10.328125 17.847656 -10.414062 17.203125 -10.65625 C 16.566406 -10.90625 16.050781 -11.289062 15.65625 -11.8125 C 15.257812 -12.332031 15.109375 -12.972656 15.203125 -13.734375 C 15.265625 -14.554688 15.316406 -15.378906 15.359375 -16.203125 C 15.398438 -17.023438 15.40625 -17.863281 15.375 -18.71875 C 15.375 -19 15.378906 -19.390625 15.390625 -19.890625 C 15.410156 -20.390625 15.398438 -20.875 15.359375 -21.34375 C 15.316406 -21.820312 15.1875 -22.1875 14.96875 -22.4375 C 14.90625 -22.519531 14.890625 -22.59375 14.921875 -22.65625 C 14.828125 -22.625 14.796875 -22.625 14.828125 -22.65625 C 14.554688 -22.570312 14.289062 -22.300781 14.03125 -21.84375 C 13.769531 -21.382812 13.578125 -21.0625 13.453125 -20.875 C 13.117188 -20.320312 12.820312 -19.75 12.5625 -19.15625 C 12.300781 -18.5625 12.066406 -17.957031 11.859375 -17.34375 C 10.847656 -14.632812 10.191406 -11.828125 9.890625 -8.921875 C 9.585938 -6.023438 9.34375 -3.144531 9.15625 -0.28125 C 9.09375 0.601562 8.816406 1.3125 8.328125 1.84375 C 7.835938 2.382812 7.25 2.738281 6.5625 2.90625 C 5.882812 3.070312 5.207031 3.070312 4.53125 2.90625 C 3.863281 2.738281 3.304688 2.382812 2.859375 1.84375 C 2.421875 1.3125 2.226562 0.601562 2.28125 -0.28125 C 2.4375 -2.65625 2.617188 -5.046875 2.828125 -7.453125 C 3.046875 -9.867188 3.414062 -12.253906 3.9375 -14.609375 C 4.238281 -16.035156 4.640625 -17.523438 5.140625 -19.078125 C 5.648438 -20.640625 6.28125 -22.144531 7.03125 -23.59375 C 7.78125 -25.050781 8.6875 -26.296875 9.75 -27.328125 C 10.757812 -28.335938 11.941406 -29.007812 13.296875 -29.34375 C 14.660156 -29.675781 15.988281 -29.644531 17.28125 -29.25 C 18.582031 -28.851562 19.660156 -28.015625 20.515625 -26.734375 C 20.546875 -26.671875 20.585938 -26.59375 20.640625 -26.5 C 20.703125 -26.414062 20.75 -26.328125 20.78125 -26.234375 C 21.664062 -27.296875 22.632812 -28.140625 23.6875 -28.765625 C 24.738281 -29.398438 25.828125 -29.675781 26.953125 -29.59375 C 28.085938 -29.519531 29.25 -28.960938 30.4375 -27.921875 C 31.507812 -27.003906 32.304688 -25.890625 32.828125 -24.578125 C 33.347656 -23.265625 33.695312 -21.882812 33.875 -20.4375 C 34.0625 -18.988281 34.171875 -17.609375 34.203125 -16.296875 Z M 34.203125 -16.296875 "/></g></g></g><g fill="#d9d9d9" fill-opacity="1"><g transform="translate(71.661206, 39.080789)"><g><path d="M 18.5 -31.21875 C 19.957031 -30.644531 21.289062 -29.867188 22.5 -28.890625 C 23.707031 -27.910156 24.679688 -26.796875 25.421875 -25.546875 C 26.171875 -24.296875 26.597656 -22.9375 26.703125 -21.46875 C 26.816406 -20.007812 26.507812 -18.484375 25.78125 -16.890625 C 24.832031 -14.941406 23.515625 -13.398438 21.828125 -12.265625 C 20.148438 -11.140625 18.296875 -10.40625 16.265625 -10.0625 C 14.242188 -9.726562 12.238281 -9.804688 10.25 -10.296875 C 10.070312 -8.554688 9.890625 -6.816406 9.703125 -5.078125 C 9.523438 -3.335938 9.34375 -1.597656 9.15625 0.140625 C 9.0625 1.023438 8.765625 1.722656 8.265625 2.234375 C 7.765625 2.753906 7.160156 3.109375 6.453125 3.296875 C 5.753906 3.484375 5.066406 3.484375 4.390625 3.296875 C 3.722656 3.109375 3.191406 2.753906 2.796875 2.234375 C 2.398438 1.722656 2.226562 1.023438 2.28125 0.140625 C 2.71875 -3.953125 3.132812 -8.054688 3.53125 -12.171875 C 3.925781 -16.296875 4.351562 -20.40625 4.8125 -24.5 C 5.019531 -26.113281 5.457031 -27.566406 6.125 -28.859375 C 6.800781 -30.160156 7.945312 -31.113281 9.5625 -31.71875 C 11 -32.269531 12.503906 -32.460938 14.078125 -32.296875 C 15.648438 -32.128906 17.125 -31.769531 18.5 -31.21875 Z M 10.9375 -17.21875 C 11.707031 -17 12.578125 -16.863281 13.546875 -16.8125 C 14.523438 -16.769531 15.488281 -16.867188 16.4375 -17.109375 C 17.382812 -17.359375 18.175781 -17.78125 18.8125 -18.375 C 19.457031 -18.976562 19.828125 -19.8125 19.921875 -20.875 C 19.972656 -21.550781 19.738281 -22.191406 19.21875 -22.796875 C 18.707031 -23.410156 18.039062 -23.953125 17.21875 -24.421875 C 16.394531 -24.898438 15.566406 -25.238281 14.734375 -25.4375 C 13.910156 -25.632812 13.210938 -25.640625 12.640625 -25.453125 C 12.296875 -25.359375 12.085938 -25.296875 12.015625 -25.265625 C 11.941406 -25.234375 11.90625 -25.164062 11.90625 -25.0625 C 11.90625 -24.957031 11.828125 -24.769531 11.671875 -24.5 C 11.492188 -24.070312 11.40625 -23.519531 11.40625 -22.84375 C 11.40625 -22.175781 11.390625 -21.597656 11.359375 -21.109375 C 11.296875 -20.460938 11.222656 -19.8125 11.140625 -19.15625 C 11.066406 -18.5 11 -17.851562 10.9375 -17.21875 Z M 10.9375 -17.21875 "/></g></g></g><g fill="#d9d9d9" fill-opacity="1"><g transform="translate(100.68008, 39.080789)"><g><path d="M 20.875 -31.453125 C 21.726562 -31.328125 22.414062 -31.003906 22.9375 -30.484375 C 23.457031 -29.972656 23.804688 -29.363281 23.984375 -28.65625 C 24.171875 -27.957031 24.171875 -27.269531 23.984375 -26.59375 C 23.804688 -25.925781 23.457031 -25.398438 22.9375 -25.015625 C 22.414062 -24.640625 21.726562 -24.492188 20.875 -24.578125 C 19.46875 -24.765625 18.003906 -24.90625 16.484375 -25 C 16.265625 -21.664062 16.054688 -18.335938 15.859375 -15.015625 C 15.660156 -11.691406 15.457031 -8.347656 15.25 -4.984375 C 15.21875 -4.128906 14.945312 -3.4375 14.4375 -2.90625 C 13.9375 -2.375 13.34375 -2.015625 12.65625 -1.828125 C 11.96875 -1.648438 11.285156 -1.648438 10.609375 -1.828125 C 9.941406 -2.015625 9.394531 -2.363281 8.96875 -2.875 C 8.539062 -3.394531 8.34375 -4.097656 8.375 -4.984375 C 8.59375 -8.347656 8.800781 -11.695312 9 -15.03125 C 9.195312 -18.375 9.398438 -21.726562 9.609375 -25.09375 C 8.234375 -25.03125 6.890625 -24.9375 5.578125 -24.8125 C 4.691406 -24.71875 3.984375 -24.875 3.453125 -25.28125 C 2.921875 -25.695312 2.570312 -26.238281 2.40625 -26.90625 C 2.238281 -27.582031 2.242188 -28.265625 2.421875 -28.953125 C 2.609375 -29.640625 2.957031 -30.242188 3.46875 -30.765625 C 3.988281 -31.285156 4.691406 -31.59375 5.578125 -31.6875 C 10.679688 -32.195312 15.78125 -32.117188 20.875 -31.453125 Z M 20.875 -31.453125 "/></g></g></g><g fill="#d9d9d9" fill-opacity="1"><g transform="translate(127.089995, 39.080789)"><g><path d="M 18.5 -31.3125 C 18.59375 -32.195312 18.90625 -32.859375 19.4375 -33.296875 C 19.96875 -33.742188 20.578125 -34 21.265625 -34.0625 C 21.953125 -34.125 22.625 -34 23.28125 -33.6875 C 23.9375 -33.382812 24.453125 -32.925781 24.828125 -32.3125 C 25.210938 -31.707031 25.34375 -30.976562 25.21875 -30.125 C 24.976562 -28.132812 24.75 -26.035156 24.53125 -23.828125 C 24.320312 -21.617188 24.007812 -19.398438 23.59375 -17.171875 C 23.1875 -14.941406 22.59375 -12.816406 21.8125 -10.796875 C 21.03125 -8.785156 19.96875 -6.976562 18.625 -5.375 C 17.289062 -3.769531 15.566406 -2.484375 13.453125 -1.515625 C 12.660156 -1.148438 11.9375 -1.070312 11.28125 -1.28125 C 10.625 -1.5 10.097656 -1.890625 9.703125 -2.453125 C 9.304688 -3.015625 9.066406 -3.65625 8.984375 -4.375 C 8.910156 -5.09375 9.035156 -5.78125 9.359375 -6.4375 C 9.679688 -7.09375 10.238281 -7.585938 11.03125 -7.921875 C 12.070312 -8.410156 12.921875 -9.066406 13.578125 -9.890625 C 14.234375 -10.710938 14.757812 -11.628906 15.15625 -12.640625 C 13.90625 -12.210938 12.628906 -12.003906 11.328125 -12.015625 C 10.035156 -12.035156 8.765625 -12.363281 7.515625 -13 C 5.859375 -13.820312 4.625 -14.976562 3.8125 -16.46875 C 3.007812 -17.96875 2.53125 -19.609375 2.375 -21.390625 C 2.226562 -23.179688 2.3125 -24.96875 2.625 -26.75 C 2.945312 -28.539062 3.429688 -30.15625 4.078125 -31.59375 C 4.410156 -32.414062 4.894531 -32.96875 5.53125 -33.25 C 6.175781 -33.539062 6.84375 -33.625 7.53125 -33.5 C 8.21875 -33.382812 8.832031 -33.097656 9.375 -32.640625 C 9.925781 -32.179688 10.300781 -31.613281 10.5 -30.9375 C 10.695312 -30.269531 10.628906 -29.523438 10.296875 -28.703125 C 10.054688 -28.179688 9.8125 -27.476562 9.5625 -26.59375 C 9.320312 -25.707031 9.144531 -24.773438 9.03125 -23.796875 C 8.925781 -22.828125 8.96875 -21.929688 9.15625 -21.109375 C 9.34375 -20.285156 9.769531 -19.660156 10.4375 -19.234375 C 11.050781 -18.804688 11.710938 -18.664062 12.421875 -18.8125 C 13.140625 -18.96875 13.828125 -19.296875 14.484375 -19.796875 C 15.140625 -20.304688 15.726562 -20.878906 16.25 -21.515625 C 16.769531 -22.160156 17.179688 -22.738281 17.484375 -23.25 C 17.671875 -24.59375 17.835938 -25.9375 17.984375 -27.28125 C 18.140625 -28.625 18.3125 -29.96875 18.5 -31.3125 Z M 18.5 -31.3125 "/></g></g></g></svg>