<svg xmlns="http://www.w3.org/2000/svg" xmlns:xlink="http://www.w3.org/1999/xlink" width="100" zoomAndPan="magnify" viewBox="0 0 75 30.000001" height="40" preserveAspectRatio="xMidYMid meet" version="1.0"><defs><g/></defs><g fill="#ffffff" fill-opacity="1"><g transform="translate(4.353892, 22.620385)"><g><path d="M 10.515625 -7.703125 C 10.972656 -7.734375 11.335938 -7.640625 11.609375 -7.421875 C 11.878906 -7.203125 12.0625 -6.914062 12.15625 -6.5625 C 12.25 -6.21875 12.25 -5.863281 12.15625 -5.5 C 12.0625 -5.132812 11.875 -4.820312 11.59375 -4.5625 C 11.3125 -4.300781 10.953125 -4.15625 10.515625 -4.125 C 9.304688 -4.03125 8.113281 -3.875 6.9375 -3.65625 C 5.769531 -3.4375 4.609375 -3.160156 3.453125 -2.828125 C 3.117188 -2.734375 2.769531 -2.753906 2.40625 -2.890625 C 2.039062 -3.023438 1.738281 -3.238281 1.5 -3.53125 C 1.257812 -3.832031 1.15625 -4.179688 1.1875 -4.578125 C 1.382812 -6.429688 1.570312 -8.285156 1.75 -10.140625 C 1.9375 -12.003906 2.113281 -13.863281 2.28125 -15.71875 C 2.332031 -16.164062 2.492188 -16.53125 2.765625 -16.8125 C 3.035156 -17.09375 3.351562 -17.273438 3.71875 -17.359375 C 4.082031 -17.441406 4.4375 -17.441406 4.78125 -17.359375 C 5.125 -17.273438 5.398438 -17.09375 5.609375 -16.8125 C 5.828125 -16.53125 5.910156 -16.164062 5.859375 -15.71875 C 5.710938 -14.25 5.566406 -12.78125 5.421875 -11.3125 C 5.285156 -9.84375 5.144531 -8.375 5 -6.90625 C 6.800781 -7.289062 8.640625 -7.554688 10.515625 -7.703125 Z M 10.515625 -7.703125 "/></g></g></g><g fill="#ffffff" fill-opacity="1"><g transform="translate(17.76841, 22.620385)"><g><path d="M 13.25 -14.5625 C 13.625 -13.9375 13.882812 -13.238281 14.03125 -12.46875 C 14.175781 -11.695312 14.238281 -10.914062 14.21875 -10.125 C 14.207031 -9.34375 14.144531 -8.613281 14.03125 -7.9375 C 13.875 -6.882812 13.546875 -5.890625 13.046875 -4.953125 C 12.554688 -4.015625 11.898438 -3.207031 11.078125 -2.53125 C 10.285156 -1.875 9.363281 -1.394531 8.3125 -1.09375 C 7.269531 -0.789062 6.242188 -0.800781 5.234375 -1.125 C 4.566406 -1.320312 3.988281 -1.660156 3.5 -2.140625 C 3.007812 -2.617188 2.597656 -3.160156 2.265625 -3.765625 C 1.929688 -4.378906 1.6875 -5.003906 1.53125 -5.640625 C 1.332031 -6.347656 1.21875 -7.15625 1.1875 -8.0625 C 1.15625 -8.976562 1.21875 -9.910156 1.375 -10.859375 C 1.539062 -11.816406 1.804688 -12.707031 2.171875 -13.53125 C 2.535156 -14.351562 3.023438 -15.035156 3.640625 -15.578125 C 4.273438 -16.234375 5.035156 -16.695312 5.921875 -16.96875 C 6.816406 -17.238281 7.734375 -17.328125 8.671875 -17.234375 C 9.609375 -17.148438 10.484375 -16.878906 11.296875 -16.421875 C 12.109375 -15.972656 12.757812 -15.351562 13.25 -14.5625 Z M 8.90625 -5.296875 C 9.445312 -5.796875 9.847656 -6.382812 10.109375 -7.0625 C 10.378906 -7.738281 10.546875 -8.445312 10.609375 -9.1875 C 10.671875 -9.925781 10.65625 -10.644531 10.5625 -11.34375 C 10.457031 -12.039062 10.175781 -12.609375 9.71875 -13.046875 C 9.269531 -13.492188 8.675781 -13.710938 7.9375 -13.703125 C 7.519531 -13.703125 7.113281 -13.597656 6.71875 -13.390625 C 6.332031 -13.179688 6.015625 -12.910156 5.765625 -12.578125 C 5.484375 -12.179688 5.273438 -11.703125 5.140625 -11.140625 C 5.015625 -10.585938 4.921875 -10.078125 4.859375 -9.609375 C 4.710938 -8.535156 4.769531 -7.484375 5.03125 -6.453125 C 5.101562 -6.148438 5.207031 -5.847656 5.34375 -5.546875 C 5.476562 -5.242188 5.675781 -5 5.9375 -4.8125 C 6.34375 -4.507812 6.8125 -4.398438 7.34375 -4.484375 C 7.882812 -4.578125 8.351562 -4.789062 8.75 -5.125 C 8.789062 -5.164062 8.84375 -5.222656 8.90625 -5.296875 Z M 8.90625 -5.296875 "/></g></g></g><g fill="#ffffff" fill-opacity="1"><g transform="translate(33.184377, 22.620385)"><g><path d="M 10.8125 -9.9375 C 11.882812 -9.945312 12.703125 -9.691406 13.265625 -9.171875 C 13.835938 -8.648438 14.101562 -7.84375 14.0625 -6.75 C 14.03125 -5.789062 13.785156 -4.878906 13.328125 -4.015625 C 12.878906 -3.148438 12.265625 -2.445312 11.484375 -1.90625 C 10.628906 -1.300781 9.695312 -0.984375 8.6875 -0.953125 C 7.675781 -0.921875 6.6875 -1.046875 5.71875 -1.328125 C 4.539062 -1.660156 3.601562 -2.179688 2.90625 -2.890625 C 2.207031 -3.597656 1.726562 -4.425781 1.46875 -5.375 C 1.207031 -6.332031 1.125 -7.332031 1.21875 -8.375 C 1.320312 -9.425781 1.582031 -10.46875 2 -11.5 C 2.425781 -12.539062 2.972656 -13.492188 3.640625 -14.359375 C 4.304688 -15.234375 5.070312 -15.96875 5.9375 -16.5625 C 6.8125 -17.164062 7.75 -17.550781 8.75 -17.71875 C 9.757812 -17.894531 10.796875 -17.796875 11.859375 -17.421875 C 12.304688 -17.273438 12.625 -17.039062 12.8125 -16.71875 C 13.007812 -16.394531 13.101562 -16.046875 13.09375 -15.671875 C 13.082031 -15.296875 12.988281 -14.953125 12.8125 -14.640625 C 12.644531 -14.328125 12.394531 -14.097656 12.0625 -13.953125 C 11.738281 -13.816406 11.363281 -13.828125 10.9375 -13.984375 C 10.175781 -14.242188 9.441406 -14.238281 8.734375 -13.96875 C 8.023438 -13.707031 7.378906 -13.265625 6.796875 -12.640625 C 6.222656 -12.023438 5.753906 -11.320312 5.390625 -10.53125 C 5.023438 -9.75 4.800781 -8.957031 4.71875 -8.15625 C 4.632812 -7.351562 4.742188 -6.644531 5.046875 -6.03125 C 5.222656 -5.664062 5.503906 -5.351562 5.890625 -5.09375 C 6.285156 -4.84375 6.722656 -4.664062 7.203125 -4.5625 C 7.691406 -4.457031 8.160156 -4.441406 8.609375 -4.515625 C 9.066406 -4.585938 9.445312 -4.773438 9.75 -5.078125 C 9.96875 -5.316406 10.148438 -5.601562 10.296875 -5.9375 C 10.304688 -5.976562 10.316406 -6.035156 10.328125 -6.109375 C 10.335938 -6.179688 10.347656 -6.257812 10.359375 -6.34375 C 10.347656 -6.34375 10.328125 -6.34375 10.296875 -6.34375 C 10.273438 -6.34375 10.257812 -6.34375 10.25 -6.34375 C 10.1875 -6.34375 10.125 -6.34375 10.0625 -6.34375 C 10.007812 -6.34375 9.953125 -6.34375 9.890625 -6.34375 C 9.617188 -6.050781 9.269531 -5.867188 8.84375 -5.796875 C 8.414062 -5.722656 8 -5.78125 7.59375 -5.96875 C 7.1875 -6.15625 6.894531 -6.492188 6.71875 -6.984375 C 6.476562 -7.660156 6.46875 -8.195312 6.6875 -8.59375 C 6.914062 -9 7.269531 -9.289062 7.75 -9.46875 C 8.238281 -9.65625 8.765625 -9.773438 9.328125 -9.828125 C 9.890625 -9.878906 10.382812 -9.914062 10.8125 -9.9375 Z M 10.8125 -9.9375 "/></g></g></g><g fill="#ffffff" fill-opacity="1"><g transform="translate(48.433555, 22.620385)"><g><path d="M 2.265625 -14.671875 C 2.304688 -15.117188 2.460938 -15.476562 2.734375 -15.75 C 3.003906 -16.019531 3.320312 -16.203125 3.6875 -16.296875 C 4.050781 -16.390625 4.410156 -16.390625 4.765625 -16.296875 C 5.117188 -16.210938 5.394531 -16.03125 5.59375 -15.75 C 5.800781 -15.476562 5.882812 -15.117188 5.84375 -14.671875 C 5.375 -10.367188 5.015625 -6.054688 4.765625 -1.734375 C 4.734375 -1.273438 4.585938 -0.90625 4.328125 -0.625 C 4.078125 -0.351562 3.773438 -0.171875 3.421875 -0.078125 C 3.066406 0.00390625 2.710938 0.00390625 2.359375 -0.078125 C 2.003906 -0.171875 1.710938 -0.351562 1.484375 -0.625 C 1.253906 -0.90625 1.15625 -1.273438 1.1875 -1.734375 C 1.445312 -6.054688 1.804688 -10.367188 2.265625 -14.671875 Z M 2.265625 -14.671875 "/></g></g></g><g fill="#ffffff" fill-opacity="1"><g transform="translate(55.486301, 22.620385)"><g><path d="M 10.484375 -14.4375 C 10.546875 -14.882812 10.710938 -15.207031 10.984375 -15.40625 C 11.253906 -15.613281 11.566406 -15.71875 11.921875 -15.71875 C 12.285156 -15.71875 12.632812 -15.625 12.96875 -15.4375 C 13.300781 -15.25 13.5625 -14.988281 13.75 -14.65625 C 13.9375 -14.320312 14 -13.929688 13.9375 -13.484375 C 13.289062 -9.097656 12.484375 -4.742188 11.515625 -0.421875 C 11.429688 -0.078125 11.25 0.203125 10.96875 0.421875 C 10.695312 0.648438 10.375 0.789062 10 0.84375 C 9.632812 0.894531 9.289062 0.851562 8.96875 0.71875 C 8.644531 0.59375 8.40625 0.351562 8.25 0 C 7.882812 -0.875 7.507812 -1.742188 7.125 -2.609375 C 6.738281 -3.472656 6.359375 -4.332031 5.984375 -5.1875 C 5.742188 -4.15625 5.507812 -3.117188 5.28125 -2.078125 C 5.0625 -1.046875 4.859375 -0.0078125 4.671875 1.03125 C 4.585938 1.488281 4.398438 1.816406 4.109375 2.015625 C 3.828125 2.222656 3.507812 2.320312 3.15625 2.3125 C 2.800781 2.3125 2.457031 2.21875 2.125 2.03125 C 1.800781 1.851562 1.546875 1.597656 1.359375 1.265625 C 1.179688 0.929688 1.140625 0.535156 1.234375 0.078125 C 1.929688 -3.703125 2.789062 -7.453125 3.8125 -11.171875 C 3.90625 -11.503906 4.09375 -11.78125 4.375 -12 C 4.664062 -12.226562 4.988281 -12.375 5.34375 -12.4375 C 5.707031 -12.5 6.046875 -12.46875 6.359375 -12.34375 C 6.679688 -12.21875 6.921875 -11.972656 7.078125 -11.609375 L 9.171875 -6.765625 C 9.429688 -8.035156 9.664062 -9.3125 9.875 -10.59375 C 10.09375 -11.875 10.296875 -13.15625 10.484375 -14.4375 Z M 10.484375 -14.4375 "/></g></g></g></svg>