<svg xmlns="http://www.w3.org/2000/svg" xmlns:xlink="http://www.w3.org/1999/xlink" width="200" zoomAndPan="magnify" viewBox="0 0 150 37.5" height="50" preserveAspectRatio="xMidYMid meet" version="1.0"><defs><g/><clipPath id="4cc3ceab5a"><path d="M 33 13 L 37.253906 13 L 37.253906 15 L 33 15 Z M 33 13 " clip-rule="nonzero"/></clipPath><clipPath id="d8adb75169"><path d="M 2.46875 13 L 6 13 L 6 17 L 2.46875 17 Z M 2.46875 13 " clip-rule="nonzero"/></clipPath></defs><g clip-path="url(#4cc3ceab5a)"><path fill="#000000" d="M 36.714844 13.992188 C 35.652344 13.671875 34.566406 13.972656 33.484375 13.988281 C 32.957031 13.996094 33.023438 14.816406 33.550781 14.808594 C 34.554688 14.792969 35.570312 14.5 36.554688 14.800781 C 37.0625 14.953125 37.214844 14.144531 36.714844 13.992188 Z M 36.714844 13.992188 " fill-opacity="1" fill-rule="nonzero"/></g><path fill="#000000" d="M 34.28125 22.152344 C 33.910156 21.773438 33.371094 22.394531 33.738281 22.769531 C 34.28125 23.316406 34.882812 23.980469 34.914062 24.792969 C 34.933594 25.324219 35.753906 25.261719 35.730469 24.730469 C 35.6875 23.695312 34.972656 22.855469 34.28125 22.152344 Z M 34.28125 22.152344 " fill-opacity="1" fill-rule="nonzero"/><path fill="#73a0b1" d="M 25.695312 27.542969 C 25.644531 27.46875 25.582031 27.40625 25.507812 27.351562 C 24.867188 26.832031 23.835938 26.839844 23.050781 26.816406 C 21.960938 26.785156 20.871094 26.703125 19.789062 26.84375 C 19.285156 26.910156 18.792969 27.050781 18.289062 27.089844 C 17.933594 27.117188 17.570312 27.128906 17.214844 27.15625 C 16.820312 27.191406 16.398438 27.21875 16.03125 27.375 C 15.730469 27.503906 15.636719 27.894531 16.074219 27.839844 C 16.210938 27.8125 16.320312 27.851562 16.410156 27.957031 C 16.671875 27.957031 16.9375 27.957031 17.199219 27.953125 C 18.539062 27.933594 19.875 27.902344 21.210938 27.964844 C 22 28.003906 22.78125 28.113281 23.570312 28.050781 C 24.132812 28.003906 24.722656 27.949219 25.261719 27.765625 C 25.375 27.734375 25.484375 27.6875 25.589844 27.632812 C 25.628906 27.609375 25.667969 27.582031 25.703125 27.554688 C 25.691406 27.558594 25.691406 27.554688 25.695312 27.546875 Z M 25.695312 27.542969 " fill-opacity="1" fill-rule="nonzero"/><path fill="#fdbe10" d="M 21.945312 21.25 C 22.199219 20.222656 22.5625 19.238281 23.03125 18.289062 C 22.847656 18.210938 22.683594 18.101562 22.539062 17.957031 C 22.101562 18.175781 21.648438 18.210938 21.179688 18.058594 C 20.941406 17.984375 20.714844 17.878906 20.507812 17.734375 C 20.109375 17.910156 19.65625 17.929688 19.21875 17.9375 L 18.96875 17.9375 C 20.21875 20.34375 20.472656 23.320312 20.480469 25.945312 L 20.480469 25.953125 C 20.582031 25.949219 20.683594 25.941406 20.785156 25.941406 C 20.949219 25.941406 21.109375 25.941406 21.265625 25.945312 C 21.148438 25.84375 21.105469 25.71875 21.144531 25.570312 C 21.425781 24.132812 21.597656 22.671875 21.945312 21.25 Z M 21.945312 21.25 " fill-opacity="1" fill-rule="nonzero"/><path fill="#73a0b1" d="M 24.253906 33.839844 C 23.972656 33.832031 23.765625 33.609375 23.824219 33.339844 C 23.804688 33.34375 23.78125 33.347656 23.761719 33.347656 C 22.132812 33.351562 20.507812 33.511719 18.878906 33.472656 C 18.203125 33.453125 17.222656 33.464844 16.496094 33.144531 C 16.277344 33.917969 16.488281 34.78125 17.394531 35.019531 C 18.445312 35.296875 19.535156 34.972656 20.601562 34.996094 C 21.183594 35.007812 21.765625 35.0625 22.347656 35.070312 C 22.859375 35.078125 23.488281 35.113281 23.964844 34.890625 C 24.265625 34.742188 24.484375 34.511719 24.613281 34.199219 C 24.730469 33.894531 24.535156 33.847656 24.253906 33.839844 Z M 24.253906 33.839844 " fill-opacity="1" fill-rule="nonzero"/><path fill="#fdbe10" d="M 20.476562 15.367188 C 20.234375 15.695312 20.371094 16.230469 20.535156 16.5625 C 20.554688 16.601562 20.578125 16.636719 20.597656 16.675781 L 20.652344 16.621094 C 20.925781 16.351562 21.445312 15.851562 21.421875 15.421875 C 21.398438 15.066406 20.644531 15.144531 20.476562 15.367188 Z M 20.476562 15.367188 " fill-opacity="1" fill-rule="nonzero"/><path fill="#73a0b1" d="M 24.25 31.191406 C 24.207031 31.121094 24.1875 31.046875 24.183594 30.964844 C 23.75 31.167969 23.207031 31.203125 22.75 31.230469 C 22.097656 31.273438 21.445312 31.261719 20.785156 31.25 C 19.363281 31.230469 17.808594 31.320312 16.507812 30.660156 C 16.304688 30.886719 16.152344 31.140625 16.046875 31.425781 C 15.96875 31.65625 15.996094 31.804688 16.113281 31.90625 C 16.230469 31.898438 16.328125 31.941406 16.402344 32.03125 L 16.429688 32.039062 C 16.597656 32.078125 16.703125 32.179688 16.753906 32.347656 C 17.023438 32.484375 17.378906 32.527344 17.636719 32.558594 C 18.1875 32.628906 18.738281 32.660156 19.289062 32.652344 C 20.761719 32.652344 22.230469 32.527344 23.699219 32.523438 C 23.886719 32.519531 24.015625 32.601562 24.085938 32.777344 C 24.351562 32.265625 24.597656 31.722656 24.25 31.191406 Z M 24.25 31.191406 " fill-opacity="1" fill-rule="nonzero"/><path fill="#73a0b1" d="M 24.375 28.847656 C 24.363281 28.828125 24.347656 28.8125 24.339844 28.792969 C 23.953125 28.847656 23.5625 28.882812 23.175781 28.898438 C 22.773438 28.914062 22.375 28.851562 21.976562 28.824219 C 21.308594 28.78125 20.640625 28.757812 19.976562 28.75 C 18.902344 28.742188 17.832031 28.765625 16.757812 28.773438 C 16.652344 28.859375 16.53125 28.890625 16.398438 28.871094 C 16.261719 29.132812 16.167969 29.453125 16.296875 29.664062 C 16.382812 29.65625 16.464844 29.675781 16.535156 29.726562 C 17.796875 30.535156 19.375 30.40625 20.808594 30.429688 C 21.402344 30.441406 21.996094 30.453125 22.589844 30.414062 C 23.027344 30.390625 23.625 30.398438 23.996094 30.125 C 24.277344 29.917969 24.574219 30.144531 24.621094 30.414062 C 24.984375 29.980469 24.71875 29.296875 24.375 28.847656 Z M 24.375 28.847656 " fill-opacity="1" fill-rule="nonzero"/><path fill="#fdbe10" d="M 30.464844 14.757812 C 30.328125 12.960938 30 10.941406 28.914062 9.445312 C 27.640625 7.6875 25.578125 7.375 23.546875 7.207031 C 22.253906 7.113281 20.957031 7.089844 19.65625 7.140625 C 18.613281 7.175781 17.570312 7.234375 16.5625 7.535156 C 14.835938 8.054688 13.433594 9.132812 12.414062 10.621094 C 11.8125 11.503906 11.25 12.480469 10.980469 13.519531 C 10.699219 14.628906 10.605469 15.757812 10.707031 16.898438 C 10.882812 19.039062 11.390625 21.53125 13.3125 22.789062 C 14.109375 23.308594 15.011719 23.734375 15.625 24.484375 C 16.011719 24.957031 16.261719 25.570312 16.488281 26.132812 C 16.527344 26.21875 16.53125 26.300781 16.507812 26.386719 C 16.949219 26.320312 17.414062 26.316406 17.8125 26.292969 C 18.4375 26.261719 19.042969 26.140625 19.65625 26.046875 L 19.65625 26.007812 C 19.65625 24.363281 19.546875 22.695312 19.179688 21.089844 C 18.925781 19.980469 18.566406 18.851562 17.988281 17.859375 C 17.789062 17.820312 17.601562 17.75 17.421875 17.652344 C 16.886719 17.335938 16.761719 16.785156 17.074219 16.246094 C 17.195312 16.042969 17.523438 15.910156 17.714844 16.121094 C 17.988281 16.425781 18.238281 16.746094 18.464844 17.085938 C 18.855469 17.128906 19.25 17.128906 19.644531 17.085938 C 19.726562 17.078125 19.804688 17.070312 19.875 17.058594 C 19.804688 16.941406 19.746094 16.816406 19.699219 16.6875 C 19.480469 16.109375 19.433594 15.390625 19.820312 14.871094 C 20.226562 14.328125 21.070312 14.222656 21.660156 14.515625 C 22.285156 14.824219 22.347656 15.503906 22.0625 16.085938 C 21.855469 16.507812 21.582031 16.882812 21.238281 17.210938 C 21.539062 17.308594 21.835938 17.300781 22.128906 17.179688 C 21.929688 16.238281 22.453125 15.023438 23.59375 15.371094 C 23.757812 15.417969 23.929688 15.550781 23.925781 15.742188 C 23.894531 16.402344 23.652344 16.972656 23.203125 17.453125 C 23.269531 17.503906 23.335938 17.539062 23.414062 17.5625 C 23.640625 17.140625 23.910156 16.746094 24.222656 16.378906 C 24.605469 15.941406 25.257812 15.5625 25.710938 16.160156 C 26.105469 16.679688 25.386719 17.417969 25.042969 17.738281 C 24.699219 18.058594 24.332031 18.324219 23.890625 18.394531 C 23.628906 18.867188 23.402344 19.359375 23.207031 19.867188 C 22.515625 21.75 22.332031 23.765625 21.949219 25.722656 C 21.929688 25.820312 21.882812 25.902344 21.808594 25.960938 C 22.019531 25.972656 22.230469 25.980469 22.445312 25.984375 C 22.890625 25.988281 23.339844 26 23.785156 26.035156 C 24.195312 26.058594 24.597656 26.117188 24.992188 26.210938 C 25.523438 24.0625 28.011719 22.988281 29.105469 21.179688 C 30.285156 19.238281 30.640625 17 30.464844 14.757812 Z M 30.464844 14.757812 " fill-opacity="1" fill-rule="nonzero"/><path fill="#73a0b1" d="M 22.910156 16.503906 C 22.960938 16.414062 23 16.324219 23.03125 16.226562 C 22.964844 16.304688 22.921875 16.398438 22.910156 16.503906 Z M 22.910156 16.503906 " fill-opacity="1" fill-rule="nonzero"/><path fill="#000000" d="M 30.539062 10.871094 C 29.980469 9.246094 28.933594 7.855469 27.347656 7.136719 C 26.3125 6.664062 25.132812 6.539062 24.011719 6.429688 C 22.746094 6.316406 21.476562 6.273438 20.207031 6.304688 C 18.195312 6.339844 16.246094 6.527344 14.46875 7.542969 C 12.835938 8.484375 11.757812 10.019531 10.859375 11.632812 C 9.769531 13.589844 9.6875 15.992188 10.039062 18.15625 C 10.355469 20.125 10.984375 22.113281 12.664062 23.328125 C 13.402344 23.863281 14.253906 24.230469 14.890625 24.890625 C 15.285156 25.292969 15.507812 25.890625 15.714844 26.40625 C 15.738281 26.464844 15.773438 26.519531 15.820312 26.5625 C 15.648438 26.625 15.492188 26.710938 15.347656 26.824219 C 14.640625 27.371094 14.917969 28.339844 15.613281 28.597656 C 15.574219 28.699219 15.542969 28.796875 15.515625 28.875 C 15.355469 29.378906 15.382812 29.949219 15.726562 30.308594 C 15.449219 30.671875 15.234375 31.09375 15.1875 31.535156 C 15.128906 32.0625 15.382812 32.441406 15.78125 32.664062 C 15.34375 33.769531 15.625 35.085938 16.78125 35.644531 C 18.074219 36.269531 19.601562 35.765625 20.972656 35.820312 C 22.277344 35.875 23.945312 36.191406 24.957031 35.144531 C 25.273438 34.816406 25.535156 34.3125 25.460938 33.847656 C 25.398438 33.449219 25.136719 33.230469 24.8125 33.117188 C 25.125 32.441406 25.390625 31.792969 25.117188 31.089844 C 25.808594 30.46875 25.691406 29.40625 25.21875 28.625 C 25.617188 28.53125 26.011719 28.382812 26.308594 28.097656 C 26.734375 27.683594 26.460938 27.117188 26.105469 26.777344 C 26 26.679688 25.886719 26.59375 25.765625 26.523438 C 25.929688 25.777344 26.429688 25.179688 26.953125 24.636719 C 27.605469 23.957031 28.328125 23.355469 28.972656 22.667969 C 30.398438 21.144531 31.117188 19.011719 31.285156 16.957031 C 31.453125 14.875 31.203125 12.847656 30.539062 10.871094 Z M 16.113281 31.90625 C 15.996094 31.804688 15.96875 31.65625 16.046875 31.425781 C 16.148438 31.140625 16.304688 30.886719 16.507812 30.660156 C 17.808594 31.320312 19.363281 31.230469 20.785156 31.25 C 21.441406 31.261719 22.09375 31.273438 22.75 31.230469 C 23.207031 31.203125 23.75 31.167969 24.183594 30.964844 C 24.183594 31.046875 24.207031 31.121094 24.25 31.191406 C 24.59375 31.722656 24.351562 32.261719 24.085938 32.777344 C 24.015625 32.605469 23.886719 32.519531 23.699219 32.527344 C 22.226562 32.53125 20.761719 32.652344 19.289062 32.65625 C 18.734375 32.664062 18.183594 32.632812 17.636719 32.5625 C 17.378906 32.527344 17.019531 32.488281 16.75 32.351562 C 16.703125 32.183594 16.59375 32.082031 16.429688 32.042969 L 16.402344 32.035156 C 16.328125 31.945312 16.230469 31.902344 16.113281 31.90625 Z M 24.613281 34.191406 C 24.484375 34.503906 24.265625 34.738281 23.964844 34.886719 C 23.488281 35.105469 22.859375 35.074219 22.347656 35.066406 C 21.765625 35.058594 21.183594 35 20.601562 34.988281 C 19.535156 34.964844 18.449219 35.292969 17.394531 35.015625 C 16.488281 34.773438 16.277344 33.910156 16.496094 33.140625 C 17.222656 33.460938 18.207031 33.449219 18.878906 33.464844 C 20.507812 33.503906 22.132812 33.347656 23.761719 33.339844 C 23.78125 33.339844 23.804688 33.339844 23.824219 33.335938 C 23.765625 33.601562 23.972656 33.828125 24.253906 33.832031 C 24.535156 33.839844 24.730469 33.894531 24.613281 34.191406 Z M 24.613281 30.414062 C 24.570312 30.144531 24.273438 29.917969 23.992188 30.125 C 23.617188 30.398438 23.023438 30.386719 22.582031 30.414062 C 21.992188 30.449219 21.394531 30.441406 20.800781 30.429688 C 19.371094 30.40625 17.792969 30.535156 16.53125 29.726562 C 16.457031 29.675781 16.378906 29.65625 16.289062 29.664062 C 16.164062 29.449219 16.257812 29.128906 16.394531 28.871094 C 16.527344 28.890625 16.648438 28.855469 16.753906 28.773438 C 17.832031 28.761719 18.898438 28.738281 19.972656 28.75 C 20.640625 28.753906 21.308594 28.777344 21.972656 28.820312 C 22.371094 28.851562 22.769531 28.910156 23.171875 28.894531 C 23.558594 28.878906 23.949219 28.84375 24.335938 28.789062 C 24.347656 28.808594 24.359375 28.828125 24.371094 28.84375 C 24.71875 29.296875 24.984375 29.980469 24.617188 30.414062 Z M 25.585938 27.625 C 25.480469 27.683594 25.371094 27.730469 25.257812 27.761719 C 24.71875 27.941406 24.128906 28 23.566406 28.046875 C 22.777344 28.109375 22 27.996094 21.207031 27.960938 C 19.871094 27.898438 18.535156 27.929688 17.195312 27.945312 C 16.933594 27.949219 16.671875 27.953125 16.40625 27.953125 C 16.316406 27.847656 16.207031 27.808594 16.074219 27.832031 C 15.632812 27.890625 15.730469 27.5 16.03125 27.371094 C 16.394531 27.214844 16.820312 27.1875 17.210938 27.152344 C 17.570312 27.125 17.929688 27.113281 18.289062 27.085938 C 18.789062 27.046875 19.285156 26.90625 19.785156 26.839844 C 20.867188 26.699219 21.960938 26.78125 23.046875 26.8125 C 23.832031 26.832031 24.863281 26.828125 25.503906 27.347656 C 25.578125 27.402344 25.640625 27.464844 25.695312 27.535156 L 25.695312 27.539062 C 25.6875 27.550781 25.6875 27.554688 25.699219 27.546875 C 25.664062 27.578125 25.628906 27.605469 25.589844 27.628906 Z M 20.507812 17.734375 C 20.714844 17.878906 20.941406 17.984375 21.179688 18.058594 C 21.648438 18.210938 22.101562 18.175781 22.539062 17.957031 C 22.683594 18.101562 22.847656 18.210938 23.03125 18.289062 C 22.5625 19.238281 22.199219 20.222656 21.945312 21.25 C 21.597656 22.671875 21.425781 24.132812 21.144531 25.566406 C 21.109375 25.71875 21.148438 25.84375 21.269531 25.941406 C 21.109375 25.9375 20.949219 25.933594 20.789062 25.9375 C 20.683594 25.9375 20.582031 25.945312 20.480469 25.953125 L 20.480469 25.941406 C 20.476562 23.316406 20.21875 20.34375 18.96875 17.9375 L 19.21875 17.9375 C 19.65625 17.929688 20.109375 17.910156 20.507812 17.734375 Z M 20.476562 15.367188 C 20.644531 15.136719 21.398438 15.066406 21.417969 15.421875 C 21.445312 15.847656 20.925781 16.351562 20.652344 16.621094 L 20.59375 16.675781 C 20.574219 16.636719 20.550781 16.597656 20.53125 16.5625 C 20.371094 16.230469 20.234375 15.695312 20.476562 15.367188 Z M 22.910156 16.503906 C 22.921875 16.398438 22.964844 16.304688 23.03125 16.226562 C 23 16.324219 22.960938 16.414062 22.910156 16.503906 Z M 29.105469 21.183594 C 28.011719 22.992188 25.523438 24.066406 24.996094 26.214844 C 24.597656 26.121094 24.195312 26.0625 23.789062 26.039062 C 23.339844 26.003906 22.894531 25.992188 22.445312 25.988281 C 22.234375 25.988281 22.019531 25.976562 21.808594 25.964844 C 21.886719 25.902344 21.933594 25.824219 21.949219 25.726562 C 22.332031 23.769531 22.519531 21.753906 23.210938 19.871094 C 23.402344 19.363281 23.628906 18.871094 23.890625 18.398438 C 24.332031 18.328125 24.6875 18.070312 25.042969 17.738281 C 25.398438 17.410156 26.105469 16.679688 25.710938 16.164062 C 25.257812 15.566406 24.609375 15.945312 24.222656 16.382812 C 23.910156 16.746094 23.640625 17.140625 23.414062 17.5625 C 23.335938 17.539062 23.269531 17.503906 23.203125 17.453125 C 23.652344 16.972656 23.894531 16.402344 23.925781 15.742188 C 23.929688 15.550781 23.757812 15.417969 23.59375 15.371094 C 22.453125 15.023438 21.929688 16.238281 22.128906 17.179688 C 21.835938 17.300781 21.539062 17.308594 21.238281 17.210938 C 21.582031 16.886719 21.859375 16.511719 22.066406 16.085938 C 22.351562 15.503906 22.289062 14.824219 21.664062 14.515625 C 21.074219 14.226562 20.230469 14.332031 19.824219 14.875 C 19.441406 15.394531 19.484375 16.113281 19.703125 16.691406 C 19.75 16.820312 19.808594 16.945312 19.878906 17.0625 C 19.808594 17.074219 19.734375 17.082031 19.648438 17.089844 C 19.253906 17.132812 18.859375 17.132812 18.46875 17.089844 C 18.242188 16.75 17.992188 16.429688 17.714844 16.125 C 17.527344 15.914062 17.199219 16.042969 17.078125 16.25 C 16.765625 16.789062 16.890625 17.339844 17.425781 17.65625 C 17.605469 17.753906 17.792969 17.824219 17.992188 17.863281 C 18.570312 18.855469 18.929688 19.980469 19.183594 21.09375 C 19.550781 22.699219 19.660156 24.367188 19.660156 26.011719 L 19.660156 26.050781 C 19.046875 26.140625 18.4375 26.261719 17.816406 26.296875 C 17.414062 26.320312 16.953125 26.324219 16.511719 26.390625 C 16.535156 26.304688 16.53125 26.21875 16.492188 26.136719 C 16.265625 25.574219 16.015625 24.960938 15.628906 24.488281 C 15.015625 23.734375 14.113281 23.3125 13.316406 22.789062 C 11.394531 21.535156 10.886719 19.042969 10.710938 16.902344 C 10.609375 15.757812 10.703125 14.632812 10.984375 13.523438 C 11.253906 12.484375 11.816406 11.503906 12.417969 10.621094 C 13.433594 9.132812 14.835938 8.054688 16.566406 7.539062 C 17.574219 7.234375 18.617188 7.175781 19.660156 7.140625 C 20.960938 7.089844 22.257812 7.113281 23.550781 7.210938 C 25.582031 7.375 27.644531 7.6875 28.917969 9.449219 C 30 10.9375 30.328125 12.957031 30.464844 14.757812 C 30.640625 17 30.285156 19.238281 29.105469 21.183594 Z M 29.105469 21.183594 " fill-opacity="1" fill-rule="nonzero"/><path fill="#000000" d="M 18.1875 0.597656 L 18.1875 2.910156 C 18.1875 3.441406 19.003906 3.371094 19.003906 2.847656 L 19.003906 0.535156 C 19.003906 0.00390625 18.1875 0.0703125 18.1875 0.597656 Z M 18.1875 0.597656 " fill-opacity="1" fill-rule="nonzero"/><path fill="#000000" d="M 10.640625 3.339844 C 10.625 2.808594 9.808594 2.878906 9.820312 3.402344 C 9.835938 3.941406 9.996094 4.445312 10.207031 4.941406 C 10.402344 5.402344 10.625 5.851562 10.640625 6.367188 C 10.65625 6.894531 11.476562 6.828125 11.460938 6.300781 C 11.425781 5.246094 10.667969 4.394531 10.640625 3.339844 Z M 10.640625 3.339844 " fill-opacity="1" fill-rule="nonzero"/><g clip-path="url(#d8adb75169)"><path fill="#000000" d="M 5.320312 15.648438 C 4.839844 14.875 4.070312 14.382812 3.519531 13.671875 C 3.195312 13.257812 2.511719 13.714844 2.839844 14.136719 C 3.390625 14.847656 4.164062 15.34375 4.644531 16.109375 C 4.925781 16.558594 5.601562 16.097656 5.320312 15.648438 Z M 5.320312 15.648438 " fill-opacity="1" fill-rule="nonzero"/></g><path fill="#000000" d="M 29.515625 2.207031 C 28.839844 2.71875 28.144531 3.242188 27.738281 4.011719 C 27.492188 4.480469 28.226562 4.84375 28.472656 4.378906 C 28.808594 3.742188 29.414062 3.3125 29.976562 2.890625 C 30.398438 2.574219 29.941406 1.886719 29.515625 2.207031 Z M 29.515625 2.207031 " fill-opacity="1" fill-rule="nonzero"/><path fill="#000000" d="M 8.859375 23.304688 C 7.945312 22.5 7.152344 24.160156 6.5625 24.585938 C 6.132812 24.894531 6.589844 25.578125 7.023438 25.269531 C 7.320312 25.054688 7.546875 24.753906 7.785156 24.476562 C 7.910156 24.324219 8.046875 24.179688 8.195312 24.042969 C 8.273438 23.980469 8.375 23.96875 8.324219 23.921875 C 8.71875 24.269531 9.257812 23.652344 8.859375 23.304688 Z M 8.859375 23.304688 " fill-opacity="1" fill-rule="nonzero"/><g fill="#000000" fill-opacity="1"><g transform="translate(39.390343, 30.907175)"><g><path d="M 11.40625 -13.28125 C 12.550781 -12.5 13.453125 -11.484375 14.109375 -10.234375 C 14.773438 -8.984375 15.039062 -7.660156 14.90625 -6.265625 C 14.757812 -5.046875 14.335938 -3.992188 13.640625 -3.109375 C 12.953125 -2.222656 12.101562 -1.539062 11.09375 -1.0625 C 10.082031 -0.582031 9.007812 -0.316406 7.875 -0.265625 C 6.75 -0.210938 5.664062 -0.398438 4.625 -0.828125 C 3.582031 -1.253906 2.703125 -1.9375 1.984375 -2.875 C 1.617188 -3.363281 1.46875 -3.820312 1.53125 -4.25 C 1.59375 -4.675781 1.78125 -5.050781 2.09375 -5.375 C 2.40625 -5.707031 2.796875 -5.9375 3.265625 -6.0625 C 3.742188 -6.195312 4.222656 -6.203125 4.703125 -6.078125 C 5.179688 -5.960938 5.59375 -5.671875 5.9375 -5.203125 C 6.101562 -4.972656 6.410156 -4.84375 6.859375 -4.8125 C 7.304688 -4.78125 7.753906 -4.800781 8.203125 -4.875 C 8.648438 -4.945312 8.960938 -5.023438 9.140625 -5.109375 C 9.578125 -5.316406 9.898438 -5.617188 10.109375 -6.015625 C 10.328125 -6.410156 10.40625 -6.84375 10.34375 -7.3125 C 10.28125 -7.882812 10.070312 -8.359375 9.71875 -8.734375 C 9.375 -9.109375 8.960938 -9.425781 8.484375 -9.6875 C 8.003906 -9.957031 7.519531 -10.21875 7.03125 -10.46875 C 6.539062 -10.726562 6.113281 -11.007812 5.75 -11.3125 C 4.726562 -12.21875 4.101562 -13.195312 3.875 -14.25 C 3.65625 -15.3125 3.734375 -16.363281 4.109375 -17.40625 C 4.492188 -18.445312 5.082031 -19.394531 5.875 -20.25 C 6.664062 -21.101562 7.570312 -21.773438 8.59375 -22.265625 C 9.144531 -22.515625 9.65625 -22.582031 10.125 -22.46875 C 10.59375 -22.351562 10.992188 -22.125 11.328125 -21.78125 C 11.671875 -21.4375 11.898438 -21.039062 12.015625 -20.59375 C 12.140625 -20.144531 12.117188 -19.710938 11.953125 -19.296875 C 11.796875 -18.890625 11.453125 -18.554688 10.921875 -18.296875 C 10.578125 -18.128906 10.175781 -17.898438 9.71875 -17.609375 C 9.257812 -17.328125 8.878906 -16.988281 8.578125 -16.59375 C 8.285156 -16.195312 8.226562 -15.753906 8.40625 -15.265625 C 8.507812 -14.941406 8.75 -14.660156 9.125 -14.421875 C 9.507812 -14.191406 9.914062 -13.984375 10.34375 -13.796875 C 10.769531 -13.609375 11.125 -13.4375 11.40625 -13.28125 Z M 11.40625 -13.28125 "/></g></g></g><g fill="#000000" fill-opacity="1"><g transform="translate(55.845432, 30.907175)"><g><path d="M 13.609375 -7.34375 C 14.179688 -7.507812 14.675781 -7.488281 15.09375 -7.28125 C 15.507812 -7.070312 15.832031 -6.765625 16.0625 -6.359375 C 16.300781 -5.953125 16.425781 -5.515625 16.4375 -5.046875 C 16.445312 -4.578125 16.320312 -4.144531 16.0625 -3.75 C 15.8125 -3.351562 15.40625 -3.082031 14.84375 -2.9375 C 13.800781 -2.632812 12.734375 -2.410156 11.640625 -2.265625 C 10.546875 -2.117188 9.460938 -2.113281 8.390625 -2.25 C 7.328125 -2.382812 6.304688 -2.726562 5.328125 -3.28125 C 4.054688 -4.007812 3.085938 -5.003906 2.421875 -6.265625 C 1.765625 -7.535156 1.46875 -8.894531 1.53125 -10.34375 C 1.613281 -11.769531 1.96875 -13.140625 2.59375 -14.453125 C 3.226562 -15.765625 4.070312 -16.921875 5.125 -17.921875 C 6.175781 -18.921875 7.367188 -19.691406 8.703125 -20.234375 C 10.035156 -20.773438 11.425781 -20.992188 12.875 -20.890625 C 13.46875 -20.828125 13.941406 -20.628906 14.296875 -20.296875 C 14.660156 -19.960938 14.894531 -19.566406 15 -19.109375 C 15.113281 -18.648438 15.113281 -18.195312 15 -17.75 C 14.894531 -17.300781 14.660156 -16.929688 14.296875 -16.640625 C 13.941406 -16.359375 13.46875 -16.25 12.875 -16.3125 C 11.8125 -16.382812 10.804688 -16.179688 9.859375 -15.703125 C 8.910156 -15.222656 8.109375 -14.554688 7.453125 -13.703125 C 6.804688 -12.847656 6.390625 -11.898438 6.203125 -10.859375 C 6.023438 -9.921875 6.070312 -9.171875 6.34375 -8.609375 C 6.625 -8.046875 7.035156 -7.628906 7.578125 -7.359375 C 8.128906 -7.097656 8.757812 -6.9375 9.46875 -6.875 C 10.175781 -6.820312 10.890625 -6.84375 11.609375 -6.9375 C 12.335938 -7.039062 13.003906 -7.175781 13.609375 -7.34375 Z M 13.609375 -7.34375 "/></g></g></g><g fill="#000000" fill-opacity="1"><g transform="translate(73.829809, 30.907175)"><g><path d="M 13.125 -21.390625 C 13.226562 -21.953125 13.460938 -22.363281 13.828125 -22.625 C 14.191406 -22.894531 14.601562 -23.03125 15.0625 -23.03125 C 15.519531 -23.03125 15.957031 -22.90625 16.375 -22.65625 C 16.800781 -22.414062 17.128906 -22.082031 17.359375 -21.65625 C 17.597656 -21.226562 17.65625 -20.726562 17.53125 -20.15625 C 16.425781 -14.53125 15.671875 -8.863281 15.265625 -3.15625 C 15.222656 -2.582031 15.035156 -2.113281 14.703125 -1.75 C 14.367188 -1.394531 13.960938 -1.15625 13.484375 -1.03125 C 13.015625 -0.914062 12.5625 -0.914062 12.125 -1.03125 C 11.6875 -1.15625 11.320312 -1.390625 11.03125 -1.734375 C 10.75 -2.085938 10.628906 -2.5625 10.671875 -3.15625 C 10.734375 -4.113281 10.8125 -5.070312 10.90625 -6.03125 C 11 -6.988281 11.097656 -7.945312 11.203125 -8.90625 L 7 -8.90625 C 6.863281 -7.675781 6.722656 -6.453125 6.578125 -5.234375 C 6.429688 -4.023438 6.289062 -2.820312 6.15625 -1.625 C 6.070312 -1.03125 5.851562 -0.554688 5.5 -0.203125 C 5.15625 0.140625 4.75 0.363281 4.28125 0.46875 C 3.8125 0.582031 3.351562 0.582031 2.90625 0.46875 C 2.457031 0.363281 2.097656 0.140625 1.828125 -0.203125 C 1.566406 -0.554688 1.476562 -1.03125 1.5625 -1.625 C 1.738281 -3.289062 1.929688 -4.960938 2.140625 -6.640625 C 2.347656 -8.328125 2.539062 -10.019531 2.71875 -11.71875 C 2.820312 -12.507812 2.921875 -13.3125 3.015625 -14.125 C 3.109375 -14.945312 3.203125 -15.765625 3.296875 -16.578125 C 3.378906 -17.296875 3.445312 -18.050781 3.5 -18.84375 C 3.550781 -19.632812 3.710938 -20.367188 3.984375 -21.046875 C 4.179688 -21.597656 4.488281 -22 4.90625 -22.25 C 5.320312 -22.507812 5.769531 -22.632812 6.25 -22.625 C 6.726562 -22.613281 7.171875 -22.488281 7.578125 -22.25 C 7.992188 -22.019531 8.285156 -21.703125 8.453125 -21.296875 C 8.628906 -20.890625 8.601562 -20.398438 8.375 -19.828125 C 8.132812 -19.171875 7.992188 -18.445312 7.953125 -17.65625 C 7.910156 -16.875 7.847656 -16.140625 7.765625 -15.453125 C 7.722656 -15.117188 7.679688 -14.789062 7.640625 -14.46875 C 7.609375 -14.144531 7.570312 -13.816406 7.53125 -13.484375 L 11.78125 -13.484375 C 11.957031 -14.796875 12.160156 -16.113281 12.390625 -17.4375 C 12.617188 -18.757812 12.863281 -20.078125 13.125 -21.390625 Z M 13.125 -21.390625 "/></g></g></g><g fill="#000000" fill-opacity="1"><g transform="translate(92.945863, 30.907175)"><g><path d="M 12.75 -6.453125 C 13.34375 -6.429688 13.816406 -6.257812 14.171875 -5.9375 C 14.535156 -5.613281 14.769531 -5.21875 14.875 -4.75 C 14.988281 -4.289062 14.988281 -3.835938 14.875 -3.390625 C 14.769531 -2.941406 14.535156 -2.566406 14.171875 -2.265625 C 13.816406 -1.972656 13.34375 -1.835938 12.75 -1.859375 C 11.363281 -1.921875 9.976562 -1.914062 8.59375 -1.84375 C 7.207031 -1.78125 5.820312 -1.632812 4.4375 -1.40625 C 4.007812 -1.34375 3.5625 -1.390625 3.09375 -1.546875 C 2.625 -1.703125 2.226562 -1.953125 1.90625 -2.296875 C 1.59375 -2.640625 1.476562 -3.085938 1.5625 -3.640625 C 1.90625 -6.453125 2.285156 -9.265625 2.703125 -12.078125 C 3.117188 -14.898438 3.570312 -17.71875 4.0625 -20.53125 C 4.125 -20.875 4.25 -21.171875 4.4375 -21.421875 C 4.601562 -21.703125 4.835938 -21.9375 5.140625 -22.125 C 5.441406 -22.320312 5.816406 -22.429688 6.265625 -22.453125 C 8.472656 -22.515625 10.675781 -22.472656 12.875 -22.328125 C 13.46875 -22.285156 13.941406 -22.097656 14.296875 -21.765625 C 14.660156 -21.429688 14.894531 -21.035156 15 -20.578125 C 15.113281 -20.117188 15.113281 -19.664062 15 -19.21875 C 14.894531 -18.769531 14.660156 -18.398438 14.296875 -18.109375 C 13.941406 -17.828125 13.46875 -17.707031 12.875 -17.75 C 11.363281 -17.84375 9.828125 -17.890625 8.265625 -17.890625 C 8.160156 -17.304688 8.054688 -16.71875 7.953125 -16.125 C 7.847656 -15.53125 7.753906 -14.9375 7.671875 -14.34375 C 8.515625 -14.320312 9.320312 -14.273438 10.09375 -14.203125 C 10.707031 -14.140625 11.242188 -13.90625 11.703125 -13.5 C 12.160156 -13.101562 12.390625 -12.570312 12.390625 -11.90625 C 12.390625 -11.507812 12.28125 -11.128906 12.0625 -10.765625 C 11.851562 -10.398438 11.570312 -10.101562 11.21875 -9.875 C 10.875 -9.65625 10.5 -9.566406 10.09375 -9.609375 C 9.050781 -9.710938 8.007812 -9.765625 6.96875 -9.765625 C 6.894531 -9.191406 6.816406 -8.609375 6.734375 -8.015625 C 6.648438 -7.421875 6.566406 -6.835938 6.484375 -6.265625 C 7.523438 -6.367188 8.566406 -6.4375 9.609375 -6.46875 C 10.648438 -6.5 11.695312 -6.492188 12.75 -6.453125 Z M 12.75 -6.453125 "/></g></g></g><g fill="#000000" fill-opacity="1"><g transform="translate(109.553886, 30.907175)"><g><path d="M 13.25 -18.9375 C 14.289062 -18 15.09375 -16.878906 15.65625 -15.578125 C 16.226562 -14.285156 16.4375 -12.925781 16.28125 -11.5 C 16.132812 -10.320312 15.75 -9.21875 15.125 -8.1875 C 14.507812 -7.15625 13.75 -6.257812 12.84375 -5.5 C 11.84375 -4.644531 10.664062 -3.957031 9.3125 -3.4375 C 7.957031 -2.914062 6.660156 -2.453125 5.421875 -2.046875 C 5.066406 -1.921875 4.710938 -1.820312 4.359375 -1.75 C 4.003906 -1.6875 3.648438 -1.675781 3.296875 -1.71875 C 2.804688 -1.78125 2.382812 -2.007812 2.03125 -2.40625 C 1.675781 -2.800781 1.507812 -3.242188 1.53125 -3.734375 C 1.675781 -9.273438 1.953125 -14.832031 2.359375 -20.40625 C 2.398438 -21.039062 2.609375 -21.484375 2.984375 -21.734375 C 3.359375 -21.992188 3.804688 -22.128906 4.328125 -22.140625 C 4.847656 -22.148438 5.351562 -22.113281 5.84375 -22.03125 C 6.125 -21.988281 6.390625 -21.945312 6.640625 -21.90625 C 7.835938 -21.65625 9 -21.3125 10.125 -20.875 C 11.25 -20.4375 12.289062 -19.789062 13.25 -18.9375 Z M 11.53125 -11.265625 C 11.820312 -12.078125 11.867188 -12.816406 11.671875 -13.484375 C 11.472656 -14.160156 11.117188 -14.742188 10.609375 -15.234375 C 10.097656 -15.722656 9.492188 -16.128906 8.796875 -16.453125 C 8.109375 -16.785156 7.410156 -17.03125 6.703125 -17.1875 C 6.492188 -13.84375 6.328125 -10.519531 6.203125 -7.21875 C 6.960938 -7.46875 7.691406 -7.75 8.390625 -8.0625 C 9.097656 -8.375 9.726562 -8.78125 10.28125 -9.28125 C 10.832031 -9.78125 11.25 -10.441406 11.53125 -11.265625 Z M 11.53125 -11.265625 "/></g></g></g><g fill="#000000" fill-opacity="1"><g transform="translate(127.415925, 30.907175)"><g><path d="M 17.015625 -18.6875 C 17.503906 -17.894531 17.835938 -17.003906 18.015625 -16.015625 C 18.203125 -15.023438 18.285156 -14.023438 18.265625 -13.015625 C 18.242188 -12.003906 18.160156 -11.0625 18.015625 -10.1875 C 17.816406 -8.84375 17.398438 -7.566406 16.765625 -6.359375 C 16.128906 -5.160156 15.28125 -4.125 14.21875 -3.25 C 13.207031 -2.40625 12.023438 -1.789062 10.671875 -1.40625 C 9.328125 -1.019531 8.015625 -1.03125 6.734375 -1.4375 C 5.878906 -1.695312 5.132812 -2.132812 4.5 -2.75 C 3.863281 -3.363281 3.332031 -4.0625 2.90625 -4.84375 C 2.476562 -5.632812 2.160156 -6.4375 1.953125 -7.25 C 1.710938 -8.144531 1.570312 -9.175781 1.53125 -10.34375 C 1.488281 -11.519531 1.566406 -12.71875 1.765625 -13.9375 C 1.972656 -15.164062 2.3125 -16.3125 2.78125 -17.375 C 3.25 -18.4375 3.882812 -19.316406 4.6875 -20.015625 C 5.5 -20.847656 6.472656 -21.4375 7.609375 -21.78125 C 8.753906 -22.125 9.925781 -22.238281 11.125 -22.125 C 12.332031 -22.019531 13.457031 -21.675781 14.5 -21.09375 C 15.539062 -20.507812 16.378906 -19.707031 17.015625 -18.6875 Z M 11.4375 -6.796875 C 12.132812 -7.441406 12.648438 -8.195312 12.984375 -9.0625 C 13.316406 -9.9375 13.523438 -10.847656 13.609375 -11.796875 C 13.691406 -12.742188 13.671875 -13.664062 13.546875 -14.5625 C 13.429688 -15.457031 13.082031 -16.191406 12.5 -16.765625 C 11.914062 -17.335938 11.144531 -17.613281 10.1875 -17.59375 C 9.65625 -17.59375 9.140625 -17.457031 8.640625 -17.1875 C 8.140625 -16.925781 7.726562 -16.582031 7.40625 -16.15625 C 7.039062 -15.644531 6.773438 -15.03125 6.609375 -14.3125 C 6.441406 -13.601562 6.316406 -12.941406 6.234375 -12.328125 C 6.054688 -10.960938 6.128906 -9.617188 6.453125 -8.296875 C 6.554688 -7.898438 6.691406 -7.507812 6.859375 -7.125 C 7.035156 -6.738281 7.289062 -6.425781 7.625 -6.1875 C 8.144531 -5.789062 8.75 -5.648438 9.4375 -5.765625 C 10.125 -5.878906 10.722656 -6.148438 11.234375 -6.578125 C 11.285156 -6.640625 11.351562 -6.710938 11.4375 -6.796875 Z M 11.4375 -6.796875 "/></g></g></g></svg>