<svg xmlns="http://www.w3.org/2000/svg" xmlns:xlink="http://www.w3.org/1999/xlink" width="220" zoomAndPan="magnify" viewBox="0 0 165 48.75" height="65" preserveAspectRatio="xMidYMid meet" version="1.0"><defs><g/><clipPath id="9efc7cc608"><path d="M 33 17 L 38.289062 17 L 38.289062 19 L 33 19 Z M 33 17 " clip-rule="nonzero"/></clipPath><clipPath id="13b91ea373"><path d="M 18 3.335938 L 19 3.335938 L 19 7 L 18 7 Z M 18 3.335938 " clip-rule="nonzero"/></clipPath><clipPath id="e1c77d34b0"><path d="M 1.332031 17 L 5 17 L 5 21 L 1.332031 21 Z M 1.332031 17 " clip-rule="nonzero"/></clipPath></defs><g clip-path="url(#9efc7cc608)"><path fill="#000000" d="M 37.714844 17.972656 C 36.585938 17.636719 35.433594 17.949219 34.285156 17.964844 C 33.722656 17.972656 33.796875 18.832031 34.351562 18.824219 C 35.417969 18.808594 36.5 18.5 37.546875 18.816406 C 38.085938 18.976562 38.246094 18.128906 37.714844 17.972656 Z M 37.714844 17.972656 " fill-opacity="1" fill-rule="nonzero"/></g><path fill="#000000" d="M 35.132812 26.503906 C 34.734375 26.109375 34.164062 26.757812 34.554688 27.148438 C 35.132812 27.722656 35.769531 28.417969 35.804688 29.269531 C 35.824219 29.824219 36.695312 29.753906 36.671875 29.203125 C 36.625 28.117188 35.867188 27.242188 35.132812 26.503906 Z M 35.132812 26.503906 " fill-opacity="1" fill-rule="nonzero"/><path fill="#73a0b1" d="M 26.011719 32.144531 L 26.011719 32.140625 C 25.953125 32.066406 25.886719 32 25.8125 31.941406 C 25.128906 31.398438 24.035156 31.40625 23.199219 31.382812 C 22.046875 31.351562 20.882812 31.261719 19.734375 31.414062 C 19.203125 31.480469 18.679688 31.628906 18.144531 31.667969 C 17.765625 31.699219 17.378906 31.707031 17.003906 31.738281 C 16.585938 31.773438 16.136719 31.800781 15.746094 31.96875 C 15.425781 32.101562 15.324219 32.507812 15.792969 32.449219 C 15.933594 32.425781 16.050781 32.464844 16.144531 32.574219 C 16.425781 32.574219 16.707031 32.574219 16.988281 32.570312 C 18.40625 32.550781 19.828125 32.519531 21.246094 32.585938 C 22.085938 32.621094 22.914062 32.738281 23.75 32.671875 C 24.351562 32.625 24.976562 32.566406 25.546875 32.375 C 25.671875 32.34375 25.785156 32.292969 25.898438 32.234375 C 25.941406 32.210938 25.980469 32.183594 26.019531 32.15625 C 26.003906 32.160156 26.007812 32.15625 26.011719 32.144531 Z M 26.011719 32.144531 " fill-opacity="1" fill-rule="nonzero"/><path fill="#fdbe10" d="M 22.027344 25.558594 C 22.296875 24.488281 22.683594 23.457031 23.183594 22.464844 C 22.984375 22.382812 22.808594 22.265625 22.660156 22.113281 C 22.191406 22.347656 21.710938 22.382812 21.214844 22.226562 C 20.957031 22.148438 20.71875 22.035156 20.5 21.882812 C 20.078125 22.070312 19.59375 22.089844 19.132812 22.097656 L 18.867188 22.097656 C 20.191406 24.613281 20.460938 27.726562 20.46875 30.472656 L 20.46875 30.480469 C 20.578125 30.472656 20.6875 30.46875 20.796875 30.464844 C 20.96875 30.464844 21.136719 30.464844 21.308594 30.46875 C 21.179688 30.367188 21.136719 30.234375 21.175781 30.078125 C 21.476562 28.574219 21.65625 27.046875 22.027344 25.558594 Z M 22.027344 25.558594 " fill-opacity="1" fill-rule="nonzero"/><path fill="#73a0b1" d="M 24.480469 38.726562 C 24.179688 38.722656 23.960938 38.484375 24.023438 38.207031 C 24 38.210938 23.980469 38.210938 23.957031 38.210938 C 22.226562 38.21875 20.5 38.382812 18.769531 38.34375 C 18.050781 38.324219 17.007812 38.335938 16.242188 38.003906 C 16.007812 38.808594 16.230469 39.710938 17.191406 39.964844 C 18.308594 40.253906 19.46875 39.914062 20.597656 39.9375 C 21.21875 39.949219 21.835938 40.007812 22.457031 40.015625 C 23 40.023438 23.667969 40.058594 24.171875 39.828125 C 24.492188 39.671875 24.722656 39.429688 24.863281 39.101562 C 24.988281 38.785156 24.777344 38.734375 24.480469 38.726562 Z M 24.480469 38.726562 " fill-opacity="1" fill-rule="nonzero"/><path fill="#fdbe10" d="M 20.464844 19.410156 C 20.207031 19.753906 20.355469 20.3125 20.53125 20.65625 C 20.550781 20.699219 20.574219 20.738281 20.597656 20.777344 L 20.65625 20.71875 C 20.941406 20.4375 21.496094 19.914062 21.472656 19.464844 C 21.445312 19.09375 20.644531 19.175781 20.464844 19.410156 Z M 20.464844 19.410156 " fill-opacity="1" fill-rule="nonzero"/><path fill="#73a0b1" d="M 24.476562 35.957031 C 24.429688 35.886719 24.40625 35.808594 24.40625 35.722656 C 23.941406 35.933594 23.367188 35.972656 22.882812 36 C 22.1875 36.042969 21.496094 36.03125 20.796875 36.023438 C 19.285156 36 17.632812 36.09375 16.25 35.402344 C 16.035156 35.636719 15.871094 35.90625 15.761719 36.203125 C 15.679688 36.445312 15.707031 36.601562 15.832031 36.707031 C 15.957031 36.699219 16.058594 36.742188 16.140625 36.835938 L 16.167969 36.84375 C 16.34375 36.886719 16.460938 36.992188 16.511719 37.167969 C 16.800781 37.308594 17.175781 37.355469 17.449219 37.390625 C 18.035156 37.460938 18.617188 37.492188 19.207031 37.484375 C 20.769531 37.484375 22.328125 37.355469 23.890625 37.351562 C 24.089844 37.347656 24.226562 37.433594 24.304688 37.613281 C 24.582031 37.082031 24.84375 36.515625 24.476562 35.957031 Z M 24.476562 35.957031 " fill-opacity="1" fill-rule="nonzero"/><path fill="#73a0b1" d="M 24.605469 33.507812 C 24.59375 33.488281 24.582031 33.46875 24.570312 33.449219 C 24.160156 33.507812 23.746094 33.542969 23.332031 33.558594 C 22.90625 33.574219 22.484375 33.511719 22.058594 33.484375 C 21.351562 33.4375 20.644531 33.414062 19.9375 33.40625 C 18.792969 33.398438 17.65625 33.421875 16.515625 33.429688 C 16.402344 33.519531 16.277344 33.550781 16.132812 33.53125 C 15.992188 33.804688 15.890625 34.140625 16.027344 34.363281 C 16.117188 34.351562 16.203125 34.375 16.28125 34.425781 C 17.621094 35.269531 19.296875 35.136719 20.820312 35.164062 C 21.449219 35.171875 22.082031 35.183594 22.710938 35.144531 C 23.175781 35.117188 23.808594 35.128906 24.207031 34.84375 C 24.507812 34.625 24.820312 34.863281 24.867188 35.144531 C 25.253906 34.691406 24.972656 33.976562 24.605469 33.507812 Z M 24.605469 33.507812 " fill-opacity="1" fill-rule="nonzero"/><path fill="#fdbe10" d="M 31.078125 18.773438 C 30.929688 16.890625 30.582031 14.78125 29.429688 13.214844 C 28.078125 11.375 25.886719 11.050781 23.730469 10.875 C 22.351562 10.773438 20.976562 10.75 19.597656 10.804688 C 18.488281 10.839844 17.378906 10.902344 16.3125 11.21875 C 14.476562 11.757812 12.984375 12.886719 11.902344 14.441406 C 11.261719 15.367188 10.667969 16.390625 10.378906 17.476562 C 10.078125 18.636719 9.980469 19.816406 10.089844 21.007812 C 10.277344 23.25 10.8125 25.855469 12.855469 27.167969 C 13.703125 27.714844 14.660156 28.15625 15.3125 28.945312 C 15.722656 29.4375 15.992188 30.078125 16.230469 30.667969 C 16.269531 30.753906 16.277344 30.84375 16.25 30.933594 C 16.722656 30.863281 17.210938 30.859375 17.636719 30.835938 C 18.300781 30.800781 18.945312 30.675781 19.597656 30.578125 L 19.597656 30.535156 C 19.597656 28.820312 19.480469 27.074219 19.089844 25.394531 C 18.820312 24.230469 18.4375 23.050781 17.820312 22.015625 C 17.609375 21.972656 17.410156 21.902344 17.222656 21.796875 C 16.652344 21.46875 16.519531 20.890625 16.851562 20.328125 C 16.984375 20.113281 17.328125 19.976562 17.53125 20.199219 C 17.824219 20.515625 18.089844 20.851562 18.328125 21.207031 C 18.746094 21.25 19.164062 21.25 19.582031 21.207031 C 19.671875 21.199219 19.75 21.191406 19.828125 21.175781 C 19.753906 21.054688 19.691406 20.925781 19.640625 20.789062 C 19.410156 20.183594 19.359375 19.433594 19.769531 18.890625 C 20.199219 18.320312 21.097656 18.210938 21.722656 18.515625 C 22.386719 18.839844 22.453125 19.550781 22.152344 20.160156 C 21.929688 20.601562 21.640625 20.996094 21.277344 21.335938 C 21.597656 21.441406 21.910156 21.429688 22.222656 21.304688 C 22.011719 20.320312 22.566406 19.050781 23.777344 19.410156 C 23.949219 19.464844 24.136719 19.597656 24.128906 19.800781 C 24.097656 20.492188 23.839844 21.085938 23.363281 21.589844 C 23.429688 21.640625 23.503906 21.679688 23.585938 21.707031 C 23.828125 21.261719 24.113281 20.847656 24.445312 20.464844 C 24.851562 20.011719 25.542969 19.613281 26.023438 20.238281 C 26.445312 20.78125 25.683594 21.550781 25.316406 21.886719 C 24.949219 22.222656 24.5625 22.503906 24.09375 22.574219 C 23.8125 23.070312 23.574219 23.585938 23.367188 24.113281 C 22.632812 26.085938 22.4375 28.191406 22.027344 30.238281 C 22.011719 30.34375 21.960938 30.425781 21.878906 30.488281 C 22.105469 30.5 22.332031 30.507812 22.554688 30.511719 C 23.03125 30.515625 23.507812 30.527344 23.984375 30.566406 C 24.414062 30.589844 24.84375 30.652344 25.265625 30.75 C 25.824219 28.503906 28.46875 27.378906 29.632812 25.488281 C 30.886719 23.457031 31.261719 21.117188 31.078125 18.773438 Z M 31.078125 18.773438 " fill-opacity="1" fill-rule="nonzero"/><path fill="#73a0b1" d="M 23.050781 20.597656 C 23.105469 20.503906 23.148438 20.40625 23.179688 20.304688 C 23.109375 20.390625 23.066406 20.488281 23.050781 20.597656 Z M 23.050781 20.597656 " fill-opacity="1" fill-rule="nonzero"/><path fill="#000000" d="M 31.15625 14.707031 C 30.5625 13.003906 29.449219 11.554688 27.765625 10.800781 C 26.664062 10.304688 25.414062 10.175781 24.222656 10.0625 C 22.878906 9.941406 21.527344 9.898438 20.179688 9.929688 C 18.042969 9.96875 15.972656 10.164062 14.085938 11.226562 C 12.347656 12.207031 11.203125 13.816406 10.25 15.5 C 9.09375 17.550781 9.007812 20.0625 9.378906 22.328125 C 9.714844 24.382812 10.382812 26.464844 12.167969 27.738281 C 12.949219 28.296875 13.855469 28.679688 14.535156 29.367188 C 14.953125 29.789062 15.1875 30.417969 15.40625 30.953125 C 15.433594 31.015625 15.472656 31.070312 15.519531 31.117188 C 15.339844 31.183594 15.171875 31.273438 15.015625 31.390625 C 14.269531 31.964844 14.5625 32.976562 15.300781 33.246094 C 15.261719 33.351562 15.226562 33.453125 15.199219 33.535156 C 15.027344 34.0625 15.058594 34.660156 15.417969 35.035156 C 15.128906 35.414062 14.898438 35.855469 14.847656 36.316406 C 14.785156 36.867188 15.054688 37.265625 15.480469 37.496094 C 15.015625 38.65625 15.3125 40.03125 16.542969 40.617188 C 17.914062 41.269531 19.539062 40.742188 20.992188 40.800781 C 22.378906 40.855469 24.148438 41.1875 25.226562 40.09375 C 25.5625 39.75 25.839844 39.222656 25.761719 38.734375 C 25.691406 38.320312 25.414062 38.089844 25.074219 37.972656 C 25.40625 37.265625 25.683594 36.585938 25.394531 35.851562 C 26.128906 35.203125 26.003906 34.089844 25.503906 33.277344 C 25.925781 33.175781 26.34375 33.023438 26.660156 32.722656 C 27.113281 32.292969 26.824219 31.695312 26.445312 31.34375 C 26.335938 31.242188 26.214844 31.152344 26.085938 31.074219 C 26.261719 30.292969 26.792969 29.671875 27.347656 29.101562 C 28.039062 28.394531 28.808594 27.765625 29.488281 27.046875 C 31.007812 25.449219 31.769531 23.222656 31.949219 21.070312 C 32.125 18.894531 31.863281 16.773438 31.15625 14.707031 Z M 15.832031 36.707031 C 15.707031 36.601562 15.675781 36.441406 15.757812 36.203125 C 15.871094 35.90625 16.035156 35.636719 16.25 35.402344 C 17.628906 36.09375 19.285156 36 20.796875 36.023438 C 21.492188 36.03125 22.183594 36.042969 22.882812 36 C 23.367188 35.972656 23.945312 35.933594 24.40625 35.722656 C 24.40625 35.808594 24.429688 35.886719 24.476562 35.957031 C 24.839844 36.515625 24.582031 37.078125 24.300781 37.617188 C 24.226562 37.4375 24.085938 37.347656 23.890625 37.355469 C 22.328125 37.359375 20.769531 37.488281 19.203125 37.488281 C 18.617188 37.496094 18.03125 37.464844 17.449219 37.394531 C 17.175781 37.355469 16.796875 37.3125 16.507812 37.171875 C 16.457031 36.996094 16.34375 36.890625 16.167969 36.847656 L 16.136719 36.839844 C 16.058594 36.746094 15.957031 36.699219 15.832031 36.707031 Z M 24.863281 39.097656 C 24.722656 39.425781 24.492188 39.667969 24.171875 39.824219 C 23.664062 40.054688 22.996094 40.019531 22.457031 40.011719 C 21.835938 40 21.21875 39.941406 20.597656 39.929688 C 19.46875 39.90625 18.3125 40.246094 17.191406 39.957031 C 16.230469 39.707031 16.007812 38.800781 16.242188 37.996094 C 17.011719 38.332031 18.054688 38.320312 18.769531 38.335938 C 20.5 38.378906 22.226562 38.210938 23.957031 38.207031 C 23.980469 38.207031 24 38.203125 24.023438 38.199219 C 23.960938 38.480469 24.179688 38.714844 24.480469 38.722656 C 24.777344 38.730469 24.988281 38.785156 24.863281 39.097656 Z M 24.863281 35.144531 C 24.816406 34.863281 24.5 34.625 24.199219 34.839844 C 23.804688 35.128906 23.171875 35.117188 22.707031 35.144531 C 22.074219 35.183594 21.441406 35.171875 20.8125 35.160156 C 19.292969 35.136719 17.617188 35.269531 16.277344 34.425781 C 16.199219 34.371094 16.113281 34.351562 16.019531 34.363281 C 15.886719 34.136719 15.984375 33.804688 16.128906 33.53125 C 16.269531 33.550781 16.398438 33.515625 16.511719 33.429688 C 17.65625 33.417969 18.792969 33.394531 19.933594 33.402344 C 20.640625 33.410156 21.351562 33.433594 22.054688 33.480469 C 22.480469 33.507812 22.902344 33.570312 23.328125 33.554688 C 23.742188 33.539062 24.15625 33.503906 24.566406 33.445312 C 24.578125 33.464844 24.589844 33.484375 24.601562 33.503906 C 24.972656 33.976562 25.253906 34.691406 24.863281 35.144531 Z M 25.894531 32.230469 C 25.785156 32.289062 25.667969 32.335938 25.542969 32.371094 C 24.972656 32.5625 24.347656 32.621094 23.75 32.667969 C 22.910156 32.734375 22.082031 32.617188 21.246094 32.582031 C 19.824219 32.515625 18.402344 32.546875 16.984375 32.566406 C 16.703125 32.570312 16.421875 32.570312 16.140625 32.570312 C 16.050781 32.460938 15.929688 32.417969 15.789062 32.445312 C 15.320312 32.507812 15.421875 32.097656 15.742188 31.960938 C 16.132812 31.800781 16.582031 31.769531 17 31.734375 C 17.378906 31.703125 17.761719 31.691406 18.140625 31.664062 C 18.675781 31.625 19.203125 31.476562 19.730469 31.40625 C 20.878906 31.257812 22.042969 31.347656 23.195312 31.378906 C 24.03125 31.402344 25.125 31.394531 25.808594 31.9375 C 25.886719 31.996094 25.953125 32.0625 26.007812 32.136719 L 26.007812 32.140625 C 26 32.148438 26 32.15625 26.011719 32.148438 C 25.976562 32.179688 25.9375 32.207031 25.898438 32.234375 Z M 20.5 21.882812 C 20.71875 22.035156 20.957031 22.148438 21.214844 22.226562 C 21.710938 22.382812 22.191406 22.347656 22.660156 22.113281 C 22.808594 22.265625 22.984375 22.382812 23.183594 22.464844 C 22.683594 23.457031 22.296875 24.488281 22.027344 25.558594 C 21.65625 27.046875 21.476562 28.574219 21.175781 30.074219 C 21.136719 30.234375 21.179688 30.363281 21.308594 30.46875 C 21.136719 30.464844 20.96875 30.460938 20.796875 30.464844 C 20.6875 30.464844 20.578125 30.472656 20.472656 30.480469 L 20.472656 30.46875 C 20.464844 27.722656 20.191406 24.613281 18.867188 22.097656 L 19.132812 22.097656 C 19.59375 22.089844 20.078125 22.070312 20.5 21.882812 Z M 20.464844 19.410156 C 20.644531 19.167969 21.445312 19.09375 21.46875 19.464844 C 21.496094 19.910156 20.941406 20.4375 20.652344 20.71875 L 20.59375 20.777344 C 20.570312 20.738281 20.546875 20.695312 20.527344 20.65625 C 20.355469 20.3125 20.207031 19.753906 20.464844 19.410156 Z M 23.050781 20.597656 C 23.066406 20.488281 23.109375 20.390625 23.179688 20.304688 C 23.148438 20.40625 23.105469 20.503906 23.050781 20.597656 Z M 29.632812 25.492188 C 28.472656 27.382812 25.828125 28.507812 25.265625 30.75 C 24.84375 30.65625 24.417969 30.59375 23.984375 30.570312 C 23.511719 30.53125 23.035156 30.519531 22.558594 30.515625 C 22.332031 30.515625 22.105469 30.503906 21.882812 30.492188 C 21.964844 30.429688 22.011719 30.34375 22.03125 30.242188 C 22.4375 28.195312 22.636719 26.089844 23.371094 24.117188 C 23.574219 23.585938 23.816406 23.074219 24.09375 22.578125 C 24.5625 22.503906 24.941406 22.234375 25.316406 21.890625 C 25.695312 21.546875 26.449219 20.78125 26.027344 20.238281 C 25.546875 19.617188 24.859375 20.011719 24.445312 20.46875 C 24.117188 20.851562 23.828125 21.261719 23.585938 21.707031 C 23.503906 21.679688 23.429688 21.640625 23.363281 21.589844 C 23.839844 21.085938 24.097656 20.492188 24.128906 19.800781 C 24.136719 19.597656 23.949219 19.464844 23.777344 19.410156 C 22.566406 19.050781 22.011719 20.320312 22.222656 21.304688 C 21.910156 21.429688 21.597656 21.441406 21.277344 21.335938 C 21.640625 20.996094 21.933594 20.605469 22.15625 20.160156 C 22.457031 19.554688 22.390625 18.84375 21.726562 18.519531 C 21.101562 18.214844 20.203125 18.324219 19.773438 18.894531 C 19.367188 19.4375 19.414062 20.1875 19.644531 20.792969 C 19.695312 20.929688 19.757812 21.058594 19.832031 21.179688 C 19.757812 21.191406 19.675781 21.203125 19.585938 21.210938 C 19.167969 21.253906 18.75 21.253906 18.332031 21.210938 C 18.09375 20.855469 17.828125 20.519531 17.535156 20.203125 C 17.332031 19.980469 16.988281 20.117188 16.859375 20.332031 C 16.523438 20.898438 16.65625 21.472656 17.226562 21.800781 C 17.414062 21.90625 17.613281 21.976562 17.824219 22.019531 C 18.441406 23.054688 18.824219 24.234375 19.09375 25.398438 C 19.484375 27.074219 19.597656 28.820312 19.601562 30.539062 L 19.601562 30.582031 C 18.949219 30.675781 18.300781 30.804688 17.640625 30.839844 C 17.214844 30.863281 16.722656 30.867188 16.253906 30.9375 C 16.28125 30.847656 16.273438 30.757812 16.234375 30.671875 C 15.996094 30.082031 15.730469 29.441406 15.316406 28.945312 C 14.664062 28.160156 13.707031 27.71875 12.863281 27.171875 C 10.820312 25.859375 10.28125 23.253906 10.09375 21.011719 C 9.988281 19.820312 10.082031 18.640625 10.382812 17.480469 C 10.671875 16.390625 11.265625 15.371094 11.90625 14.445312 C 12.984375 12.886719 14.476562 11.761719 16.316406 11.21875 C 17.386719 10.902344 18.492188 10.84375 19.601562 10.804688 C 20.980469 10.753906 22.355469 10.777344 23.734375 10.878906 C 25.890625 11.050781 28.082031 11.378906 29.433594 13.21875 C 30.582031 14.777344 30.929688 16.886719 31.078125 18.773438 C 31.261719 21.117188 30.886719 23.457031 29.632812 25.492188 Z M 29.632812 25.492188 " fill-opacity="1" fill-rule="nonzero"/><g clip-path="url(#13b91ea373)"><path fill="#000000" d="M 18.03125 3.960938 L 18.03125 6.378906 C 18.03125 6.933594 18.902344 6.863281 18.902344 6.3125 L 18.902344 3.894531 C 18.902344 3.339844 18.03125 3.410156 18.03125 3.960938 Z M 18.03125 3.960938 " fill-opacity="1" fill-rule="nonzero"/></g><path fill="#000000" d="M 10.015625 6.828125 C 10 6.277344 9.132812 6.34375 9.148438 6.894531 C 9.164062 7.460938 9.335938 7.984375 9.558594 8.503906 C 9.765625 8.988281 10.003906 9.457031 10.019531 9.996094 C 10.035156 10.546875 10.90625 10.476562 10.886719 9.929688 C 10.851562 8.824219 10.046875 7.933594 10.015625 6.828125 Z M 10.015625 6.828125 " fill-opacity="1" fill-rule="nonzero"/><g clip-path="url(#e1c77d34b0)"><path fill="#000000" d="M 4.367188 19.703125 C 3.855469 18.894531 3.039062 18.378906 2.453125 17.636719 C 2.109375 17.199219 1.386719 17.679688 1.730469 18.121094 C 2.316406 18.863281 3.136719 19.382812 3.648438 20.1875 C 3.945312 20.65625 4.667969 20.171875 4.367188 19.703125 Z M 4.367188 19.703125 " fill-opacity="1" fill-rule="nonzero"/></g><path fill="#000000" d="M 30.070312 5.644531 C 29.347656 6.179688 28.613281 6.730469 28.179688 7.53125 C 27.917969 8.023438 28.699219 8.402344 28.960938 7.914062 C 29.316406 7.25 29.960938 6.800781 30.558594 6.359375 C 31.003906 6.03125 30.519531 5.3125 30.070312 5.644531 Z M 30.070312 5.644531 " fill-opacity="1" fill-rule="nonzero"/><path fill="#000000" d="M 8.128906 27.707031 C 7.152344 26.867188 6.3125 28.605469 5.683594 29.050781 C 5.226562 29.375 5.714844 30.089844 6.175781 29.765625 C 6.492188 29.542969 6.734375 29.226562 6.984375 28.9375 C 7.117188 28.773438 7.261719 28.625 7.421875 28.484375 C 7.503906 28.417969 7.613281 28.402344 7.558594 28.355469 C 7.976562 28.722656 8.550781 28.074219 8.128906 27.707031 Z M 8.128906 27.707031 " fill-opacity="1" fill-rule="nonzero"/><g fill="#000000" fill-opacity="1"><g transform="translate(43.087488, 36.146704)"><g><path d="M 14.78125 -22.28125 C 15.382812 -22.1875 15.867188 -21.957031 16.234375 -21.59375 C 16.609375 -21.226562 16.859375 -20.796875 16.984375 -20.296875 C 17.117188 -19.796875 17.117188 -19.304688 16.984375 -18.828125 C 16.859375 -18.359375 16.609375 -17.988281 16.234375 -17.71875 C 15.867188 -17.445312 15.382812 -17.34375 14.78125 -17.40625 C 13.789062 -17.539062 12.753906 -17.640625 11.671875 -17.703125 C 11.515625 -15.347656 11.363281 -12.988281 11.21875 -10.625 C 11.082031 -8.269531 10.941406 -5.90625 10.796875 -3.53125 C 10.773438 -2.925781 10.582031 -2.429688 10.21875 -2.046875 C 9.863281 -1.671875 9.441406 -1.421875 8.953125 -1.296875 C 8.472656 -1.171875 7.992188 -1.171875 7.515625 -1.296875 C 7.046875 -1.421875 6.660156 -1.664062 6.359375 -2.03125 C 6.054688 -2.40625 5.914062 -2.90625 5.9375 -3.53125 C 6.082031 -5.90625 6.222656 -8.273438 6.359375 -10.640625 C 6.503906 -13.015625 6.65625 -15.390625 6.8125 -17.765625 C 5.832031 -17.722656 4.878906 -17.660156 3.953125 -17.578125 C 3.328125 -17.503906 2.820312 -17.613281 2.4375 -17.90625 C 2.0625 -18.195312 1.816406 -18.582031 1.703125 -19.0625 C 1.585938 -19.539062 1.59375 -20.019531 1.71875 -20.5 C 1.84375 -20.988281 2.085938 -21.414062 2.453125 -21.78125 C 2.828125 -22.15625 3.328125 -22.375 3.953125 -22.4375 C 7.566406 -22.800781 11.175781 -22.75 14.78125 -22.28125 Z M 14.78125 -22.28125 "/></g></g></g><g fill="#000000" fill-opacity="1"><g transform="translate(61.789154, 36.146704)"><g><path d="M 16.796875 -14.171875 C 16.859375 -12.023438 16.910156 -9.867188 16.953125 -7.703125 C 16.992188 -5.546875 17.050781 -3.390625 17.125 -1.234375 C 17.144531 -0.609375 16.988281 -0.109375 16.65625 0.265625 C 16.332031 0.648438 15.929688 0.898438 15.453125 1.015625 C 14.984375 1.140625 14.503906 1.140625 14.015625 1.015625 C 13.535156 0.898438 13.125 0.648438 12.78125 0.265625 C 12.445312 -0.109375 12.269531 -0.609375 12.25 -1.234375 C 12.226562 -1.878906 12.210938 -2.519531 12.203125 -3.15625 C 12.191406 -3.800781 12.175781 -4.445312 12.15625 -5.09375 L 7.296875 -5.28125 C 7.117188 -4.457031 6.953125 -3.640625 6.796875 -2.828125 C 6.648438 -2.023438 6.503906 -1.210938 6.359375 -0.390625 C 6.242188 0.234375 6 0.6875 5.625 0.96875 C 5.25 1.25 4.8125 1.382812 4.3125 1.375 C 3.8125 1.363281 3.335938 1.234375 2.890625 0.984375 C 2.453125 0.734375 2.109375 0.382812 1.859375 -0.0625 C 1.609375 -0.519531 1.539062 -1.0625 1.65625 -1.6875 C 2.039062 -3.800781 2.476562 -5.894531 2.96875 -7.96875 C 3.457031 -10.050781 4.144531 -12.070312 5.03125 -14.03125 C 5.457031 -15.007812 6.003906 -16.0625 6.671875 -17.1875 C 7.347656 -18.3125 8.113281 -19.34375 8.96875 -20.28125 C 9.820312 -21.21875 10.765625 -21.90625 11.796875 -22.34375 C 12.773438 -22.75 13.566406 -22.820312 14.171875 -22.5625 C 14.773438 -22.300781 15.25 -21.835938 15.59375 -21.171875 C 15.9375 -20.503906 16.1875 -19.734375 16.34375 -18.859375 C 16.507812 -17.984375 16.617188 -17.125 16.671875 -16.28125 C 16.734375 -15.4375 16.773438 -14.734375 16.796875 -14.171875 Z M 8.625 -10.078125 C 9.207031 -10.054688 9.78125 -10.035156 10.34375 -10.015625 C 10.90625 -9.992188 11.46875 -9.972656 12.03125 -9.953125 C 12.007812 -10.660156 11.992188 -11.363281 11.984375 -12.0625 C 11.972656 -12.769531 11.957031 -13.472656 11.9375 -14.171875 C 11.914062 -14.453125 11.90625 -14.75 11.90625 -15.0625 C 11.90625 -15.375 11.90625 -15.691406 11.90625 -16.015625 C 11.53125 -15.585938 11.210938 -15.175781 10.953125 -14.78125 C 10.523438 -14.132812 10.128906 -13.457031 9.765625 -12.75 C 9.410156 -12.050781 9.09375 -11.347656 8.8125 -10.640625 C 8.789062 -10.546875 8.765625 -10.453125 8.734375 -10.359375 C 8.703125 -10.265625 8.664062 -10.171875 8.625 -10.078125 Z M 8.625 -10.078125 "/></g></g></g><g fill="#000000" fill-opacity="1"><g transform="translate(80.523224, 36.146704)"><g><path d="M 12.09375 -14 C 13.300781 -13.1875 14.253906 -12.117188 14.953125 -10.796875 C 15.660156 -9.472656 15.941406 -8.066406 15.796875 -6.578125 C 15.640625 -5.285156 15.191406 -4.171875 14.453125 -3.234375 C 13.722656 -2.304688 12.820312 -1.582031 11.75 -1.0625 C 10.675781 -0.550781 9.539062 -0.265625 8.34375 -0.203125 C 7.144531 -0.148438 5.992188 -0.347656 4.890625 -0.796875 C 3.785156 -1.253906 2.859375 -1.992188 2.109375 -3.015625 C 1.722656 -3.515625 1.5625 -3.992188 1.625 -4.453125 C 1.6875 -4.921875 1.882812 -5.328125 2.21875 -5.671875 C 2.550781 -6.015625 2.96875 -6.253906 3.46875 -6.390625 C 3.96875 -6.535156 4.46875 -6.539062 4.96875 -6.40625 C 5.476562 -6.28125 5.921875 -5.972656 6.296875 -5.484375 C 6.460938 -5.242188 6.78125 -5.109375 7.25 -5.078125 C 7.726562 -5.046875 8.207031 -5.066406 8.6875 -5.140625 C 9.164062 -5.210938 9.5 -5.289062 9.6875 -5.375 C 10.144531 -5.59375 10.488281 -5.910156 10.71875 -6.328125 C 10.945312 -6.753906 11.023438 -7.21875 10.953125 -7.71875 C 10.890625 -8.320312 10.675781 -8.816406 10.3125 -9.203125 C 9.945312 -9.597656 9.507812 -9.941406 9 -10.234375 C 8.488281 -10.523438 7.972656 -10.804688 7.453125 -11.078125 C 6.929688 -11.347656 6.476562 -11.644531 6.09375 -11.96875 C 5.007812 -12.914062 4.347656 -13.945312 4.109375 -15.0625 C 3.878906 -16.175781 3.960938 -17.285156 4.359375 -18.390625 C 4.753906 -19.503906 5.375 -20.515625 6.21875 -21.421875 C 7.0625 -22.335938 8.023438 -23.039062 9.109375 -23.53125 C 9.691406 -23.8125 10.234375 -23.890625 10.734375 -23.765625 C 11.234375 -23.640625 11.660156 -23.394531 12.015625 -23.03125 C 12.367188 -22.675781 12.609375 -22.257812 12.734375 -21.78125 C 12.867188 -21.3125 12.847656 -20.851562 12.671875 -20.40625 C 12.503906 -19.96875 12.140625 -19.617188 11.578125 -19.359375 C 11.203125 -19.179688 10.769531 -18.941406 10.28125 -18.640625 C 9.800781 -18.335938 9.40625 -17.972656 9.09375 -17.546875 C 8.78125 -17.128906 8.722656 -16.660156 8.921875 -16.140625 C 9.023438 -15.796875 9.273438 -15.5 9.671875 -15.25 C 10.078125 -15 10.503906 -14.773438 10.953125 -14.578125 C 11.410156 -14.390625 11.789062 -14.195312 12.09375 -14 Z M 12.09375 -14 "/></g></g></g><g fill="#000000" fill-opacity="1"><g transform="translate(97.960828, 36.146704)"><g><path d="M 16.203125 -20.421875 C 15.554688 -19.335938 14.859375 -18.253906 14.109375 -17.171875 C 13.367188 -16.097656 12.515625 -15.140625 11.546875 -14.296875 C 13.617188 -11.941406 14.796875 -9.132812 15.078125 -5.875 C 15.117188 -5.238281 14.992188 -4.738281 14.703125 -4.375 C 14.410156 -4.007812 14.03125 -3.757812 13.5625 -3.625 C 13.101562 -3.5 12.625 -3.5 12.125 -3.625 C 11.625 -3.757812 11.191406 -4.015625 10.828125 -4.390625 C 10.460938 -4.765625 10.257812 -5.257812 10.21875 -5.875 C 10.101562 -7.019531 9.785156 -8.113281 9.265625 -9.15625 C 8.753906 -10.207031 8.078125 -11.109375 7.234375 -11.859375 C 7.015625 -9.140625 6.722656 -6.429688 6.359375 -3.734375 C 6.285156 -3.296875 6.082031 -2.929688 5.75 -2.640625 C 5.414062 -2.347656 5.023438 -2.144531 4.578125 -2.03125 C 4.140625 -1.925781 3.726562 -1.929688 3.34375 -2.046875 C 2.644531 -2.234375 2.164062 -2.613281 1.90625 -3.1875 C 1.65625 -3.757812 1.570312 -4.375 1.65625 -5.03125 C 2.0625 -8.09375 2.367188 -11.171875 2.578125 -14.265625 C 2.785156 -17.359375 2.898438 -20.460938 2.921875 -23.578125 C 2.921875 -24.203125 3.082031 -24.695312 3.40625 -25.0625 C 3.726562 -25.425781 4.128906 -25.671875 4.609375 -25.796875 C 5.097656 -25.929688 5.585938 -25.929688 6.078125 -25.796875 C 6.566406 -25.671875 6.972656 -25.425781 7.296875 -25.0625 C 7.617188 -24.695312 7.78125 -24.203125 7.78125 -23.578125 C 7.757812 -22.515625 7.738281 -21.457031 7.71875 -20.40625 C 7.695312 -19.363281 7.65625 -18.3125 7.59375 -17.25 C 8.238281 -17.613281 8.832031 -18.128906 9.375 -18.796875 C 9.914062 -19.472656 10.398438 -20.175781 10.828125 -20.90625 C 11.265625 -21.644531 11.65625 -22.304688 12 -22.890625 C 12.320312 -23.429688 12.710938 -23.78125 13.171875 -23.9375 C 13.640625 -24.101562 14.113281 -24.113281 14.59375 -23.96875 C 15.082031 -23.832031 15.503906 -23.59375 15.859375 -23.25 C 16.222656 -22.90625 16.445312 -22.484375 16.53125 -21.984375 C 16.625 -21.484375 16.515625 -20.960938 16.203125 -20.421875 Z M 16.203125 -20.421875 "/></g></g></g><g fill="#000000" fill-opacity="1"><g transform="translate(116.111495, 36.146704)"><g><path d="M 3.078125 -19.96875 C 3.140625 -20.570312 3.351562 -21.054688 3.71875 -21.421875 C 4.09375 -21.796875 4.523438 -22.046875 5.015625 -22.171875 C 5.515625 -22.304688 6.003906 -22.3125 6.484375 -22.1875 C 6.960938 -22.070312 7.34375 -21.820312 7.625 -21.4375 C 7.90625 -21.0625 8.007812 -20.570312 7.9375 -19.96875 C 7.3125 -14.113281 6.828125 -8.242188 6.484375 -2.359375 C 6.441406 -1.734375 6.242188 -1.234375 5.890625 -0.859375 C 5.546875 -0.484375 5.128906 -0.234375 4.640625 -0.109375 C 4.160156 0.00390625 3.679688 0.00390625 3.203125 -0.109375 C 2.734375 -0.234375 2.34375 -0.484375 2.03125 -0.859375 C 1.71875 -1.234375 1.582031 -1.734375 1.625 -2.359375 C 1.96875 -8.242188 2.453125 -14.113281 3.078125 -19.96875 Z M 3.078125 -19.96875 "/></g></g></g><g fill="#000000" fill-opacity="1"><g transform="translate(125.705418, 36.146704)"><g><path d="M 14.65625 -22.5 C 15.28125 -22.582031 15.816406 -22.492188 16.265625 -22.234375 C 16.722656 -21.984375 17.078125 -21.632812 17.328125 -21.1875 C 17.578125 -20.738281 17.707031 -20.269531 17.71875 -19.78125 C 17.726562 -19.300781 17.59375 -18.878906 17.3125 -18.515625 C 17.03125 -18.148438 16.578125 -17.910156 15.953125 -17.796875 C 14.847656 -17.628906 13.742188 -17.457031 12.640625 -17.28125 C 11.535156 -17.101562 10.4375 -16.929688 9.34375 -16.765625 C 9.320312 -16.765625 9.226562 -16.75 9.0625 -16.71875 C 8.894531 -16.6875 8.71875 -16.65625 8.53125 -16.625 C 8.53125 -16.476562 8.519531 -16.375 8.5 -16.3125 C 8.539062 -15.8125 8.503906 -15.285156 8.390625 -14.734375 C 8.285156 -14.179688 8.203125 -13.65625 8.140625 -13.15625 C 8.140625 -13.070312 8.132812 -12.992188 8.125 -12.921875 C 8.113281 -12.847656 8.109375 -12.773438 8.109375 -12.703125 C 9.773438 -12.960938 11.425781 -13.101562 13.0625 -13.125 C 13.6875 -13.125 14.1875 -12.96875 14.5625 -12.65625 C 14.945312 -12.34375 15.195312 -11.941406 15.3125 -11.453125 C 15.4375 -10.972656 15.4375 -10.488281 15.3125 -10 C 15.195312 -9.507812 14.945312 -9.101562 14.5625 -8.78125 C 14.1875 -8.457031 13.6875 -8.285156 13.0625 -8.265625 C 11.1875 -8.242188 9.316406 -8.039062 7.453125 -7.65625 C 7.285156 -6.375 7.109375 -5.085938 6.921875 -3.796875 C 6.734375 -2.515625 6.546875 -1.238281 6.359375 0.03125 C 6.242188 0.632812 6.003906 1.078125 5.640625 1.359375 C 5.273438 1.640625 4.847656 1.78125 4.359375 1.78125 C 3.867188 1.78125 3.394531 1.648438 2.9375 1.390625 C 2.488281 1.128906 2.140625 0.769531 1.890625 0.3125 C 1.648438 -0.132812 1.570312 -0.660156 1.65625 -1.265625 C 2.082031 -3.960938 2.460938 -6.660156 2.796875 -9.359375 C 3.140625 -12.066406 3.460938 -14.769531 3.765625 -17.46875 C 3.890625 -18.632812 4.222656 -19.519531 4.765625 -20.125 C 5.304688 -20.738281 6.160156 -21.140625 7.328125 -21.328125 C 8.535156 -21.523438 9.753906 -21.71875 10.984375 -21.90625 C 12.222656 -22.101562 13.445312 -22.300781 14.65625 -22.5 Z M 14.65625 -22.5 "/></g></g></g><g fill="#000000" fill-opacity="1"><g transform="translate(145.022903, 36.146704)"><g><path d="M 13.09375 -22.171875 C 13.164062 -22.796875 13.390625 -23.265625 13.765625 -23.578125 C 14.140625 -23.898438 14.570312 -24.082031 15.0625 -24.125 C 15.550781 -24.164062 16.023438 -24.078125 16.484375 -23.859375 C 16.953125 -23.640625 17.320312 -23.3125 17.59375 -22.875 C 17.863281 -22.445312 17.953125 -21.929688 17.859375 -21.328125 C 17.691406 -19.921875 17.53125 -18.4375 17.375 -16.875 C 17.226562 -15.3125 17.007812 -13.738281 16.71875 -12.15625 C 16.425781 -10.582031 16.003906 -9.082031 15.453125 -7.65625 C 14.898438 -6.226562 14.144531 -4.945312 13.1875 -3.8125 C 12.238281 -2.675781 11.019531 -1.757812 9.53125 -1.0625 C 8.96875 -0.8125 8.453125 -0.757812 7.984375 -0.90625 C 7.523438 -1.0625 7.15625 -1.335938 6.875 -1.734375 C 6.59375 -2.128906 6.425781 -2.582031 6.375 -3.09375 C 6.320312 -3.601562 6.40625 -4.085938 6.625 -4.546875 C 6.851562 -5.015625 7.25 -5.367188 7.8125 -5.609375 C 8.550781 -5.953125 9.148438 -6.414062 9.609375 -7 C 10.078125 -7.582031 10.453125 -8.234375 10.734375 -8.953125 C 9.847656 -8.648438 8.941406 -8.503906 8.015625 -8.515625 C 7.097656 -8.523438 6.195312 -8.753906 5.3125 -9.203125 C 4.144531 -9.785156 3.273438 -10.609375 2.703125 -11.671875 C 2.128906 -12.734375 1.789062 -13.894531 1.6875 -15.15625 C 1.582031 -16.414062 1.640625 -17.675781 1.859375 -18.9375 C 2.085938 -20.207031 2.429688 -21.351562 2.890625 -22.375 C 3.117188 -22.957031 3.460938 -23.347656 3.921875 -23.546875 C 4.378906 -23.753906 4.847656 -23.816406 5.328125 -23.734375 C 5.816406 -23.648438 6.253906 -23.441406 6.640625 -23.109375 C 7.035156 -22.785156 7.300781 -22.382812 7.4375 -21.90625 C 7.582031 -21.4375 7.535156 -20.910156 7.296875 -20.328125 C 7.117188 -19.960938 6.941406 -19.460938 6.765625 -18.828125 C 6.597656 -18.203125 6.476562 -17.546875 6.40625 -16.859375 C 6.332031 -16.171875 6.359375 -15.535156 6.484375 -14.953125 C 6.609375 -14.367188 6.910156 -13.921875 7.390625 -13.609375 C 7.828125 -13.304688 8.296875 -13.207031 8.796875 -13.3125 C 9.304688 -13.425781 9.789062 -13.660156 10.25 -14.015625 C 10.71875 -14.378906 11.132812 -14.785156 11.5 -15.234375 C 11.875 -15.691406 12.171875 -16.101562 12.390625 -16.46875 C 12.515625 -17.414062 12.628906 -18.363281 12.734375 -19.3125 C 12.847656 -20.269531 12.96875 -21.222656 13.09375 -22.171875 Z M 13.09375 -22.171875 "/></g></g></g></svg>