<svg xmlns="http://www.w3.org/2000/svg" xmlns:xlink="http://www.w3.org/1999/xlink" width="500" zoomAndPan="magnify" viewBox="0 0 375 374.999991" height="500" preserveAspectRatio="xMidYMid meet" version="1.0"><defs><g/></defs><path fill="#000000" d="M 287.25 108.5625 C 280.976562 106.675781 274.550781 108.4375 268.167969 108.527344 C 265.046875 108.574219 265.445312 113.402344 268.546875 113.355469 C 274.480469 113.269531 280.484375 111.542969 286.3125 113.320312 C 289.316406 114.21875 290.210938 109.445312 287.25 108.5625 Z M 287.25 108.5625 " fill-opacity="1" fill-rule="nonzero"/><path fill="#000000" d="M 272.875 156.582031 C 270.671875 154.355469 267.492188 158.011719 269.671875 160.214844 C 272.875 163.449219 276.421875 167.347656 276.613281 172.136719 C 276.738281 175.257812 281.570312 174.882812 281.449219 171.765625 C 281.1875 165.667969 276.96875 160.730469 272.875 156.582031 Z M 272.875 156.582031 " fill-opacity="1" fill-rule="nonzero"/><path fill="#73a0b1" d="M 222.132812 188.324219 L 222.132812 188.300781 C 221.8125 187.878906 221.441406 187.507812 221.019531 187.1875 C 217.21875 184.132812 211.125 184.167969 206.484375 184.039062 C 200.058594 183.863281 193.597656 183.363281 187.199219 184.203125 C 184.242188 184.59375 181.324219 185.425781 178.355469 185.652344 C 176.234375 185.8125 174.101562 185.871094 171.996094 186.046875 C 169.671875 186.242188 167.175781 186.402344 165.007812 187.328125 C 163.226562 188.089844 162.65625 190.375 165.261719 190.050781 C 165.628906 189.980469 165.988281 190.007812 166.339844 190.136719 C 166.695312 190.261719 166.988281 190.46875 167.230469 190.753906 C 168.792969 190.753906 170.351562 190.753906 171.910156 190.71875 C 179.8125 190.617188 187.722656 190.441406 195.621094 190.804688 C 200.289062 191.015625 204.890625 191.675781 209.554688 191.296875 C 212.898438 191.03125 216.367188 190.695312 219.546875 189.628906 C 220.230469 189.433594 220.878906 189.171875 221.5 188.832031 C 221.734375 188.699219 221.960938 188.546875 222.175781 188.378906 C 222.09375 188.417969 222.101562 188.378906 222.132812 188.324219 Z M 222.132812 188.324219 " fill-opacity="1" fill-rule="nonzero"/><path fill="#fdbe10" d="M 199.964844 151.265625 C 201.460938 145.226562 203.601562 139.425781 206.382812 133.859375 C 205.28125 133.390625 204.3125 132.734375 203.472656 131.882812 C 202.222656 132.507812 200.90625 132.875 199.515625 132.980469 C 198.125 133.085938 196.765625 132.925781 195.433594 132.5 C 194.011719 132.0625 192.6875 131.425781 191.457031 130.585938 C 189.101562 131.628906 186.421875 131.742188 183.84375 131.785156 L 182.367188 131.785156 C 189.746094 145.949219 191.242188 163.453125 191.292969 178.914062 L 191.292969 178.964844 C 191.898438 178.925781 192.503906 178.894531 193.109375 178.878906 C 194.058594 178.878906 195.003906 178.878906 195.949219 178.902344 C 195.625 178.636719 195.398438 178.304688 195.265625 177.90625 C 195.132812 177.507812 195.117188 177.105469 195.21875 176.699219 C 196.890625 168.242188 197.898438 159.644531 199.964844 151.265625 Z M 199.964844 151.265625 " fill-opacity="1" fill-rule="nonzero"/><path fill="#73a0b1" d="M 213.601562 225.375 C 211.945312 225.332031 210.726562 224.011719 211.0625 222.441406 C 210.941406 222.460938 210.816406 222.46875 210.695312 222.46875 C 201.070312 222.511719 191.46875 223.4375 181.839844 223.203125 C 177.839844 223.109375 172.03125 223.175781 167.757812 221.289062 C 166.460938 225.828125 167.699219 230.914062 173.058594 232.328125 C 179.273438 233.957031 185.71875 232.042969 192.011719 232.171875 C 195.457031 232.246094 198.898438 232.582031 202.34375 232.625 C 205.367188 232.667969 209.085938 232.867188 211.882812 231.570312 C 212.753906 231.144531 213.519531 230.582031 214.183594 229.878906 C 214.84375 229.175781 215.363281 228.375 215.730469 227.484375 C 216.425781 225.695312 215.261719 225.417969 213.601562 225.375 Z M 213.601562 225.375 " fill-opacity="1" fill-rule="nonzero"/><path fill="#fdbe10" d="M 191.273438 116.660156 C 189.835938 118.589844 190.652344 121.734375 191.625 123.675781 C 191.742188 123.910156 191.871094 124.132812 191.996094 124.34375 L 192.324219 124.03125 C 193.921875 122.453125 197.003906 119.492188 196.867188 116.96875 C 196.722656 114.890625 192.273438 115.34375 191.273438 116.660156 Z M 191.273438 116.660156 " fill-opacity="1" fill-rule="nonzero"/><path fill="#73a0b1" d="M 213.589844 209.789062 C 213.332031 209.378906 213.199219 208.9375 213.191406 208.453125 C 210.613281 209.644531 207.421875 209.859375 204.722656 210.023438 C 200.851562 210.261719 197 210.203125 193.109375 210.140625 C 184.699219 210.015625 175.496094 210.550781 167.8125 206.65625 C 166.613281 207.988281 165.703125 209.492188 165.085938 211.171875 C 164.632812 212.535156 164.785156 213.40625 165.488281 213.996094 C 166.179688 213.957031 166.75 214.203125 167.195312 214.734375 L 167.351562 214.773438 C 167.808594 214.882812 168.210938 215.097656 168.550781 215.421875 C 168.894531 215.746094 169.132812 216.136719 169.265625 216.585938 C 170.871094 217.386719 172.972656 217.640625 174.488281 217.84375 C 177.734375 218.25 180.992188 218.429688 184.261719 218.382812 C 192.960938 218.382812 201.632812 217.660156 210.328125 217.621094 C 210.824219 217.609375 211.285156 217.738281 211.703125 218.011719 C 212.125 218.285156 212.429688 218.648438 212.621094 219.109375 C 214.175781 216.101562 215.625 212.925781 213.589844 209.789062 Z M 213.589844 209.789062 " fill-opacity="1" fill-rule="nonzero"/><path fill="#73a0b1" d="M 214.316406 195.988281 C 214.238281 195.886719 214.167969 195.78125 214.105469 195.667969 C 211.835938 195.988281 209.523438 196.191406 207.222656 196.28125 C 204.847656 196.375 202.503906 196.023438 200.136719 195.859375 C 196.203125 195.589844 192.253906 195.464844 188.328125 195.429688 C 181.964844 195.375 175.636719 195.503906 169.296875 195.5625 C 168.667969 196.050781 167.957031 196.242188 167.167969 196.132812 C 166.371094 197.660156 165.804688 199.550781 166.5625 200.804688 C 167.082031 200.75 167.558594 200.871094 167.988281 201.164062 C 175.441406 205.921875 184.769531 205.167969 193.230469 205.308594 C 196.738281 205.367188 200.261719 205.429688 203.761719 205.21875 C 206.355469 205.0625 209.882812 205.117188 212.085938 203.507812 C 213.75 202.285156 215.5 203.628906 215.765625 205.214844 C 217.917969 202.660156 216.34375 198.636719 214.316406 195.988281 Z M 214.316406 195.988281 " fill-opacity="1" fill-rule="nonzero"/><path fill="#fdbe10" d="M 250.320312 113.074219 C 249.5 102.480469 247.558594 90.605469 241.148438 81.796875 C 233.625 71.453125 221.425781 69.613281 209.433594 68.632812 C 201.773438 68.0625 194.105469 67.925781 186.433594 68.222656 C 180.257812 68.433594 174.101562 68.773438 168.148438 70.554688 C 157.933594 73.605469 149.640625 79.953125 143.617188 88.707031 C 140.058594 93.902344 136.75 99.660156 135.144531 105.78125 C 133.472656 112.316406 132.933594 118.941406 133.527344 125.660156 C 134.570312 138.273438 137.5625 152.929688 148.933594 160.328125 C 153.640625 163.394531 158.964844 165.886719 162.601562 170.3125 C 164.871094 173.09375 166.371094 176.707031 167.707031 180.023438 C 167.921875 180.507812 167.953125 181.007812 167.8125 181.515625 C 170.433594 181.121094 173.167969 181.09375 175.535156 180.964844 C 179.214844 180.765625 182.800781 180.054688 186.4375 179.507812 L 186.4375 179.273438 C 186.4375 169.609375 185.777344 159.78125 183.617188 150.339844 C 182.117188 143.792969 179.980469 137.15625 176.554688 131.320312 C 175.378906 131.089844 174.269531 130.679688 173.226562 130.09375 C 170.046875 128.242188 169.304688 125 171.167969 121.835938 C 171.886719 120.617188 173.8125 119.855469 174.9375 121.09375 C 176.5625 122.875 178.042969 124.769531 179.378906 126.777344 C 181.703125 127.019531 184.027344 127.019531 186.355469 126.777344 C 186.851562 126.730469 187.296875 126.675781 187.71875 126.605469 C 187.304688 125.910156 186.957031 125.1875 186.671875 124.429688 C 185.394531 121.023438 185.117188 116.796875 187.402344 113.734375 C 189.789062 110.535156 194.78125 109.917969 198.265625 111.632812 C 201.957031 113.449219 202.328125 117.445312 200.65625 120.871094 C 199.421875 123.371094 197.800781 125.578125 195.785156 127.503906 C 196.644531 127.785156 197.527344 127.910156 198.433594 127.878906 C 199.335938 127.84375 200.207031 127.65625 201.046875 127.3125 C 199.863281 121.789062 202.957031 114.632812 209.703125 116.667969 C 210.664062 116.960938 211.6875 117.722656 211.65625 118.863281 C 211.566406 120.738281 211.15625 122.542969 210.421875 124.277344 C 209.691406 126.007812 208.683594 127.558594 207.398438 128.933594 C 207.773438 129.21875 208.1875 129.433594 208.636719 129.578125 C 209.980469 127.082031 211.570312 124.757812 213.410156 122.605469 C 215.683594 120.039062 219.53125 117.808594 222.207031 121.3125 C 224.546875 124.367188 220.296875 128.714844 218.261719 130.597656 C 216.226562 132.480469 214.066406 134.0625 211.449219 134.464844 C 209.898438 137.261719 208.558594 140.152344 207.421875 143.140625 C 203.335938 154.222656 202.246094 166.082031 199.96875 177.605469 C 199.875 178.179688 199.597656 178.648438 199.136719 179.011719 C 200.390625 179.066406 201.644531 179.121094 202.902344 179.132812 C 205.546875 179.160156 208.199219 179.230469 210.839844 179.441406 C 213.246094 179.585938 215.625 179.925781 217.976562 180.46875 C 221.097656 167.832031 235.808594 161.507812 242.28125 150.863281 C 249.253906 139.429688 251.34375 126.265625 250.320312 113.074219 Z M 250.320312 113.074219 " fill-opacity="1" fill-rule="nonzero"/><path fill="#73a0b1" d="M 205.65625 123.347656 C 205.957031 122.824219 206.195312 122.277344 206.378906 121.703125 C 205.972656 122.179688 205.734375 122.726562 205.65625 123.347656 Z M 205.65625 123.347656 " fill-opacity="1" fill-rule="nonzero"/><path fill="#000000" d="M 250.753906 90.199219 C 247.445312 80.621094 241.265625 72.445312 231.882812 68.203125 C 225.765625 65.417969 218.808594 64.699219 212.175781 64.058594 C 204.6875 63.375 197.1875 63.125 189.671875 63.3125 C 177.796875 63.527344 166.277344 64.621094 155.773438 70.613281 C 146.101562 76.136719 139.726562 85.171875 134.421875 94.667969 C 127.988281 106.195312 127.507812 120.328125 129.574219 133.074219 C 131.453125 144.65625 135.164062 156.355469 145.09375 163.515625 C 149.449219 166.664062 154.488281 168.820312 158.265625 172.699219 C 160.582031 175.066406 161.902344 178.597656 163.125 181.625 C 163.265625 181.976562 163.476562 182.28125 163.753906 182.535156 C 162.746094 182.914062 161.8125 183.425781 160.953125 184.078125 C 156.78125 187.308594 158.421875 193.003906 162.539062 194.515625 C 162.300781 195.109375 162.109375 195.683594 161.960938 196.148438 C 161 199.121094 161.175781 202.480469 163.191406 204.597656 C 161.570312 206.71875 160.292969 209.203125 160.011719 211.808594 C 159.65625 214.90625 161.167969 217.140625 163.527344 218.445312 C 160.941406 224.960938 162.585938 232.703125 169.433594 236 C 177.066406 239.671875 186.105469 236.707031 194.199219 237.035156 C 201.921875 237.34375 211.765625 239.222656 217.753906 233.0625 C 219.628906 231.132812 221.175781 228.164062 220.730469 225.410156 C 220.355469 223.085938 218.8125 221.78125 216.910156 221.128906 C 218.753906 217.148438 220.3125 213.324219 218.695312 209.179688 C 222.78125 205.527344 222.085938 199.28125 219.304688 194.6875 C 221.660156 194.121094 223.980469 193.269531 225.738281 191.578125 C 228.269531 189.152344 226.648438 185.796875 224.539062 183.808594 C 223.925781 183.238281 223.257812 182.738281 222.539062 182.308594 C 223.515625 177.914062 226.46875 174.414062 229.558594 171.207031 C 233.40625 167.214844 237.6875 163.671875 241.484375 159.632812 C 249.921875 150.65625 254.171875 138.105469 255.167969 126 C 255.65625 119.945312 255.53125 113.90625 254.785156 107.875 C 254.042969 101.847656 252.699219 95.957031 250.753906 90.199219 Z M 165.484375 213.996094 C 164.78125 213.40625 164.621094 212.515625 165.082031 211.171875 C 165.699219 209.492188 166.609375 207.988281 167.808594 206.65625 C 175.492188 210.550781 184.695312 210.015625 193.105469 210.140625 C 196.976562 210.203125 200.828125 210.261719 204.714844 210.023438 C 207.417969 209.859375 210.621094 209.644531 213.1875 208.453125 C 213.195312 208.9375 213.328125 209.378906 213.582031 209.789062 C 215.617188 212.925781 214.167969 216.097656 212.613281 219.128906 C 212.417969 218.667969 212.113281 218.300781 211.695312 218.03125 C 211.277344 217.757812 210.816406 217.628906 210.316406 217.640625 C 201.621094 217.675781 192.949219 218.390625 184.25 218.402344 C 180.980469 218.449219 177.722656 218.269531 174.480469 217.863281 C 172.960938 217.660156 170.847656 217.410156 169.253906 216.605469 C 169.121094 216.152344 168.882812 215.765625 168.542969 215.441406 C 168.203125 215.117188 167.800781 214.898438 167.34375 214.789062 L 167.183594 214.753906 C 166.746094 214.214844 166.179688 213.964844 165.484375 213.996094 Z M 215.730469 227.449219 C 215.363281 228.339844 214.84375 229.136719 214.183594 229.839844 C 213.519531 230.546875 212.753906 231.109375 211.882812 231.53125 C 209.066406 232.832031 205.347656 232.632812 202.34375 232.589844 C 198.898438 232.539062 195.457031 232.203125 192.011719 232.136719 C 185.71875 232.003906 179.289062 233.921875 173.058594 232.289062 C 167.699219 230.878906 166.460938 225.785156 167.757812 221.253906 C 172.050781 223.140625 177.859375 223.070312 181.839844 223.167969 C 191.46875 223.398438 201.070312 222.472656 210.695312 222.433594 C 210.816406 222.433594 210.941406 222.425781 211.0625 222.40625 C 210.726562 223.976562 211.945312 225.296875 213.601562 225.335938 C 215.261719 225.378906 216.425781 225.695312 215.730469 227.449219 Z M 215.730469 205.207031 C 215.46875 203.625 213.71875 202.28125 212.054688 203.503906 C 209.847656 205.113281 206.324219 205.058594 203.730469 205.214844 C 200.226562 205.425781 196.707031 205.363281 193.199219 205.304688 C 184.738281 205.164062 175.410156 205.917969 167.957031 201.160156 C 167.527344 200.863281 167.050781 200.746094 166.53125 200.800781 C 165.789062 199.542969 166.339844 197.65625 167.132812 196.128906 C 167.929688 196.234375 168.644531 196.042969 169.273438 195.546875 C 175.632812 195.488281 181.957031 195.355469 188.304688 195.410156 C 192.246094 195.445312 196.195312 195.574219 200.113281 195.839844 C 202.480469 196.003906 204.824219 196.359375 207.203125 196.261719 C 209.5 196.171875 211.796875 195.96875 214.082031 195.652344 C 214.144531 195.761719 214.214844 195.867188 214.292969 195.96875 C 216.34375 198.636719 217.917969 202.660156 215.742188 205.207031 Z M 221.484375 188.804688 C 220.863281 189.144531 220.210938 189.40625 219.53125 189.601562 C 216.351562 190.667969 212.871094 191.003906 209.535156 191.269531 C 204.871094 191.648438 200.269531 190.988281 195.605469 190.777344 C 187.703125 190.414062 179.796875 190.589844 171.890625 190.691406 C 170.332031 190.710938 168.773438 190.71875 167.210938 190.726562 C 166.972656 190.441406 166.675781 190.234375 166.324219 190.109375 C 165.972656 189.980469 165.613281 189.953125 165.246094 190.023438 C 162.636719 190.359375 163.210938 188.070312 164.988281 187.300781 C 167.15625 186.390625 169.65625 186.214844 171.976562 186.019531 C 174.09375 185.84375 176.222656 185.785156 178.335938 185.625 C 181.308594 185.398438 184.242188 184.566406 187.179688 184.175781 C 193.578125 183.335938 200.042969 183.835938 206.464844 184.011719 C 211.113281 184.140625 217.203125 184.105469 221.003906 187.160156 C 221.421875 187.480469 221.792969 187.851562 222.113281 188.277344 L 222.113281 188.296875 C 222.074219 188.351562 222.066406 188.394531 222.136719 188.339844 C 221.933594 188.515625 221.71875 188.675781 221.492188 188.824219 Z M 191.457031 130.585938 C 192.6875 131.425781 194.011719 132.0625 195.433594 132.5 C 196.765625 132.925781 198.125 133.085938 199.515625 132.980469 C 200.90625 132.875 202.222656 132.507812 203.472656 131.882812 C 204.3125 132.734375 205.28125 133.390625 206.382812 133.859375 C 203.601562 139.425781 201.460938 145.226562 199.964844 151.265625 C 197.898438 159.644531 196.890625 168.242188 195.222656 176.683594 C 195.121094 177.089844 195.136719 177.492188 195.269531 177.890625 C 195.402344 178.289062 195.628906 178.621094 195.953125 178.890625 C 195.007812 178.863281 194.0625 178.847656 193.113281 178.867188 C 192.5 178.867188 191.890625 178.914062 191.296875 178.953125 L 191.296875 178.898438 C 191.265625 163.429688 189.753906 145.933594 182.371094 131.785156 L 183.847656 131.785156 C 186.421875 131.742188 189.101562 131.628906 191.457031 130.585938 Z M 191.273438 116.660156 C 192.273438 115.300781 196.726562 114.890625 196.847656 116.96875 C 197.003906 119.484375 193.921875 122.453125 192.304688 124.03125 L 191.976562 124.34375 C 191.851562 124.132812 191.722656 123.890625 191.605469 123.675781 C 190.652344 121.734375 189.835938 118.589844 191.273438 116.660156 Z M 205.65625 123.347656 C 205.734375 122.726562 205.972656 122.179688 206.378906 121.703125 C 206.195312 122.277344 205.957031 122.824219 205.65625 123.347656 Z M 242.289062 150.882812 C 235.816406 161.523438 221.105469 167.851562 217.984375 180.488281 C 215.636719 179.945312 213.257812 179.601562 210.847656 179.460938 C 208.210938 179.25 205.558594 179.179688 202.914062 179.152344 C 201.65625 179.152344 200.402344 179.085938 199.148438 179.03125 C 199.605469 178.667969 199.882812 178.199219 199.976562 177.625 C 202.25 166.101562 203.34375 154.242188 207.433594 143.15625 C 208.566406 140.167969 209.910156 137.277344 211.457031 134.484375 C 214.066406 134.078125 216.167969 132.554688 218.273438 130.617188 C 220.375 128.679688 224.554688 124.386719 222.214844 121.332031 C 219.539062 117.828125 215.710938 120.054688 213.421875 122.625 C 211.578125 124.773438 209.984375 127.089844 208.636719 129.578125 C 208.1875 129.433594 207.773438 129.21875 207.398438 128.933594 C 208.683594 127.558594 209.691406 126.007812 210.421875 124.277344 C 211.15625 122.542969 211.566406 120.738281 211.65625 118.863281 C 211.6875 117.722656 210.664062 116.960938 209.703125 116.667969 C 202.957031 114.632812 199.863281 121.789062 201.046875 127.3125 C 200.207031 127.65625 199.335938 127.84375 198.433594 127.878906 C 197.527344 127.910156 196.644531 127.785156 195.785156 127.503906 C 197.804688 125.585938 199.4375 123.382812 200.679688 120.890625 C 202.347656 117.464844 201.980469 113.464844 198.289062 111.648438 C 194.804688 109.933594 189.8125 110.550781 187.425781 113.75 C 185.15625 116.816406 185.417969 121.039062 186.695312 124.449219 C 186.980469 125.203125 187.328125 125.929688 187.738281 126.621094 C 187.328125 126.695312 186.882812 126.75 186.378906 126.796875 C 184.050781 127.035156 181.726562 127.035156 179.398438 126.796875 C 178.066406 124.789062 176.585938 122.894531 174.960938 121.113281 C 173.835938 119.875 171.910156 120.636719 171.191406 121.851562 C 169.328125 125.03125 170.070312 128.261719 173.25 130.113281 C 174.292969 130.699219 175.402344 131.105469 176.578125 131.339844 C 180.011719 137.175781 182.140625 143.8125 183.636719 150.359375 C 185.800781 159.800781 186.441406 169.625 186.460938 179.292969 L 186.460938 179.523438 C 182.824219 180.066406 179.226562 180.78125 175.554688 180.980469 C 173.179688 181.113281 170.445312 181.140625 167.832031 181.535156 C 167.976562 181.023438 167.941406 180.527344 167.730469 180.042969 C 166.394531 176.726562 164.914062 173.113281 162.625 170.328125 C 158.988281 165.90625 153.664062 163.414062 148.953125 160.34375 C 137.597656 152.945312 134.59375 138.292969 133.550781 125.679688 C 132.957031 118.960938 133.496094 112.335938 135.167969 105.800781 C 136.769531 99.675781 140.082031 93.921875 143.640625 88.726562 C 149.648438 79.957031 157.945312 73.613281 168.171875 70.570312 C 174.125 68.792969 180.28125 68.453125 186.453125 68.242188 C 194.128906 67.941406 201.796875 68.078125 209.453125 68.652344 C 221.445312 69.617188 233.648438 71.457031 241.171875 81.8125 C 247.574219 90.585938 249.5 102.464844 250.320312 113.074219 C 251.34375 126.265625 249.253906 139.429688 242.289062 150.882812 Z M 242.289062 150.882812 " fill-opacity="1" fill-rule="nonzero"/><path fill="#000000" d="M 177.734375 29.71875 L 177.734375 43.335938 C 177.734375 46.457031 182.566406 46.058594 182.566406 42.960938 L 182.566406 29.347656 C 182.566406 26.222656 177.734375 26.609375 177.734375 29.71875 Z M 177.734375 29.71875 " fill-opacity="1" fill-rule="nonzero"/><path fill="#000000" d="M 133.128906 45.863281 C 133.042969 42.746094 128.207031 43.140625 128.292969 46.234375 C 128.378906 49.410156 129.328125 52.371094 130.566406 55.285156 C 131.722656 58.007812 133.046875 60.652344 133.140625 63.671875 C 133.238281 66.789062 138.070312 66.394531 137.976562 63.300781 C 137.777344 57.085938 133.296875 52.082031 133.128906 45.863281 Z M 133.128906 45.863281 " fill-opacity="1" fill-rule="nonzero"/><path fill="#000000" d="M 101.695312 118.304688 C 98.839844 113.765625 94.292969 110.863281 91.035156 106.683594 C 89.121094 104.230469 85.09375 106.925781 87.015625 109.40625 C 90.273438 113.582031 94.839844 116.515625 97.679688 121.03125 C 99.34375 123.664062 103.355469 120.945312 101.695312 118.304688 Z M 101.695312 118.304688 " fill-opacity="1" fill-rule="nonzero"/><path fill="#000000" d="M 244.714844 39.199219 C 240.703125 42.210938 236.597656 45.296875 234.203125 49.816406 C 232.742188 52.585938 237.09375 54.722656 238.546875 51.972656 C 240.527344 48.226562 244.109375 45.699219 247.425781 43.21875 C 249.917969 41.363281 247.21875 37.320312 244.714844 39.199219 Z M 244.714844 39.199219 " fill-opacity="1" fill-rule="nonzero"/><path fill="#000000" d="M 122.617188 163.363281 C 117.195312 158.628906 112.507812 168.40625 109.019531 170.917969 C 106.480469 172.734375 109.183594 176.761719 111.746094 174.9375 C 113.507812 173.675781 114.851562 171.898438 116.25 170.273438 C 116.992188 169.359375 117.804688 168.507812 118.683594 167.71875 C 119.136719 167.351562 119.738281 167.265625 119.449219 167 C 121.769531 169.058594 124.964844 165.414062 122.617188 163.363281 Z M 122.617188 163.363281 " fill-opacity="1" fill-rule="nonzero"/><g fill="#fdbe10" fill-opacity="1"><g transform="translate(15.698031, 322.824265)"><g><path d="M 41.8125 -63 C 43.53125 -62.757812 44.90625 -62.117188 45.9375 -61.078125 C 46.976562 -60.035156 47.679688 -58.8125 48.046875 -57.40625 C 48.421875 -56 48.421875 -54.625 48.046875 -53.28125 C 47.679688 -51.9375 46.976562 -50.878906 45.9375 -50.109375 C 44.90625 -49.347656 43.53125 -49.0625 41.8125 -49.25 C 39 -49.613281 36.066406 -49.882812 33.015625 -50.0625 C 32.585938 -43.40625 32.171875 -36.742188 31.765625 -30.078125 C 31.367188 -23.410156 30.957031 -16.71875 30.53125 -10 C 30.476562 -8.28125 29.945312 -6.882812 28.9375 -5.8125 C 27.925781 -4.75 26.734375 -4.035156 25.359375 -3.671875 C 23.984375 -3.304688 22.617188 -3.304688 21.265625 -3.671875 C 19.921875 -4.035156 18.820312 -4.738281 17.96875 -5.78125 C 17.113281 -6.820312 16.71875 -8.226562 16.78125 -10 C 17.207031 -16.71875 17.617188 -23.425781 18.015625 -30.125 C 18.410156 -36.820312 18.820312 -43.53125 19.25 -50.25 C 16.5 -50.125 13.8125 -49.941406 11.1875 -49.703125 C 9.414062 -49.515625 7.992188 -49.832031 6.921875 -50.65625 C 5.847656 -51.488281 5.144531 -52.578125 4.8125 -53.921875 C 4.476562 -55.265625 4.492188 -56.625 4.859375 -58 C 5.222656 -59.375 5.925781 -60.582031 6.96875 -61.625 C 8.007812 -62.664062 9.414062 -63.273438 11.1875 -63.453125 C 21.394531 -64.492188 31.601562 -64.34375 41.8125 -63 Z M 41.8125 -63 "/></g></g></g><g fill="#fdbe10" fill-opacity="1"><g transform="translate(68.607146, 322.824265)"><g><path d="M 47.5 -40.078125 C 47.6875 -34.023438 47.835938 -27.941406 47.953125 -21.828125 C 48.078125 -15.710938 48.234375 -9.597656 48.421875 -3.484375 C 48.484375 -1.710938 48.054688 -0.289062 47.140625 0.78125 C 46.222656 1.851562 45.085938 2.554688 43.734375 2.890625 C 42.390625 3.222656 41.03125 3.222656 39.65625 2.890625 C 38.28125 2.554688 37.117188 1.851562 36.171875 0.78125 C 35.222656 -0.289062 34.71875 -1.710938 34.65625 -3.484375 C 34.601562 -5.316406 34.5625 -7.132812 34.53125 -8.9375 C 34.5 -10.738281 34.453125 -12.554688 34.390625 -14.390625 L 20.640625 -14.953125 C 20.148438 -12.628906 19.6875 -10.316406 19.25 -8.015625 C 18.820312 -5.722656 18.394531 -3.414062 17.96875 -1.09375 C 17.664062 0.675781 16.976562 1.957031 15.90625 2.75 C 14.84375 3.539062 13.609375 3.921875 12.203125 3.890625 C 10.796875 3.859375 9.460938 3.492188 8.203125 2.796875 C 6.953125 2.097656 5.972656 1.109375 5.265625 -0.171875 C 4.566406 -1.460938 4.367188 -2.992188 4.671875 -4.765625 C 5.773438 -10.753906 7.015625 -16.679688 8.390625 -22.546875 C 9.765625 -28.421875 11.707031 -34.140625 14.21875 -39.703125 C 15.4375 -42.453125 16.992188 -45.414062 18.890625 -48.59375 C 20.785156 -51.78125 22.941406 -54.703125 25.359375 -57.359375 C 27.773438 -60.015625 30.445312 -61.957031 33.375 -63.1875 C 36.125 -64.34375 38.351562 -64.550781 40.0625 -63.8125 C 41.78125 -63.082031 43.128906 -61.769531 44.109375 -59.875 C 45.085938 -57.988281 45.804688 -55.804688 46.265625 -53.328125 C 46.722656 -50.847656 47.023438 -48.414062 47.171875 -46.03125 C 47.328125 -43.644531 47.4375 -41.660156 47.5 -40.078125 Z M 24.390625 -28.515625 C 26.046875 -28.453125 27.664062 -28.390625 29.25 -28.328125 C 30.84375 -28.273438 32.429688 -28.21875 34.015625 -28.15625 C 33.960938 -30.164062 33.921875 -32.164062 33.890625 -34.15625 C 33.859375 -36.144531 33.8125 -38.117188 33.75 -40.078125 C 33.6875 -40.867188 33.65625 -41.707031 33.65625 -42.59375 C 33.65625 -43.476562 33.65625 -44.378906 33.65625 -45.296875 C 32.613281 -44.078125 31.726562 -42.914062 31 -41.8125 C 29.769531 -39.976562 28.648438 -38.066406 27.640625 -36.078125 C 26.640625 -34.097656 25.738281 -32.097656 24.9375 -30.078125 C 24.875 -29.835938 24.796875 -29.578125 24.703125 -29.296875 C 24.617188 -29.023438 24.515625 -28.765625 24.390625 -28.515625 Z M 24.390625 -28.515625 "/></g></g></g><g fill="#fdbe10" fill-opacity="1"><g transform="translate(121.607955, 322.824265)"><g><path d="M 34.203125 -39.609375 C 37.628906 -37.285156 40.332031 -34.257812 42.3125 -30.53125 C 44.300781 -26.800781 45.082031 -22.828125 44.65625 -18.609375 C 44.226562 -14.941406 42.972656 -11.796875 40.890625 -9.171875 C 38.816406 -6.546875 36.265625 -4.5 33.234375 -3.03125 C 30.210938 -1.5625 27.003906 -0.75 23.609375 -0.59375 C 20.222656 -0.4375 16.96875 -1 13.84375 -2.28125 C 10.726562 -3.570312 8.097656 -5.65625 5.953125 -8.53125 C 4.859375 -9.9375 4.398438 -11.296875 4.578125 -12.609375 C 4.765625 -13.921875 5.332031 -15.066406 6.28125 -16.046875 C 7.226562 -17.023438 8.40625 -17.710938 9.8125 -18.109375 C 11.21875 -18.503906 12.640625 -18.519531 14.078125 -18.15625 C 15.515625 -17.789062 16.753906 -16.90625 17.796875 -15.5 C 18.285156 -14.820312 19.203125 -14.4375 20.546875 -14.34375 C 21.890625 -14.257812 23.234375 -14.320312 24.578125 -14.53125 C 25.921875 -14.75 26.867188 -14.976562 27.421875 -15.21875 C 28.703125 -15.832031 29.660156 -16.734375 30.296875 -17.921875 C 30.941406 -19.117188 31.175781 -20.421875 31 -21.828125 C 30.8125 -23.535156 30.195312 -24.9375 29.15625 -26.03125 C 28.125 -27.132812 26.890625 -28.097656 25.453125 -28.921875 C 24.015625 -29.753906 22.5625 -30.550781 21.09375 -31.3125 C 19.625 -32.082031 18.335938 -32.925781 17.234375 -33.84375 C 14.179688 -36.53125 12.316406 -39.445312 11.640625 -42.59375 C 10.972656 -45.738281 11.203125 -48.882812 12.328125 -52.03125 C 13.460938 -55.1875 15.222656 -58.046875 17.609375 -60.609375 C 19.992188 -63.179688 22.710938 -65.171875 25.765625 -66.578125 C 27.421875 -67.367188 28.953125 -67.582031 30.359375 -67.21875 C 31.765625 -66.851562 32.96875 -66.164062 33.96875 -65.15625 C 34.976562 -64.144531 35.664062 -62.96875 36.03125 -61.625 C 36.40625 -60.28125 36.347656 -58.976562 35.859375 -57.71875 C 35.367188 -56.46875 34.328125 -55.476562 32.734375 -54.75 C 31.691406 -54.257812 30.484375 -53.585938 29.109375 -52.734375 C 27.734375 -51.878906 26.601562 -50.851562 25.71875 -49.65625 C 24.832031 -48.46875 24.664062 -47.140625 25.21875 -45.671875 C 25.519531 -44.691406 26.234375 -43.847656 27.359375 -43.140625 C 28.492188 -42.441406 29.703125 -41.816406 30.984375 -41.265625 C 32.273438 -40.710938 33.347656 -40.160156 34.203125 -39.609375 Z M 34.203125 -39.609375 "/></g></g></g><g fill="#fdbe10" fill-opacity="1"><g transform="translate(170.940902, 322.824265)"><g><path d="M 45.859375 -57.765625 C 44.015625 -54.710938 42.035156 -51.65625 39.921875 -48.59375 C 37.816406 -45.539062 35.390625 -42.820312 32.640625 -40.4375 C 38.515625 -33.78125 41.847656 -25.832031 42.640625 -16.59375 C 42.765625 -14.820312 42.410156 -13.414062 41.578125 -12.375 C 40.753906 -11.34375 39.6875 -10.640625 38.375 -10.265625 C 37.0625 -9.898438 35.703125 -9.898438 34.296875 -10.265625 C 32.890625 -10.640625 31.664062 -11.359375 30.625 -12.421875 C 29.582031 -13.492188 29.003906 -14.882812 28.890625 -16.59375 C 28.578125 -19.832031 27.6875 -22.9375 26.21875 -25.90625 C 24.757812 -28.875 22.835938 -31.425781 20.453125 -33.5625 C 19.835938 -25.863281 19.007812 -18.191406 17.96875 -10.546875 C 17.789062 -9.328125 17.226562 -8.300781 16.28125 -7.46875 C 15.332031 -6.644531 14.226562 -6.078125 12.96875 -5.765625 C 11.71875 -5.460938 10.546875 -5.46875 9.453125 -5.78125 C 7.492188 -6.332031 6.144531 -7.414062 5.40625 -9.03125 C 4.675781 -10.65625 4.429688 -12.382812 4.671875 -14.21875 C 5.835938 -22.894531 6.707031 -31.601562 7.28125 -40.34375 C 7.863281 -49.09375 8.1875 -57.867188 8.25 -66.671875 C 8.25 -68.441406 8.707031 -69.847656 9.625 -70.890625 C 10.539062 -71.929688 11.6875 -72.632812 13.0625 -73 C 14.4375 -73.363281 15.8125 -73.363281 17.1875 -73 C 18.5625 -72.632812 19.707031 -71.929688 20.625 -70.890625 C 21.550781 -69.847656 22.015625 -68.441406 22.015625 -66.671875 C 21.953125 -63.671875 21.890625 -60.6875 21.828125 -57.71875 C 21.765625 -54.757812 21.640625 -51.78125 21.453125 -48.78125 C 23.285156 -49.820312 24.96875 -51.289062 26.5 -53.1875 C 28.03125 -55.082031 29.40625 -57.066406 30.625 -59.140625 C 31.851562 -61.222656 32.957031 -63.09375 33.9375 -64.75 C 34.851562 -66.269531 35.96875 -67.257812 37.28125 -67.71875 C 38.59375 -68.175781 39.9375 -68.207031 41.3125 -67.8125 C 42.6875 -67.414062 43.878906 -66.726562 44.890625 -65.75 C 45.898438 -64.769531 46.523438 -63.578125 46.765625 -62.171875 C 47.015625 -60.765625 46.710938 -59.296875 45.859375 -57.765625 Z M 45.859375 -57.765625 "/></g></g></g><g fill="#fdbe10" fill-opacity="1"><g transform="translate(222.291184, 322.824265)"><g><path d="M 8.71875 -56.484375 C 8.894531 -58.203125 9.503906 -59.578125 10.546875 -60.609375 C 11.585938 -61.648438 12.8125 -62.351562 14.21875 -62.71875 C 15.625 -63.09375 17 -63.109375 18.34375 -62.765625 C 19.6875 -62.429688 20.753906 -61.726562 21.546875 -60.65625 C 22.347656 -59.59375 22.65625 -58.203125 22.46875 -56.484375 C 20.695312 -39.921875 19.320312 -23.320312 18.34375 -6.6875 C 18.21875 -4.914062 17.664062 -3.492188 16.6875 -2.421875 C 15.707031 -1.359375 14.53125 -0.65625 13.15625 -0.3125 C 11.78125 0.0195312 10.421875 0.0195312 9.078125 -0.3125 C 7.734375 -0.65625 6.617188 -1.359375 5.734375 -2.421875 C 4.847656 -3.492188 4.460938 -4.914062 4.578125 -6.6875 C 5.554688 -23.320312 6.9375 -39.921875 8.71875 -56.484375 Z M 8.71875 -56.484375 "/></g></g></g><g fill="#fdbe10" fill-opacity="1"><g transform="translate(249.433476, 322.824265)"><g><path d="M 41.453125 -63.640625 C 43.222656 -63.890625 44.75 -63.644531 46.03125 -62.90625 C 47.3125 -62.175781 48.300781 -61.179688 49 -59.921875 C 49.707031 -58.671875 50.078125 -57.359375 50.109375 -55.984375 C 50.140625 -54.609375 49.757812 -53.398438 48.96875 -52.359375 C 48.175781 -51.316406 46.894531 -50.644531 45.125 -50.34375 C 42 -49.851562 38.878906 -49.363281 35.765625 -48.875 C 32.648438 -48.382812 29.53125 -47.894531 26.40625 -47.40625 C 26.34375 -47.40625 26.082031 -47.359375 25.625 -47.265625 C 25.164062 -47.179688 24.664062 -47.109375 24.125 -47.046875 C 24.125 -46.617188 24.09375 -46.3125 24.03125 -46.125 C 24.144531 -44.71875 24.050781 -43.234375 23.75 -41.671875 C 23.445312 -40.117188 23.203125 -38.640625 23.015625 -37.234375 C 23.015625 -36.984375 23 -36.75 22.96875 -36.53125 C 22.9375 -36.320312 22.921875 -36.128906 22.921875 -35.953125 C 27.628906 -36.679688 32.304688 -37.078125 36.953125 -37.140625 C 38.722656 -37.140625 40.144531 -36.695312 41.21875 -35.8125 C 42.289062 -34.925781 42.992188 -33.796875 43.328125 -32.421875 C 43.660156 -31.046875 43.660156 -29.671875 43.328125 -28.296875 C 42.992188 -26.921875 42.289062 -25.769531 41.21875 -24.84375 C 40.144531 -23.925781 38.722656 -23.441406 36.953125 -23.390625 C 31.640625 -23.328125 26.351562 -22.742188 21.09375 -21.640625 C 20.601562 -18.035156 20.097656 -14.410156 19.578125 -10.765625 C 19.054688 -7.128906 18.519531 -3.507812 17.96875 0.09375 C 17.664062 1.800781 16.992188 3.050781 15.953125 3.84375 C 14.910156 4.644531 13.703125 5.046875 12.328125 5.046875 C 10.953125 5.046875 9.625 4.675781 8.34375 3.9375 C 7.0625 3.207031 6.066406 2.195312 5.359375 0.90625 C 4.660156 -0.375 4.429688 -1.867188 4.671875 -3.578125 C 5.898438 -11.222656 6.988281 -18.863281 7.9375 -26.5 C 8.882812 -34.144531 9.785156 -41.785156 10.640625 -49.421875 C 11.003906 -52.722656 11.945312 -55.226562 13.46875 -56.9375 C 15 -58.65625 17.414062 -59.789062 20.71875 -60.34375 C 24.144531 -60.894531 27.597656 -61.441406 31.078125 -61.984375 C 34.566406 -62.535156 38.023438 -63.085938 41.453125 -63.640625 Z M 41.453125 -63.640625 "/></g></g></g><g fill="#fdbe10" fill-opacity="1"><g transform="translate(304.08483, 322.824265)"><g><path d="M 37.046875 -62.71875 C 37.234375 -64.5 37.859375 -65.832031 38.921875 -66.71875 C 39.992188 -67.601562 41.21875 -68.101562 42.59375 -68.21875 C 43.96875 -68.34375 45.3125 -68.097656 46.625 -67.484375 C 47.945312 -66.878906 48.988281 -65.960938 49.75 -64.734375 C 50.507812 -63.515625 50.769531 -62.050781 50.53125 -60.34375 C 50.039062 -56.363281 49.582031 -52.15625 49.15625 -47.71875 C 48.726562 -43.289062 48.097656 -38.84375 47.265625 -34.375 C 46.441406 -29.914062 45.25 -25.671875 43.6875 -21.640625 C 42.132812 -17.609375 40.007812 -13.984375 37.3125 -10.765625 C 34.625 -7.554688 31.171875 -4.976562 26.953125 -3.03125 C 25.367188 -2.289062 23.921875 -2.132812 22.609375 -2.5625 C 21.296875 -2.988281 20.238281 -3.769531 19.4375 -4.90625 C 18.644531 -6.039062 18.171875 -7.320312 18.015625 -8.75 C 17.867188 -10.1875 18.113281 -11.5625 18.75 -12.875 C 19.394531 -14.195312 20.507812 -15.191406 22.09375 -15.859375 C 24.175781 -16.835938 25.875 -18.148438 27.1875 -19.796875 C 28.5 -21.453125 29.554688 -23.289062 30.359375 -25.3125 C 27.847656 -24.457031 25.289062 -24.046875 22.6875 -24.078125 C 20.09375 -24.109375 17.546875 -24.765625 15.046875 -26.046875 C 11.742188 -27.691406 9.28125 -30.007812 7.65625 -33 C 6.039062 -36 5.078125 -39.285156 4.765625 -42.859375 C 4.460938 -46.441406 4.628906 -50.019531 5.265625 -53.59375 C 5.910156 -57.175781 6.875 -60.40625 8.15625 -63.28125 C 8.832031 -64.925781 9.8125 -66.039062 11.09375 -66.625 C 12.375 -67.207031 13.703125 -67.375 15.078125 -67.125 C 16.460938 -66.882812 17.703125 -66.304688 18.796875 -65.390625 C 19.898438 -64.472656 20.648438 -63.335938 21.046875 -61.984375 C 21.441406 -60.640625 21.304688 -59.144531 20.640625 -57.5 C 20.148438 -56.457031 19.660156 -55.050781 19.171875 -53.28125 C 18.679688 -51.507812 18.328125 -49.644531 18.109375 -47.6875 C 17.898438 -45.726562 17.976562 -43.921875 18.34375 -42.265625 C 18.707031 -40.617188 19.5625 -39.367188 20.90625 -38.515625 C 22.132812 -37.660156 23.460938 -37.382812 24.890625 -37.6875 C 26.328125 -38 27.703125 -38.65625 29.015625 -39.65625 C 30.335938 -40.664062 31.515625 -41.8125 32.546875 -43.09375 C 33.585938 -44.382812 34.414062 -45.546875 35.03125 -46.578125 C 35.394531 -49.273438 35.726562 -51.96875 36.03125 -54.65625 C 36.34375 -57.34375 36.679688 -60.03125 37.046875 -62.71875 Z M 37.046875 -62.71875 "/></g></g></g></svg>