<svg xmlns="http://www.w3.org/2000/svg" xmlns:xlink="http://www.w3.org/1999/xlink" width="500" zoomAndPan="magnify" viewBox="0 0 375 374.999991" height="500" preserveAspectRatio="xMidYMid meet" version="1.0"><defs><g/></defs><path fill="#000000" d="M 362.167969 144.691406 C 351.164062 141.371094 339.894531 144.464844 328.699219 144.625 C 323.222656 144.707031 323.914062 153.1875 329.359375 153.109375 C 339.765625 152.957031 350.300781 149.921875 360.527344 153.046875 C 365.796875 154.625 367.367188 146.238281 362.167969 144.691406 Z M 362.167969 144.691406 " fill-opacity="1" fill-rule="nonzero"/><path fill="#000000" d="M 336.953125 229.050781 C 333.089844 225.136719 327.511719 231.5625 331.335938 235.429688 C 336.953125 241.113281 343.179688 247.964844 343.511719 256.375 C 343.726562 261.863281 352.207031 261.199219 351.992188 255.722656 C 351.539062 245.015625 344.132812 236.339844 336.953125 229.050781 Z M 336.953125 229.050781 " fill-opacity="1" fill-rule="nonzero"/><path fill="#73a0b1" d="M 247.933594 284.816406 L 247.933594 284.777344 C 247.371094 284.035156 246.722656 283.382812 245.980469 282.816406 C 239.3125 277.449219 228.625 277.515625 220.480469 277.292969 C 209.210938 276.980469 197.871094 276.101562 186.648438 277.578125 C 181.460938 278.265625 176.34375 279.722656 171.132812 280.121094 C 167.410156 280.402344 163.671875 280.503906 159.976562 280.816406 C 155.902344 281.160156 151.519531 281.4375 147.71875 283.0625 C 144.59375 284.402344 143.589844 288.421875 148.164062 287.847656 C 148.808594 287.726562 149.441406 287.777344 150.058594 287.996094 C 150.675781 288.21875 151.195312 288.582031 151.617188 289.085938 C 154.355469 289.085938 157.089844 289.085938 159.824219 289.019531 C 173.691406 288.84375 187.566406 288.535156 201.425781 289.171875 C 209.609375 289.546875 217.683594 290.703125 225.867188 290.039062 C 231.734375 289.570312 237.820312 288.980469 243.398438 287.105469 C 244.59375 286.765625 245.734375 286.300781 246.828125 285.710938 C 247.238281 285.472656 247.632812 285.207031 248.007812 284.914062 C 247.863281 284.976562 247.878906 284.914062 247.933594 284.816406 Z M 247.933594 284.816406 " fill-opacity="1" fill-rule="nonzero"/><path fill="#fdbe10" d="M 209.042969 219.714844 C 211.667969 209.101562 215.421875 198.90625 220.304688 189.125 C 218.371094 188.308594 216.667969 187.152344 215.195312 185.65625 C 213.007812 186.753906 210.695312 187.398438 208.253906 187.585938 C 205.8125 187.773438 203.429688 187.492188 201.097656 186.742188 C 198.601562 185.972656 196.273438 184.851562 194.117188 183.378906 C 189.988281 185.210938 185.285156 185.410156 180.757812 185.484375 L 178.167969 185.484375 C 191.121094 210.367188 193.742188 241.121094 193.828125 268.28125 L 193.828125 268.375 C 194.890625 268.304688 195.957031 268.25 197.015625 268.226562 C 198.683594 268.226562 200.339844 268.226562 202 268.265625 C 201.429688 267.796875 201.03125 267.210938 200.800781 266.511719 C 200.570312 265.8125 200.539062 265.105469 200.714844 264.390625 C 203.648438 249.535156 205.417969 234.433594 209.042969 219.714844 Z M 209.042969 219.714844 " fill-opacity="1" fill-rule="nonzero"/><path fill="#73a0b1" d="M 232.96875 349.90625 C 230.058594 349.835938 227.921875 347.515625 228.511719 344.757812 C 228.300781 344.789062 228.082031 344.804688 227.867188 344.804688 C 210.980469 344.875 194.140625 346.503906 177.246094 346.09375 C 170.230469 345.929688 160.039062 346.046875 152.539062 342.730469 C 150.269531 350.703125 152.4375 359.644531 161.839844 362.121094 C 172.742188 364.984375 184.050781 361.621094 195.089844 361.851562 C 201.136719 361.980469 207.171875 362.570312 213.21875 362.648438 C 218.519531 362.71875 225.046875 363.070312 229.957031 360.789062 C 231.480469 360.046875 232.824219 359.054688 233.984375 357.820312 C 235.148438 356.582031 236.054688 355.183594 236.707031 353.613281 C 237.925781 350.472656 235.875 349.988281 232.96875 349.90625 Z M 232.96875 349.90625 " fill-opacity="1" fill-rule="nonzero"/><path fill="#fdbe10" d="M 193.796875 158.914062 C 191.269531 162.304688 192.707031 167.828125 194.410156 171.242188 C 194.617188 171.648438 194.839844 172.039062 195.066406 172.414062 L 195.640625 171.863281 C 198.445312 169.089844 203.847656 163.890625 203.609375 159.457031 C 203.351562 155.804688 195.550781 156.601562 193.796875 158.914062 Z M 193.796875 158.914062 " fill-opacity="1" fill-rule="nonzero"/><path fill="#73a0b1" d="M 232.945312 322.527344 C 232.492188 321.808594 232.261719 321.027344 232.25 320.179688 C 227.722656 322.269531 222.128906 322.652344 217.386719 322.941406 C 210.597656 323.355469 203.839844 323.25 197.015625 323.148438 C 182.265625 322.925781 166.121094 323.863281 152.636719 317.023438 C 150.53125 319.359375 148.9375 322.003906 147.855469 324.957031 C 147.058594 327.347656 147.328125 328.878906 148.5625 329.917969 C 149.136719 329.886719 149.683594 329.984375 150.210938 330.214844 C 150.738281 330.441406 151.183594 330.777344 151.550781 331.214844 L 151.832031 331.28125 C 152.632812 331.472656 153.335938 331.855469 153.933594 332.425781 C 154.535156 332.996094 154.949219 333.675781 155.1875 334.46875 C 158.007812 335.875 161.6875 336.320312 164.351562 336.679688 C 170.042969 337.390625 175.757812 337.707031 181.492188 337.628906 C 196.753906 337.628906 211.96875 336.351562 227.222656 336.289062 C 227.648438 336.277344 228.070312 336.332031 228.480469 336.449219 C 228.894531 336.5625 229.28125 336.738281 229.636719 336.972656 C 229.996094 337.207031 230.3125 337.488281 230.589844 337.816406 C 230.863281 338.144531 231.082031 338.507812 231.246094 338.902344 C 233.972656 333.617188 236.515625 328.035156 232.945312 322.527344 Z M 232.945312 322.527344 " fill-opacity="1" fill-rule="nonzero"/><path fill="#73a0b1" d="M 234.21875 298.277344 C 234.082031 298.101562 233.960938 297.914062 233.851562 297.71875 C 229.867188 298.277344 225.8125 298.636719 221.777344 298.796875 C 217.609375 298.964844 213.5 298.339844 209.347656 298.054688 C 202.445312 297.585938 195.519531 297.359375 188.625 297.296875 C 177.46875 297.203125 166.367188 297.433594 155.242188 297.535156 C 154.710938 297.949219 154.121094 298.238281 153.472656 298.414062 C 152.824219 298.585938 152.167969 298.625 151.503906 298.53125 C 150.109375 301.21875 149.113281 304.535156 150.445312 306.746094 C 151.355469 306.644531 152.191406 306.855469 152.945312 307.375 C 166.023438 315.730469 182.386719 314.410156 197.234375 314.65625 C 203.386719 314.757812 209.5625 314.871094 215.707031 314.496094 C 220.257812 314.226562 226.441406 314.320312 230.304688 311.488281 C 233.230469 309.34375 236.300781 311.707031 236.761719 314.488281 C 240.539062 310 237.78125 302.933594 234.21875 298.277344 Z M 234.21875 298.277344 " fill-opacity="1" fill-rule="nonzero"/><path fill="#fdbe10" d="M 297.386719 152.617188 C 295.941406 134.003906 292.539062 113.136719 281.292969 97.660156 C 268.097656 79.488281 246.691406 76.261719 225.652344 74.539062 C 212.214844 73.53125 198.765625 73.292969 185.300781 73.820312 C 174.472656 74.1875 163.671875 74.785156 153.226562 77.910156 C 135.308594 83.277344 120.757812 94.421875 110.191406 109.804688 C 103.949219 118.933594 98.140625 129.046875 95.328125 139.800781 C 92.394531 151.28125 91.449219 162.921875 92.488281 174.726562 C 94.324219 196.886719 99.566406 222.632812 119.515625 235.628906 C 127.777344 241.019531 137.117188 245.398438 143.496094 253.171875 C 147.480469 258.058594 150.109375 264.40625 152.453125 270.234375 C 152.828125 271.085938 152.886719 271.960938 152.636719 272.859375 C 157.234375 272.164062 162.03125 272.117188 166.183594 271.886719 C 172.640625 271.535156 178.933594 270.289062 185.308594 269.324219 L 185.308594 268.917969 C 185.308594 251.933594 184.15625 234.671875 180.359375 218.085938 C 177.730469 206.582031 173.984375 194.921875 167.976562 184.667969 C 165.914062 184.261719 163.96875 183.546875 162.136719 182.515625 C 156.554688 179.261719 155.257812 173.5625 158.523438 168.003906 C 159.785156 165.867188 163.164062 164.527344 165.140625 166.703125 C 167.988281 169.835938 170.582031 173.164062 172.925781 176.6875 C 177.007812 177.113281 181.085938 177.113281 185.167969 176.6875 C 186.035156 176.609375 186.816406 176.511719 187.558594 176.382812 C 186.832031 175.167969 186.222656 173.894531 185.726562 172.566406 C 183.484375 166.578125 183 159.152344 187.007812 153.773438 C 191.191406 148.148438 199.949219 147.066406 206.0625 150.078125 C 212.542969 153.269531 213.1875 160.292969 210.253906 166.3125 C 208.09375 170.703125 205.246094 174.585938 201.710938 177.964844 C 203.21875 178.457031 204.769531 178.675781 206.355469 178.621094 C 207.941406 178.5625 209.472656 178.230469 210.941406 177.628906 C 208.867188 167.925781 214.296875 155.351562 226.128906 158.929688 C 227.8125 159.441406 229.613281 160.78125 229.558594 162.78125 C 229.398438 166.082031 228.675781 169.25 227.390625 172.292969 C 226.105469 175.335938 224.335938 178.0625 222.082031 180.476562 C 222.742188 180.980469 223.464844 181.355469 224.257812 181.609375 C 226.613281 177.226562 229.402344 173.144531 232.632812 169.359375 C 236.617188 164.847656 243.367188 160.933594 248.0625 167.085938 C 252.167969 172.453125 244.714844 180.09375 241.144531 183.402344 C 237.574219 186.710938 233.78125 189.484375 229.191406 190.195312 C 226.472656 195.105469 224.117188 200.183594 222.128906 205.433594 C 214.957031 224.90625 213.042969 245.738281 209.050781 265.984375 C 208.882812 266.996094 208.398438 267.820312 207.59375 268.457031 C 209.792969 268.550781 211.992188 268.648438 214.199219 268.671875 C 218.839844 268.71875 223.492188 268.839844 228.121094 269.214844 C 232.347656 269.460938 236.519531 270.0625 240.640625 271.015625 C 246.117188 248.816406 271.921875 237.703125 283.277344 219.003906 C 295.511719 198.917969 299.179688 175.785156 297.386719 152.617188 Z M 297.386719 152.617188 " fill-opacity="1" fill-rule="nonzero"/><path fill="#73a0b1" d="M 219.027344 170.660156 C 219.554688 169.742188 219.976562 168.78125 220.296875 167.773438 C 219.585938 168.609375 219.164062 169.570312 219.027344 170.660156 Z M 219.027344 170.660156 " fill-opacity="1" fill-rule="nonzero"/><path fill="#000000" d="M 298.140625 112.429688 C 292.339844 95.597656 281.503906 81.234375 265.035156 73.78125 C 254.308594 68.890625 242.101562 67.625 230.464844 66.5 C 217.332031 65.296875 204.171875 64.863281 190.984375 65.191406 C 170.152344 65.566406 149.941406 67.488281 131.515625 78.015625 C 114.550781 87.71875 103.367188 103.59375 94.058594 120.273438 C 82.773438 140.527344 81.929688 165.355469 85.554688 187.746094 C 88.847656 208.097656 95.359375 228.652344 112.78125 241.234375 C 120.421875 246.761719 129.261719 250.546875 135.890625 257.363281 C 139.957031 261.527344 142.265625 267.730469 144.410156 273.050781 C 144.660156 273.664062 145.027344 274.195312 145.519531 274.644531 C 143.75 275.308594 142.109375 276.214844 140.601562 277.355469 C 133.285156 283.03125 136.164062 293.039062 143.382812 295.695312 C 142.96875 296.738281 142.632812 297.742188 142.371094 298.566406 C 140.6875 303.789062 140.992188 309.6875 144.53125 313.402344 C 141.683594 317.136719 139.445312 321.496094 138.953125 326.074219 C 138.332031 331.519531 140.984375 335.441406 145.121094 337.730469 C 140.585938 349.179688 143.46875 362.785156 155.480469 368.574219 C 168.871094 375.023438 184.726562 369.816406 198.929688 370.390625 C 212.476562 370.933594 229.75 374.234375 240.253906 363.414062 C 243.542969 360.027344 246.253906 354.8125 245.472656 349.972656 C 244.820312 345.886719 242.109375 343.59375 238.769531 342.453125 C 242.003906 335.457031 244.738281 328.738281 241.902344 321.457031 C 249.074219 315.039062 247.855469 304.066406 242.96875 295.996094 C 247.105469 295 251.179688 293.5 254.261719 290.535156 C 258.703125 286.269531 255.855469 280.375 252.160156 276.882812 C 251.078125 275.882812 249.90625 275.003906 248.644531 274.246094 C 250.355469 266.527344 255.539062 260.378906 260.964844 254.742188 C 267.714844 247.734375 275.222656 241.503906 281.882812 234.410156 C 296.683594 218.636719 304.144531 196.589844 305.886719 175.324219 C 306.746094 164.6875 306.523438 154.074219 305.21875 143.480469 C 303.914062 132.890625 301.554688 122.539062 298.140625 112.429688 Z M 148.554688 329.917969 C 147.320312 328.878906 147.039062 327.316406 147.84375 324.957031 C 148.929688 322.003906 150.523438 319.359375 152.628906 317.023438 C 166.113281 323.863281 182.257812 322.925781 197.007812 323.148438 C 203.800781 323.25 210.558594 323.355469 217.378906 322.941406 C 222.121094 322.652344 227.738281 322.269531 232.242188 320.179688 C 232.253906 321.027344 232.484375 321.808594 232.9375 322.527344 C 236.507812 328.035156 233.964844 333.609375 231.230469 338.933594 C 231.066406 338.539062 230.847656 338.175781 230.574219 337.847656 C 230.296875 337.519531 229.980469 337.238281 229.621094 337.003906 C 229.261719 336.769531 228.878906 336.597656 228.464844 336.480469 C 228.054688 336.363281 227.632812 336.308594 227.207031 336.320312 C 211.953125 336.382812 196.738281 337.636719 181.476562 337.660156 C 175.742188 337.738281 170.027344 337.421875 164.335938 336.710938 C 161.671875 336.351562 157.957031 335.914062 155.167969 334.5 C 154.933594 333.707031 154.519531 333.027344 153.917969 332.457031 C 153.320312 331.886719 152.617188 331.507812 151.816406 331.3125 L 151.535156 331.25 C 151.171875 330.804688 150.726562 330.464844 150.203125 330.230469 C 149.679688 329.996094 149.128906 329.890625 148.554688 329.917969 Z M 236.707031 353.550781 C 236.054688 355.117188 235.148438 356.519531 233.984375 357.757812 C 232.824219 358.992188 231.480469 359.980469 229.957031 360.726562 C 225.015625 363.007812 218.488281 362.65625 213.21875 362.585938 C 207.171875 362.496094 201.136719 361.90625 195.089844 361.789062 C 184.050781 361.554688 172.773438 364.921875 161.839844 362.058594 C 152.4375 359.578125 150.269531 350.632812 152.539062 342.667969 C 160.070312 345.984375 170.265625 345.855469 177.246094 346.03125 C 194.140625 346.4375 210.980469 344.8125 227.867188 344.738281 C 228.082031 344.742188 228.300781 344.726562 228.511719 344.691406 C 227.921875 347.449219 230.058594 349.769531 232.96875 349.84375 C 235.875 349.914062 237.925781 350.472656 236.707031 353.550781 Z M 236.707031 314.480469 C 236.242188 311.699219 233.175781 309.335938 230.25 311.480469 C 226.386719 314.3125 220.199219 314.21875 215.648438 314.488281 C 209.503906 314.863281 203.328125 314.75 197.175781 314.648438 C 182.328125 314.398438 165.96875 315.722656 152.890625 307.367188 C 152.132812 306.847656 151.300781 306.636719 150.386719 306.738281 C 149.089844 304.527344 150.054688 301.210938 151.449219 298.523438 C 152.117188 298.617188 152.777344 298.574219 153.429688 298.394531 C 154.078125 298.21875 154.671875 297.921875 155.203125 297.503906 C 166.359375 297.402344 177.453125 297.167969 188.585938 297.265625 C 195.503906 297.328125 202.429688 297.550781 209.304688 298.023438 C 213.457031 298.308594 217.570312 298.929688 221.738281 298.765625 C 225.769531 298.605469 229.804688 298.246094 233.8125 297.6875 C 233.921875 297.882812 234.042969 298.070312 234.179688 298.246094 C 237.78125 302.933594 240.539062 310 236.722656 314.480469 Z M 246.792969 285.664062 C 245.703125 286.253906 244.5625 286.71875 243.367188 287.058594 C 237.789062 288.933594 231.683594 289.523438 225.835938 289.992188 C 217.652344 290.65625 209.578125 289.5 201.394531 289.125 C 187.535156 288.484375 173.660156 288.796875 159.792969 288.972656 C 157.058594 289.011719 154.324219 289.019531 151.582031 289.035156 C 151.164062 288.53125 150.644531 288.171875 150.027344 287.949219 C 149.40625 287.730469 148.777344 287.679688 148.132812 287.800781 C 143.558594 288.390625 144.5625 284.371094 147.6875 283.015625 C 151.488281 281.421875 155.871094 281.109375 159.945312 280.765625 C 163.65625 280.457031 167.394531 280.351562 171.101562 280.074219 C 176.3125 279.675781 181.460938 278.214844 186.617188 277.53125 C 197.839844 276.054688 209.179688 276.933594 220.449219 277.242188 C 228.601562 277.464844 239.289062 277.402344 245.949219 282.769531 C 246.691406 283.335938 247.339844 283.988281 247.902344 284.730469 L 247.902344 284.769531 C 247.832031 284.867188 247.816406 284.9375 247.941406 284.84375 C 247.585938 285.152344 247.207031 285.4375 246.8125 285.695312 Z M 194.117188 183.378906 C 196.273438 184.851562 198.601562 185.972656 201.097656 186.742188 C 203.429688 187.492188 205.8125 187.773438 208.253906 187.585938 C 210.695312 187.398438 213.007812 186.753906 215.195312 185.65625 C 216.667969 187.152344 218.371094 188.308594 220.304688 189.125 C 215.421875 198.90625 211.667969 209.101562 209.042969 219.714844 C 205.417969 234.433594 203.648438 249.535156 200.722656 264.367188 C 200.546875 265.082031 200.578125 265.789062 200.808594 266.488281 C 201.039062 267.1875 201.4375 267.773438 202.007812 268.242188 C 200.347656 268.191406 198.691406 268.167969 197.027344 268.199219 C 195.949219 268.199219 194.882812 268.28125 193.835938 268.351562 L 193.835938 268.257812 C 193.78125 241.082031 191.128906 210.34375 178.175781 185.484375 L 180.769531 185.484375 C 185.285156 185.410156 189.988281 185.210938 194.117188 183.378906 Z M 193.796875 158.914062 C 195.550781 156.523438 203.359375 155.804688 203.578125 159.457031 C 203.847656 163.875 198.445312 169.089844 195.605469 171.863281 L 195.03125 172.414062 C 194.808594 172.039062 194.585938 171.617188 194.378906 171.242188 C 192.707031 167.828125 191.269531 162.304688 193.796875 158.914062 Z M 219.027344 170.660156 C 219.164062 169.570312 219.585938 168.609375 220.296875 167.773438 C 219.976562 168.78125 219.554688 169.742188 219.027344 170.660156 Z M 283.296875 219.035156 C 271.9375 237.734375 246.132812 248.847656 240.660156 271.046875 C 236.535156 270.09375 232.363281 269.492188 228.136719 269.246094 C 223.507812 268.871094 218.855469 268.75 214.214844 268.703125 C 212.007812 268.703125 209.808594 268.582031 207.609375 268.488281 C 208.414062 267.851562 208.898438 267.027344 209.066406 266.015625 C 213.050781 245.769531 214.972656 224.9375 222.144531 205.464844 C 224.132812 200.214844 226.488281 195.136719 229.207031 190.226562 C 233.78125 189.515625 237.46875 186.839844 241.160156 183.433594 C 244.851562 180.027344 252.183594 172.484375 248.078125 167.121094 C 243.382812 160.964844 236.664062 164.878906 232.648438 169.390625 C 229.417969 173.164062 226.617188 177.234375 224.257812 181.609375 C 223.464844 181.355469 222.742188 180.980469 222.082031 180.476562 C 224.335938 178.0625 226.105469 175.335938 227.390625 172.292969 C 228.675781 169.25 229.398438 166.082031 229.558594 162.78125 C 229.613281 160.78125 227.8125 159.441406 226.128906 158.929688 C 214.296875 155.351562 208.867188 167.925781 210.941406 177.628906 C 209.472656 178.230469 207.941406 178.5625 206.355469 178.621094 C 204.769531 178.675781 203.21875 178.457031 201.710938 177.964844 C 205.257812 174.597656 208.117188 170.726562 210.292969 166.347656 C 213.226562 160.324219 212.582031 153.300781 206.101562 150.113281 C 199.988281 147.097656 191.230469 148.183594 187.046875 153.804688 C 183.0625 159.1875 183.523438 166.609375 185.765625 172.597656 C 186.261719 173.925781 186.871094 175.199219 187.597656 176.417969 C 186.871094 176.542969 186.089844 176.640625 185.207031 176.71875 C 181.125 177.144531 177.046875 177.144531 172.964844 176.71875 C 170.625 173.195312 168.027344 169.867188 165.179688 166.738281 C 163.203125 164.558594 159.824219 165.898438 158.566406 168.035156 C 155.296875 173.617188 156.597656 179.296875 162.175781 182.546875 C 164.007812 183.578125 165.953125 184.296875 168.015625 184.703125 C 174.042969 194.957031 177.769531 206.613281 180.402344 218.117188 C 184.195312 234.703125 185.316406 251.96875 185.351562 268.949219 L 185.351562 269.355469 C 178.972656 270.304688 172.664062 271.566406 166.222656 271.917969 C 162.054688 272.148438 157.257812 272.195312 152.675781 272.890625 C 152.925781 271.992188 152.867188 271.117188 152.492188 270.265625 C 150.148438 264.4375 147.550781 258.089844 143.535156 253.203125 C 137.160156 245.429688 127.816406 241.050781 119.554688 235.660156 C 99.628906 222.664062 94.363281 196.917969 92.53125 174.757812 C 91.488281 162.953125 92.433594 151.3125 95.367188 139.832031 C 98.179688 129.078125 103.988281 118.964844 110.230469 109.835938 C 120.773438 94.433594 135.324219 83.285156 153.265625 77.941406 C 163.714844 74.816406 174.511719 74.21875 185.34375 73.851562 C 198.804688 73.324219 212.253906 73.5625 225.691406 74.570312 C 246.730469 76.269531 268.136719 79.496094 281.335938 97.691406 C 292.5625 113.105469 295.941406 133.972656 297.386719 152.617188 C 299.179688 175.785156 295.511719 198.917969 283.296875 219.035156 Z M 283.296875 219.035156 " fill-opacity="1" fill-rule="nonzero"/><path fill="#000000" d="M 170.039062 6.171875 L 170.039062 30.09375 C 170.039062 35.578125 178.519531 34.875 178.519531 29.4375 L 178.519531 5.519531 C 178.519531 0.03125 170.039062 0.710938 170.039062 6.171875 Z M 170.039062 6.171875 " fill-opacity="1" fill-rule="nonzero"/><path fill="#000000" d="M 91.789062 34.535156 C 91.636719 29.054688 83.15625 29.75 83.308594 35.1875 C 83.460938 40.769531 85.125 45.96875 87.292969 51.085938 C 89.324219 55.871094 91.644531 60.519531 91.8125 65.824219 C 91.980469 71.300781 100.460938 70.605469 100.292969 65.167969 C 99.949219 54.253906 92.082031 45.457031 91.789062 34.535156 Z M 91.789062 34.535156 " fill-opacity="1" fill-rule="nonzero"/><path fill="#000000" d="M 36.648438 161.800781 C 31.632812 153.828125 23.65625 148.730469 17.941406 141.386719 C 14.585938 137.074219 7.519531 141.8125 10.890625 146.171875 C 16.605469 153.507812 24.621094 158.660156 29.601562 166.59375 C 32.519531 171.21875 39.554688 166.441406 36.648438 161.800781 Z M 36.648438 161.800781 " fill-opacity="1" fill-rule="nonzero"/><path fill="#000000" d="M 287.550781 22.828125 C 280.515625 28.113281 273.308594 33.535156 269.109375 41.480469 C 266.542969 46.34375 274.179688 50.097656 276.726562 45.265625 C 280.203125 38.6875 286.492188 34.246094 292.308594 29.886719 C 296.675781 26.632812 291.941406 19.527344 287.550781 22.828125 Z M 287.550781 22.828125 " fill-opacity="1" fill-rule="nonzero"/><path fill="#000000" d="M 73.347656 240.964844 C 63.839844 232.648438 55.613281 249.820312 49.496094 254.238281 C 45.039062 257.429688 49.78125 264.5 54.277344 261.296875 C 57.367188 259.078125 59.726562 255.960938 62.179688 253.105469 C 63.484375 251.496094 64.90625 250 66.445312 248.617188 C 67.242188 247.972656 68.300781 247.820312 67.792969 247.351562 C 71.863281 250.96875 77.46875 244.566406 73.347656 240.964844 Z M 73.347656 240.964844 " fill-opacity="1" fill-rule="nonzero"/><g fill="#fdbe10" fill-opacity="1"><g transform="translate(115.832896, 200.249987)"><g><path d="M 17.5625 2.078125 C 17.15625 2.078125 16.953125 1.863281 16.953125 1.4375 L 16.953125 -0.078125 C 16.421875 0.671875 15.632812 1.296875 14.59375 1.796875 C 13.5625 2.304688 12.507812 2.5625 11.4375 2.5625 C 10 2.5625 8.710938 2.285156 7.578125 1.734375 C 6.441406 1.191406 5.476562 0.410156 4.6875 -0.609375 C 3.90625 -1.640625 3.304688 -2.890625 2.890625 -4.359375 C 2.484375 -5.828125 2.28125 -7.476562 2.28125 -9.3125 C 2.28125 -11.101562 2.492188 -12.722656 2.921875 -14.171875 C 3.347656 -15.628906 3.953125 -16.863281 4.734375 -17.875 C 5.523438 -18.894531 6.484375 -19.679688 7.609375 -20.234375 C 8.742188 -20.796875 10.019531 -21.078125 11.4375 -21.078125 C 12.507812 -21.078125 13.515625 -20.863281 14.453125 -20.4375 C 15.398438 -20.007812 16.234375 -19.410156 16.953125 -18.640625 L 16.953125 -30.046875 C 16.953125 -30.253906 16.984375 -30.390625 17.046875 -30.453125 C 17.117188 -30.523438 17.25 -30.5625 17.4375 -30.5625 L 20.71875 -30.5625 C 21.0625 -30.5625 21.234375 -30.390625 21.234375 -30.046875 L 21.234375 1.4375 C 21.234375 1.65625 21.164062 1.816406 21.03125 1.921875 C 20.90625 2.023438 20.757812 2.078125 20.59375 2.078125 Z M 11.875 -17 C 10.226562 -17 8.960938 -16.320312 8.078125 -14.96875 C 7.203125 -13.625 6.765625 -11.738281 6.765625 -9.3125 C 6.765625 -6.707031 7.21875 -4.75 8.125 -3.4375 C 9.03125 -2.132812 10.28125 -1.484375 11.875 -1.484375 C 12.570312 -1.484375 13.226562 -1.65625 13.84375 -2 C 14.457031 -2.34375 14.992188 -2.847656 15.453125 -3.515625 C 15.921875 -4.179688 16.285156 -5 16.546875 -5.96875 C 16.816406 -6.945312 16.953125 -8.0625 16.953125 -9.3125 C 16.953125 -11.90625 16.503906 -13.832031 15.609375 -15.09375 C 14.722656 -16.363281 13.476562 -17 11.875 -17 Z M 11.875 -17 "/></g></g></g></svg>