<svg xmlns="http://www.w3.org/2000/svg" xmlns:xlink="http://www.w3.org/1999/xlink" width="200" zoomAndPan="magnify" viewBox="0 0 150 37.5" height="50" preserveAspectRatio="xMidYMid meet" version="1.0"><defs><g/><clipPath id="c10b128c34"><path d="M 33 13 L 37.457031 13 L 37.457031 15 L 33 15 Z M 33 13 " clip-rule="nonzero"/></clipPath><clipPath id="e77aa66f9e"><path d="M 10 6 L 32 6 L 32 35.34375 L 10 35.34375 Z M 10 6 " clip-rule="nonzero"/></clipPath><clipPath id="a1e761afb2"><path d="M 3.652344 13 L 7 13 L 7 16 L 3.652344 16 Z M 3.652344 13 " clip-rule="nonzero"/></clipPath></defs><g clip-path="url(#c10b128c34)"><path fill="#000000" d="M 36.933594 13.636719 C 35.902344 13.324219 34.84375 13.617188 33.796875 13.632812 C 33.28125 13.640625 33.347656 14.4375 33.859375 14.429688 C 34.832031 14.417969 35.820312 14.128906 36.777344 14.425781 C 37.273438 14.574219 37.417969 13.78125 36.933594 13.636719 Z M 36.933594 13.636719 " fill-opacity="1" fill-rule="nonzero"/></g><path fill="#000000" d="M 34.570312 21.589844 C 34.207031 21.21875 33.683594 21.824219 34.042969 22.191406 C 34.570312 22.726562 35.152344 23.371094 35.183594 24.164062 C 35.203125 24.679688 36 24.617188 35.980469 24.101562 C 35.9375 23.09375 35.242188 22.273438 34.570312 21.589844 Z M 34.570312 21.589844 " fill-opacity="1" fill-rule="nonzero"/><path fill="#73a0b1" d="M 26.226562 26.84375 L 26.226562 26.839844 C 26.175781 26.769531 26.113281 26.710938 26.042969 26.65625 C 25.417969 26.148438 24.417969 26.15625 23.65625 26.136719 C 22.597656 26.105469 21.535156 26.023438 20.484375 26.164062 C 19.996094 26.226562 19.519531 26.363281 19.03125 26.402344 C 18.679688 26.429688 18.332031 26.4375 17.984375 26.46875 C 17.601562 26.5 17.191406 26.527344 16.835938 26.679688 C 16.542969 26.804688 16.449219 27.183594 16.878906 27.128906 C 17.007812 27.105469 17.117188 27.144531 17.199219 27.246094 C 17.457031 27.246094 17.714844 27.246094 17.96875 27.242188 C 19.269531 27.222656 20.570312 27.195312 21.867188 27.253906 C 22.636719 27.289062 23.390625 27.398438 24.160156 27.335938 C 24.710938 27.292969 25.28125 27.238281 25.800781 27.058594 C 25.914062 27.027344 26.019531 26.984375 26.125 26.929688 C 26.164062 26.90625 26.199219 26.882812 26.234375 26.855469 C 26.21875 26.859375 26.222656 26.855469 26.226562 26.84375 Z M 26.226562 26.84375 " fill-opacity="1" fill-rule="nonzero"/><path fill="#fdbe10" d="M 22.582031 20.707031 C 22.828125 19.707031 23.179688 18.746094 23.636719 17.824219 C 23.457031 17.75 23.296875 17.640625 23.160156 17.5 C 22.734375 17.714844 22.292969 17.746094 21.839844 17.601562 C 21.605469 17.527344 21.386719 17.421875 21.183594 17.285156 C 20.796875 17.457031 20.355469 17.476562 19.933594 17.480469 L 19.691406 17.480469 C 20.902344 19.828125 21.148438 22.726562 21.15625 25.285156 L 21.15625 25.296875 C 21.257812 25.289062 21.355469 25.28125 21.457031 25.28125 C 21.613281 25.28125 21.765625 25.28125 21.921875 25.285156 C 21.808594 25.1875 21.765625 25.066406 21.800781 24.917969 C 22.078125 23.519531 22.242188 22.09375 22.582031 20.707031 Z M 22.582031 20.707031 " fill-opacity="1" fill-rule="nonzero"/><path fill="#73a0b1" d="M 24.824219 32.980469 C 24.550781 32.972656 24.351562 32.753906 24.40625 32.492188 C 24.386719 32.496094 24.367188 32.5 24.347656 32.5 C 22.765625 32.503906 21.1875 32.660156 19.601562 32.621094 C 18.945312 32.605469 17.992188 32.617188 17.289062 32.304688 C 17.074219 33.054688 17.277344 33.898438 18.160156 34.128906 C 19.179688 34.402344 20.242188 34.082031 21.273438 34.105469 C 21.84375 34.117188 22.40625 34.171875 22.972656 34.179688 C 23.472656 34.1875 24.082031 34.21875 24.542969 34.003906 C 24.839844 33.859375 25.050781 33.632812 25.175781 33.328125 C 25.289062 33.03125 25.097656 32.988281 24.824219 32.980469 Z M 24.824219 32.980469 " fill-opacity="1" fill-rule="nonzero"/><path fill="#fdbe10" d="M 21.152344 14.976562 C 20.917969 15.296875 21.050781 15.816406 21.210938 16.140625 C 21.230469 16.179688 21.25 16.214844 21.273438 16.25 L 21.328125 16.199219 C 21.589844 15.9375 22.097656 15.445312 22.074219 15.027344 C 22.050781 14.683594 21.320312 14.761719 21.152344 14.976562 Z M 21.152344 14.976562 " fill-opacity="1" fill-rule="nonzero"/><path fill="#73a0b1" d="M 24.824219 30.398438 C 24.78125 30.332031 24.757812 30.257812 24.757812 30.175781 C 24.332031 30.375 23.808594 30.410156 23.363281 30.4375 C 22.726562 30.476562 22.09375 30.46875 21.457031 30.457031 C 20.074219 30.4375 18.558594 30.523438 17.296875 29.878906 C 17.097656 30.101562 16.949219 30.347656 16.847656 30.628906 C 16.773438 30.851562 16.800781 30.996094 16.914062 31.09375 C 17.027344 31.089844 17.121094 31.128906 17.195312 31.21875 L 17.222656 31.222656 C 17.382812 31.261719 17.488281 31.363281 17.535156 31.523438 C 17.800781 31.65625 18.144531 31.699219 18.394531 31.734375 C 18.929688 31.800781 19.464844 31.828125 20 31.820312 C 21.429688 31.820312 22.855469 31.703125 24.285156 31.695312 C 24.46875 31.691406 24.59375 31.773438 24.664062 31.941406 C 24.917969 31.445312 25.15625 30.917969 24.824219 30.398438 Z M 24.824219 30.398438 " fill-opacity="1" fill-rule="nonzero"/><path fill="#73a0b1" d="M 24.941406 28.113281 C 24.929688 28.097656 24.917969 28.078125 24.90625 28.0625 C 24.535156 28.113281 24.152344 28.148438 23.777344 28.160156 C 23.386719 28.179688 23 28.121094 22.609375 28.09375 C 21.964844 28.046875 21.316406 28.027344 20.667969 28.019531 C 19.625 28.011719 18.582031 28.035156 17.539062 28.042969 C 17.4375 28.125 17.320312 28.15625 17.191406 28.136719 C 17.058594 28.390625 16.964844 28.703125 17.089844 28.910156 C 17.175781 28.902344 17.253906 28.921875 17.324219 28.96875 C 18.550781 29.757812 20.085938 29.632812 21.476562 29.65625 C 22.050781 29.667969 22.632812 29.675781 23.207031 29.640625 C 23.632812 29.617188 24.214844 29.625 24.574219 29.359375 C 24.847656 29.15625 25.136719 29.378906 25.179688 29.640625 C 25.535156 29.21875 25.277344 28.550781 24.941406 28.113281 Z M 24.941406 28.113281 " fill-opacity="1" fill-rule="nonzero"/><path fill="#fdbe10" d="M 30.863281 14.382812 C 30.726562 12.628906 30.40625 10.664062 29.355469 9.203125 C 28.117188 7.492188 26.109375 7.1875 24.140625 7.023438 C 22.878906 6.929688 21.621094 6.90625 20.359375 6.957031 C 19.34375 6.992188 18.332031 7.046875 17.351562 7.34375 C 15.671875 7.847656 14.308594 8.898438 13.320312 10.347656 C 12.734375 11.210938 12.191406 12.164062 11.925781 13.175781 C 11.652344 14.257812 11.5625 15.355469 11.660156 16.46875 C 11.832031 18.558594 12.324219 20.984375 14.191406 22.207031 C 14.96875 22.714844 15.84375 23.128906 16.441406 23.863281 C 16.8125 24.324219 17.058594 24.921875 17.28125 25.46875 C 17.316406 25.550781 17.320312 25.632812 17.296875 25.71875 C 17.726562 25.652344 18.175781 25.648438 18.566406 25.625 C 19.171875 25.59375 19.761719 25.476562 20.359375 25.382812 L 20.359375 25.347656 C 20.359375 23.746094 20.25 22.117188 19.894531 20.554688 C 19.648438 19.46875 19.296875 18.371094 18.734375 17.40625 C 18.542969 17.367188 18.359375 17.300781 18.1875 17.203125 C 17.664062 16.894531 17.542969 16.359375 17.847656 15.835938 C 17.964844 15.632812 18.285156 15.507812 18.46875 15.710938 C 18.734375 16.007812 18.980469 16.320312 19.199219 16.652344 C 19.582031 16.691406 19.964844 16.691406 20.34375 16.652344 C 20.425781 16.644531 20.5 16.636719 20.570312 16.625 C 20.5 16.507812 20.445312 16.390625 20.398438 16.265625 C 20.1875 15.699219 20.140625 15 20.519531 14.492188 C 20.910156 13.964844 21.730469 13.859375 22.304688 14.144531 C 22.910156 14.445312 22.972656 15.109375 22.695312 15.675781 C 22.492188 16.089844 22.226562 16.453125 21.894531 16.773438 C 22.1875 16.871094 22.476562 16.859375 22.761719 16.742188 C 22.566406 15.828125 23.074219 14.640625 24.183594 14.980469 C 24.339844 15.027344 24.511719 15.152344 24.503906 15.34375 C 24.476562 15.984375 24.242188 16.539062 23.804688 17.011719 C 23.867188 17.058594 23.933594 17.09375 24.007812 17.117188 C 24.230469 16.703125 24.492188 16.320312 24.792969 15.960938 C 25.167969 15.535156 25.800781 15.167969 26.238281 15.75 C 26.625 16.253906 25.925781 16.972656 25.589844 17.285156 C 25.257812 17.597656 24.902344 17.859375 24.472656 17.925781 C 24.214844 18.390625 23.996094 18.867188 23.808594 19.363281 C 23.136719 21.199219 22.957031 23.160156 22.582031 25.070312 C 22.566406 25.164062 22.523438 25.242188 22.445312 25.300781 C 22.652344 25.3125 22.859375 25.320312 23.066406 25.324219 C 23.5 25.328125 23.9375 25.339844 24.371094 25.375 C 24.765625 25.398438 25.15625 25.453125 25.542969 25.542969 C 26.058594 23.453125 28.476562 22.402344 29.539062 20.640625 C 30.6875 18.75 31.03125 16.566406 30.863281 14.382812 Z M 30.863281 14.382812 " fill-opacity="1" fill-rule="nonzero"/><path fill="#73a0b1" d="M 23.519531 16.085938 C 23.566406 16 23.605469 15.90625 23.636719 15.8125 C 23.570312 15.890625 23.53125 15.980469 23.519531 16.085938 Z M 23.519531 16.085938 " fill-opacity="1" fill-rule="nonzero"/><g clip-path="url(#e77aa66f9e)"><path fill="#000000" d="M 30.933594 10.597656 C 30.390625 9.011719 29.375 7.65625 27.832031 6.953125 C 26.824219 6.492188 25.679688 6.375 24.589844 6.269531 C 23.359375 6.15625 22.125 6.113281 20.890625 6.144531 C 18.9375 6.179688 17.042969 6.359375 15.316406 7.351562 C 13.726562 8.265625 12.679688 9.765625 11.808594 11.335938 C 10.75 13.246094 10.671875 15.585938 11.011719 17.695312 C 11.320312 19.613281 11.929688 21.550781 13.5625 22.738281 C 14.277344 23.257812 15.105469 23.613281 15.726562 24.257812 C 16.109375 24.648438 16.324219 25.234375 16.527344 25.734375 C 16.550781 25.792969 16.582031 25.84375 16.628906 25.886719 C 16.464844 25.949219 16.308594 26.035156 16.167969 26.140625 C 15.484375 26.675781 15.753906 27.621094 16.429688 27.871094 C 16.390625 27.96875 16.359375 28.0625 16.335938 28.140625 C 16.175781 28.632812 16.207031 29.1875 16.539062 29.539062 C 16.269531 29.890625 16.0625 30.300781 16.015625 30.734375 C 15.957031 31.246094 16.203125 31.617188 16.59375 31.832031 C 16.167969 32.910156 16.4375 34.191406 17.5625 34.738281 C 18.816406 35.347656 20.304688 34.855469 21.636719 34.910156 C 22.90625 34.960938 24.523438 35.273438 25.507812 34.253906 C 25.816406 33.933594 26.070312 33.441406 25.996094 32.984375 C 25.933594 32.601562 25.679688 32.382812 25.367188 32.277344 C 25.671875 31.617188 25.929688 30.984375 25.660156 30.296875 C 26.335938 29.691406 26.21875 28.660156 25.761719 27.898438 C 26.148438 27.804688 26.53125 27.664062 26.820312 27.382812 C 27.238281 26.980469 26.96875 26.425781 26.625 26.097656 C 26.523438 26.003906 26.414062 25.917969 26.292969 25.847656 C 26.453125 25.121094 26.941406 24.542969 27.449219 24.011719 C 28.082031 23.347656 28.785156 22.761719 29.410156 22.09375 C 30.796875 20.605469 31.496094 18.527344 31.660156 16.523438 C 31.820312 14.5 31.578125 12.523438 30.933594 10.597656 Z M 16.914062 31.09375 C 16.796875 30.996094 16.773438 30.851562 16.847656 30.628906 C 16.949219 30.347656 17.097656 30.101562 17.296875 29.878906 C 18.558594 30.523438 20.074219 30.4375 21.457031 30.457031 C 22.089844 30.46875 22.726562 30.476562 23.363281 30.4375 C 23.808594 30.410156 24.335938 30.375 24.757812 30.175781 C 24.757812 30.257812 24.78125 30.332031 24.820312 30.398438 C 25.15625 30.917969 24.917969 31.441406 24.660156 31.945312 C 24.59375 31.777344 24.464844 31.695312 24.285156 31.699219 C 22.855469 31.703125 21.429688 31.824219 20 31.824219 C 19.460938 31.832031 18.925781 31.800781 18.394531 31.734375 C 18.144531 31.703125 17.796875 31.660156 17.535156 31.527344 C 17.488281 31.367188 17.382812 31.265625 17.21875 31.226562 L 17.195312 31.222656 C 17.121094 31.132812 17.027344 31.089844 16.914062 31.09375 Z M 25.175781 33.324219 C 25.050781 33.628906 24.839844 33.855469 24.542969 34 C 24.078125 34.214844 23.46875 34.179688 22.972656 34.175781 C 22.40625 34.164062 21.84375 34.109375 21.273438 34.097656 C 20.242188 34.078125 19.183594 34.394531 18.160156 34.125 C 17.277344 33.890625 17.074219 33.046875 17.289062 32.296875 C 17.992188 32.609375 18.949219 32.597656 19.601562 32.613281 C 21.1875 32.652344 22.765625 32.5 24.347656 32.492188 C 24.367188 32.492188 24.386719 32.492188 24.40625 32.488281 C 24.351562 32.746094 24.550781 32.964844 24.824219 32.972656 C 25.097656 32.980469 25.289062 33.03125 25.175781 33.324219 Z M 25.175781 29.640625 C 25.132812 29.378906 24.84375 29.15625 24.570312 29.359375 C 24.207031 29.625 23.628906 29.617188 23.203125 29.640625 C 22.625 29.675781 22.046875 29.664062 21.472656 29.65625 C 20.078125 29.632812 18.546875 29.757812 17.320312 28.96875 C 17.25 28.921875 17.171875 28.902344 17.085938 28.910156 C 16.964844 28.703125 17.054688 28.390625 17.183594 28.136719 C 17.316406 28.15625 17.433594 28.121094 17.539062 28.039062 C 18.582031 28.03125 19.621094 28.007812 20.664062 28.019531 C 21.3125 28.023438 21.964844 28.042969 22.609375 28.089844 C 22.996094 28.117188 23.382812 28.175781 23.773438 28.160156 C 24.152344 28.144531 24.527344 28.109375 24.902344 28.058594 C 24.914062 28.074219 24.925781 28.09375 24.9375 28.109375 C 25.277344 28.550781 25.535156 29.21875 25.175781 29.640625 Z M 26.121094 26.925781 C 26.019531 26.980469 25.910156 27.023438 25.800781 27.054688 C 25.277344 27.230469 24.703125 27.289062 24.15625 27.332031 C 23.390625 27.394531 22.632812 27.285156 21.867188 27.25 C 20.566406 27.191406 19.265625 27.21875 17.96875 27.234375 C 17.710938 27.238281 17.453125 27.242188 17.199219 27.242188 C 17.113281 27.140625 17.003906 27.101562 16.875 27.125 C 16.445312 27.179688 16.539062 26.800781 16.832031 26.675781 C 17.1875 26.523438 17.601562 26.496094 17.980469 26.460938 C 18.328125 26.433594 18.679688 26.421875 19.027344 26.398438 C 19.515625 26.359375 19.996094 26.222656 20.480469 26.15625 C 21.53125 26.019531 22.59375 26.101562 23.652344 26.128906 C 24.414062 26.152344 25.417969 26.144531 26.042969 26.652344 C 26.109375 26.703125 26.171875 26.765625 26.222656 26.835938 L 26.222656 26.839844 C 26.21875 26.847656 26.214844 26.855469 26.226562 26.847656 C 26.195312 26.875 26.160156 26.902344 26.121094 26.925781 Z M 21.183594 17.285156 C 21.386719 17.421875 21.605469 17.527344 21.839844 17.601562 C 22.292969 17.746094 22.734375 17.714844 23.160156 17.5 C 23.296875 17.640625 23.457031 17.75 23.636719 17.824219 C 23.179688 18.746094 22.828125 19.707031 22.582031 20.707031 C 22.242188 22.09375 22.078125 23.519531 21.804688 24.917969 C 21.765625 25.0625 21.808594 25.1875 21.921875 25.28125 C 21.769531 25.277344 21.613281 25.273438 21.457031 25.277344 C 21.355469 25.277344 21.253906 25.285156 21.15625 25.292969 L 21.15625 25.285156 C 21.152344 22.722656 20.902344 19.824219 19.691406 17.480469 L 19.933594 17.480469 C 20.355469 17.476562 20.796875 17.457031 21.183594 17.285156 Z M 21.152344 14.976562 C 21.320312 14.753906 22.050781 14.683594 22.070312 15.027344 C 22.097656 15.445312 21.589844 15.9375 21.324219 16.199219 L 21.269531 16.25 C 21.25 16.214844 21.226562 16.175781 21.207031 16.140625 C 21.050781 15.816406 20.917969 15.296875 21.152344 14.976562 Z M 23.519531 16.085938 C 23.53125 15.980469 23.570312 15.890625 23.636719 15.8125 C 23.605469 15.90625 23.566406 16 23.519531 16.085938 Z M 29.542969 20.644531 C 28.476562 22.40625 26.058594 23.453125 25.546875 25.546875 C 25.160156 25.457031 24.769531 25.398438 24.371094 25.375 C 23.9375 25.339844 23.503906 25.332031 23.066406 25.324219 C 22.859375 25.324219 22.65625 25.316406 22.449219 25.304688 C 22.523438 25.246094 22.570312 25.167969 22.585938 25.074219 C 22.957031 23.164062 23.136719 21.199219 23.8125 19.367188 C 23.996094 18.871094 24.21875 18.390625 24.472656 17.929688 C 24.902344 17.863281 25.246094 17.609375 25.59375 17.289062 C 25.9375 16.96875 26.625 16.257812 26.242188 15.75 C 25.800781 15.171875 25.171875 15.539062 24.796875 15.964844 C 24.492188 16.320312 24.230469 16.703125 24.007812 17.117188 C 23.933594 17.09375 23.867188 17.058594 23.804688 17.011719 C 24.242188 16.539062 24.476562 15.984375 24.503906 15.34375 C 24.511719 15.152344 24.339844 15.027344 24.183594 14.980469 C 23.074219 14.640625 22.566406 15.828125 22.761719 16.742188 C 22.476562 16.859375 22.1875 16.871094 21.894531 16.773438 C 22.226562 16.457031 22.496094 16.089844 22.699219 15.679688 C 22.976562 15.109375 22.914062 14.449219 22.308594 14.148438 C 21.734375 13.863281 20.914062 13.964844 20.523438 14.496094 C 20.148438 15.003906 20.191406 15.703125 20.402344 16.265625 C 20.449219 16.394531 20.503906 16.511719 20.574219 16.628906 C 20.503906 16.640625 20.433594 16.648438 20.347656 16.65625 C 19.964844 16.695312 19.585938 16.695312 19.203125 16.65625 C 18.980469 16.324219 18.738281 16.011719 18.472656 15.714844 C 18.285156 15.511719 17.96875 15.636719 17.851562 15.835938 C 17.546875 16.363281 17.667969 16.898438 18.191406 17.207031 C 18.363281 17.300781 18.542969 17.371094 18.738281 17.410156 C 19.300781 18.375 19.652344 19.472656 19.898438 20.558594 C 20.253906 22.121094 20.359375 23.75 20.363281 25.347656 L 20.363281 25.386719 C 19.765625 25.476562 19.171875 25.59375 18.570312 25.628906 C 18.179688 25.652344 17.730469 25.65625 17.300781 25.71875 C 17.324219 25.636719 17.316406 25.554688 17.285156 25.472656 C 17.0625 24.921875 16.820312 24.324219 16.445312 23.863281 C 15.847656 23.132812 14.972656 22.71875 14.195312 22.210938 C 12.328125 20.988281 11.835938 18.558594 11.664062 16.472656 C 11.566406 15.359375 11.65625 14.261719 11.929688 13.179688 C 12.195312 12.164062 12.738281 11.210938 13.324219 10.351562 C 14.3125 8.898438 15.675781 7.851562 17.355469 7.347656 C 18.335938 7.050781 19.347656 6.996094 20.363281 6.960938 C 21.625 6.910156 22.882812 6.933594 24.144531 7.027344 C 26.113281 7.1875 28.121094 7.492188 29.359375 9.207031 C 30.410156 10.660156 30.726562 12.628906 30.863281 14.382812 C 31.03125 16.566406 30.6875 18.75 29.542969 20.644531 Z M 29.542969 20.644531 " fill-opacity="1" fill-rule="nonzero"/></g><path fill="#000000" d="M 18.929688 0.582031 L 18.929688 2.835938 C 18.929688 3.351562 19.722656 3.289062 19.722656 2.773438 L 19.722656 0.519531 C 19.722656 0.00390625 18.929688 0.0664062 18.929688 0.582031 Z M 18.929688 0.582031 " fill-opacity="1" fill-rule="nonzero"/><path fill="#000000" d="M 11.59375 3.253906 C 11.582031 2.738281 10.785156 2.804688 10.800781 3.316406 C 10.8125 3.84375 10.96875 4.332031 11.171875 4.816406 C 11.363281 5.265625 11.582031 5.703125 11.597656 6.203125 C 11.613281 6.71875 12.40625 6.65625 12.390625 6.140625 C 12.359375 5.113281 11.621094 4.285156 11.59375 3.253906 Z M 11.59375 3.253906 " fill-opacity="1" fill-rule="nonzero"/><g clip-path="url(#a1e761afb2)"><path fill="#000000" d="M 6.425781 15.25 C 5.957031 14.5 5.210938 14.019531 4.675781 13.324219 C 4.359375 12.917969 3.699219 13.367188 4.011719 13.777344 C 4.546875 14.46875 5.300781 14.953125 5.765625 15.703125 C 6.039062 16.136719 6.699219 15.6875 6.425781 15.25 Z M 6.425781 15.25 " fill-opacity="1" fill-rule="nonzero"/></g><path fill="#000000" d="M 29.941406 2.152344 C 29.28125 2.648438 28.605469 3.160156 28.210938 3.910156 C 27.972656 4.367188 28.6875 4.722656 28.925781 4.265625 C 29.25 3.644531 29.839844 3.226562 30.386719 2.816406 C 30.796875 2.511719 30.351562 1.839844 29.941406 2.152344 Z M 29.941406 2.152344 " fill-opacity="1" fill-rule="nonzero"/><path fill="#000000" d="M 9.867188 22.710938 C 8.976562 21.925781 8.203125 23.546875 7.632812 23.960938 C 7.214844 24.261719 7.65625 24.929688 8.078125 24.628906 C 8.367188 24.417969 8.589844 24.125 8.820312 23.855469 C 8.941406 23.703125 9.074219 23.5625 9.21875 23.433594 C 9.292969 23.371094 9.394531 23.359375 9.347656 23.3125 C 9.726562 23.65625 10.253906 23.050781 9.867188 22.710938 Z M 9.867188 22.710938 " fill-opacity="1" fill-rule="nonzero"/><g fill="#fdbe10" fill-opacity="1"><g transform="translate(27.96729, 30.289816)"><g><path d="M 1.5 -20.9375 L 14.265625 -20.9375 L 14.265625 0 L 1.5 0 Z M 2.328125 -20.34375 L 7.875 -11.09375 L 13.4375 -20.34375 Z M 7.515625 -10.46875 L 2.125 -19.453125 L 2.125 -1.46875 Z M 7.90625 -9.84375 L 2.359375 -0.625 L 13.4375 -0.625 Z M 8.265625 -10.46875 L 13.671875 -1.40625 L 13.671875 -19.515625 Z M 8.265625 -10.46875 "/></g></g></g><g fill="#fdbe10" fill-opacity="1"><g transform="translate(43.737129, 30.289816)"><g><path d="M 11.15625 -12.984375 C 12.28125 -12.222656 13.164062 -11.226562 13.8125 -10 C 14.457031 -8.78125 14.710938 -7.492188 14.578125 -6.140625 C 14.429688 -4.941406 14.019531 -3.90625 13.34375 -3.03125 C 12.664062 -2.164062 11.832031 -1.5 10.84375 -1.03125 C 9.851562 -0.5625 8.804688 -0.300781 7.703125 -0.25 C 6.597656 -0.195312 5.535156 -0.378906 4.515625 -0.796875 C 3.492188 -1.222656 2.632812 -1.894531 1.9375 -2.8125 C 1.582031 -3.289062 1.429688 -3.738281 1.484375 -4.15625 C 1.546875 -4.570312 1.734375 -4.941406 2.046875 -5.265625 C 2.359375 -5.585938 2.742188 -5.8125 3.203125 -5.9375 C 3.660156 -6.070312 4.125 -6.078125 4.59375 -5.953125 C 5.0625 -5.835938 5.46875 -5.550781 5.8125 -5.09375 C 5.96875 -4.863281 6.265625 -4.734375 6.703125 -4.703125 C 7.140625 -4.679688 7.578125 -4.703125 8.015625 -4.765625 C 8.453125 -4.835938 8.765625 -4.914062 8.953125 -5 C 9.367188 -5.195312 9.679688 -5.488281 9.890625 -5.875 C 10.097656 -6.269531 10.171875 -6.695312 10.109375 -7.15625 C 10.054688 -7.707031 9.859375 -8.164062 9.515625 -8.53125 C 9.171875 -8.90625 8.765625 -9.222656 8.296875 -9.484375 C 7.828125 -9.742188 7.351562 -10 6.875 -10.25 C 6.394531 -10.5 5.976562 -10.773438 5.625 -11.078125 C 4.625 -11.953125 4.015625 -12.90625 3.796875 -13.9375 C 3.578125 -14.976562 3.648438 -16.003906 4.015625 -17.015625 C 4.390625 -18.035156 4.960938 -18.960938 5.734375 -19.796875 C 6.515625 -20.640625 7.40625 -21.300781 8.40625 -21.78125 C 8.945312 -22.019531 9.445312 -22.082031 9.90625 -21.96875 C 10.363281 -21.863281 10.753906 -21.640625 11.078125 -21.296875 C 11.410156 -20.960938 11.632812 -20.578125 11.75 -20.140625 C 11.875 -19.703125 11.851562 -19.28125 11.6875 -18.875 C 11.53125 -18.476562 11.195312 -18.148438 10.6875 -17.890625 C 10.34375 -17.734375 9.945312 -17.515625 9.5 -17.234375 C 9.050781 -16.953125 8.679688 -16.617188 8.390625 -16.234375 C 8.097656 -15.847656 8.046875 -15.414062 8.234375 -14.9375 C 8.328125 -14.613281 8.554688 -14.335938 8.921875 -14.109375 C 9.296875 -13.878906 9.691406 -13.671875 10.109375 -13.484375 C 10.523438 -13.304688 10.875 -13.140625 11.15625 -12.984375 Z M 11.15625 -12.984375 "/></g></g></g><g fill="#fdbe10" fill-opacity="1"><g transform="translate(59.836134, 30.289816)"><g><path d="M 13.3125 -7.1875 C 13.875 -7.34375 14.359375 -7.320312 14.765625 -7.125 C 15.171875 -6.925781 15.488281 -6.625 15.71875 -6.21875 C 15.945312 -5.820312 16.066406 -5.394531 16.078125 -4.9375 C 16.085938 -4.476562 15.96875 -4.050781 15.71875 -3.65625 C 15.46875 -3.269531 15.066406 -3.007812 14.515625 -2.875 C 13.492188 -2.570312 12.445312 -2.347656 11.375 -2.203125 C 10.3125 -2.066406 9.253906 -2.0625 8.203125 -2.1875 C 7.160156 -2.320312 6.160156 -2.660156 5.203125 -3.203125 C 3.960938 -3.921875 3.019531 -4.894531 2.375 -6.125 C 1.726562 -7.363281 1.4375 -8.691406 1.5 -10.109375 C 1.570312 -11.503906 1.914062 -12.84375 2.53125 -14.125 C 3.15625 -15.414062 3.976562 -16.550781 5 -17.53125 C 6.03125 -18.507812 7.195312 -19.265625 8.5 -19.796875 C 9.8125 -20.328125 11.175781 -20.539062 12.59375 -20.4375 C 13.175781 -20.375 13.640625 -20.175781 13.984375 -19.84375 C 14.335938 -19.519531 14.566406 -19.132812 14.671875 -18.6875 C 14.785156 -18.238281 14.785156 -17.796875 14.671875 -17.359375 C 14.566406 -16.921875 14.335938 -16.5625 13.984375 -16.28125 C 13.640625 -16 13.175781 -15.890625 12.59375 -15.953125 C 11.5625 -16.023438 10.582031 -15.828125 9.65625 -15.359375 C 8.726562 -14.890625 7.941406 -14.234375 7.296875 -13.390625 C 6.660156 -12.554688 6.253906 -11.632812 6.078125 -10.625 C 5.898438 -9.707031 5.941406 -8.972656 6.203125 -8.421875 C 6.472656 -7.867188 6.878906 -7.460938 7.421875 -7.203125 C 7.960938 -6.953125 8.578125 -6.796875 9.265625 -6.734375 C 9.953125 -6.671875 10.648438 -6.6875 11.359375 -6.78125 C 12.066406 -6.882812 12.71875 -7.019531 13.3125 -7.1875 Z M 13.3125 -7.1875 "/></g></g></g><g fill="#fdbe10" fill-opacity="1"><g transform="translate(77.431329, 30.289816)"><g><path d="M 12.84375 -20.921875 C 12.9375 -21.472656 13.160156 -21.878906 13.515625 -22.140625 C 13.878906 -22.398438 14.285156 -22.53125 14.734375 -22.53125 C 15.179688 -22.53125 15.609375 -22.410156 16.015625 -22.171875 C 16.429688 -21.929688 16.753906 -21.601562 16.984375 -21.1875 C 17.210938 -20.769531 17.265625 -20.28125 17.140625 -19.71875 C 16.066406 -14.207031 15.332031 -8.660156 14.9375 -3.078125 C 14.894531 -2.523438 14.707031 -2.070312 14.375 -1.71875 C 14.050781 -1.375 13.65625 -1.140625 13.1875 -1.015625 C 12.726562 -0.898438 12.285156 -0.898438 11.859375 -1.015625 C 11.429688 -1.140625 11.078125 -1.367188 10.796875 -1.703125 C 10.523438 -2.046875 10.40625 -2.503906 10.4375 -3.078125 C 10.5 -4.015625 10.570312 -4.953125 10.65625 -5.890625 C 10.75 -6.828125 10.847656 -7.765625 10.953125 -8.703125 L 6.859375 -8.703125 C 6.710938 -7.503906 6.566406 -6.3125 6.421875 -5.125 C 6.285156 -3.9375 6.148438 -2.753906 6.015625 -1.578125 C 5.929688 -1.003906 5.71875 -0.546875 5.375 -0.203125 C 5.039062 0.128906 4.644531 0.347656 4.1875 0.453125 C 3.726562 0.566406 3.28125 0.566406 2.84375 0.453125 C 2.40625 0.347656 2.054688 0.128906 1.796875 -0.203125 C 1.535156 -0.546875 1.445312 -1.003906 1.53125 -1.578125 C 1.707031 -3.222656 1.894531 -4.863281 2.09375 -6.5 C 2.289062 -8.144531 2.476562 -9.796875 2.65625 -11.453125 C 2.757812 -12.234375 2.851562 -13.019531 2.9375 -13.8125 C 3.03125 -14.613281 3.128906 -15.414062 3.234375 -16.21875 C 3.304688 -16.914062 3.367188 -17.648438 3.421875 -18.421875 C 3.472656 -19.203125 3.628906 -19.925781 3.890625 -20.59375 C 4.085938 -21.125 4.390625 -21.515625 4.796875 -21.765625 C 5.210938 -22.015625 5.65625 -22.132812 6.125 -22.125 C 6.59375 -22.113281 7.023438 -21.992188 7.421875 -21.765625 C 7.816406 -21.535156 8.097656 -21.222656 8.265625 -20.828125 C 8.441406 -20.429688 8.421875 -19.953125 8.203125 -19.390625 C 7.960938 -18.753906 7.820312 -18.050781 7.78125 -17.28125 C 7.738281 -16.507812 7.675781 -15.785156 7.59375 -15.109375 C 7.5625 -14.785156 7.523438 -14.460938 7.484375 -14.140625 C 7.441406 -13.828125 7.398438 -13.515625 7.359375 -13.203125 L 11.515625 -13.203125 C 11.703125 -14.472656 11.90625 -15.753906 12.125 -17.046875 C 12.34375 -18.347656 12.582031 -19.640625 12.84375 -20.921875 Z M 12.84375 -20.921875 "/></g></g></g><g fill="#fdbe10" fill-opacity="1"><g transform="translate(96.133704, 30.289816)"><g><path d="M 12.484375 -6.3125 C 13.054688 -6.289062 13.515625 -6.117188 13.859375 -5.796875 C 14.210938 -5.484375 14.441406 -5.101562 14.546875 -4.65625 C 14.660156 -4.207031 14.660156 -3.757812 14.546875 -3.3125 C 14.441406 -2.875 14.210938 -2.507812 13.859375 -2.21875 C 13.515625 -1.9375 13.054688 -1.804688 12.484375 -1.828125 C 11.117188 -1.890625 9.757812 -1.882812 8.40625 -1.8125 C 7.050781 -1.738281 5.695312 -1.59375 4.34375 -1.375 C 3.914062 -1.3125 3.472656 -1.351562 3.015625 -1.5 C 2.554688 -1.65625 2.171875 -1.898438 1.859375 -2.234375 C 1.554688 -2.578125 1.445312 -3.019531 1.53125 -3.5625 C 1.863281 -6.3125 2.234375 -9.0625 2.640625 -11.8125 C 3.054688 -14.570312 3.503906 -17.328125 3.984375 -20.078125 C 4.035156 -20.421875 4.15625 -20.707031 4.34375 -20.9375 C 4.5 -21.21875 4.722656 -21.453125 5.015625 -21.640625 C 5.316406 -21.835938 5.691406 -21.945312 6.140625 -21.96875 C 8.285156 -22.019531 10.4375 -21.976562 12.59375 -21.84375 C 13.175781 -21.800781 13.640625 -21.613281 13.984375 -21.28125 C 14.335938 -20.957031 14.566406 -20.570312 14.671875 -20.125 C 14.785156 -19.675781 14.785156 -19.226562 14.671875 -18.78125 C 14.566406 -18.34375 14.335938 -17.984375 13.984375 -17.703125 C 13.640625 -17.429688 13.175781 -17.316406 12.59375 -17.359375 C 11.125 -17.453125 9.617188 -17.5 8.078125 -17.5 C 7.972656 -16.925781 7.867188 -16.347656 7.765625 -15.765625 C 7.671875 -15.191406 7.585938 -14.613281 7.515625 -14.03125 C 8.328125 -14.007812 9.113281 -13.960938 9.875 -13.890625 C 10.46875 -13.828125 10.988281 -13.597656 11.4375 -13.203125 C 11.894531 -12.816406 12.125 -12.296875 12.125 -11.640625 C 12.125 -11.265625 12.015625 -10.894531 11.796875 -10.53125 C 11.585938 -10.175781 11.3125 -9.882812 10.96875 -9.65625 C 10.632812 -9.4375 10.269531 -9.347656 9.875 -9.390625 C 8.851562 -9.492188 7.835938 -9.546875 6.828125 -9.546875 C 6.742188 -8.984375 6.660156 -8.410156 6.578125 -7.828125 C 6.503906 -7.253906 6.425781 -6.691406 6.34375 -6.140625 C 7.363281 -6.234375 8.378906 -6.296875 9.390625 -6.328125 C 10.410156 -6.359375 11.441406 -6.351562 12.484375 -6.3125 Z M 12.484375 -6.3125 "/></g></g></g><g fill="#fdbe10" fill-opacity="1"><g transform="translate(112.382327, 30.289816)"><g><path d="M 12.953125 -18.515625 C 13.972656 -17.597656 14.757812 -16.503906 15.3125 -15.234375 C 15.875 -13.972656 16.078125 -12.644531 15.921875 -11.25 C 15.773438 -10.09375 15.398438 -9.007812 14.796875 -8 C 14.191406 -7 13.445312 -6.128906 12.5625 -5.390625 C 11.582031 -4.546875 10.429688 -3.867188 9.109375 -3.359375 C 7.785156 -2.859375 6.515625 -2.40625 5.296875 -2 C 4.953125 -1.882812 4.601562 -1.789062 4.25 -1.71875 C 3.90625 -1.644531 3.566406 -1.628906 3.234375 -1.671875 C 2.753906 -1.734375 2.335938 -1.957031 1.984375 -2.34375 C 1.640625 -2.738281 1.476562 -3.175781 1.5 -3.65625 C 1.632812 -9.082031 1.898438 -14.515625 2.296875 -19.953125 C 2.335938 -20.578125 2.539062 -21.015625 2.90625 -21.265625 C 3.28125 -21.515625 3.722656 -21.640625 4.234375 -21.640625 C 4.742188 -21.648438 5.238281 -21.617188 5.71875 -21.546875 C 6 -21.503906 6.257812 -21.460938 6.5 -21.421875 C 7.675781 -21.179688 8.8125 -20.847656 9.90625 -20.421875 C 11 -19.992188 12.015625 -19.359375 12.953125 -18.515625 Z M 11.28125 -11.015625 C 11.5625 -11.804688 11.601562 -12.53125 11.40625 -13.1875 C 11.21875 -13.851562 10.875 -14.425781 10.375 -14.90625 C 9.882812 -15.382812 9.296875 -15.78125 8.609375 -16.09375 C 7.929688 -16.414062 7.242188 -16.65625 6.546875 -16.8125 C 6.347656 -13.539062 6.191406 -10.289062 6.078125 -7.0625 C 6.816406 -7.300781 7.53125 -7.570312 8.21875 -7.875 C 8.90625 -8.1875 9.515625 -8.585938 10.046875 -9.078125 C 10.585938 -9.566406 11 -10.210938 11.28125 -11.015625 Z M 11.28125 -11.015625 "/></g></g></g><g fill="#fdbe10" fill-opacity="1"><g transform="translate(129.857826, 30.289816)"><g><path d="M 16.640625 -18.28125 C 17.117188 -17.5 17.445312 -16.625 17.625 -15.65625 C 17.800781 -14.695312 17.878906 -13.722656 17.859375 -12.734375 C 17.835938 -11.742188 17.757812 -10.820312 17.625 -9.96875 C 17.425781 -8.644531 17.015625 -7.394531 16.390625 -6.21875 C 15.773438 -5.039062 14.945312 -4.023438 13.90625 -3.171875 C 12.914062 -2.347656 11.757812 -1.75 10.4375 -1.375 C 9.125 -1 7.835938 -1.007812 6.578125 -1.40625 C 5.742188 -1.664062 5.015625 -2.09375 4.390625 -2.6875 C 3.773438 -3.289062 3.257812 -3.972656 2.84375 -4.734375 C 2.425781 -5.503906 2.117188 -6.289062 1.921875 -7.09375 C 1.679688 -7.96875 1.539062 -8.976562 1.5 -10.125 C 1.457031 -11.269531 1.535156 -12.441406 1.734375 -13.640625 C 1.929688 -14.835938 2.257812 -15.953125 2.71875 -16.984375 C 3.175781 -18.023438 3.796875 -18.882812 4.578125 -19.5625 C 5.378906 -20.382812 6.335938 -20.960938 7.453125 -21.296875 C 8.566406 -21.640625 9.710938 -21.753906 10.890625 -21.640625 C 12.066406 -21.535156 13.160156 -21.195312 14.171875 -20.625 C 15.191406 -20.0625 16.015625 -19.28125 16.640625 -18.28125 Z M 11.1875 -6.640625 C 11.863281 -7.273438 12.367188 -8.015625 12.703125 -8.859375 C 13.035156 -9.710938 13.238281 -10.601562 13.3125 -11.53125 C 13.394531 -12.457031 13.375 -13.363281 13.25 -14.25 C 13.132812 -15.125 12.789062 -15.835938 12.21875 -16.390625 C 11.65625 -16.953125 10.90625 -17.222656 9.96875 -17.203125 C 9.445312 -17.203125 8.941406 -17.070312 8.453125 -16.8125 C 7.960938 -16.550781 7.554688 -16.210938 7.234375 -15.796875 C 6.878906 -15.296875 6.617188 -14.695312 6.453125 -14 C 6.296875 -13.300781 6.179688 -12.65625 6.109375 -12.0625 C 5.921875 -10.71875 5.988281 -9.398438 6.3125 -8.109375 C 6.414062 -7.734375 6.550781 -7.351562 6.71875 -6.96875 C 6.882812 -6.59375 7.128906 -6.285156 7.453125 -6.046875 C 7.972656 -5.660156 8.566406 -5.523438 9.234375 -5.640625 C 9.898438 -5.753906 10.484375 -6.019531 10.984375 -6.4375 C 11.046875 -6.488281 11.113281 -6.554688 11.1875 -6.640625 Z M 11.1875 -6.640625 "/></g></g></g></svg>