<svg xmlns="http://www.w3.org/2000/svg" xmlns:xlink="http://www.w3.org/1999/xlink" width="220" zoomAndPan="magnify" viewBox="0 0 165 48.75" height="65" preserveAspectRatio="xMidYMid meet" version="1.0"><defs><g/></defs><g fill="current" fill-opacity="1"><g transform="translate(5.36717, 40.393586)"><g><path d="M 16.328125 -18.90625 C 17.960938 -17.800781 19.253906 -16.359375 20.203125 -14.578125 C 21.148438 -12.796875 21.519531 -10.898438 21.3125 -8.890625 C 21.101562 -7.140625 20.503906 -5.632812 19.515625 -4.375 C 18.523438 -3.125 17.304688 -2.144531 15.859375 -1.4375 C 14.421875 -0.738281 12.890625 -0.351562 11.265625 -0.28125 C 9.648438 -0.207031 8.097656 -0.476562 6.609375 -1.09375 C 5.117188 -1.707031 3.863281 -2.695312 2.84375 -4.0625 C 2.320312 -4.738281 2.101562 -5.390625 2.1875 -6.015625 C 2.269531 -6.640625 2.535156 -7.1875 2.984375 -7.65625 C 3.441406 -8.125 4.003906 -8.453125 4.671875 -8.640625 C 5.347656 -8.828125 6.03125 -8.832031 6.71875 -8.65625 C 7.40625 -8.488281 7.992188 -8.066406 8.484375 -7.390625 C 8.722656 -7.078125 9.160156 -6.894531 9.796875 -6.84375 C 10.441406 -6.800781 11.082031 -6.832031 11.71875 -6.9375 C 12.363281 -7.039062 12.816406 -7.148438 13.078125 -7.265625 C 13.691406 -7.554688 14.148438 -7.984375 14.453125 -8.546875 C 14.765625 -9.117188 14.878906 -9.742188 14.796875 -10.421875 C 14.703125 -11.234375 14.40625 -11.898438 13.90625 -12.421875 C 13.414062 -12.953125 12.828125 -13.414062 12.140625 -13.8125 C 11.453125 -14.207031 10.757812 -14.585938 10.0625 -14.953125 C 9.363281 -15.316406 8.753906 -15.71875 8.234375 -16.15625 C 6.773438 -17.4375 5.882812 -18.828125 5.5625 -20.328125 C 5.238281 -21.828125 5.347656 -23.328125 5.890625 -24.828125 C 6.429688 -26.335938 7.269531 -27.703125 8.40625 -28.921875 C 9.539062 -30.148438 10.835938 -31.101562 12.296875 -31.78125 C 13.085938 -32.15625 13.816406 -32.253906 14.484375 -32.078125 C 15.160156 -31.898438 15.738281 -31.570312 16.21875 -31.09375 C 16.695312 -30.613281 17.023438 -30.050781 17.203125 -29.40625 C 17.378906 -28.769531 17.347656 -28.148438 17.109375 -27.546875 C 16.878906 -26.953125 16.382812 -26.476562 15.625 -26.125 C 15.125 -25.894531 14.546875 -25.570312 13.890625 -25.15625 C 13.234375 -24.75 12.691406 -24.257812 12.265625 -23.6875 C 11.847656 -23.125 11.769531 -22.492188 12.03125 -21.796875 C 12.175781 -21.328125 12.519531 -20.925781 13.0625 -20.59375 C 13.601562 -20.257812 14.179688 -19.957031 14.796875 -19.6875 C 15.410156 -19.425781 15.921875 -19.164062 16.328125 -18.90625 Z M 16.328125 -18.90625 "/></g></g></g><g fill="current" fill-opacity="1"><g transform="translate(28.907976, 40.393586)"><g><path d="M 19.46875 -10.5 C 20.289062 -10.738281 21 -10.710938 21.59375 -10.421875 C 22.195312 -10.128906 22.664062 -9.691406 23 -9.109375 C 23.332031 -8.523438 23.503906 -7.894531 23.515625 -7.21875 C 23.535156 -6.550781 23.363281 -5.929688 23 -5.359375 C 22.632812 -4.796875 22.039062 -4.410156 21.21875 -4.203125 C 19.738281 -3.765625 18.21875 -3.441406 16.65625 -3.234375 C 15.09375 -3.035156 13.546875 -3.03125 12.015625 -3.21875 C 10.484375 -3.40625 9.015625 -3.894531 7.609375 -4.6875 C 5.804688 -5.738281 4.429688 -7.164062 3.484375 -8.96875 C 2.535156 -10.78125 2.101562 -12.722656 2.1875 -14.796875 C 2.300781 -16.835938 2.8125 -18.796875 3.71875 -20.671875 C 4.625 -22.554688 5.828125 -24.210938 7.328125 -25.640625 C 8.828125 -27.078125 10.53125 -28.179688 12.4375 -28.953125 C 14.351562 -29.722656 16.347656 -30.035156 18.421875 -29.890625 C 19.265625 -29.804688 19.941406 -29.519531 20.453125 -29.03125 C 20.960938 -28.550781 21.296875 -27.984375 21.453125 -27.328125 C 21.617188 -26.671875 21.617188 -26.019531 21.453125 -25.375 C 21.296875 -24.738281 20.960938 -24.21875 20.453125 -23.8125 C 19.941406 -23.40625 19.265625 -23.242188 18.421875 -23.328125 C 16.910156 -23.441406 15.472656 -23.15625 14.109375 -22.46875 C 12.753906 -21.78125 11.609375 -20.820312 10.671875 -19.59375 C 9.742188 -18.375 9.148438 -17.019531 8.890625 -15.53125 C 8.617188 -14.195312 8.679688 -13.125 9.078125 -12.3125 C 9.472656 -11.507812 10.0625 -10.921875 10.84375 -10.546875 C 11.632812 -10.171875 12.535156 -9.9375 13.546875 -9.84375 C 14.554688 -9.757812 15.578125 -9.789062 16.609375 -9.9375 C 17.640625 -10.082031 18.59375 -10.269531 19.46875 -10.5 Z M 19.46875 -10.5 "/></g></g></g><g fill="current" fill-opacity="1"><g transform="translate(54.636591, 40.393586)"><g><path d="M 18.78125 -30.59375 C 18.925781 -31.40625 19.257812 -32 19.78125 -32.375 C 20.300781 -32.757812 20.890625 -32.953125 21.546875 -32.953125 C 22.210938 -32.953125 22.84375 -32.773438 23.4375 -32.421875 C 24.03125 -32.078125 24.492188 -31.597656 24.828125 -30.984375 C 25.171875 -30.367188 25.253906 -29.65625 25.078125 -28.84375 C 23.503906 -20.789062 22.425781 -12.679688 21.84375 -4.515625 C 21.78125 -3.691406 21.507812 -3.023438 21.03125 -2.515625 C 20.550781 -2.003906 19.972656 -1.660156 19.296875 -1.484375 C 18.628906 -1.304688 17.976562 -1.304688 17.34375 -1.484375 C 16.71875 -1.660156 16.203125 -1.992188 15.796875 -2.484375 C 15.390625 -2.984375 15.21875 -3.660156 15.28125 -4.515625 C 15.363281 -5.878906 15.46875 -7.242188 15.59375 -8.609375 C 15.726562 -9.984375 15.867188 -11.359375 16.015625 -12.734375 L 10.015625 -12.734375 C 9.816406 -10.984375 9.613281 -9.238281 9.40625 -7.5 C 9.207031 -5.769531 9.003906 -4.039062 8.796875 -2.3125 C 8.679688 -1.46875 8.375 -0.796875 7.875 -0.296875 C 7.382812 0.191406 6.800781 0.515625 6.125 0.671875 C 5.457031 0.835938 4.800781 0.835938 4.15625 0.671875 C 3.507812 0.515625 3 0.191406 2.625 -0.296875 C 2.25 -0.796875 2.117188 -1.46875 2.234375 -2.3125 C 2.492188 -4.707031 2.769531 -7.109375 3.0625 -9.515625 C 3.351562 -11.921875 3.628906 -14.335938 3.890625 -16.765625 C 4.035156 -17.898438 4.175781 -19.050781 4.3125 -20.21875 C 4.445312 -21.382812 4.585938 -22.550781 4.734375 -23.71875 C 4.847656 -24.738281 4.941406 -25.816406 5.015625 -26.953125 C 5.085938 -28.097656 5.3125 -29.148438 5.6875 -30.109375 C 5.976562 -30.898438 6.421875 -31.476562 7.015625 -31.84375 C 7.617188 -32.207031 8.265625 -32.378906 8.953125 -32.359375 C 9.640625 -32.347656 10.273438 -32.175781 10.859375 -31.84375 C 11.441406 -31.507812 11.851562 -31.046875 12.09375 -30.453125 C 12.34375 -29.867188 12.304688 -29.171875 11.984375 -28.359375 C 11.640625 -27.421875 11.4375 -26.390625 11.375 -25.265625 C 11.320312 -24.148438 11.234375 -23.097656 11.109375 -22.109375 C 11.054688 -21.640625 11 -21.171875 10.9375 -20.703125 C 10.882812 -20.234375 10.828125 -19.765625 10.765625 -19.296875 L 16.84375 -19.296875 C 17.113281 -21.171875 17.40625 -23.054688 17.71875 -24.953125 C 18.039062 -26.847656 18.394531 -28.726562 18.78125 -30.59375 Z M 18.78125 -30.59375 "/></g></g></g><g fill="current" fill-opacity="1"><g transform="translate(81.984185, 40.393586)"><g><path d="M 18.25 -9.234375 C 19.09375 -9.203125 19.769531 -8.953125 20.28125 -8.484375 C 20.789062 -8.023438 21.125 -7.46875 21.28125 -6.8125 C 21.445312 -6.15625 21.445312 -5.503906 21.28125 -4.859375 C 21.125 -4.210938 20.789062 -3.675781 20.28125 -3.25 C 19.769531 -2.832031 19.09375 -2.640625 18.25 -2.671875 C 16.269531 -2.753906 14.285156 -2.742188 12.296875 -2.640625 C 10.316406 -2.546875 8.332031 -2.335938 6.34375 -2.015625 C 5.726562 -1.921875 5.082031 -1.984375 4.40625 -2.203125 C 3.738281 -2.421875 3.179688 -2.78125 2.734375 -3.28125 C 2.285156 -3.78125 2.117188 -4.421875 2.234375 -5.203125 C 2.722656 -9.234375 3.265625 -13.257812 3.859375 -17.28125 C 4.460938 -21.3125 5.117188 -25.335938 5.828125 -29.359375 C 5.910156 -29.859375 6.082031 -30.285156 6.34375 -30.640625 C 6.582031 -31.046875 6.921875 -31.382812 7.359375 -31.65625 C 7.796875 -31.9375 8.332031 -32.09375 8.96875 -32.125 C 12.125 -32.207031 15.273438 -32.148438 18.421875 -31.953125 C 19.265625 -31.890625 19.941406 -31.617188 20.453125 -31.140625 C 20.960938 -30.660156 21.296875 -30.09375 21.453125 -29.4375 C 21.617188 -28.78125 21.617188 -28.128906 21.453125 -27.484375 C 21.296875 -26.835938 20.960938 -26.3125 20.453125 -25.90625 C 19.941406 -25.5 19.265625 -25.328125 18.421875 -25.390625 C 16.265625 -25.535156 14.0625 -25.609375 11.8125 -25.609375 C 11.664062 -24.753906 11.519531 -23.90625 11.375 -23.0625 C 11.226562 -22.21875 11.097656 -21.375 10.984375 -20.53125 C 12.179688 -20.5 13.332031 -20.425781 14.4375 -20.3125 C 15.3125 -20.21875 16.078125 -19.882812 16.734375 -19.3125 C 17.390625 -18.75 17.71875 -17.988281 17.71875 -17.03125 C 17.71875 -16.46875 17.566406 -15.925781 17.265625 -15.40625 C 16.960938 -14.882812 16.5625 -14.460938 16.0625 -14.140625 C 15.5625 -13.816406 15.019531 -13.6875 14.4375 -13.75 C 12.945312 -13.894531 11.460938 -13.96875 9.984375 -13.96875 C 9.859375 -13.144531 9.738281 -12.3125 9.625 -11.46875 C 9.507812 -10.625 9.394531 -9.789062 9.28125 -8.96875 C 10.769531 -9.113281 12.253906 -9.207031 13.734375 -9.25 C 15.222656 -9.300781 16.726562 -9.296875 18.25 -9.234375 Z M 18.25 -9.234375 "/></g></g></g><g fill="current" fill-opacity="1"><g transform="translate(105.743768, 40.393586)"><g><path d="M 18.953125 -27.09375 C 20.441406 -25.75 21.59375 -24.148438 22.40625 -22.296875 C 23.226562 -20.441406 23.519531 -18.492188 23.28125 -16.453125 C 23.082031 -14.765625 22.535156 -13.179688 21.640625 -11.703125 C 20.753906 -10.234375 19.664062 -8.957031 18.375 -7.875 C 16.945312 -6.65625 15.265625 -5.671875 13.328125 -4.921875 C 11.390625 -4.179688 9.53125 -3.519531 7.75 -2.9375 C 7.25 -2.757812 6.742188 -2.617188 6.234375 -2.515625 C 5.722656 -2.410156 5.222656 -2.390625 4.734375 -2.453125 C 4.023438 -2.535156 3.414062 -2.859375 2.90625 -3.421875 C 2.394531 -3.992188 2.15625 -4.632812 2.1875 -5.34375 C 2.394531 -13.28125 2.789062 -21.226562 3.375 -29.1875 C 3.425781 -30.09375 3.722656 -30.726562 4.265625 -31.09375 C 4.804688 -31.457031 5.445312 -31.644531 6.1875 -31.65625 C 6.9375 -31.675781 7.660156 -31.628906 8.359375 -31.515625 C 8.765625 -31.453125 9.144531 -31.394531 9.5 -31.34375 C 11.21875 -30.988281 12.878906 -30.492188 14.484375 -29.859375 C 16.085938 -29.234375 17.578125 -28.3125 18.953125 -27.09375 Z M 16.5 -16.109375 C 16.90625 -17.273438 16.96875 -18.335938 16.6875 -19.296875 C 16.414062 -20.265625 15.914062 -21.097656 15.1875 -21.796875 C 14.457031 -22.492188 13.59375 -23.078125 12.59375 -23.546875 C 11.601562 -24.015625 10.597656 -24.363281 9.578125 -24.59375 C 9.285156 -19.8125 9.054688 -15.054688 8.890625 -10.328125 C 9.960938 -10.679688 11.003906 -11.082031 12.015625 -11.53125 C 13.023438 -11.976562 13.921875 -12.5625 14.703125 -13.28125 C 15.492188 -14 16.09375 -14.941406 16.5 -16.109375 Z M 16.5 -16.109375 "/></g></g></g><g fill="current" fill-opacity="1"><g transform="translate(131.297362, 40.393586)"><g><path d="M 24.328125 -26.734375 C 25.035156 -25.597656 25.519531 -24.320312 25.78125 -22.90625 C 26.039062 -21.488281 26.15625 -20.054688 26.125 -18.609375 C 26.09375 -17.171875 25.976562 -15.828125 25.78125 -14.578125 C 25.488281 -12.648438 24.890625 -10.820312 23.984375 -9.09375 C 23.078125 -7.375 21.863281 -5.890625 20.34375 -4.640625 C 18.882812 -3.441406 17.191406 -2.566406 15.265625 -2.015625 C 13.347656 -1.460938 11.46875 -1.476562 9.625 -2.0625 C 8.40625 -2.4375 7.34375 -3.0625 6.4375 -3.9375 C 5.53125 -4.8125 4.769531 -5.8125 4.15625 -6.9375 C 3.539062 -8.0625 3.085938 -9.207031 2.796875 -10.375 C 2.453125 -11.65625 2.25 -13.132812 2.1875 -14.8125 C 2.125 -16.488281 2.238281 -18.203125 2.53125 -19.953125 C 2.820312 -21.703125 3.300781 -23.335938 3.96875 -24.859375 C 4.644531 -26.378906 5.554688 -27.632812 6.703125 -28.625 C 7.867188 -29.820312 9.265625 -30.664062 10.890625 -31.15625 C 12.523438 -31.65625 14.203125 -31.820312 15.921875 -31.65625 C 17.648438 -31.5 19.257812 -31.003906 20.75 -30.171875 C 22.238281 -29.335938 23.429688 -28.191406 24.328125 -26.734375 Z M 16.375 -9.71875 C 17.363281 -10.644531 18.097656 -11.726562 18.578125 -12.96875 C 19.054688 -14.21875 19.351562 -15.519531 19.46875 -16.875 C 19.59375 -18.226562 19.566406 -19.546875 19.390625 -20.828125 C 19.210938 -22.117188 18.707031 -23.171875 17.875 -23.984375 C 17.039062 -24.796875 15.941406 -25.191406 14.578125 -25.171875 C 13.816406 -25.171875 13.078125 -24.976562 12.359375 -24.59375 C 11.648438 -24.21875 11.0625 -23.722656 10.59375 -23.109375 C 10.0625 -22.378906 9.679688 -21.503906 9.453125 -20.484375 C 9.222656 -19.460938 9.046875 -18.515625 8.921875 -17.640625 C 8.660156 -15.679688 8.765625 -13.753906 9.234375 -11.859375 C 9.378906 -11.304688 9.578125 -10.75 9.828125 -10.1875 C 10.078125 -9.632812 10.429688 -9.1875 10.890625 -8.84375 C 11.648438 -8.289062 12.519531 -8.09375 13.5 -8.25 C 14.476562 -8.40625 15.332031 -8.789062 16.0625 -9.40625 C 16.144531 -9.5 16.25 -9.601562 16.375 -9.71875 Z M 16.375 -9.71875 "/></g></g></g></svg>