<svg xmlns="http://www.w3.org/2000/svg" xmlns:xlink="http://www.w3.org/1999/xlink" width="220" zoomAndPan="magnify" viewBox="0 0 165 48.75" height="65" preserveAspectRatio="xMidYMid meet" version="1.0"><defs><g/></defs><g fill="#808080" fill-opacity="1"><g transform="translate(14.153575, 38.828182)"><g><path d="M 14.84375 -17.1875 C 16.320312 -16.175781 17.492188 -14.863281 18.359375 -13.25 C 19.222656 -11.632812 19.5625 -9.910156 19.375 -8.078125 C 19.1875 -6.484375 18.640625 -5.113281 17.734375 -3.96875 C 16.835938 -2.832031 15.734375 -1.945312 14.421875 -1.3125 C 13.109375 -0.675781 11.710938 -0.320312 10.234375 -0.25 C 8.765625 -0.1875 7.351562 -0.429688 6 -0.984375 C 4.65625 -1.546875 3.515625 -2.453125 2.578125 -3.703125 C 2.109375 -4.304688 1.910156 -4.894531 1.984375 -5.46875 C 2.066406 -6.039062 2.3125 -6.535156 2.71875 -6.953125 C 3.132812 -7.378906 3.644531 -7.675781 4.25 -7.84375 C 4.863281 -8.019531 5.484375 -8.03125 6.109375 -7.875 C 6.734375 -7.71875 7.269531 -7.332031 7.71875 -6.71875 C 7.925781 -6.425781 8.320312 -6.257812 8.90625 -6.21875 C 9.488281 -6.1875 10.070312 -6.210938 10.65625 -6.296875 C 11.238281 -6.390625 11.648438 -6.492188 11.890625 -6.609375 C 12.453125 -6.867188 12.867188 -7.253906 13.140625 -7.765625 C 13.421875 -8.285156 13.523438 -8.851562 13.453125 -9.46875 C 13.367188 -10.207031 13.097656 -10.816406 12.640625 -11.296875 C 12.191406 -11.773438 11.65625 -12.191406 11.03125 -12.546875 C 10.414062 -12.910156 9.785156 -13.253906 9.140625 -13.578125 C 8.503906 -13.910156 7.953125 -14.273438 7.484375 -14.671875 C 6.148438 -15.847656 5.335938 -17.117188 5.046875 -18.484375 C 4.753906 -19.847656 4.851562 -21.210938 5.34375 -22.578125 C 5.84375 -23.941406 6.609375 -25.179688 7.640625 -26.296875 C 8.671875 -27.410156 9.847656 -28.269531 11.171875 -28.875 C 11.890625 -29.21875 12.550781 -29.3125 13.15625 -29.15625 C 13.769531 -29 14.296875 -28.703125 14.734375 -28.265625 C 15.171875 -27.828125 15.46875 -27.316406 15.625 -26.734375 C 15.789062 -26.148438 15.765625 -25.585938 15.546875 -25.046875 C 15.335938 -24.503906 14.890625 -24.070312 14.203125 -23.75 C 13.753906 -23.539062 13.226562 -23.25 12.625 -22.875 C 12.03125 -22.5 11.539062 -22.050781 11.15625 -21.53125 C 10.769531 -21.019531 10.695312 -20.445312 10.9375 -19.8125 C 11.070312 -19.382812 11.382812 -19.019531 11.875 -18.71875 C 12.363281 -18.414062 12.882812 -18.144531 13.4375 -17.90625 C 14 -17.664062 14.46875 -17.425781 14.84375 -17.1875 Z M 14.84375 -17.1875 "/></g></g></g><g fill="#808080" fill-opacity="1"><g transform="translate(35.551757, 38.828182)"><g><path d="M 17.703125 -9.546875 C 18.441406 -9.753906 19.082031 -9.722656 19.625 -9.453125 C 20.175781 -9.191406 20.601562 -8.796875 20.90625 -8.265625 C 21.207031 -7.742188 21.363281 -7.175781 21.375 -6.5625 C 21.394531 -5.957031 21.238281 -5.394531 20.90625 -4.875 C 20.570312 -4.351562 20.035156 -4 19.296875 -3.8125 C 17.941406 -3.414062 16.554688 -3.125 15.140625 -2.9375 C 13.722656 -2.757812 12.316406 -2.753906 10.921875 -2.921875 C 9.523438 -3.097656 8.191406 -3.539062 6.921875 -4.25 C 5.273438 -5.207031 4.019531 -6.507812 3.15625 -8.15625 C 2.300781 -9.800781 1.910156 -11.566406 1.984375 -13.453125 C 2.085938 -15.304688 2.550781 -17.085938 3.375 -18.796875 C 4.195312 -20.503906 5.289062 -22.007812 6.65625 -23.3125 C 8.03125 -24.613281 9.582031 -25.613281 11.3125 -26.3125 C 13.050781 -27.019531 14.863281 -27.304688 16.75 -27.171875 C 17.519531 -27.085938 18.132812 -26.828125 18.59375 -26.390625 C 19.0625 -25.953125 19.367188 -25.4375 19.515625 -24.84375 C 19.660156 -24.25 19.660156 -23.660156 19.515625 -23.078125 C 19.367188 -22.492188 19.0625 -22.015625 18.59375 -21.640625 C 18.132812 -21.265625 17.519531 -21.117188 16.75 -21.203125 C 15.363281 -21.304688 14.054688 -21.046875 12.828125 -20.421875 C 11.597656 -19.804688 10.554688 -18.941406 9.703125 -17.828125 C 8.859375 -16.710938 8.316406 -15.476562 8.078125 -14.125 C 7.835938 -12.90625 7.894531 -11.929688 8.25 -11.203125 C 8.613281 -10.472656 9.148438 -9.929688 9.859375 -9.578125 C 10.578125 -9.234375 11.394531 -9.019531 12.3125 -8.9375 C 13.226562 -8.863281 14.15625 -8.894531 15.09375 -9.03125 C 16.039062 -9.164062 16.910156 -9.335938 17.703125 -9.546875 Z M 17.703125 -9.546875 "/></g></g></g><g fill="#808080" fill-opacity="1"><g transform="translate(58.938618, 38.828182)"><g><path d="M 17.0625 -27.8125 C 17.195312 -28.550781 17.503906 -29.09375 17.984375 -29.4375 C 18.460938 -29.78125 19 -29.953125 19.59375 -29.953125 C 20.1875 -29.953125 20.753906 -29.789062 21.296875 -29.46875 C 21.847656 -29.15625 22.273438 -28.71875 22.578125 -28.15625 C 22.878906 -27.601562 22.953125 -26.957031 22.796875 -26.21875 C 21.359375 -18.894531 20.375 -11.519531 19.84375 -4.09375 C 19.789062 -3.351562 19.546875 -2.75 19.109375 -2.28125 C 18.671875 -1.820312 18.144531 -1.507812 17.53125 -1.34375 C 16.925781 -1.1875 16.335938 -1.1875 15.765625 -1.34375 C 15.203125 -1.507812 14.734375 -1.816406 14.359375 -2.265625 C 13.984375 -2.710938 13.828125 -3.320312 13.890625 -4.09375 C 13.960938 -5.34375 14.054688 -6.585938 14.171875 -7.828125 C 14.296875 -9.078125 14.425781 -10.328125 14.5625 -11.578125 L 9.109375 -11.578125 C 8.921875 -9.984375 8.734375 -8.394531 8.546875 -6.8125 C 8.367188 -5.238281 8.1875 -3.671875 8 -2.109375 C 7.894531 -1.335938 7.613281 -0.726562 7.15625 -0.28125 C 6.707031 0.164062 6.175781 0.460938 5.5625 0.609375 C 4.957031 0.753906 4.363281 0.753906 3.78125 0.609375 C 3.195312 0.460938 2.734375 0.164062 2.390625 -0.28125 C 2.046875 -0.726562 1.925781 -1.335938 2.03125 -2.109375 C 2.269531 -4.285156 2.519531 -6.46875 2.78125 -8.65625 C 3.050781 -10.84375 3.304688 -13.035156 3.546875 -15.234375 C 3.671875 -16.265625 3.789062 -17.3125 3.90625 -18.375 C 4.03125 -19.4375 4.160156 -20.5 4.296875 -21.5625 C 4.398438 -22.488281 4.484375 -23.46875 4.546875 -24.5 C 4.617188 -25.539062 4.828125 -26.5 5.171875 -27.375 C 5.429688 -28.082031 5.832031 -28.601562 6.375 -28.9375 C 6.925781 -29.269531 7.507812 -29.425781 8.125 -29.40625 C 8.75 -29.394531 9.328125 -29.238281 9.859375 -28.9375 C 10.390625 -28.632812 10.769531 -28.21875 11 -27.6875 C 11.226562 -27.15625 11.195312 -26.519531 10.90625 -25.78125 C 10.582031 -24.925781 10.394531 -23.988281 10.34375 -22.96875 C 10.289062 -21.945312 10.210938 -20.988281 10.109375 -20.09375 C 10.054688 -19.664062 10 -19.238281 9.9375 -18.8125 C 9.882812 -18.394531 9.832031 -17.972656 9.78125 -17.546875 L 15.3125 -17.546875 C 15.550781 -19.242188 15.816406 -20.953125 16.109375 -22.671875 C 16.398438 -24.398438 16.71875 -26.113281 17.0625 -27.8125 Z M 17.0625 -27.8125 "/></g></g></g><g fill="#808080" fill-opacity="1"><g transform="translate(83.797091, 38.828182)"><g><path d="M 16.59375 -8.390625 C 17.363281 -8.367188 17.976562 -8.144531 18.4375 -7.71875 C 18.90625 -7.289062 19.210938 -6.78125 19.359375 -6.1875 C 19.503906 -5.59375 19.503906 -5.003906 19.359375 -4.421875 C 19.210938 -3.835938 18.90625 -3.351562 18.4375 -2.96875 C 17.976562 -2.582031 17.363281 -2.398438 16.59375 -2.421875 C 14.789062 -2.503906 12.984375 -2.5 11.171875 -2.40625 C 9.367188 -2.3125 7.566406 -2.117188 5.765625 -1.828125 C 5.210938 -1.742188 4.628906 -1.800781 4.015625 -2 C 3.410156 -2.207031 2.898438 -2.535156 2.484375 -2.984375 C 2.078125 -3.429688 1.925781 -4.015625 2.03125 -4.734375 C 2.476562 -8.390625 2.972656 -12.046875 3.515625 -15.703125 C 4.066406 -19.367188 4.660156 -23.03125 5.296875 -26.6875 C 5.367188 -27.144531 5.523438 -27.53125 5.765625 -27.84375 C 5.984375 -28.21875 6.289062 -28.53125 6.6875 -28.78125 C 7.082031 -29.03125 7.570312 -29.171875 8.15625 -29.203125 C 11.019531 -29.273438 13.882812 -29.222656 16.75 -29.046875 C 17.519531 -28.984375 18.132812 -28.734375 18.59375 -28.296875 C 19.0625 -27.859375 19.367188 -27.34375 19.515625 -26.75 C 19.660156 -26.15625 19.660156 -25.566406 19.515625 -24.984375 C 19.367188 -24.398438 19.0625 -23.921875 18.59375 -23.546875 C 18.132812 -23.179688 17.519531 -23.023438 16.75 -23.078125 C 14.78125 -23.203125 12.773438 -23.265625 10.734375 -23.265625 C 10.609375 -22.503906 10.476562 -21.738281 10.34375 -20.96875 C 10.207031 -20.195312 10.085938 -19.425781 9.984375 -18.65625 C 11.066406 -18.632812 12.113281 -18.566406 13.125 -18.453125 C 13.925781 -18.378906 14.625 -18.082031 15.21875 -17.5625 C 15.8125 -17.039062 16.109375 -16.34375 16.109375 -15.46875 C 16.109375 -14.96875 15.96875 -14.476562 15.6875 -14 C 15.414062 -13.519531 15.050781 -13.132812 14.59375 -12.84375 C 14.144531 -12.550781 13.65625 -12.429688 13.125 -12.484375 C 11.769531 -12.617188 10.414062 -12.6875 9.0625 -12.6875 C 8.957031 -11.945312 8.851562 -11.191406 8.75 -10.421875 C 8.644531 -9.648438 8.539062 -8.894531 8.4375 -8.15625 C 9.789062 -8.289062 11.140625 -8.375 12.484375 -8.40625 C 13.835938 -8.445312 15.207031 -8.441406 16.59375 -8.390625 Z M 16.59375 -8.390625 "/></g></g></g><g fill="#808080" fill-opacity="1"><g transform="translate(105.394132, 38.828182)"><g><path d="M 17.21875 -24.625 C 18.570312 -23.40625 19.617188 -21.953125 20.359375 -20.265625 C 21.109375 -18.585938 21.375 -16.816406 21.15625 -14.953125 C 20.976562 -13.421875 20.484375 -11.984375 19.671875 -10.640625 C 18.859375 -9.296875 17.867188 -8.132812 16.703125 -7.15625 C 15.410156 -6.039062 13.878906 -5.144531 12.109375 -4.46875 C 10.347656 -3.800781 8.660156 -3.203125 7.046875 -2.671875 C 6.585938 -2.503906 6.125 -2.375 5.65625 -2.28125 C 5.195312 -2.1875 4.742188 -2.171875 4.296875 -2.234375 C 3.660156 -2.304688 3.109375 -2.601562 2.640625 -3.125 C 2.179688 -3.644531 1.960938 -4.222656 1.984375 -4.859375 C 2.171875 -12.066406 2.53125 -19.289062 3.0625 -26.53125 C 3.113281 -27.351562 3.382812 -27.929688 3.875 -28.265625 C 4.363281 -28.597656 4.945312 -28.769531 5.625 -28.78125 C 6.300781 -28.789062 6.957031 -28.742188 7.59375 -28.640625 C 7.96875 -28.585938 8.3125 -28.535156 8.625 -28.484375 C 10.195312 -28.160156 11.710938 -27.710938 13.171875 -27.140625 C 14.628906 -26.578125 15.976562 -25.738281 17.21875 -24.625 Z M 15 -14.640625 C 15.363281 -15.703125 15.421875 -16.671875 15.171875 -17.546875 C 14.921875 -18.421875 14.460938 -19.175781 13.796875 -19.8125 C 13.140625 -20.445312 12.359375 -20.972656 11.453125 -21.390625 C 10.554688 -21.816406 9.644531 -22.140625 8.71875 -22.359375 C 8.445312 -18.003906 8.234375 -13.679688 8.078125 -9.390625 C 9.054688 -9.703125 10.003906 -10.0625 10.921875 -10.46875 C 11.835938 -10.882812 12.648438 -11.414062 13.359375 -12.0625 C 14.078125 -12.71875 14.625 -13.578125 15 -14.640625 Z M 15 -14.640625 "/></g></g></g><g fill="#808080" fill-opacity="1"><g transform="translate(128.621897, 38.828182)"><g><path d="M 22.125 -24.3125 C 22.757812 -23.269531 23.195312 -22.101562 23.4375 -20.8125 C 23.675781 -19.53125 23.78125 -18.234375 23.75 -16.921875 C 23.71875 -15.609375 23.613281 -14.382812 23.4375 -13.25 C 23.164062 -11.5 22.617188 -9.835938 21.796875 -8.265625 C 20.972656 -6.703125 19.875 -5.351562 18.5 -4.21875 C 17.175781 -3.125 15.640625 -2.328125 13.890625 -1.828125 C 12.140625 -1.328125 10.425781 -1.34375 8.75 -1.875 C 7.632812 -2.21875 6.664062 -2.785156 5.84375 -3.578125 C 5.019531 -4.378906 4.328125 -5.289062 3.765625 -6.3125 C 3.210938 -7.332031 2.804688 -8.367188 2.546875 -9.421875 C 2.222656 -10.585938 2.035156 -11.929688 1.984375 -13.453125 C 1.929688 -14.984375 2.035156 -16.546875 2.296875 -18.140625 C 2.566406 -19.734375 3.003906 -21.21875 3.609375 -22.59375 C 4.222656 -23.976562 5.050781 -25.117188 6.09375 -26.015625 C 7.144531 -27.097656 8.414062 -27.863281 9.90625 -28.3125 C 11.394531 -28.769531 12.921875 -28.925781 14.484375 -28.78125 C 16.046875 -28.632812 17.503906 -28.179688 18.859375 -27.421875 C 20.210938 -26.671875 21.300781 -25.632812 22.125 -24.3125 Z M 14.875 -8.828125 C 15.78125 -9.679688 16.453125 -10.671875 16.890625 -11.796875 C 17.328125 -12.921875 17.597656 -14.097656 17.703125 -15.328125 C 17.804688 -16.566406 17.78125 -17.769531 17.625 -18.9375 C 17.46875 -20.101562 17.007812 -21.054688 16.25 -21.796875 C 15.488281 -22.535156 14.488281 -22.894531 13.25 -22.875 C 12.5625 -22.875 11.890625 -22.703125 11.234375 -22.359375 C 10.585938 -22.015625 10.050781 -21.5625 9.625 -21 C 9.144531 -20.34375 8.800781 -19.546875 8.59375 -18.609375 C 8.382812 -17.679688 8.222656 -16.820312 8.109375 -16.03125 C 7.867188 -14.25 7.960938 -12.5 8.390625 -10.78125 C 8.523438 -10.28125 8.703125 -9.773438 8.921875 -9.265625 C 9.148438 -8.765625 9.476562 -8.351562 9.90625 -8.03125 C 10.59375 -7.53125 11.378906 -7.351562 12.265625 -7.5 C 13.160156 -7.644531 13.9375 -7.992188 14.59375 -8.546875 C 14.675781 -8.628906 14.769531 -8.722656 14.875 -8.828125 Z M 14.875 -8.828125 "/></g></g></g><path stroke-linecap="butt" transform="matrix(0.915651, 0, 0, 0.915651, -30.425838, -3.218884)" fill="none" stroke-linejoin="miter" d="M 62.976104 25.234078 C 64.592953 26.330463 65.87278 27.76387 66.815587 29.530032 C 67.754127 31.30046 68.125277 33.181806 67.929037 35.186869 C 67.724264 36.918902 67.131277 38.407768 66.14581 39.661999 C 65.164609 40.907698 63.953039 41.876101 62.519633 42.567208 C 61.08196 43.26258 59.558965 43.646529 57.946382 43.723318 C 56.342332 43.795842 54.798007 43.527078 53.321939 42.917027 C 51.850138 42.311242 50.604439 41.321509 49.589109 39.95636 C 49.072912 39.295115 48.855342 38.650936 48.940663 38.028086 C 49.025985 37.405237 49.290483 36.863443 49.734156 36.402705 C 50.186362 35.937701 50.74522 35.609212 51.41073 35.417238 C 52.076241 35.225264 52.750283 35.220998 53.428592 35.395908 C 54.115432 35.575084 54.704153 35.993161 55.19902 36.658671 C 55.425122 36.978628 55.855998 37.157804 56.491645 37.200464 C 57.135825 37.243125 57.775739 37.213263 58.411386 37.115143 C 59.0513 37.00849 59.49924 36.901838 59.759471 36.786654 C 60.369522 36.496559 60.825994 36.06995 61.128887 35.50256 C 61.431779 34.939436 61.538432 34.320853 61.448844 33.655342 C 61.363522 32.844785 61.073428 32.179275 60.578561 31.663078 C 60.08796 31.138348 59.503506 30.681877 58.816665 30.293662 C 58.138357 29.896916 57.451516 29.5215 56.760409 29.158882 C 56.065036 28.80053 55.454985 28.403784 54.934522 27.972909 C 53.484051 26.693081 52.60097 25.306601 52.281013 23.813469 C 51.965322 22.320337 52.071974 20.831471 52.609502 19.346872 C 53.14703 17.85374 53.978917 16.501389 55.105166 15.285553 C 56.23568 14.069716 57.524039 13.122644 58.974511 12.452868 C 59.759471 12.077452 60.484707 11.979332 61.150217 12.154241 C 61.815727 12.324885 62.383118 12.649108 62.856654 13.131176 C 63.338722 13.604712 63.662945 14.16357 63.833589 14.80775 C 64.008498 15.443398 63.982902 16.057715 63.748267 16.650702 C 63.522164 17.247955 63.031564 17.717225 62.276465 18.062778 C 61.785865 18.288881 61.214209 18.608838 60.55723 19.018383 C 59.904518 19.419395 59.371257 19.90573 58.95318 20.47312 C 58.535103 21.036244 58.454047 21.667625 58.710013 22.358732 C 58.859326 22.828002 59.196347 23.224749 59.729609 23.557504 C 60.267136 23.890259 60.838793 24.188885 61.448844 24.449117 C 62.054629 24.709349 62.562293 24.973846 62.976104 25.234078 Z M 89.472799 33.574287 C 90.27909 33.339652 90.978729 33.365248 91.571716 33.655342 C 92.168968 33.945437 92.629706 34.380578 92.962461 34.960766 C 93.303749 35.540955 93.478658 36.163804 93.495723 36.829315 C 93.508521 37.494825 93.329345 38.109142 92.962461 38.676532 C 92.60411 39.239656 92.019655 39.627871 91.213364 39.832643 C 89.73303 40.263518 88.218568 40.579209 86.661444 40.783981 C 85.112853 40.99302 83.57706 40.997286 82.058332 40.805312 C 80.539603 40.617604 79.084866 40.131269 77.698386 39.354841 C 75.902362 38.305382 74.532946 36.884774 73.594406 35.088749 C 72.6516 33.292725 72.224991 31.368717 72.310313 29.316727 C 72.421231 27.290334 72.928896 25.34073 73.824775 23.472182 C 74.72492 21.599368 75.919426 19.956923 77.412558 18.54058 C 78.90569 17.119972 80.599328 16.027852 82.493473 15.264222 C 84.39615 14.492059 86.37135 14.176369 88.42334 14.31715 C 89.26376 14.411004 89.942069 14.696832 90.449734 15.1789 C 90.957398 15.652436 91.290154 16.21556 91.447999 16.864006 C 91.61011 17.516718 91.61011 18.160898 91.447999 18.796546 C 91.290154 19.432193 90.957398 19.956923 90.449734 20.366467 C 89.942069 20.76748 89.26376 20.929592 88.42334 20.84427 C 86.91741 20.724819 85.488269 21.006381 84.135918 21.693222 C 82.792099 22.37153 81.657319 23.318603 80.731577 24.534439 C 79.805835 25.750275 79.212849 27.09836 78.948351 28.574427 C 78.696651 29.905448 78.760643 30.971971 79.153123 31.76973 C 79.541338 32.567489 80.125792 33.15621 80.902221 33.531626 C 81.687182 33.902776 82.578795 34.137411 83.57706 34.231265 C 84.579592 34.316587 85.594921 34.286724 86.618783 34.145943 C 87.651178 33.99663 88.602516 33.804656 89.472799 33.574287 Z M 114.314249 13.630309 C 114.463563 12.815486 114.796318 12.222499 115.312515 11.847083 C 115.832978 11.471667 116.421699 11.283959 117.074411 11.283959 C 117.722856 11.283959 118.345706 11.458868 118.938692 11.804422 C 119.531679 12.149975 119.996683 12.627778 120.329438 13.237829 C 120.66646 13.843614 120.751781 14.556051 120.572606 15.370874 C 119.011216 23.361264 117.940427 31.411378 117.360239 39.525484 C 117.300513 40.336042 117.03175 40.997286 116.553947 41.509217 C 116.080411 42.00835 115.504489 42.349637 114.834712 42.524547 C 114.169202 42.69519 113.525022 42.69519 112.902173 42.524547 C 112.279324 42.349637 111.763127 42.016882 111.353582 41.526281 C 110.952569 41.031415 110.781926 40.365904 110.845917 39.525484 C 110.931239 38.164601 111.037891 36.807984 111.165874 35.451367 C 111.298123 34.086218 111.434638 32.721068 111.575419 31.355919 L 105.628487 31.355919 C 105.419449 33.096484 105.214676 34.828518 105.009904 36.552019 C 104.813664 38.271253 104.613157 39.986222 104.408385 41.696925 C 104.2932 42.541611 103.990308 43.207121 103.495441 43.701988 C 103.004841 44.192588 102.424652 44.512545 101.754876 44.670391 C 101.089366 44.832502 100.44092 44.832502 99.801006 44.670391 C 99.165358 44.512545 98.66196 44.192588 98.286544 43.701988 C 97.911128 43.207121 97.778879 42.541611 97.894063 41.696925 C 98.154295 39.320712 98.431591 36.940233 98.721685 34.546956 C 99.011779 32.157944 99.284809 29.760401 99.549307 27.354325 C 99.690088 26.223811 99.822337 25.080499 99.950319 23.928654 C 100.086834 22.768277 100.223349 21.612166 100.36413 20.451789 C 100.483581 19.440726 100.581701 18.365671 100.649958 17.235156 C 100.722482 16.104642 100.944319 15.063716 101.319735 14.108111 C 101.609829 13.32315 102.053502 12.747228 102.646489 12.388876 C 103.239476 12.026259 103.875123 11.855615 104.553432 11.868413 C 105.240273 11.881211 105.87592 12.056121 106.451843 12.388876 C 107.032031 12.721632 107.445842 13.178103 107.684743 13.758292 C 107.932176 14.33848 107.898048 15.033853 107.578091 15.848677 C 107.232537 16.774418 107.032031 17.794014 106.972306 18.91173 C 106.916847 20.020914 106.827259 21.074639 106.707808 22.064372 C 106.652349 22.520844 106.59689 22.985848 106.537165 23.450852 C 106.481705 23.911589 106.426246 24.376593 106.370787 24.841597 L 112.40304 24.841597 C 112.667538 22.990114 112.957632 21.121566 113.273323 19.240219 C 113.59328 17.354607 113.938833 15.481793 114.314249 13.630309 Z M 140.943192 34.832784 C 141.783612 34.862646 142.457655 35.11008 142.956788 35.57935 C 143.468719 36.035822 143.801474 36.590413 143.955053 37.243125 C 144.117164 37.891571 144.117164 38.535751 143.955053 39.171399 C 143.801474 39.811312 143.468719 40.340308 142.956788 40.762651 C 142.457655 41.180728 141.783612 41.376968 140.943192 41.347105 C 138.976524 41.261784 137.00559 41.274582 135.034656 41.381234 C 133.059455 41.479354 131.092787 41.688393 129.126119 42.004084 C 128.516068 42.089405 127.876154 42.025414 127.206378 41.803577 C 126.540868 41.586007 125.986276 41.231921 125.538336 40.74132 C 125.094663 40.246454 124.928285 39.610806 125.043469 38.834378 C 125.538336 34.832784 126.075864 30.83119 126.664584 26.838128 C 127.257571 22.840801 127.906017 18.843473 128.605656 14.850411 C 128.690978 14.355545 128.865887 13.933202 129.126119 13.587648 C 129.360754 13.178103 129.693509 12.836816 130.124384 12.568052 C 130.559526 12.295022 131.097053 12.141443 131.736967 12.11158 C 134.859746 12.021993 137.986791 12.077452 141.113836 12.282224 C 141.954256 12.337683 142.628299 12.606447 143.14023 13.088515 C 143.647894 13.562052 143.98065 14.129442 144.134229 14.78642 C 144.300606 15.434866 144.300606 16.079046 144.134229 16.714693 C 143.98065 17.354607 143.647894 17.87507 143.14023 18.284615 C 142.628299 18.689894 141.954256 18.860537 141.113836 18.796546 C 138.967992 18.655765 136.783753 18.583241 134.556853 18.583241 C 134.40754 19.423661 134.258227 20.268347 134.11318 21.108767 C 133.968133 21.940655 133.844416 22.781075 133.729232 23.621495 C 134.919471 23.651358 136.062784 23.719615 137.167701 23.8348 C 138.037984 23.924388 138.797348 24.257143 139.445794 24.820267 C 140.098506 25.379125 140.422729 26.138489 140.422729 27.102626 C 140.422729 27.64442 140.26915 28.181947 139.966257 28.70241 C 139.663365 29.227139 139.262352 29.649483 138.767486 29.965173 C 138.281151 30.28513 137.74789 30.413113 137.167701 30.357654 C 135.687368 30.208341 134.2113 30.135817 132.730966 30.135817 C 132.620048 30.95064 132.500597 31.778262 132.381147 32.618682 C 132.270228 33.459102 132.150778 34.282458 132.031327 35.088749 C 133.511661 34.947968 134.987729 34.854114 136.468062 34.811453 C 137.94413 34.773058 139.437262 34.777325 140.943192 34.832784 Z M 165.230051 17.107174 C 166.701853 18.438194 167.840899 20.020914 168.655723 21.859599 C 169.470546 23.698285 169.76064 25.63509 169.526005 27.66575 C 169.321233 29.338058 168.775173 30.90798 167.892092 32.375515 C 167.013277 33.838784 165.938222 35.105814 164.658395 36.180869 C 163.242053 37.396705 161.569745 38.377906 159.637205 39.120206 C 157.717464 39.853973 155.870247 40.515218 154.099819 41.095406 C 153.604952 41.261784 153.105819 41.402565 152.593888 41.509217 C 152.094756 41.607337 151.595623 41.628667 151.100756 41.568942 C 150.405383 41.479354 149.803864 41.155131 149.2962 40.596273 C 148.792801 40.028883 148.558166 39.397502 148.583762 38.697863 C 148.784269 30.818392 149.172483 22.926122 149.752671 15.021055 C 149.816663 14.12091 150.115289 13.489528 150.644284 13.131176 C 151.181812 12.768559 151.81746 12.580851 152.551227 12.568052 C 153.297793 12.555254 154.014497 12.602181 154.705604 12.717365 C 155.115148 12.772825 155.49483 12.83255 155.840384 12.888009 C 157.54682 13.233563 159.193532 13.719897 160.784784 14.351278 C 162.384568 14.974128 163.864902 15.891337 165.230051 17.107174 Z M 162.789847 28.01557 C 163.199392 26.855193 163.267649 25.797202 162.990353 24.841597 C 162.717323 23.881727 162.213925 23.054105 161.484423 22.358732 C 160.763453 21.667625 159.905969 21.091703 158.916236 20.630965 C 157.935035 20.165961 156.936769 19.811876 155.925706 19.581507 C 155.635611 24.333933 155.405243 29.05223 155.226067 33.740664 C 156.301122 33.395111 157.337782 32.998364 158.336047 32.554691 C 159.338579 32.102485 160.230192 31.522297 161.006621 30.814126 C 161.791581 30.105954 162.388834 29.17168 162.789847 28.01557 Z M 195.933112 17.448461 C 196.632751 18.578975 197.110553 19.85027 197.366518 21.258081 C 197.62675 22.657359 197.741934 24.073701 197.716338 25.511374 C 197.686475 26.944781 197.575557 28.284333 197.375051 29.530032 C 197.084956 31.441241 196.49197 33.250064 195.591824 34.960766 C 194.695945 36.671469 193.492907 38.151803 191.986977 39.397502 C 190.536506 40.583475 188.855666 41.453758 186.935925 42.004084 C 185.028982 42.550143 183.160434 42.533079 181.334547 41.95289 C 180.118711 41.577474 179.06072 40.954625 178.164841 40.084342 C 177.264695 39.21406 176.513863 38.224326 175.903812 37.115143 C 175.298027 35.997427 174.845821 34.85838 174.559993 33.698003 C 174.210174 32.426708 174.009668 30.959173 173.954208 29.295397 C 173.898749 27.627355 174.013934 25.925185 174.304028 24.184619 C 174.594122 22.444054 175.071924 20.822939 175.737435 19.317009 C 176.398679 17.811079 177.298824 16.56538 178.429338 15.579913 C 179.589715 14.393939 180.980461 13.553519 182.59731 13.067185 C 184.218424 12.572318 185.8822 12.405941 187.597169 12.568052 C 189.307872 12.725898 190.899124 13.216498 192.366659 14.04412 C 193.846993 14.871742 195.032966 16.006522 195.933112 17.448461 Z M 188.028044 34.359248 C 189.013511 33.42924 189.743013 32.354185 190.216549 31.121284 C 190.694351 29.884118 190.992978 28.595758 191.108162 27.251939 C 191.227613 25.90812 191.202016 24.594164 191.031373 23.314337 C 190.856463 22.043041 190.353064 21.002115 189.525442 20.195824 C 188.697821 19.381 187.605701 18.98852 186.249084 19.018383 C 185.48972 19.018383 184.760218 19.206091 184.052047 19.581507 C 183.343876 19.956923 182.759421 20.447523 182.290151 21.053308 C 181.773954 21.78281 181.398538 22.653093 181.168169 23.664156 C 180.933534 24.67522 180.758624 25.618026 180.647706 26.488309 C 180.383208 28.42938 180.485594 30.344855 180.942066 32.226202 C 181.091379 32.776528 181.28762 33.326853 181.526521 33.881445 C 181.773954 34.423239 182.132306 34.875445 182.59731 35.225264 C 183.348142 35.771324 184.205626 35.967564 185.178295 35.809719 C 186.150964 35.647607 186.999916 35.263659 187.720886 34.653608 C 187.81474 34.568286 187.917126 34.470166 188.028044 34.359248 Z M 188.028044 34.359248 " stroke="#000000" stroke-width="1.629529" stroke-opacity="1" stroke-miterlimit="4"/></svg>