<svg xmlns="http://www.w3.org/2000/svg" xmlns:xlink="http://www.w3.org/1999/xlink" width="220" zoomAndPan="magnify" viewBox="0 0 165 48.75" height="65" preserveAspectRatio="xMidYMid meet" version="1.0"><defs><g/><clipPath id="69b7c94dc0"><path d="M 0.421875 0 L 164.578125 0 L 164.578125 48.5 L 0.421875 48.5 Z M 0.421875 0 " clip-rule="nonzero"/></clipPath></defs><g clip-path="url(#69b7c94dc0)"><path stroke-linecap="butt" transform="matrix(0.746173, 0, 0, 0.746173, -30.425838, -4.37682)" fill="none" stroke-linejoin="miter" d="M 69.846018 34.668894 C 72.034266 36.150411 73.76183 38.082142 75.033946 40.469321 C 76.300826 42.856501 76.80339 45.400732 76.536403 48.102014 C 76.258946 50.442078 75.457984 52.452334 74.128283 54.143253 C 72.803818 55.823702 71.170484 57.132463 69.233518 58.069535 C 67.296552 59.001373 65.239181 59.524877 63.061403 59.629578 C 60.894095 59.723809 58.810548 59.362591 56.815997 58.540689 C 54.831915 57.718788 53.151466 56.389087 51.779885 54.546352 C 51.078389 53.645924 50.790462 52.776907 50.905633 51.9393 C 51.020804 51.096458 51.376787 50.368787 51.978817 49.745817 C 52.591317 49.117612 53.345163 48.672633 54.240355 48.416116 C 55.135548 48.159599 56.046445 48.149129 56.962578 48.389941 C 57.88918 48.625518 58.684907 49.196138 59.349757 50.09133 C 59.658625 50.520604 60.239715 50.766651 61.098262 50.819001 C 61.967279 50.876587 62.831061 50.839941 63.689608 50.709065 C 64.548155 50.562484 65.15542 50.415903 65.511403 50.264086 C 66.328069 49.871458 66.945805 49.295604 67.354138 48.531287 C 67.767706 47.766971 67.909052 46.934599 67.788646 46.039407 C 67.673476 44.940048 67.280847 44.044856 66.610762 43.348595 C 65.951146 42.641864 65.160655 42.024129 64.234052 41.500625 C 63.31792 40.96665 62.391317 40.453616 61.45948 39.966757 C 60.522407 39.479898 59.700505 38.945924 58.993774 38.364834 C 57.035868 36.63727 55.842279 34.763124 55.413005 32.752868 C 54.983731 30.737376 55.135548 28.72712 55.857984 26.722099 C 56.585655 24.706607 57.705954 22.879577 59.224116 21.241009 C 60.752749 19.597205 62.490783 18.32509 64.448689 17.414192 C 65.511403 16.911628 66.490356 16.775517 67.385548 17.016329 C 68.28074 17.241436 69.050292 17.681179 69.688967 18.330325 C 70.338112 18.974235 70.777856 19.728081 71.008198 20.597098 C 71.24901 21.455645 71.207129 22.282782 70.893027 23.083744 C 70.589394 23.88994 69.924544 24.523381 68.903711 24.989299 C 68.244095 25.298167 67.469309 25.72744 66.584587 26.27712 C 65.705099 26.821564 64.982663 27.475945 64.422514 28.240261 C 63.857129 29.004577 63.747193 29.852654 64.092706 30.789727 C 64.291638 31.417932 64.752322 31.957141 65.464287 32.407355 C 66.191958 32.857569 66.966745 33.255432 67.788646 33.611415 C 68.605313 33.962163 69.296339 34.318146 69.846018 34.668894 Z M 105.622302 45.924236 C 106.71119 45.610133 107.653498 45.646779 108.45446 46.039407 C 109.255421 46.432035 109.883626 47.01836 110.33384 47.798381 C 110.789289 48.583638 111.030101 49.421245 111.045806 50.321672 C 111.066746 51.216864 110.825934 52.049236 110.33384 52.813552 C 109.846981 53.577869 109.05649 54.096138 107.967601 54.373595 C 105.973049 54.954685 103.926148 55.383958 101.826895 55.661416 C 99.738113 55.938873 97.665036 55.949343 95.6129 55.687591 C 93.560763 55.431074 91.597622 54.776693 89.728711 53.729685 C 87.299651 52.316223 85.456916 50.394963 84.184801 47.971138 C 82.91792 45.547313 82.336831 42.950732 82.452002 40.181394 C 82.603818 37.443466 83.289609 34.815475 84.498903 32.292184 C 85.713433 29.763658 87.325827 27.544 89.341318 25.63321 C 91.35681 23.717184 93.639288 22.240902 96.199224 21.209598 C 98.764395 20.167825 101.434267 19.743786 104.203605 19.937483 C 105.339609 20.057889 106.250507 20.445282 106.936297 21.094427 C 107.627323 21.733103 108.072302 22.492184 108.281703 23.371671 C 108.501575 24.251158 108.501575 25.120175 108.281703 25.978722 C 108.072302 26.837269 107.627323 27.544 106.936297 28.098915 C 106.250507 28.643359 105.339609 28.857996 104.203605 28.742825 C 102.172408 28.580539 100.240677 28.962697 98.418883 29.889299 C 96.602323 30.805432 95.07369 32.082782 93.822515 33.726586 C 92.57134 35.365154 91.770378 37.186949 91.414395 39.181501 C 91.074117 40.97712 91.163113 42.411522 91.686617 43.489941 C 92.215357 44.56836 93.000613 45.358851 94.052857 45.86665 C 95.110335 46.37445 96.314395 46.688552 97.659801 46.814193 C 99.015677 46.929364 100.387259 46.887484 101.76931 46.699022 C 103.161831 46.494856 104.444417 46.238338 105.622302 45.924236 Z M 139.157986 19.005645 C 139.356918 17.906286 139.807132 17.105325 140.503392 16.597526 C 141.210123 16.094961 142.000615 15.838444 142.880102 15.838444 C 143.759589 15.838444 144.597196 16.074021 145.398158 16.53994 C 146.199119 17.011094 146.827324 17.655004 147.277538 18.476906 C 147.732987 19.298808 147.842923 20.256821 147.602111 21.350945 C 145.492388 32.140368 144.047517 43.008317 143.267495 53.960027 C 143.188969 55.054151 142.827752 55.949343 142.178606 56.635134 C 141.539931 57.310454 140.765145 57.771138 139.859482 58.01195 C 138.959055 58.237057 138.090038 58.237057 137.252431 58.01195 C 136.409589 57.771138 135.713328 57.320924 135.163649 56.661309 C 134.619204 55.996458 134.388862 55.090796 134.472623 53.960027 C 134.587794 52.122527 134.734375 50.290262 134.901897 48.457997 C 135.085123 46.615262 135.273585 44.772526 135.462046 42.929791 L 127.43149 42.929791 C 127.154033 45.280326 126.876576 47.62039 126.599119 49.949984 C 126.332131 52.269108 126.059909 54.582997 125.782452 56.891651 C 125.630636 58.027655 125.217067 58.933318 124.552217 59.598168 C 123.892601 60.257783 123.107345 60.692292 122.201682 60.901694 C 121.30649 61.121565 120.427003 61.121565 119.568456 60.901694 C 118.709909 60.692292 118.024118 60.257783 117.521554 59.598168 C 117.013755 58.933318 116.835763 58.027655 116.992815 56.891651 C 117.343563 53.687805 117.715251 50.468253 118.107879 47.243467 C 118.500507 44.013445 118.872195 40.778189 119.222943 37.532462 C 119.41664 36.00383 119.594631 34.464727 119.767388 32.909919 C 119.950614 31.344641 120.133841 29.779364 120.327537 28.214086 C 120.489823 26.84774 120.6207 25.402868 120.71493 23.874235 C 120.809161 22.345603 121.107558 20.937376 121.615358 19.649556 C 122.007986 18.592077 122.604781 17.817291 123.405742 17.330432 C 124.206704 16.843573 125.065251 16.607996 125.981383 16.628936 C 126.907986 16.649876 127.761298 16.880218 128.546554 17.330432 C 129.326576 17.780645 129.88149 18.393145 130.206063 19.178402 C 130.541106 19.958423 130.49399 20.900731 130.064717 22.00009 C 129.598798 23.24603 129.326576 24.628081 129.24805 26.135774 C 129.169525 27.632996 129.054354 29.051693 128.892067 30.386629 C 128.813542 31.009599 128.735016 31.632569 128.661725 32.266009 C 128.5832 32.883744 128.509909 33.511949 128.431384 34.140154 L 136.57711 34.140154 C 136.933093 31.637804 137.325721 29.119748 137.754995 26.580752 C 138.184268 24.031286 138.650187 21.507996 139.157986 19.005645 Z M 175.107026 47.63086 C 176.24303 47.667505 177.148693 48.002548 177.824013 48.630753 C 178.515039 49.253723 178.960018 50.002334 179.169419 50.876587 C 179.389291 51.756074 179.389291 52.625091 179.169419 53.483638 C 178.960018 54.342185 178.515039 55.059386 177.824013 55.635241 C 177.148693 56.19539 176.24303 56.457142 175.107026 56.420497 C 172.452859 56.305326 169.793458 56.321031 167.128821 56.462377 C 164.464184 56.598488 161.810017 56.875946 159.15585 57.310454 C 158.333949 57.42039 157.470167 57.331394 156.564504 57.038232 C 155.664077 56.739835 154.915466 56.263446 154.313436 55.60383 C 153.711406 54.933745 153.486299 54.075198 153.64335 53.028189 C 154.308201 47.625625 155.041107 42.223061 155.831598 36.830966 C 156.63256 31.438872 157.506812 26.046778 158.454355 20.649449 C 158.569526 19.984598 158.799867 19.413979 159.15585 18.94806 C 159.469953 18.393145 159.920167 17.937697 160.501256 17.571244 C 161.092816 17.199555 161.815252 16.995389 162.679034 16.958744 C 166.893244 16.833102 171.112688 16.911628 175.332133 17.189085 C 176.468137 17.262376 177.38427 17.623594 178.07006 18.272739 C 178.755851 18.91665 179.206065 19.675731 179.415466 20.565688 C 179.635338 21.445175 179.635338 22.314192 179.415466 23.172739 C 179.206065 24.031286 178.755851 24.738017 178.07006 25.292932 C 177.38427 25.837376 176.468137 26.062483 175.332133 25.978722 C 172.442389 25.785026 169.489825 25.690795 166.48491 25.690795 C 166.285979 26.826799 166.081812 27.962804 165.882881 29.098808 C 165.694419 30.224342 165.521663 31.355112 165.369846 32.491116 C 166.971769 32.532996 168.516107 32.627227 170.008094 32.779043 C 171.180744 32.904684 172.206812 33.349663 173.0863 34.113979 C 173.965787 34.867825 174.40553 35.893894 174.40553 37.192184 C 174.40553 37.92509 174.196129 38.647526 173.787795 39.354257 C 173.379462 40.060988 172.840253 40.626372 172.170167 41.055646 C 171.510552 41.48492 170.788116 41.662911 170.008094 41.584385 C 168.013543 41.385454 166.018992 41.285988 164.02444 41.285988 C 163.867389 42.385347 163.710338 43.500411 163.548051 44.636415 C 163.396235 45.77242 163.239184 46.882249 163.076898 47.971138 C 165.071449 47.782676 167.066 47.657035 169.060552 47.59945 C 171.060338 47.541864 173.070594 47.552334 175.107026 47.63086 Z M 207.8941 23.701479 C 209.878181 25.497098 211.417284 27.632996 212.516643 30.114406 C 213.616002 32.601052 214.00863 35.208103 213.689292 37.951266 C 213.41707 40.212804 212.678929 42.332996 211.485339 44.306608 C 210.30222 46.280219 208.846878 47.997313 207.119314 49.44742 C 205.208523 51.091223 202.952219 52.410454 200.345168 53.415582 C 197.748587 54.405005 195.256706 55.294963 192.869527 56.074984 C 192.204676 56.305326 191.524121 56.493788 190.83833 56.635134 C 190.16301 56.771245 189.487689 56.79742 188.817603 56.718894 C 187.885766 56.598488 187.074334 56.158745 186.383309 55.404899 C 185.707988 54.640582 185.38865 53.78727 185.425296 52.839728 C 185.692283 42.207355 186.215787 31.554043 187.001044 20.879791 C 187.084804 19.670496 187.487903 18.817184 188.205103 18.330325 C 188.927539 17.843466 189.786086 17.592184 190.780745 17.571244 C 191.785873 17.555538 192.754356 17.623594 193.686193 17.77541 C 194.241108 17.848701 194.754142 17.927226 195.220061 18.000517 C 197.518245 18.471671 199.743138 19.131286 201.894741 19.979363 C 204.051578 20.81697 206.051365 22.057675 207.8941 23.701479 Z M 204.601258 38.422419 C 205.150937 36.857142 205.245168 35.427975 204.87348 34.140154 C 204.496557 32.841864 203.821236 31.7268 202.837048 30.789727 C 201.86333 29.852654 200.706386 29.077868 199.37145 28.454898 C 198.046984 27.826693 196.701578 27.355539 195.335232 27.036201 C 194.942604 33.454364 194.628501 39.825411 194.387689 46.154578 C 195.843031 45.683424 197.240788 45.14945 198.586194 44.54742 C 199.94207 43.940155 201.140895 43.154898 202.193138 42.20212 C 203.250617 41.249343 204.056813 39.987697 204.601258 38.422419 Z M 249.339935 24.162163 C 250.287477 25.68556 250.931388 27.402654 251.271665 29.302975 C 251.627648 31.192825 251.7847 33.103616 251.748054 35.040582 C 251.706174 36.977548 251.554358 38.788872 251.287371 40.469321 C 250.894742 43.044962 250.093781 45.489727 248.884486 47.798381 C 247.669956 50.11227 246.047093 52.106822 244.015896 53.78727 C 242.05799 55.389194 239.785981 56.561843 237.19987 57.310454 C 234.618994 58.04336 232.100938 58.017185 229.640468 57.237164 C 227.996665 56.729364 226.567498 55.891758 225.358203 54.713873 C 224.143673 53.541223 223.128075 52.206287 222.306173 50.709065 C 221.484271 49.201373 220.882241 47.66227 220.489613 46.096992 C 220.018459 44.379898 219.746237 42.395817 219.672946 40.155219 C 219.594421 37.898915 219.751472 35.600731 220.1441 33.250197 C 220.536728 30.904898 221.180639 28.711415 222.075831 26.680218 C 222.976258 24.649022 224.185553 22.968573 225.714186 21.638872 C 227.279464 20.036949 229.153609 18.906179 231.341857 18.246564 C 233.530105 17.576479 235.775938 17.351372 238.084592 17.571244 C 240.398481 17.780645 242.544849 18.445496 244.52893 19.565795 C 246.523481 20.680859 248.13064 22.214727 249.339935 24.162163 Z M 238.670917 46.981715 C 240.000618 45.735774 240.984806 44.280432 241.623481 42.615689 C 242.272627 40.94571 242.67049 39.202441 242.827541 37.391116 C 242.989828 35.574556 242.953182 33.805112 242.72284 32.077547 C 242.487263 30.360453 241.806708 28.957462 240.691644 27.868573 C 239.57658 26.769214 238.100297 26.240475 236.268032 26.27712 C 235.247199 26.27712 234.257776 26.533637 233.304998 27.036201 C 232.346985 27.544 231.556494 28.208851 230.928289 29.030752 C 230.232028 30.009705 229.724229 31.18759 229.410126 32.548701 C 229.096024 33.915047 228.860447 35.187163 228.70863 36.359813 C 228.352648 38.982569 228.488759 41.56868 229.106494 44.107676 C 229.31066 44.851052 229.572413 45.594428 229.896985 46.337804 C 230.232028 47.075945 230.713652 47.68321 231.341857 48.159599 C 232.35222 48.892505 233.5144 49.154257 234.823161 48.944856 C 236.137156 48.724984 237.283631 48.206715 238.257349 47.384813 C 238.38299 47.269642 238.519101 47.138766 238.670917 46.981715 Z M 238.670917 46.981715 " stroke="#000000" stroke-width="4.399268" stroke-opacity="1" stroke-miterlimit="4"/></g><g fill="#fdbe10" fill-opacity="1"><g transform="translate(5.36717, 40.393586)"><g><path d="M 16.328125 -18.90625 C 17.960938 -17.800781 19.253906 -16.359375 20.203125 -14.578125 C 21.148438 -12.796875 21.519531 -10.898438 21.3125 -8.890625 C 21.101562 -7.140625 20.503906 -5.632812 19.515625 -4.375 C 18.523438 -3.125 17.304688 -2.144531 15.859375 -1.4375 C 14.421875 -0.738281 12.890625 -0.351562 11.265625 -0.28125 C 9.648438 -0.207031 8.097656 -0.476562 6.609375 -1.09375 C 5.117188 -1.707031 3.863281 -2.695312 2.84375 -4.0625 C 2.320312 -4.738281 2.101562 -5.390625 2.1875 -6.015625 C 2.269531 -6.640625 2.535156 -7.1875 2.984375 -7.65625 C 3.441406 -8.125 4.003906 -8.453125 4.671875 -8.640625 C 5.347656 -8.828125 6.03125 -8.832031 6.71875 -8.65625 C 7.40625 -8.488281 7.992188 -8.066406 8.484375 -7.390625 C 8.722656 -7.078125 9.160156 -6.894531 9.796875 -6.84375 C 10.441406 -6.800781 11.082031 -6.832031 11.71875 -6.9375 C 12.363281 -7.039062 12.816406 -7.148438 13.078125 -7.265625 C 13.691406 -7.554688 14.148438 -7.984375 14.453125 -8.546875 C 14.765625 -9.117188 14.878906 -9.742188 14.796875 -10.421875 C 14.703125 -11.234375 14.40625 -11.898438 13.90625 -12.421875 C 13.414062 -12.953125 12.828125 -13.414062 12.140625 -13.8125 C 11.453125 -14.207031 10.757812 -14.585938 10.0625 -14.953125 C 9.363281 -15.316406 8.753906 -15.71875 8.234375 -16.15625 C 6.773438 -17.4375 5.882812 -18.828125 5.5625 -20.328125 C 5.238281 -21.828125 5.347656 -23.328125 5.890625 -24.828125 C 6.429688 -26.335938 7.269531 -27.703125 8.40625 -28.921875 C 9.539062 -30.148438 10.835938 -31.101562 12.296875 -31.78125 C 13.085938 -32.15625 13.816406 -32.253906 14.484375 -32.078125 C 15.160156 -31.898438 15.738281 -31.570312 16.21875 -31.09375 C 16.695312 -30.613281 17.023438 -30.050781 17.203125 -29.40625 C 17.378906 -28.769531 17.347656 -28.148438 17.109375 -27.546875 C 16.878906 -26.953125 16.382812 -26.476562 15.625 -26.125 C 15.125 -25.894531 14.546875 -25.570312 13.890625 -25.15625 C 13.234375 -24.75 12.691406 -24.257812 12.265625 -23.6875 C 11.847656 -23.125 11.769531 -22.492188 12.03125 -21.796875 C 12.175781 -21.328125 12.519531 -20.925781 13.0625 -20.59375 C 13.601562 -20.257812 14.179688 -19.957031 14.796875 -19.6875 C 15.410156 -19.425781 15.921875 -19.164062 16.328125 -18.90625 Z M 16.328125 -18.90625 "/></g></g></g><g fill="#fdbe10" fill-opacity="1"><g transform="translate(28.907976, 40.393586)"><g><path d="M 19.46875 -10.5 C 20.289062 -10.738281 21 -10.710938 21.59375 -10.421875 C 22.195312 -10.128906 22.664062 -9.691406 23 -9.109375 C 23.332031 -8.523438 23.503906 -7.894531 23.515625 -7.21875 C 23.535156 -6.550781 23.363281 -5.929688 23 -5.359375 C 22.632812 -4.796875 22.039062 -4.410156 21.21875 -4.203125 C 19.738281 -3.765625 18.21875 -3.441406 16.65625 -3.234375 C 15.09375 -3.035156 13.546875 -3.03125 12.015625 -3.21875 C 10.484375 -3.40625 9.015625 -3.894531 7.609375 -4.6875 C 5.804688 -5.738281 4.429688 -7.164062 3.484375 -8.96875 C 2.535156 -10.78125 2.101562 -12.722656 2.1875 -14.796875 C 2.300781 -16.835938 2.8125 -18.796875 3.71875 -20.671875 C 4.625 -22.554688 5.828125 -24.210938 7.328125 -25.640625 C 8.828125 -27.078125 10.53125 -28.179688 12.4375 -28.953125 C 14.351562 -29.722656 16.347656 -30.035156 18.421875 -29.890625 C 19.265625 -29.804688 19.941406 -29.519531 20.453125 -29.03125 C 20.960938 -28.550781 21.296875 -27.984375 21.453125 -27.328125 C 21.617188 -26.671875 21.617188 -26.019531 21.453125 -25.375 C 21.296875 -24.738281 20.960938 -24.21875 20.453125 -23.8125 C 19.941406 -23.40625 19.265625 -23.242188 18.421875 -23.328125 C 16.910156 -23.441406 15.472656 -23.15625 14.109375 -22.46875 C 12.753906 -21.78125 11.609375 -20.820312 10.671875 -19.59375 C 9.742188 -18.375 9.148438 -17.019531 8.890625 -15.53125 C 8.617188 -14.195312 8.679688 -13.125 9.078125 -12.3125 C 9.472656 -11.507812 10.0625 -10.921875 10.84375 -10.546875 C 11.632812 -10.171875 12.535156 -9.9375 13.546875 -9.84375 C 14.554688 -9.757812 15.578125 -9.789062 16.609375 -9.9375 C 17.640625 -10.082031 18.59375 -10.269531 19.46875 -10.5 Z M 19.46875 -10.5 "/></g></g></g><g fill="#fdbe10" fill-opacity="1"><g transform="translate(54.636591, 40.393586)"><g><path d="M 18.78125 -30.59375 C 18.925781 -31.40625 19.257812 -32 19.78125 -32.375 C 20.300781 -32.757812 20.890625 -32.953125 21.546875 -32.953125 C 22.210938 -32.953125 22.84375 -32.773438 23.4375 -32.421875 C 24.03125 -32.078125 24.492188 -31.597656 24.828125 -30.984375 C 25.171875 -30.367188 25.253906 -29.65625 25.078125 -28.84375 C 23.503906 -20.789062 22.425781 -12.679688 21.84375 -4.515625 C 21.78125 -3.691406 21.507812 -3.023438 21.03125 -2.515625 C 20.550781 -2.003906 19.972656 -1.660156 19.296875 -1.484375 C 18.628906 -1.304688 17.976562 -1.304688 17.34375 -1.484375 C 16.71875 -1.660156 16.203125 -1.992188 15.796875 -2.484375 C 15.390625 -2.984375 15.21875 -3.660156 15.28125 -4.515625 C 15.363281 -5.878906 15.46875 -7.242188 15.59375 -8.609375 C 15.726562 -9.984375 15.867188 -11.359375 16.015625 -12.734375 L 10.015625 -12.734375 C 9.816406 -10.984375 9.613281 -9.238281 9.40625 -7.5 C 9.207031 -5.769531 9.003906 -4.039062 8.796875 -2.3125 C 8.679688 -1.46875 8.375 -0.796875 7.875 -0.296875 C 7.382812 0.191406 6.800781 0.515625 6.125 0.671875 C 5.457031 0.835938 4.800781 0.835938 4.15625 0.671875 C 3.507812 0.515625 3 0.191406 2.625 -0.296875 C 2.25 -0.796875 2.117188 -1.46875 2.234375 -2.3125 C 2.492188 -4.707031 2.769531 -7.109375 3.0625 -9.515625 C 3.351562 -11.921875 3.628906 -14.335938 3.890625 -16.765625 C 4.035156 -17.898438 4.175781 -19.050781 4.3125 -20.21875 C 4.445312 -21.382812 4.585938 -22.550781 4.734375 -23.71875 C 4.847656 -24.738281 4.941406 -25.816406 5.015625 -26.953125 C 5.085938 -28.097656 5.3125 -29.148438 5.6875 -30.109375 C 5.976562 -30.898438 6.421875 -31.476562 7.015625 -31.84375 C 7.617188 -32.207031 8.265625 -32.378906 8.953125 -32.359375 C 9.640625 -32.347656 10.273438 -32.175781 10.859375 -31.84375 C 11.441406 -31.507812 11.851562 -31.046875 12.09375 -30.453125 C 12.34375 -29.867188 12.304688 -29.171875 11.984375 -28.359375 C 11.640625 -27.421875 11.4375 -26.390625 11.375 -25.265625 C 11.320312 -24.148438 11.234375 -23.097656 11.109375 -22.109375 C 11.054688 -21.640625 11 -21.171875 10.9375 -20.703125 C 10.882812 -20.234375 10.828125 -19.765625 10.765625 -19.296875 L 16.84375 -19.296875 C 17.113281 -21.171875 17.40625 -23.054688 17.71875 -24.953125 C 18.039062 -26.847656 18.394531 -28.726562 18.78125 -30.59375 Z M 18.78125 -30.59375 "/></g></g></g><g fill="#fdbe10" fill-opacity="1"><g transform="translate(81.984185, 40.393586)"><g><path d="M 18.25 -9.234375 C 19.09375 -9.203125 19.769531 -8.953125 20.28125 -8.484375 C 20.789062 -8.023438 21.125 -7.46875 21.28125 -6.8125 C 21.445312 -6.15625 21.445312 -5.503906 21.28125 -4.859375 C 21.125 -4.210938 20.789062 -3.675781 20.28125 -3.25 C 19.769531 -2.832031 19.09375 -2.640625 18.25 -2.671875 C 16.269531 -2.753906 14.285156 -2.742188 12.296875 -2.640625 C 10.316406 -2.546875 8.332031 -2.335938 6.34375 -2.015625 C 5.726562 -1.921875 5.082031 -1.984375 4.40625 -2.203125 C 3.738281 -2.421875 3.179688 -2.78125 2.734375 -3.28125 C 2.285156 -3.78125 2.117188 -4.421875 2.234375 -5.203125 C 2.722656 -9.234375 3.265625 -13.257812 3.859375 -17.28125 C 4.460938 -21.3125 5.117188 -25.335938 5.828125 -29.359375 C 5.910156 -29.859375 6.082031 -30.285156 6.34375 -30.640625 C 6.582031 -31.046875 6.921875 -31.382812 7.359375 -31.65625 C 7.796875 -31.9375 8.332031 -32.09375 8.96875 -32.125 C 12.125 -32.207031 15.273438 -32.148438 18.421875 -31.953125 C 19.265625 -31.890625 19.941406 -31.617188 20.453125 -31.140625 C 20.960938 -30.660156 21.296875 -30.09375 21.453125 -29.4375 C 21.617188 -28.78125 21.617188 -28.128906 21.453125 -27.484375 C 21.296875 -26.835938 20.960938 -26.3125 20.453125 -25.90625 C 19.941406 -25.5 19.265625 -25.328125 18.421875 -25.390625 C 16.265625 -25.535156 14.0625 -25.609375 11.8125 -25.609375 C 11.664062 -24.753906 11.519531 -23.90625 11.375 -23.0625 C 11.226562 -22.21875 11.097656 -21.375 10.984375 -20.53125 C 12.179688 -20.5 13.332031 -20.425781 14.4375 -20.3125 C 15.3125 -20.21875 16.078125 -19.882812 16.734375 -19.3125 C 17.390625 -18.75 17.71875 -17.988281 17.71875 -17.03125 C 17.71875 -16.46875 17.566406 -15.925781 17.265625 -15.40625 C 16.960938 -14.882812 16.5625 -14.460938 16.0625 -14.140625 C 15.5625 -13.816406 15.019531 -13.6875 14.4375 -13.75 C 12.945312 -13.894531 11.460938 -13.96875 9.984375 -13.96875 C 9.859375 -13.144531 9.738281 -12.3125 9.625 -11.46875 C 9.507812 -10.625 9.394531 -9.789062 9.28125 -8.96875 C 10.769531 -9.113281 12.253906 -9.207031 13.734375 -9.25 C 15.222656 -9.300781 16.726562 -9.296875 18.25 -9.234375 Z M 18.25 -9.234375 "/></g></g></g><g fill="#fdbe10" fill-opacity="1"><g transform="translate(105.743768, 40.393586)"><g><path d="M 18.953125 -27.09375 C 20.441406 -25.75 21.59375 -24.148438 22.40625 -22.296875 C 23.226562 -20.441406 23.519531 -18.492188 23.28125 -16.453125 C 23.082031 -14.765625 22.535156 -13.179688 21.640625 -11.703125 C 20.753906 -10.234375 19.664062 -8.957031 18.375 -7.875 C 16.945312 -6.65625 15.265625 -5.671875 13.328125 -4.921875 C 11.390625 -4.179688 9.53125 -3.519531 7.75 -2.9375 C 7.25 -2.757812 6.742188 -2.617188 6.234375 -2.515625 C 5.722656 -2.410156 5.222656 -2.390625 4.734375 -2.453125 C 4.023438 -2.535156 3.414062 -2.859375 2.90625 -3.421875 C 2.394531 -3.992188 2.15625 -4.632812 2.1875 -5.34375 C 2.394531 -13.28125 2.789062 -21.226562 3.375 -29.1875 C 3.425781 -30.09375 3.722656 -30.726562 4.265625 -31.09375 C 4.804688 -31.457031 5.445312 -31.644531 6.1875 -31.65625 C 6.9375 -31.675781 7.660156 -31.628906 8.359375 -31.515625 C 8.765625 -31.453125 9.144531 -31.394531 9.5 -31.34375 C 11.21875 -30.988281 12.878906 -30.492188 14.484375 -29.859375 C 16.085938 -29.234375 17.578125 -28.3125 18.953125 -27.09375 Z M 16.5 -16.109375 C 16.90625 -17.273438 16.96875 -18.335938 16.6875 -19.296875 C 16.414062 -20.265625 15.914062 -21.097656 15.1875 -21.796875 C 14.457031 -22.492188 13.59375 -23.078125 12.59375 -23.546875 C 11.601562 -24.015625 10.597656 -24.363281 9.578125 -24.59375 C 9.285156 -19.8125 9.054688 -15.054688 8.890625 -10.328125 C 9.960938 -10.679688 11.003906 -11.082031 12.015625 -11.53125 C 13.023438 -11.976562 13.921875 -12.5625 14.703125 -13.28125 C 15.492188 -14 16.09375 -14.941406 16.5 -16.109375 Z M 16.5 -16.109375 "/></g></g></g><g fill="#fdbe10" fill-opacity="1"><g transform="translate(131.297362, 40.393586)"><g><path d="M 24.328125 -26.734375 C 25.035156 -25.597656 25.519531 -24.320312 25.78125 -22.90625 C 26.039062 -21.488281 26.15625 -20.054688 26.125 -18.609375 C 26.09375 -17.171875 25.976562 -15.828125 25.78125 -14.578125 C 25.488281 -12.648438 24.890625 -10.820312 23.984375 -9.09375 C 23.078125 -7.375 21.863281 -5.890625 20.34375 -4.640625 C 18.882812 -3.441406 17.191406 -2.566406 15.265625 -2.015625 C 13.347656 -1.460938 11.46875 -1.476562 9.625 -2.0625 C 8.40625 -2.4375 7.34375 -3.0625 6.4375 -3.9375 C 5.53125 -4.8125 4.769531 -5.8125 4.15625 -6.9375 C 3.539062 -8.0625 3.085938 -9.207031 2.796875 -10.375 C 2.453125 -11.65625 2.25 -13.132812 2.1875 -14.8125 C 2.125 -16.488281 2.238281 -18.203125 2.53125 -19.953125 C 2.820312 -21.703125 3.300781 -23.335938 3.96875 -24.859375 C 4.644531 -26.378906 5.554688 -27.632812 6.703125 -28.625 C 7.867188 -29.820312 9.265625 -30.664062 10.890625 -31.15625 C 12.523438 -31.65625 14.203125 -31.820312 15.921875 -31.65625 C 17.648438 -31.5 19.257812 -31.003906 20.75 -30.171875 C 22.238281 -29.335938 23.429688 -28.191406 24.328125 -26.734375 Z M 16.375 -9.71875 C 17.363281 -10.644531 18.097656 -11.726562 18.578125 -12.96875 C 19.054688 -14.21875 19.351562 -15.519531 19.46875 -16.875 C 19.59375 -18.226562 19.566406 -19.546875 19.390625 -20.828125 C 19.210938 -22.117188 18.707031 -23.171875 17.875 -23.984375 C 17.039062 -24.796875 15.941406 -25.191406 14.578125 -25.171875 C 13.816406 -25.171875 13.078125 -24.976562 12.359375 -24.59375 C 11.648438 -24.21875 11.0625 -23.722656 10.59375 -23.109375 C 10.0625 -22.378906 9.679688 -21.503906 9.453125 -20.484375 C 9.222656 -19.460938 9.046875 -18.515625 8.921875 -17.640625 C 8.660156 -15.679688 8.765625 -13.753906 9.234375 -11.859375 C 9.378906 -11.304688 9.578125 -10.75 9.828125 -10.1875 C 10.078125 -9.632812 10.429688 -9.1875 10.890625 -8.84375 C 11.648438 -8.289062 12.519531 -8.09375 13.5 -8.25 C 14.476562 -8.40625 15.332031 -8.789062 16.0625 -9.40625 C 16.144531 -9.5 16.25 -9.601562 16.375 -9.71875 Z M 16.375 -9.71875 "/></g></g></g></svg>