<svg xmlns="http://www.w3.org/2000/svg" xmlns:xlink="http://www.w3.org/1999/xlink" width="220" zoomAndPan="magnify" viewBox="0 0 165 48.75" height="65" preserveAspectRatio="xMidYMid meet" version="1.0"><defs><g/></defs><g fill="#fdbe10" fill-opacity="1"><g transform="translate(21.768193, 34.697067)"><g><path d="M 14.78125 -22.28125 C 15.382812 -22.1875 15.867188 -21.957031 16.234375 -21.59375 C 16.609375 -21.226562 16.859375 -20.796875 16.984375 -20.296875 C 17.117188 -19.796875 17.117188 -19.304688 16.984375 -18.828125 C 16.859375 -18.359375 16.609375 -17.988281 16.234375 -17.71875 C 15.867188 -17.445312 15.382812 -17.34375 14.78125 -17.40625 C 13.789062 -17.539062 12.753906 -17.640625 11.671875 -17.703125 C 11.515625 -15.347656 11.363281 -12.988281 11.21875 -10.625 C 11.082031 -8.269531 10.941406 -5.90625 10.796875 -3.53125 C 10.773438 -2.925781 10.582031 -2.429688 10.21875 -2.046875 C 9.863281 -1.671875 9.441406 -1.421875 8.953125 -1.296875 C 8.472656 -1.171875 7.992188 -1.171875 7.515625 -1.296875 C 7.046875 -1.421875 6.660156 -1.664062 6.359375 -2.03125 C 6.054688 -2.40625 5.914062 -2.90625 5.9375 -3.53125 C 6.082031 -5.90625 6.222656 -8.273438 6.359375 -10.640625 C 6.503906 -13.015625 6.65625 -15.390625 6.8125 -17.765625 C 5.832031 -17.722656 4.878906 -17.660156 3.953125 -17.578125 C 3.328125 -17.503906 2.820312 -17.613281 2.4375 -17.90625 C 2.0625 -18.195312 1.816406 -18.582031 1.703125 -19.0625 C 1.585938 -19.539062 1.59375 -20.019531 1.71875 -20.5 C 1.84375 -20.988281 2.085938 -21.414062 2.453125 -21.78125 C 2.828125 -22.15625 3.328125 -22.375 3.953125 -22.4375 C 7.566406 -22.800781 11.175781 -22.75 14.78125 -22.28125 Z M 14.78125 -22.28125 "/></g></g></g><g fill="#fdbe10" fill-opacity="1"><g transform="translate(40.46986, 34.697067)"><g><path d="M 16.796875 -14.171875 C 16.859375 -12.023438 16.910156 -9.867188 16.953125 -7.703125 C 16.992188 -5.546875 17.050781 -3.390625 17.125 -1.234375 C 17.144531 -0.609375 16.988281 -0.109375 16.65625 0.265625 C 16.332031 0.648438 15.929688 0.898438 15.453125 1.015625 C 14.984375 1.140625 14.503906 1.140625 14.015625 1.015625 C 13.535156 0.898438 13.125 0.648438 12.78125 0.265625 C 12.445312 -0.109375 12.269531 -0.609375 12.25 -1.234375 C 12.226562 -1.878906 12.210938 -2.519531 12.203125 -3.15625 C 12.191406 -3.800781 12.175781 -4.445312 12.15625 -5.09375 L 7.296875 -5.28125 C 7.117188 -4.457031 6.953125 -3.640625 6.796875 -2.828125 C 6.648438 -2.023438 6.503906 -1.210938 6.359375 -0.390625 C 6.242188 0.234375 6 0.6875 5.625 0.96875 C 5.25 1.25 4.8125 1.382812 4.3125 1.375 C 3.8125 1.363281 3.335938 1.234375 2.890625 0.984375 C 2.453125 0.734375 2.109375 0.382812 1.859375 -0.0625 C 1.609375 -0.519531 1.539062 -1.0625 1.65625 -1.6875 C 2.039062 -3.800781 2.476562 -5.894531 2.96875 -7.96875 C 3.457031 -10.050781 4.144531 -12.070312 5.03125 -14.03125 C 5.457031 -15.007812 6.003906 -16.0625 6.671875 -17.1875 C 7.347656 -18.3125 8.113281 -19.34375 8.96875 -20.28125 C 9.820312 -21.21875 10.765625 -21.90625 11.796875 -22.34375 C 12.773438 -22.75 13.566406 -22.820312 14.171875 -22.5625 C 14.773438 -22.300781 15.25 -21.835938 15.59375 -21.171875 C 15.9375 -20.503906 16.1875 -19.734375 16.34375 -18.859375 C 16.507812 -17.984375 16.617188 -17.125 16.671875 -16.28125 C 16.734375 -15.4375 16.773438 -14.734375 16.796875 -14.171875 Z M 8.625 -10.078125 C 9.207031 -10.054688 9.78125 -10.035156 10.34375 -10.015625 C 10.90625 -9.992188 11.46875 -9.972656 12.03125 -9.953125 C 12.007812 -10.660156 11.992188 -11.363281 11.984375 -12.0625 C 11.972656 -12.769531 11.957031 -13.472656 11.9375 -14.171875 C 11.914062 -14.453125 11.90625 -14.75 11.90625 -15.0625 C 11.90625 -15.375 11.90625 -15.691406 11.90625 -16.015625 C 11.53125 -15.585938 11.210938 -15.175781 10.953125 -14.78125 C 10.523438 -14.132812 10.128906 -13.457031 9.765625 -12.75 C 9.410156 -12.050781 9.09375 -11.347656 8.8125 -10.640625 C 8.789062 -10.546875 8.765625 -10.453125 8.734375 -10.359375 C 8.703125 -10.265625 8.664062 -10.171875 8.625 -10.078125 Z M 8.625 -10.078125 "/></g></g></g><g fill="#fdbe10" fill-opacity="1"><g transform="translate(59.20393, 34.697067)"><g><path d="M 12.09375 -14 C 13.300781 -13.1875 14.253906 -12.117188 14.953125 -10.796875 C 15.660156 -9.472656 15.941406 -8.066406 15.796875 -6.578125 C 15.640625 -5.285156 15.191406 -4.171875 14.453125 -3.234375 C 13.722656 -2.304688 12.820312 -1.582031 11.75 -1.0625 C 10.675781 -0.550781 9.539062 -0.265625 8.34375 -0.203125 C 7.144531 -0.148438 5.992188 -0.347656 4.890625 -0.796875 C 3.785156 -1.253906 2.859375 -1.992188 2.109375 -3.015625 C 1.722656 -3.515625 1.5625 -3.992188 1.625 -4.453125 C 1.6875 -4.921875 1.882812 -5.328125 2.21875 -5.671875 C 2.550781 -6.015625 2.96875 -6.253906 3.46875 -6.390625 C 3.96875 -6.535156 4.46875 -6.539062 4.96875 -6.40625 C 5.476562 -6.28125 5.921875 -5.972656 6.296875 -5.484375 C 6.460938 -5.242188 6.78125 -5.109375 7.25 -5.078125 C 7.726562 -5.046875 8.207031 -5.066406 8.6875 -5.140625 C 9.164062 -5.210938 9.5 -5.289062 9.6875 -5.375 C 10.144531 -5.59375 10.488281 -5.910156 10.71875 -6.328125 C 10.945312 -6.753906 11.023438 -7.21875 10.953125 -7.71875 C 10.890625 -8.320312 10.675781 -8.816406 10.3125 -9.203125 C 9.945312 -9.597656 9.507812 -9.941406 9 -10.234375 C 8.488281 -10.523438 7.972656 -10.804688 7.453125 -11.078125 C 6.929688 -11.347656 6.476562 -11.644531 6.09375 -11.96875 C 5.007812 -12.914062 4.347656 -13.945312 4.109375 -15.0625 C 3.878906 -16.175781 3.960938 -17.285156 4.359375 -18.390625 C 4.753906 -19.503906 5.375 -20.515625 6.21875 -21.421875 C 7.0625 -22.335938 8.023438 -23.039062 9.109375 -23.53125 C 9.691406 -23.8125 10.234375 -23.890625 10.734375 -23.765625 C 11.234375 -23.640625 11.660156 -23.394531 12.015625 -23.03125 C 12.367188 -22.675781 12.609375 -22.257812 12.734375 -21.78125 C 12.867188 -21.3125 12.847656 -20.851562 12.671875 -20.40625 C 12.503906 -19.96875 12.140625 -19.617188 11.578125 -19.359375 C 11.203125 -19.179688 10.769531 -18.941406 10.28125 -18.640625 C 9.800781 -18.335938 9.40625 -17.972656 9.09375 -17.546875 C 8.78125 -17.128906 8.722656 -16.660156 8.921875 -16.140625 C 9.023438 -15.796875 9.273438 -15.5 9.671875 -15.25 C 10.078125 -15 10.503906 -14.773438 10.953125 -14.578125 C 11.410156 -14.390625 11.789062 -14.195312 12.09375 -14 Z M 12.09375 -14 "/></g></g></g><g fill="#fdbe10" fill-opacity="1"><g transform="translate(76.641533, 34.697067)"><g><path d="M 16.203125 -20.421875 C 15.554688 -19.335938 14.859375 -18.253906 14.109375 -17.171875 C 13.367188 -16.097656 12.515625 -15.140625 11.546875 -14.296875 C 13.617188 -11.941406 14.796875 -9.132812 15.078125 -5.875 C 15.117188 -5.238281 14.992188 -4.738281 14.703125 -4.375 C 14.410156 -4.007812 14.03125 -3.757812 13.5625 -3.625 C 13.101562 -3.5 12.625 -3.5 12.125 -3.625 C 11.625 -3.757812 11.191406 -4.015625 10.828125 -4.390625 C 10.460938 -4.765625 10.257812 -5.257812 10.21875 -5.875 C 10.101562 -7.019531 9.785156 -8.113281 9.265625 -9.15625 C 8.753906 -10.207031 8.078125 -11.109375 7.234375 -11.859375 C 7.015625 -9.140625 6.722656 -6.429688 6.359375 -3.734375 C 6.285156 -3.296875 6.082031 -2.929688 5.75 -2.640625 C 5.414062 -2.347656 5.023438 -2.144531 4.578125 -2.03125 C 4.140625 -1.925781 3.726562 -1.929688 3.34375 -2.046875 C 2.644531 -2.234375 2.164062 -2.613281 1.90625 -3.1875 C 1.65625 -3.757812 1.570312 -4.375 1.65625 -5.03125 C 2.0625 -8.09375 2.367188 -11.171875 2.578125 -14.265625 C 2.785156 -17.359375 2.898438 -20.460938 2.921875 -23.578125 C 2.921875 -24.203125 3.082031 -24.695312 3.40625 -25.0625 C 3.726562 -25.425781 4.128906 -25.671875 4.609375 -25.796875 C 5.097656 -25.929688 5.585938 -25.929688 6.078125 -25.796875 C 6.566406 -25.671875 6.972656 -25.425781 7.296875 -25.0625 C 7.617188 -24.695312 7.78125 -24.203125 7.78125 -23.578125 C 7.757812 -22.515625 7.738281 -21.457031 7.71875 -20.40625 C 7.695312 -19.363281 7.65625 -18.3125 7.59375 -17.25 C 8.238281 -17.613281 8.832031 -18.128906 9.375 -18.796875 C 9.914062 -19.472656 10.398438 -20.175781 10.828125 -20.90625 C 11.265625 -21.644531 11.65625 -22.304688 12 -22.890625 C 12.320312 -23.429688 12.710938 -23.78125 13.171875 -23.9375 C 13.640625 -24.101562 14.113281 -24.113281 14.59375 -23.96875 C 15.082031 -23.832031 15.503906 -23.59375 15.859375 -23.25 C 16.222656 -22.90625 16.445312 -22.484375 16.53125 -21.984375 C 16.625 -21.484375 16.515625 -20.960938 16.203125 -20.421875 Z M 16.203125 -20.421875 "/></g></g></g><g fill="#fdbe10" fill-opacity="1"><g transform="translate(94.7922, 34.697067)"><g><path d="M 3.078125 -19.96875 C 3.140625 -20.570312 3.351562 -21.054688 3.71875 -21.421875 C 4.09375 -21.796875 4.523438 -22.046875 5.015625 -22.171875 C 5.515625 -22.304688 6.003906 -22.3125 6.484375 -22.1875 C 6.960938 -22.070312 7.34375 -21.820312 7.625 -21.4375 C 7.90625 -21.0625 8.007812 -20.570312 7.9375 -19.96875 C 7.3125 -14.113281 6.828125 -8.242188 6.484375 -2.359375 C 6.441406 -1.734375 6.242188 -1.234375 5.890625 -0.859375 C 5.546875 -0.484375 5.128906 -0.234375 4.640625 -0.109375 C 4.160156 0.00390625 3.679688 0.00390625 3.203125 -0.109375 C 2.734375 -0.234375 2.34375 -0.484375 2.03125 -0.859375 C 1.71875 -1.234375 1.582031 -1.734375 1.625 -2.359375 C 1.96875 -8.242188 2.453125 -14.113281 3.078125 -19.96875 Z M 3.078125 -19.96875 "/></g></g></g><g fill="#fdbe10" fill-opacity="1"><g transform="translate(104.386123, 34.697067)"><g><path d="M 14.65625 -22.5 C 15.28125 -22.582031 15.816406 -22.492188 16.265625 -22.234375 C 16.722656 -21.984375 17.078125 -21.632812 17.328125 -21.1875 C 17.578125 -20.738281 17.707031 -20.269531 17.71875 -19.78125 C 17.726562 -19.300781 17.59375 -18.878906 17.3125 -18.515625 C 17.03125 -18.148438 16.578125 -17.910156 15.953125 -17.796875 C 14.847656 -17.628906 13.742188 -17.457031 12.640625 -17.28125 C 11.535156 -17.101562 10.4375 -16.929688 9.34375 -16.765625 C 9.320312 -16.765625 9.226562 -16.75 9.0625 -16.71875 C 8.894531 -16.6875 8.71875 -16.65625 8.53125 -16.625 C 8.53125 -16.476562 8.519531 -16.375 8.5 -16.3125 C 8.539062 -15.8125 8.503906 -15.285156 8.390625 -14.734375 C 8.285156 -14.179688 8.203125 -13.65625 8.140625 -13.15625 C 8.140625 -13.070312 8.132812 -12.992188 8.125 -12.921875 C 8.113281 -12.847656 8.109375 -12.773438 8.109375 -12.703125 C 9.773438 -12.960938 11.425781 -13.101562 13.0625 -13.125 C 13.6875 -13.125 14.1875 -12.96875 14.5625 -12.65625 C 14.945312 -12.34375 15.195312 -11.941406 15.3125 -11.453125 C 15.4375 -10.972656 15.4375 -10.488281 15.3125 -10 C 15.195312 -9.507812 14.945312 -9.101562 14.5625 -8.78125 C 14.1875 -8.457031 13.6875 -8.285156 13.0625 -8.265625 C 11.1875 -8.242188 9.316406 -8.039062 7.453125 -7.65625 C 7.285156 -6.375 7.109375 -5.085938 6.921875 -3.796875 C 6.734375 -2.515625 6.546875 -1.238281 6.359375 0.03125 C 6.242188 0.632812 6.003906 1.078125 5.640625 1.359375 C 5.273438 1.640625 4.847656 1.78125 4.359375 1.78125 C 3.867188 1.78125 3.394531 1.648438 2.9375 1.390625 C 2.488281 1.128906 2.140625 0.769531 1.890625 0.3125 C 1.648438 -0.132812 1.570312 -0.660156 1.65625 -1.265625 C 2.082031 -3.960938 2.460938 -6.660156 2.796875 -9.359375 C 3.140625 -12.066406 3.460938 -14.769531 3.765625 -17.46875 C 3.890625 -18.632812 4.222656 -19.519531 4.765625 -20.125 C 5.304688 -20.738281 6.160156 -21.140625 7.328125 -21.328125 C 8.535156 -21.523438 9.753906 -21.71875 10.984375 -21.90625 C 12.222656 -22.101562 13.445312 -22.300781 14.65625 -22.5 Z M 14.65625 -22.5 "/></g></g></g><g fill="#fdbe10" fill-opacity="1"><g transform="translate(123.703608, 34.697067)"><g><path d="M 13.09375 -22.171875 C 13.164062 -22.796875 13.390625 -23.265625 13.765625 -23.578125 C 14.140625 -23.898438 14.570312 -24.082031 15.0625 -24.125 C 15.550781 -24.164062 16.023438 -24.078125 16.484375 -23.859375 C 16.953125 -23.640625 17.320312 -23.3125 17.59375 -22.875 C 17.863281 -22.445312 17.953125 -21.929688 17.859375 -21.328125 C 17.691406 -19.921875 17.53125 -18.4375 17.375 -16.875 C 17.226562 -15.3125 17.007812 -13.738281 16.71875 -12.15625 C 16.425781 -10.582031 16.003906 -9.082031 15.453125 -7.65625 C 14.898438 -6.226562 14.144531 -4.945312 13.1875 -3.8125 C 12.238281 -2.675781 11.019531 -1.757812 9.53125 -1.0625 C 8.96875 -0.8125 8.453125 -0.757812 7.984375 -0.90625 C 7.523438 -1.0625 7.15625 -1.335938 6.875 -1.734375 C 6.59375 -2.128906 6.425781 -2.582031 6.375 -3.09375 C 6.320312 -3.601562 6.40625 -4.085938 6.625 -4.546875 C 6.851562 -5.015625 7.25 -5.367188 7.8125 -5.609375 C 8.550781 -5.953125 9.148438 -6.414062 9.609375 -7 C 10.078125 -7.582031 10.453125 -8.234375 10.734375 -8.953125 C 9.847656 -8.648438 8.941406 -8.503906 8.015625 -8.515625 C 7.097656 -8.523438 6.195312 -8.753906 5.3125 -9.203125 C 4.144531 -9.785156 3.273438 -10.609375 2.703125 -11.671875 C 2.128906 -12.734375 1.789062 -13.894531 1.6875 -15.15625 C 1.582031 -16.414062 1.640625 -17.675781 1.859375 -18.9375 C 2.085938 -20.207031 2.429688 -21.351562 2.890625 -22.375 C 3.117188 -22.957031 3.460938 -23.347656 3.921875 -23.546875 C 4.378906 -23.753906 4.847656 -23.816406 5.328125 -23.734375 C 5.816406 -23.648438 6.253906 -23.441406 6.640625 -23.109375 C 7.035156 -22.785156 7.300781 -22.382812 7.4375 -21.90625 C 7.582031 -21.4375 7.535156 -20.910156 7.296875 -20.328125 C 7.117188 -19.960938 6.941406 -19.460938 6.765625 -18.828125 C 6.597656 -18.203125 6.476562 -17.546875 6.40625 -16.859375 C 6.332031 -16.171875 6.359375 -15.535156 6.484375 -14.953125 C 6.609375 -14.367188 6.910156 -13.921875 7.390625 -13.609375 C 7.828125 -13.304688 8.296875 -13.207031 8.796875 -13.3125 C 9.304688 -13.425781 9.789062 -13.660156 10.25 -14.015625 C 10.71875 -14.378906 11.132812 -14.785156 11.5 -15.234375 C 11.875 -15.691406 12.171875 -16.101562 12.390625 -16.46875 C 12.515625 -17.414062 12.628906 -18.363281 12.734375 -19.3125 C 12.847656 -20.269531 12.96875 -21.222656 13.09375 -22.171875 Z M 13.09375 -22.171875 "/></g></g></g></svg>