<svg xmlns="http://www.w3.org/2000/svg" xmlns:xlink="http://www.w3.org/1999/xlink" width="500" zoomAndPan="magnify" viewBox="0 0 375 374.999991" height="500" preserveAspectRatio="xMidYMid meet" version="1.0"><defs><g/><clipPath id="781d5961df"><path d="M 232 133 L 246.824219 133 L 246.824219 137 L 232 137 Z M 232 133 " clip-rule="nonzero"/></clipPath></defs><g clip-path="url(#781d5961df)"><path fill="#000000" d="M 244.980469 133.960938 C 241.363281 132.875 237.664062 133.890625 233.984375 133.941406 C 232.1875 133.96875 232.414062 136.75 234.203125 136.722656 C 237.621094 136.675781 241.082031 135.679688 244.441406 136.703125 C 246.171875 137.222656 246.6875 134.46875 244.980469 133.960938 Z M 244.980469 133.960938 " fill-opacity="1" fill-rule="nonzero"/></g><path fill="#000000" d="M 236.695312 161.632812 C 235.425781 160.347656 233.59375 162.457031 234.851562 163.726562 C 236.695312 165.589844 238.742188 167.835938 238.851562 170.59375 C 238.921875 172.394531 241.707031 172.179688 241.636719 170.382812 C 241.488281 166.867188 239.054688 164.023438 236.695312 161.632812 Z M 236.695312 161.632812 " fill-opacity="1" fill-rule="nonzero"/><path fill="#73a0b1" d="M 207.457031 179.925781 L 207.457031 179.910156 C 207.273438 179.667969 207.058594 179.453125 206.816406 179.269531 C 204.625 177.507812 201.113281 177.527344 198.4375 177.457031 C 194.738281 177.355469 191.011719 177.066406 187.328125 177.550781 C 185.621094 177.773438 183.941406 178.253906 182.230469 178.382812 C 181.007812 178.476562 179.78125 178.507812 178.566406 178.613281 C 177.226562 178.722656 175.789062 178.816406 174.539062 179.347656 C 173.511719 179.789062 173.183594 181.105469 174.6875 180.917969 C 175.144531 180.832031 175.519531 180.96875 175.820312 181.324219 C 176.71875 181.324219 177.617188 181.324219 178.515625 181.304688 C 183.070312 181.246094 187.628906 181.144531 192.179688 181.351562 C 194.867188 181.476562 197.519531 181.855469 200.207031 181.636719 C 202.136719 181.484375 204.136719 181.289062 205.96875 180.675781 C 206.359375 180.5625 206.734375 180.410156 207.09375 180.21875 C 207.226562 180.140625 207.359375 180.050781 207.480469 179.957031 C 207.433594 179.976562 207.4375 179.957031 207.457031 179.925781 Z M 207.457031 179.925781 " fill-opacity="1" fill-rule="nonzero"/><path fill="#fdbe10" d="M 194.683594 158.570312 C 195.546875 155.089844 196.777344 151.746094 198.382812 148.539062 C 197.746094 148.269531 197.1875 147.890625 196.703125 147.398438 C 195.984375 147.761719 195.226562 147.96875 194.421875 148.03125 C 193.621094 148.09375 192.839844 148 192.074219 147.753906 C 191.253906 147.503906 190.488281 147.136719 189.78125 146.652344 C 188.421875 147.253906 186.878906 147.320312 185.390625 147.34375 L 184.542969 147.34375 C 188.796875 155.503906 189.65625 165.59375 189.683594 174.5 L 189.683594 174.53125 C 190.035156 174.507812 190.382812 174.488281 190.734375 174.480469 C 191.28125 174.480469 191.824219 174.480469 192.367188 174.496094 C 192.183594 174.339844 192.050781 174.148438 191.976562 173.921875 C 191.898438 173.691406 191.890625 173.457031 191.945312 173.222656 C 192.910156 168.351562 193.492188 163.398438 194.683594 158.570312 Z M 194.683594 158.570312 " fill-opacity="1" fill-rule="nonzero"/><path fill="#73a0b1" d="M 202.542969 201.273438 C 201.585938 201.25 200.882812 200.488281 201.078125 199.585938 C 201.007812 199.59375 200.9375 199.601562 200.867188 199.601562 C 195.320312 199.625 189.789062 200.15625 184.238281 200.023438 C 181.933594 199.96875 178.585938 200.007812 176.121094 198.921875 C 175.378906 201.535156 176.089844 204.46875 179.179688 205.28125 C 182.757812 206.21875 186.472656 205.117188 190.097656 205.191406 C 192.085938 205.234375 194.066406 205.425781 196.054688 205.453125 C 197.796875 205.476562 199.9375 205.589844 201.550781 204.84375 C 202.585938 204.339844 203.328125 203.554688 203.769531 202.488281 C 204.167969 201.460938 203.496094 201.300781 202.542969 201.273438 Z M 202.542969 201.273438 " fill-opacity="1" fill-rule="nonzero"/><path fill="#fdbe10" d="M 189.675781 138.628906 C 188.84375 139.738281 189.316406 141.550781 189.875 142.671875 C 189.945312 142.804688 190.019531 142.933594 190.089844 143.054688 L 190.28125 142.875 C 191.199219 141.964844 192.976562 140.261719 192.898438 138.804688 C 192.8125 137.609375 190.25 137.871094 189.675781 138.628906 Z M 189.675781 138.628906 " fill-opacity="1" fill-rule="nonzero"/><path fill="#73a0b1" d="M 202.535156 192.292969 C 202.386719 192.058594 202.308594 191.800781 202.304688 191.523438 C 200.820312 192.207031 198.980469 192.335938 197.421875 192.429688 C 195.191406 192.566406 192.972656 192.53125 190.734375 192.496094 C 185.886719 192.421875 180.582031 192.730469 176.15625 190.488281 C 175.464844 191.253906 174.941406 192.121094 174.582031 193.089844 C 174.320312 193.875 174.410156 194.378906 174.816406 194.71875 C 175.214844 194.695312 175.542969 194.835938 175.796875 195.144531 L 175.890625 195.164062 C 176.152344 195.226562 176.382812 195.351562 176.582031 195.539062 C 176.777344 195.726562 176.914062 195.949219 176.992188 196.210938 C 177.917969 196.671875 179.128906 196.816406 180.003906 196.933594 C 181.871094 197.167969 183.75 197.273438 185.632812 197.246094 C 190.644531 197.246094 195.644531 196.828125 200.652344 196.808594 C 200.941406 196.800781 201.207031 196.875 201.449219 197.03125 C 201.6875 197.1875 201.863281 197.398438 201.976562 197.664062 C 202.871094 195.929688 203.707031 194.101562 202.535156 192.292969 Z M 202.535156 192.292969 " fill-opacity="1" fill-rule="nonzero"/><path fill="#73a0b1" d="M 202.953125 184.339844 C 202.90625 184.28125 202.867188 184.21875 202.832031 184.15625 C 201.523438 184.339844 200.191406 184.457031 198.867188 184.507812 C 197.496094 184.5625 196.144531 184.359375 194.78125 184.265625 C 192.515625 184.113281 190.242188 184.039062 187.976562 184.019531 C 184.3125 183.984375 180.664062 184.0625 177.011719 184.097656 C 176.648438 184.378906 176.238281 184.488281 175.78125 184.421875 C 175.324219 185.304688 174.996094 186.390625 175.433594 187.117188 C 175.734375 187.085938 176.007812 187.152344 176.257812 187.324219 C 180.550781 190.0625 185.925781 189.628906 190.804688 189.710938 C 192.824219 189.746094 194.851562 189.78125 196.871094 189.660156 C 198.367188 189.570312 200.398438 189.601562 201.667969 188.671875 C 202.628906 187.96875 203.636719 188.742188 203.785156 189.65625 C 205.027344 188.183594 204.121094 185.867188 202.953125 184.339844 Z M 202.953125 184.339844 " fill-opacity="1" fill-rule="nonzero"/><path fill="#fdbe10" d="M 223.699219 136.5625 C 223.226562 130.457031 222.109375 123.613281 218.414062 118.539062 C 214.078125 112.578125 207.046875 111.515625 200.136719 110.953125 C 195.726562 110.621094 191.308594 110.542969 186.882812 110.71875 C 183.328125 110.835938 179.78125 111.035156 176.347656 112.058594 C 170.464844 113.820312 165.683594 117.476562 162.210938 122.519531 C 160.164062 125.515625 158.253906 128.832031 157.332031 132.359375 C 156.367188 136.125 156.054688 139.941406 156.398438 143.816406 C 157 151.082031 158.722656 159.527344 165.273438 163.789062 C 167.988281 165.558594 171.058594 166.996094 173.152344 169.542969 C 174.460938 171.148438 175.324219 173.230469 176.09375 175.140625 C 176.21875 175.421875 176.238281 175.707031 176.15625 176 C 177.664062 175.773438 179.242188 175.757812 180.605469 175.683594 C 182.726562 175.566406 184.792969 175.160156 186.886719 174.84375 L 186.886719 174.710938 C 186.886719 169.140625 186.507812 163.476562 185.261719 158.035156 C 184.398438 154.261719 183.167969 150.4375 181.195312 147.074219 C 180.515625 146.941406 179.875 146.707031 179.273438 146.371094 C 177.441406 145.300781 177.015625 143.433594 178.089844 141.609375 C 178.503906 140.910156 179.613281 140.46875 180.261719 141.183594 C 181.199219 142.210938 182.050781 143.300781 182.820312 144.457031 C 184.160156 144.597656 185.5 144.597656 186.839844 144.457031 C 187.125 144.433594 187.382812 144.398438 187.625 144.359375 C 187.386719 143.957031 187.1875 143.542969 187.023438 143.105469 C 186.289062 141.140625 186.128906 138.707031 187.445312 136.941406 C 188.820312 135.097656 191.695312 134.742188 193.703125 135.730469 C 195.832031 136.777344 196.042969 139.082031 195.082031 141.054688 C 194.371094 142.496094 193.433594 143.769531 192.273438 144.875 C 193.296875 145.210938 194.308594 145.175781 195.304688 144.765625 C 194.625 141.582031 196.40625 137.460938 200.296875 138.632812 C 200.847656 138.800781 201.4375 139.242188 201.421875 139.898438 C 201.367188 140.980469 201.132812 142.019531 200.710938 143.015625 C 200.289062 144.015625 199.707031 144.910156 198.964844 145.699219 C 199.183594 145.867188 199.421875 145.988281 199.679688 146.070312 C 200.453125 144.632812 201.371094 143.296875 202.429688 142.054688 C 203.738281 140.574219 205.957031 139.289062 207.5 141.308594 C 208.847656 143.070312 206.398438 145.574219 205.226562 146.660156 C 204.054688 147.746094 202.808594 148.65625 201.300781 148.886719 C 200.40625 150.5 199.632812 152.164062 198.980469 153.886719 C 196.625 160.273438 195.996094 167.105469 194.683594 173.746094 C 194.628906 174.078125 194.46875 174.347656 194.207031 174.558594 C 194.929688 174.589844 195.652344 174.621094 196.375 174.628906 C 197.898438 174.644531 199.429688 174.683594 200.949219 174.804688 C 202.335938 174.886719 203.707031 175.085938 205.0625 175.398438 C 206.859375 168.117188 215.335938 164.46875 219.066406 158.335938 C 223.085938 151.75 224.289062 144.164062 223.699219 136.5625 Z M 223.699219 136.5625 " fill-opacity="1" fill-rule="nonzero"/><path fill="#73a0b1" d="M 197.960938 142.480469 C 198.136719 142.179688 198.273438 141.863281 198.378906 141.535156 C 198.144531 141.808594 198.007812 142.125 197.960938 142.480469 Z M 197.960938 142.480469 " fill-opacity="1" fill-rule="nonzero"/><path fill="#000000" d="M 223.949219 123.378906 C 222.042969 117.859375 218.484375 113.148438 213.074219 110.703125 C 209.550781 109.101562 205.539062 108.683594 201.71875 108.316406 C 197.40625 107.921875 193.082031 107.777344 188.75 107.886719 C 181.90625 108.011719 175.269531 108.640625 169.21875 112.09375 C 163.644531 115.277344 159.972656 120.484375 156.914062 125.953125 C 153.207031 132.597656 152.929688 140.742188 154.121094 148.085938 C 155.203125 154.757812 157.339844 161.503906 163.0625 165.628906 C 165.574219 167.441406 168.476562 168.683594 170.65625 170.921875 C 171.988281 172.285156 172.75 174.320312 173.453125 176.0625 C 173.535156 176.265625 173.65625 176.441406 173.816406 176.585938 C 173.234375 176.804688 172.695312 177.101562 172.203125 177.476562 C 169.796875 179.339844 170.742188 182.621094 173.117188 183.492188 C 172.980469 183.835938 172.871094 184.164062 172.78125 184.433594 C 172.230469 186.148438 172.328125 188.082031 173.492188 189.300781 C 172.558594 190.523438 171.820312 191.957031 171.660156 193.457031 C 171.457031 195.242188 172.328125 196.53125 173.6875 197.28125 C 172.195312 201.035156 173.144531 205.496094 177.089844 207.394531 C 181.488281 209.511719 186.695312 207.804688 191.359375 207.992188 C 195.8125 208.171875 201.484375 209.253906 204.933594 205.703125 C 206.015625 204.59375 206.90625 202.882812 206.648438 201.292969 C 206.433594 199.957031 205.542969 199.203125 204.445312 198.828125 C 205.507812 196.535156 206.40625 194.328125 205.476562 191.941406 C 207.832031 189.835938 207.429688 186.238281 205.828125 183.589844 C 207.183594 183.265625 208.523438 182.773438 209.535156 181.800781 C 210.992188 180.402344 210.058594 178.46875 208.84375 177.324219 C 208.488281 176.992188 208.105469 176.703125 207.691406 176.457031 C 208.253906 173.925781 209.953125 171.910156 211.738281 170.058594 C 213.953125 167.761719 216.421875 165.71875 218.609375 163.390625 C 223.46875 158.21875 225.917969 150.984375 226.492188 144.011719 C 227.0625 136.960938 226.214844 130.082031 223.949219 123.378906 Z M 174.8125 194.71875 C 174.410156 194.378906 174.316406 193.863281 174.582031 193.089844 C 174.9375 192.121094 175.460938 191.253906 176.152344 190.488281 C 180.582031 192.730469 185.882812 192.421875 190.730469 192.496094 C 192.960938 192.53125 195.179688 192.566406 197.421875 192.429688 C 198.976562 192.335938 200.824219 192.207031 202.304688 191.523438 C 202.304688 191.800781 202.382812 192.058594 202.53125 192.292969 C 203.703125 194.101562 202.867188 195.929688 201.96875 197.675781 C 201.859375 197.410156 201.683594 197.199219 201.441406 197.042969 C 201.199219 196.886719 200.9375 196.808594 200.648438 196.816406 C 195.636719 196.839844 190.640625 197.25 185.628906 197.257812 C 183.742188 197.28125 181.867188 197.179688 179.996094 196.945312 C 179.121094 196.828125 177.902344 196.683594 176.988281 196.222656 C 176.910156 195.960938 176.773438 195.738281 176.574219 195.550781 C 176.378906 195.363281 176.148438 195.238281 175.886719 195.175781 L 175.792969 195.152344 C 175.539062 194.84375 175.214844 194.699219 174.8125 194.71875 Z M 203.769531 202.46875 C 203.328125 203.53125 202.585938 204.316406 201.550781 204.824219 C 199.929688 205.570312 197.785156 205.457031 196.054688 205.433594 C 194.066406 205.402344 192.085938 205.210938 190.097656 205.171875 C 186.472656 205.09375 182.769531 206.199219 179.179688 205.257812 C 176.089844 204.445312 175.378906 201.511719 176.121094 198.898438 C 178.597656 199.988281 181.945312 199.945312 184.238281 200.003906 C 189.789062 200.136719 195.320312 199.601562 200.867188 199.578125 C 200.9375 199.578125 201.007812 199.574219 201.078125 199.5625 C 200.882812 200.46875 201.585938 201.230469 202.542969 201.253906 C 203.496094 201.277344 204.167969 201.460938 203.769531 202.46875 Z M 203.769531 189.652344 C 203.617188 188.742188 202.609375 187.96875 201.648438 188.671875 C 200.378906 189.597656 198.347656 189.566406 196.851562 189.65625 C 194.835938 189.78125 192.804688 189.742188 190.785156 189.707031 C 185.90625 189.628906 180.535156 190.0625 176.238281 187.320312 C 175.988281 187.152344 175.714844 187.082031 175.417969 187.113281 C 174.988281 186.390625 175.304688 185.300781 175.765625 184.421875 C 176.222656 184.484375 176.632812 184.371094 176.996094 184.085938 C 180.664062 184.050781 184.304688 183.976562 187.964844 184.007812 C 190.234375 184.027344 192.511719 184.101562 194.769531 184.253906 C 196.132812 184.351562 197.484375 184.554688 198.851562 184.5 C 200.175781 184.445312 201.5 184.328125 202.820312 184.144531 C 202.855469 184.210938 202.894531 184.269531 202.9375 184.328125 C 204.121094 185.867188 205.027344 188.183594 203.773438 189.652344 Z M 207.082031 180.203125 C 206.722656 180.394531 206.347656 180.546875 205.957031 180.660156 C 204.125 181.273438 202.121094 181.46875 200.199219 181.621094 C 197.511719 181.839844 194.859375 181.460938 192.167969 181.335938 C 187.617188 181.128906 183.058594 181.230469 178.503906 181.289062 C 177.605469 181.300781 176.710938 181.304688 175.808594 181.308594 C 175.511719 180.953125 175.132812 180.816406 174.675781 180.902344 C 173.171875 181.097656 173.503906 179.777344 174.527344 179.332031 C 175.777344 178.808594 177.21875 178.707031 178.554688 178.597656 C 179.773438 178.492188 181.003906 178.460938 182.21875 178.367188 C 183.933594 178.238281 185.621094 177.757812 187.316406 177.535156 C 191.003906 177.050781 194.726562 177.339844 198.429688 177.441406 C 201.105469 177.511719 204.617188 177.492188 206.804688 179.253906 C 207.046875 179.4375 207.261719 179.652344 207.445312 179.894531 L 207.445312 179.910156 C 207.421875 179.941406 207.417969 179.964844 207.460938 179.933594 C 207.34375 180.035156 207.21875 180.128906 207.089844 180.210938 Z M 189.78125 146.652344 C 190.488281 147.136719 191.253906 147.503906 192.074219 147.753906 C 192.839844 148 193.621094 148.09375 194.421875 148.03125 C 195.226562 147.96875 195.984375 147.761719 196.703125 147.398438 C 197.1875 147.890625 197.746094 148.269531 198.382812 148.539062 C 196.777344 151.746094 195.546875 155.089844 194.683594 158.570312 C 193.492188 163.398438 192.910156 168.351562 191.949219 173.214844 C 191.890625 173.449219 191.902344 173.683594 191.976562 173.914062 C 192.054688 174.140625 192.183594 174.332031 192.371094 174.488281 C 191.828125 174.472656 191.28125 174.464844 190.734375 174.472656 C 190.382812 174.472656 190.03125 174.5 189.6875 174.523438 L 189.6875 174.492188 C 189.667969 165.578125 188.796875 155.496094 184.542969 147.34375 L 185.394531 147.34375 C 186.878906 147.320312 188.421875 147.253906 189.78125 146.652344 Z M 189.675781 138.628906 C 190.25 137.84375 192.816406 137.609375 192.886719 138.804688 C 192.976562 140.253906 191.199219 141.964844 190.269531 142.875 L 190.082031 143.054688 C 190.007812 142.933594 189.933594 142.792969 189.867188 142.671875 C 189.316406 141.550781 188.84375 139.738281 189.675781 138.628906 Z M 197.960938 142.480469 C 198.007812 142.125 198.144531 141.808594 198.378906 141.535156 C 198.273438 141.863281 198.136719 142.179688 197.960938 142.480469 Z M 219.070312 158.347656 C 215.339844 164.480469 206.867188 168.125 205.066406 175.40625 C 203.714844 175.09375 202.34375 174.898438 200.953125 174.816406 C 199.433594 174.695312 197.90625 174.65625 196.382812 174.640625 C 195.65625 174.640625 194.933594 174.601562 194.210938 174.570312 C 194.476562 174.359375 194.636719 174.089844 194.691406 173.757812 C 196 167.117188 196.628906 160.285156 198.984375 153.898438 C 199.640625 152.175781 200.414062 150.507812 201.304688 148.898438 C 202.808594 148.664062 204.019531 147.789062 205.230469 146.671875 C 206.445312 145.554688 208.851562 143.078125 207.503906 141.320312 C 205.960938 139.300781 203.753906 140.585938 202.4375 142.066406 C 201.375 143.300781 200.457031 144.636719 199.679688 146.070312 C 199.421875 145.988281 199.183594 145.867188 198.964844 145.699219 C 199.707031 144.910156 200.289062 144.015625 200.710938 143.015625 C 201.132812 142.019531 201.367188 140.980469 201.421875 139.898438 C 201.4375 139.242188 200.847656 138.800781 200.296875 138.632812 C 196.40625 137.460938 194.625 141.582031 195.304688 144.765625 C 194.308594 145.175781 193.296875 145.210938 192.273438 144.875 C 193.4375 143.773438 194.378906 142.503906 195.09375 141.066406 C 196.058594 139.089844 195.84375 136.785156 193.714844 135.742188 C 191.707031 134.753906 188.832031 135.109375 187.457031 136.953125 C 186.148438 138.71875 186.300781 141.152344 187.035156 143.117188 C 187.199219 143.550781 187.398438 143.96875 187.636719 144.367188 C 187.398438 144.410156 187.144531 144.441406 186.851562 144.46875 C 185.511719 144.605469 184.171875 144.605469 182.832031 144.46875 C 182.0625 143.3125 181.210938 142.21875 180.273438 141.195312 C 179.625 140.480469 178.515625 140.917969 178.101562 141.621094 C 177.027344 143.449219 177.457031 145.3125 179.289062 146.378906 C 179.890625 146.71875 180.53125 146.953125 181.207031 147.085938 C 183.1875 150.449219 184.410156 154.273438 185.273438 158.046875 C 186.519531 163.488281 186.890625 169.148438 186.898438 174.71875 L 186.898438 174.851562 C 184.804688 175.164062 182.734375 175.578125 180.617188 175.691406 C 179.25 175.769531 177.671875 175.785156 176.167969 176.011719 C 176.25 175.71875 176.230469 175.429688 176.105469 175.152344 C 175.335938 173.238281 174.484375 171.15625 173.164062 169.554688 C 171.070312 167.003906 168.003906 165.570312 165.289062 163.800781 C 158.742188 159.539062 157.011719 151.09375 156.410156 143.824219 C 156.070312 139.953125 156.378906 136.136719 157.34375 132.371094 C 158.265625 128.839844 160.175781 125.523438 162.226562 122.53125 C 165.6875 117.476562 170.46875 113.820312 176.359375 112.070312 C 179.792969 111.042969 183.339844 110.847656 186.898438 110.726562 C 191.320312 110.554688 195.738281 110.632812 200.152344 110.964844 C 207.0625 111.519531 214.09375 112.578125 218.429688 118.546875 C 222.117188 123.601562 223.226562 130.449219 223.699219 136.5625 C 224.289062 144.164062 223.085938 151.75 219.070312 158.347656 Z M 219.070312 158.347656 " fill-opacity="1" fill-rule="nonzero"/><path fill="#000000" d="M 181.871094 88.527344 L 181.871094 96.375 C 181.871094 98.175781 184.65625 97.945312 184.65625 96.160156 L 184.65625 88.3125 C 184.65625 86.515625 181.871094 86.738281 181.871094 88.527344 Z M 181.871094 88.527344 " fill-opacity="1" fill-rule="nonzero"/><path fill="#000000" d="M 156.167969 97.832031 C 156.117188 96.035156 153.332031 96.261719 153.382812 98.046875 C 153.433594 99.875 153.980469 101.582031 154.691406 103.261719 C 155.359375 104.828125 156.121094 106.355469 156.175781 108.09375 C 156.230469 109.890625 159.015625 109.664062 158.960938 107.878906 C 158.847656 104.300781 156.265625 101.414062 156.167969 97.832031 Z M 156.167969 97.832031 " fill-opacity="1" fill-rule="nonzero"/><path fill="#000000" d="M 138.054688 139.574219 C 136.410156 136.960938 133.789062 135.289062 131.914062 132.878906 C 130.808594 131.464844 128.488281 133.019531 129.59375 134.449219 C 131.472656 136.855469 134.105469 138.542969 135.742188 141.148438 C 136.699219 142.664062 139.011719 141.097656 138.054688 139.574219 Z M 138.054688 139.574219 " fill-opacity="1" fill-rule="nonzero"/><path fill="#000000" d="M 220.46875 93.992188 C 218.160156 95.726562 215.792969 97.503906 214.414062 100.109375 C 213.570312 101.703125 216.078125 102.9375 216.914062 101.351562 C 218.054688 99.195312 220.121094 97.738281 222.03125 96.304688 C 223.46875 95.238281 221.914062 92.910156 220.46875 93.992188 Z M 220.46875 93.992188 " fill-opacity="1" fill-rule="nonzero"/><path fill="#000000" d="M 150.109375 165.539062 C 146.988281 162.8125 144.285156 168.445312 142.277344 169.894531 C 140.8125 170.941406 142.371094 173.261719 143.847656 172.210938 C 144.863281 171.480469 145.636719 170.460938 146.441406 169.523438 C 146.871094 168.996094 147.339844 168.503906 147.84375 168.050781 C 148.105469 167.839844 148.453125 167.789062 148.285156 167.636719 C 149.625 168.824219 151.464844 166.722656 150.109375 165.539062 Z M 150.109375 165.539062 " fill-opacity="1" fill-rule="nonzero"/><g fill="#000000" fill-opacity="1"><g transform="translate(88.498951, 256.335155)"><g><path d="M 24.09375 -36.296875 C 25.082031 -36.160156 25.875 -35.789062 26.46875 -35.1875 C 27.070312 -34.59375 27.476562 -33.890625 27.6875 -33.078125 C 27.894531 -32.265625 27.894531 -31.472656 27.6875 -30.703125 C 27.476562 -29.929688 27.070312 -29.320312 26.46875 -28.875 C 25.875 -28.4375 25.082031 -28.269531 24.09375 -28.375 C 22.476562 -28.582031 20.789062 -28.742188 19.03125 -28.859375 C 18.78125 -25.015625 18.539062 -21.171875 18.3125 -17.328125 C 18.082031 -13.492188 17.84375 -9.640625 17.59375 -5.765625 C 17.5625 -4.773438 17.253906 -3.972656 16.671875 -3.359375 C 16.085938 -2.742188 15.398438 -2.328125 14.609375 -2.109375 C 13.816406 -1.898438 13.03125 -1.898438 12.25 -2.109375 C 11.476562 -2.328125 10.847656 -2.734375 10.359375 -3.328125 C 9.867188 -3.929688 9.640625 -4.742188 9.671875 -5.765625 C 9.921875 -9.640625 10.160156 -13.503906 10.390625 -17.359375 C 10.617188 -21.210938 10.851562 -25.078125 11.09375 -28.953125 C 9.507812 -28.890625 7.960938 -28.785156 6.453125 -28.640625 C 5.429688 -28.535156 4.609375 -28.71875 3.984375 -29.1875 C 3.367188 -29.664062 2.960938 -30.289062 2.765625 -31.0625 C 2.578125 -31.84375 2.585938 -32.628906 2.796875 -33.421875 C 3.015625 -34.210938 3.421875 -34.90625 4.015625 -35.5 C 4.617188 -36.101562 5.429688 -36.457031 6.453125 -36.5625 C 12.328125 -37.164062 18.207031 -37.078125 24.09375 -36.296875 Z M 24.09375 -36.296875 "/></g></g></g><g fill="#000000" fill-opacity="1"><g transform="translate(118.988088, 256.335155)"><g><path d="M 27.375 -23.09375 C 27.476562 -19.601562 27.566406 -16.097656 27.640625 -12.578125 C 27.710938 -9.054688 27.800781 -5.535156 27.90625 -2.015625 C 27.9375 -0.984375 27.6875 -0.160156 27.15625 0.453125 C 26.632812 1.066406 25.984375 1.46875 25.203125 1.65625 C 24.429688 1.851562 23.648438 1.851562 22.859375 1.65625 C 22.066406 1.46875 21.394531 1.066406 20.84375 0.453125 C 20.300781 -0.160156 20.007812 -0.984375 19.96875 -2.015625 C 19.9375 -3.066406 19.910156 -4.113281 19.890625 -5.15625 C 19.878906 -6.195312 19.851562 -7.242188 19.8125 -8.296875 L 11.890625 -8.609375 C 11.609375 -7.273438 11.34375 -5.945312 11.09375 -4.625 C 10.851562 -3.300781 10.609375 -1.972656 10.359375 -0.640625 C 10.179688 0.378906 9.785156 1.117188 9.171875 1.578125 C 8.554688 2.035156 7.84375 2.253906 7.03125 2.234375 C 6.21875 2.222656 5.445312 2.015625 4.71875 1.609375 C 4 1.203125 3.4375 0.628906 3.03125 -0.109375 C 2.632812 -0.847656 2.519531 -1.726562 2.6875 -2.75 C 3.320312 -6.195312 4.035156 -9.613281 4.828125 -13 C 5.628906 -16.382812 6.75 -19.675781 8.1875 -22.875 C 8.894531 -24.46875 9.796875 -26.175781 10.890625 -28 C 11.984375 -29.832031 13.222656 -31.515625 14.609375 -33.046875 C 16.003906 -34.585938 17.546875 -35.707031 19.234375 -36.40625 C 20.816406 -37.070312 22.101562 -37.191406 23.09375 -36.765625 C 24.082031 -36.347656 24.859375 -35.59375 25.421875 -34.5 C 25.984375 -33.414062 26.394531 -32.160156 26.65625 -30.734375 C 26.925781 -29.304688 27.101562 -27.90625 27.1875 -26.53125 C 27.269531 -25.15625 27.332031 -24.007812 27.375 -23.09375 Z M 14.0625 -16.4375 C 15.007812 -16.394531 15.941406 -16.359375 16.859375 -16.328125 C 17.773438 -16.296875 18.691406 -16.257812 19.609375 -16.21875 C 19.566406 -17.382812 19.535156 -18.539062 19.515625 -19.6875 C 19.503906 -20.832031 19.484375 -21.96875 19.453125 -23.09375 C 19.410156 -23.550781 19.390625 -24.035156 19.390625 -24.546875 C 19.390625 -25.054688 19.390625 -25.578125 19.390625 -26.109375 C 18.796875 -25.398438 18.285156 -24.726562 17.859375 -24.09375 C 17.148438 -23.039062 16.503906 -21.941406 15.921875 -20.796875 C 15.347656 -19.648438 14.832031 -18.492188 14.375 -17.328125 C 14.34375 -17.191406 14.296875 -17.039062 14.234375 -16.875 C 14.179688 -16.71875 14.125 -16.570312 14.0625 -16.4375 Z M 14.0625 -16.4375 "/></g></g></g><g fill="#000000" fill-opacity="1"><g transform="translate(149.530068, 256.335155)"><g><path d="M 19.703125 -22.828125 C 21.679688 -21.492188 23.242188 -19.75 24.390625 -17.59375 C 25.535156 -15.445312 25.984375 -13.160156 25.734375 -10.734375 C 25.484375 -8.617188 24.757812 -6.800781 23.5625 -5.28125 C 22.363281 -3.769531 20.894531 -2.585938 19.15625 -1.734375 C 17.414062 -0.890625 15.566406 -0.425781 13.609375 -0.34375 C 11.648438 -0.257812 9.769531 -0.585938 7.96875 -1.328125 C 6.175781 -2.066406 4.664062 -3.265625 3.4375 -4.921875 C 2.800781 -5.722656 2.535156 -6.503906 2.640625 -7.265625 C 2.742188 -8.023438 3.066406 -8.6875 3.609375 -9.25 C 4.160156 -9.8125 4.84375 -10.207031 5.65625 -10.4375 C 6.46875 -10.664062 7.285156 -10.671875 8.109375 -10.453125 C 8.941406 -10.242188 9.65625 -9.738281 10.25 -8.9375 C 10.53125 -8.539062 11.054688 -8.316406 11.828125 -8.265625 C 12.609375 -8.210938 13.382812 -8.25 14.15625 -8.375 C 14.9375 -8.5 15.484375 -8.628906 15.796875 -8.765625 C 16.535156 -9.117188 17.085938 -9.640625 17.453125 -10.328125 C 17.828125 -11.015625 17.960938 -11.765625 17.859375 -12.578125 C 17.753906 -13.566406 17.398438 -14.375 16.796875 -15 C 16.203125 -15.632812 15.488281 -16.191406 14.65625 -16.671875 C 13.832031 -17.148438 13 -17.609375 12.15625 -18.046875 C 11.3125 -18.484375 10.570312 -18.96875 9.9375 -19.5 C 8.175781 -21.050781 7.097656 -22.734375 6.703125 -24.546875 C 6.316406 -26.359375 6.445312 -28.171875 7.09375 -29.984375 C 7.75 -31.796875 8.765625 -33.441406 10.140625 -34.921875 C 11.515625 -36.410156 13.082031 -37.554688 14.84375 -38.359375 C 15.800781 -38.816406 16.679688 -38.941406 17.484375 -38.734375 C 18.296875 -38.523438 18.992188 -38.128906 19.578125 -37.546875 C 20.160156 -36.960938 20.554688 -36.28125 20.765625 -35.5 C 20.972656 -34.726562 20.9375 -33.984375 20.65625 -33.265625 C 20.375 -32.546875 19.773438 -31.972656 18.859375 -31.546875 C 18.265625 -31.265625 17.570312 -30.875 16.78125 -30.375 C 15.988281 -29.882812 15.335938 -29.296875 14.828125 -28.609375 C 14.316406 -27.921875 14.21875 -27.15625 14.53125 -26.3125 C 14.707031 -25.75 15.117188 -25.265625 15.765625 -24.859375 C 16.421875 -24.453125 17.117188 -24.085938 17.859375 -23.765625 C 18.597656 -23.453125 19.210938 -23.140625 19.703125 -22.828125 Z M 19.703125 -22.828125 "/></g></g></g><g fill="#000000" fill-opacity="1"><g transform="translate(177.958409, 256.335155)"><g><path d="M 26.421875 -33.296875 C 25.367188 -31.535156 24.234375 -29.769531 23.015625 -28 C 21.796875 -26.238281 20.394531 -24.671875 18.8125 -23.296875 C 22.195312 -19.460938 24.117188 -14.882812 24.578125 -9.5625 C 24.640625 -8.539062 24.429688 -7.726562 23.953125 -7.125 C 23.484375 -6.53125 22.867188 -6.125 22.109375 -5.90625 C 21.359375 -5.695312 20.578125 -5.695312 19.765625 -5.90625 C 18.953125 -6.125 18.242188 -6.539062 17.640625 -7.15625 C 17.046875 -7.769531 16.710938 -8.570312 16.640625 -9.5625 C 16.460938 -11.425781 15.953125 -13.210938 15.109375 -14.921875 C 14.265625 -16.628906 13.15625 -18.101562 11.78125 -19.34375 C 11.425781 -14.90625 10.953125 -10.484375 10.359375 -6.078125 C 10.253906 -5.367188 9.925781 -4.773438 9.375 -4.296875 C 8.832031 -3.828125 8.195312 -3.503906 7.46875 -3.328125 C 6.75 -3.148438 6.070312 -3.148438 5.4375 -3.328125 C 4.3125 -3.648438 3.535156 -4.273438 3.109375 -5.203125 C 2.691406 -6.140625 2.550781 -7.132812 2.6875 -8.1875 C 3.363281 -13.1875 3.867188 -18.207031 4.203125 -23.25 C 4.535156 -28.289062 4.71875 -33.347656 4.75 -38.421875 C 4.75 -39.441406 5.015625 -40.25 5.546875 -40.84375 C 6.078125 -41.445312 6.738281 -41.851562 7.53125 -42.0625 C 8.320312 -42.269531 9.113281 -42.269531 9.90625 -42.0625 C 10.695312 -41.851562 11.359375 -41.445312 11.890625 -40.84375 C 12.421875 -40.25 12.6875 -39.441406 12.6875 -38.421875 C 12.644531 -36.691406 12.609375 -34.972656 12.578125 -33.265625 C 12.546875 -31.554688 12.472656 -29.835938 12.359375 -28.109375 C 13.421875 -28.710938 14.390625 -29.554688 15.265625 -30.640625 C 16.148438 -31.734375 16.941406 -32.878906 17.640625 -34.078125 C 18.347656 -35.273438 18.984375 -36.351562 19.546875 -37.3125 C 20.078125 -38.1875 20.71875 -38.753906 21.46875 -39.015625 C 22.226562 -39.285156 23.003906 -39.304688 23.796875 -39.078125 C 24.597656 -38.847656 25.285156 -38.453125 25.859375 -37.890625 C 26.441406 -37.328125 26.800781 -36.640625 26.9375 -35.828125 C 27.082031 -35.015625 26.910156 -34.171875 26.421875 -33.296875 Z M 26.421875 -33.296875 "/></g></g></g><g fill="#000000" fill-opacity="1"><g transform="translate(207.549248, 256.335155)"><g><path d="M 5.015625 -32.546875 C 5.117188 -33.535156 5.46875 -34.328125 6.0625 -34.921875 C 6.664062 -35.523438 7.375 -35.929688 8.1875 -36.140625 C 9 -36.359375 9.789062 -36.367188 10.5625 -36.171875 C 11.34375 -35.972656 11.960938 -35.566406 12.421875 -34.953125 C 12.878906 -34.335938 13.054688 -33.535156 12.953125 -32.546875 C 11.929688 -23.003906 11.132812 -13.441406 10.5625 -3.859375 C 10.5 -2.835938 10.179688 -2.015625 9.609375 -1.390625 C 9.046875 -0.773438 8.367188 -0.367188 7.578125 -0.171875 C 6.785156 0.015625 6 0.015625 5.21875 -0.171875 C 4.445312 -0.367188 3.804688 -0.773438 3.296875 -1.390625 C 2.785156 -2.015625 2.566406 -2.835938 2.640625 -3.859375 C 3.203125 -13.441406 3.992188 -23.003906 5.015625 -32.546875 Z M 5.015625 -32.546875 "/></g></g></g><g fill="#000000" fill-opacity="1"><g transform="translate(223.190129, 256.335155)"><g><path d="M 23.890625 -36.671875 C 24.910156 -36.816406 25.789062 -36.675781 26.53125 -36.25 C 27.269531 -35.820312 27.84375 -35.25 28.25 -34.53125 C 28.65625 -33.8125 28.863281 -33.054688 28.875 -32.265625 C 28.894531 -31.472656 28.675781 -30.773438 28.21875 -30.171875 C 27.757812 -29.578125 27.019531 -29.191406 26 -29.015625 C 24.195312 -28.734375 22.394531 -28.453125 20.59375 -28.171875 C 18.800781 -27.890625 17.007812 -27.601562 15.21875 -27.3125 C 15.1875 -27.3125 15.035156 -27.285156 14.765625 -27.234375 C 14.503906 -27.179688 14.210938 -27.140625 13.890625 -27.109375 C 13.890625 -26.859375 13.875 -26.679688 13.84375 -26.578125 C 13.914062 -25.765625 13.863281 -24.910156 13.6875 -24.015625 C 13.507812 -23.117188 13.367188 -22.265625 13.265625 -21.453125 C 13.265625 -21.316406 13.253906 -21.1875 13.234375 -21.0625 C 13.222656 -20.9375 13.21875 -20.820312 13.21875 -20.71875 C 15.925781 -21.132812 18.617188 -21.363281 21.296875 -21.40625 C 22.316406 -21.40625 23.132812 -21.148438 23.75 -20.640625 C 24.363281 -20.128906 24.769531 -19.472656 24.96875 -18.671875 C 25.164062 -17.878906 25.164062 -17.085938 24.96875 -16.296875 C 24.769531 -15.503906 24.363281 -14.84375 23.75 -14.3125 C 23.132812 -13.789062 22.316406 -13.507812 21.296875 -13.46875 C 18.234375 -13.4375 15.1875 -13.101562 12.15625 -12.46875 C 11.875 -10.394531 11.582031 -8.304688 11.28125 -6.203125 C 10.976562 -4.109375 10.671875 -2.023438 10.359375 0.046875 C 10.179688 1.035156 9.789062 1.757812 9.1875 2.21875 C 8.59375 2.675781 7.898438 2.90625 7.109375 2.90625 C 6.316406 2.90625 5.550781 2.691406 4.8125 2.265625 C 4.070312 1.847656 3.5 1.269531 3.09375 0.53125 C 2.6875 -0.207031 2.550781 -1.070312 2.6875 -2.0625 C 3.394531 -6.46875 4.019531 -10.867188 4.5625 -15.265625 C 5.113281 -19.671875 5.632812 -24.078125 6.125 -28.484375 C 6.34375 -30.390625 6.890625 -31.832031 7.765625 -32.8125 C 8.648438 -33.800781 10.039062 -34.453125 11.9375 -34.765625 C 13.914062 -35.085938 15.90625 -35.40625 17.90625 -35.71875 C 19.914062 -36.039062 21.910156 -36.359375 23.890625 -36.671875 Z M 23.890625 -36.671875 "/></g></g></g><g fill="#000000" fill-opacity="1"><g transform="translate(254.683233, 256.335155)"><g><path d="M 21.34375 -36.140625 C 21.445312 -37.160156 21.804688 -37.925781 22.421875 -38.4375 C 23.046875 -38.945312 23.753906 -39.238281 24.546875 -39.3125 C 25.335938 -39.382812 26.109375 -39.242188 26.859375 -38.890625 C 27.617188 -38.535156 28.21875 -38.003906 28.65625 -37.296875 C 29.101562 -36.597656 29.253906 -35.753906 29.109375 -34.765625 C 28.828125 -32.484375 28.5625 -30.0625 28.3125 -27.5 C 28.070312 -24.945312 27.710938 -22.382812 27.234375 -19.8125 C 26.765625 -17.238281 26.078125 -14.789062 25.171875 -12.46875 C 24.273438 -10.144531 23.050781 -8.054688 21.5 -6.203125 C 19.957031 -4.359375 17.96875 -2.875 15.53125 -1.75 C 14.613281 -1.320312 13.773438 -1.226562 13.015625 -1.46875 C 12.265625 -1.71875 11.660156 -2.171875 11.203125 -2.828125 C 10.742188 -3.484375 10.46875 -4.222656 10.375 -5.046875 C 10.289062 -5.867188 10.429688 -6.660156 10.796875 -7.421875 C 11.171875 -8.179688 11.816406 -8.753906 12.734375 -9.140625 C 13.929688 -9.703125 14.90625 -10.457031 15.65625 -11.40625 C 16.414062 -12.363281 17.023438 -13.421875 17.484375 -14.578125 C 16.046875 -14.085938 14.578125 -13.847656 13.078125 -13.859375 C 11.578125 -13.878906 10.109375 -14.257812 8.671875 -15 C 6.765625 -15.957031 5.34375 -17.296875 4.40625 -19.015625 C 3.476562 -20.742188 2.925781 -22.640625 2.75 -24.703125 C 2.570312 -26.765625 2.664062 -28.828125 3.03125 -30.890625 C 3.40625 -32.953125 3.960938 -34.8125 4.703125 -36.46875 C 5.085938 -37.414062 5.648438 -38.054688 6.390625 -38.390625 C 7.128906 -38.722656 7.894531 -38.816406 8.6875 -38.671875 C 9.476562 -38.535156 10.191406 -38.203125 10.828125 -37.671875 C 11.460938 -37.148438 11.894531 -36.5 12.125 -35.71875 C 12.351562 -34.945312 12.273438 -34.085938 11.890625 -33.140625 C 11.609375 -32.535156 11.328125 -31.722656 11.046875 -30.703125 C 10.765625 -29.679688 10.5625 -28.601562 10.4375 -27.46875 C 10.3125 -26.34375 10.351562 -25.304688 10.5625 -24.359375 C 10.78125 -23.410156 11.273438 -22.6875 12.046875 -22.1875 C 12.753906 -21.695312 13.519531 -21.539062 14.34375 -21.71875 C 15.175781 -21.894531 15.96875 -22.273438 16.71875 -22.859375 C 17.476562 -23.441406 18.15625 -24.101562 18.75 -24.84375 C 19.351562 -25.582031 19.832031 -26.25 20.1875 -26.84375 C 20.394531 -28.394531 20.585938 -29.941406 20.765625 -31.484375 C 20.941406 -33.035156 21.132812 -34.585938 21.34375 -36.140625 Z M 21.34375 -36.140625 "/></g></g></g><g fill="#fdbe10" fill-opacity="1"><g transform="translate(98.398746, 285.44922)"><g><path d="M 1.890625 -10.734375 L 4.59375 -10.71875 C 6.007812 -10.71875 7.253906 -10.207031 8.328125 -9.1875 C 9.398438 -8.164062 9.9375 -6.910156 9.9375 -5.421875 C 9.9375 -3.941406 9.410156 -2.671875 8.359375 -1.609375 C 7.304688 -0.546875 6.035156 -0.015625 4.546875 -0.015625 L 1.875 -0.015625 C 1.28125 -0.015625 0.910156 -0.132812 0.765625 -0.375 C 0.640625 -0.582031 0.578125 -0.894531 0.578125 -1.3125 L 0.578125 -9.453125 C 0.578125 -9.679688 0.582031 -9.847656 0.59375 -9.953125 C 0.613281 -10.066406 0.664062 -10.195312 0.75 -10.34375 C 0.882812 -10.601562 1.265625 -10.734375 1.890625 -10.734375 Z M 4.59375 -2.609375 C 5.289062 -2.609375 5.921875 -2.867188 6.484375 -3.390625 C 7.054688 -3.910156 7.34375 -4.5625 7.34375 -5.34375 C 7.34375 -6.132812 7.066406 -6.796875 6.515625 -7.328125 C 5.960938 -7.859375 5.316406 -8.125 4.578125 -8.125 L 3.171875 -8.125 L 3.171875 -2.609375 Z M 4.59375 -2.609375 "/></g></g></g><g fill="#fdbe10" fill-opacity="1"><g transform="translate(110.157982, 285.44922)"><g><path d="M 6.765625 -9.953125 L 10.71875 -1.796875 C 10.882812 -1.460938 10.96875 -1.210938 10.96875 -1.046875 C 10.96875 -0.703125 10.6875 -0.390625 10.125 -0.109375 C 9.789062 0.0546875 9.523438 0.140625 9.328125 0.140625 C 9.140625 0.140625 8.984375 0.0976562 8.859375 0.015625 C 8.742188 -0.0664062 8.660156 -0.15625 8.609375 -0.25 C 8.554688 -0.351562 8.476562 -0.503906 8.375 -0.703125 L 7.625 -2.28125 L 3.5625 -2.28125 L 2.8125 -0.703125 C 2.707031 -0.503906 2.628906 -0.359375 2.578125 -0.265625 C 2.523438 -0.179688 2.4375 -0.09375 2.3125 0 C 2.195312 0.0820312 2.039062 0.125 1.84375 0.125 C 1.65625 0.125 1.394531 0.046875 1.0625 -0.109375 C 0.5 -0.390625 0.21875 -0.703125 0.21875 -1.046875 C 0.21875 -1.210938 0.300781 -1.460938 0.46875 -1.796875 L 4.421875 -9.96875 C 4.523438 -10.195312 4.6875 -10.378906 4.90625 -10.515625 C 5.125 -10.648438 5.351562 -10.71875 5.59375 -10.71875 C 6.125 -10.71875 6.515625 -10.460938 6.765625 -9.953125 Z M 5.59375 -6.453125 L 4.625 -4.453125 L 6.5625 -4.453125 Z M 5.59375 -6.453125 "/></g></g></g><g fill="#fdbe10" fill-opacity="1"><g transform="translate(122.809341, 285.44922)"><g><path d="M 0.578125 -9.4375 C 0.578125 -9.65625 0.582031 -9.820312 0.59375 -9.9375 C 0.613281 -10.050781 0.664062 -10.179688 0.75 -10.328125 C 0.882812 -10.585938 1.265625 -10.71875 1.890625 -10.71875 C 2.566406 -10.71875 2.96875 -10.535156 3.09375 -10.171875 C 3.144531 -10.015625 3.171875 -9.765625 3.171875 -9.421875 L 3.171875 -1.28125 C 3.171875 -1.050781 3.160156 -0.878906 3.140625 -0.765625 C 3.128906 -0.660156 3.085938 -0.535156 3.015625 -0.390625 C 2.878906 -0.128906 2.5 0 1.875 0 C 1.1875 0 0.785156 -0.1875 0.671875 -0.5625 C 0.609375 -0.71875 0.578125 -0.960938 0.578125 -1.296875 Z M 0.578125 -9.4375 "/></g></g></g><g fill="#fdbe10" fill-opacity="1"><g transform="translate(128.031197, 285.44922)"><g><path d="M 3.171875 -2.171875 L 7.15625 -2.171875 C 7.476562 -2.171875 7.710938 -2.128906 7.859375 -2.046875 C 8.003906 -1.972656 8.097656 -1.859375 8.140625 -1.703125 C 8.191406 -1.554688 8.21875 -1.351562 8.21875 -1.09375 C 8.21875 -0.832031 8.191406 -0.625 8.140625 -0.46875 C 8.097656 -0.3125 8.015625 -0.203125 7.890625 -0.140625 C 7.710938 -0.046875 7.460938 0 7.140625 0 L 1.875 0 C 1.1875 0 0.785156 -0.1875 0.671875 -0.5625 C 0.609375 -0.71875 0.578125 -0.960938 0.578125 -1.296875 L 0.578125 -9.4375 C 0.578125 -9.65625 0.582031 -9.820312 0.59375 -9.9375 C 0.613281 -10.050781 0.664062 -10.179688 0.75 -10.328125 C 0.882812 -10.585938 1.265625 -10.71875 1.890625 -10.71875 C 2.566406 -10.71875 2.96875 -10.535156 3.09375 -10.171875 C 3.144531 -10.015625 3.171875 -9.765625 3.171875 -9.421875 Z M 3.171875 -2.171875 "/></g></g></g><g fill="#fdbe10" fill-opacity="1"><g transform="translate(138.079301, 285.44922)"><g><path d="M 9.09375 -10.515625 C 9.570312 -10.179688 9.8125 -9.859375 9.8125 -9.546875 C 9.8125 -9.359375 9.703125 -9.101562 9.484375 -8.78125 L 6.3125 -4.046875 L 6.3125 -1.25 C 6.3125 -1.03125 6.304688 -0.863281 6.296875 -0.75 C 6.285156 -0.632812 6.238281 -0.503906 6.15625 -0.359375 C 6.082031 -0.210938 5.953125 -0.109375 5.765625 -0.046875 C 5.578125 0.00390625 5.328125 0.03125 5.015625 0.03125 C 4.703125 0.03125 4.453125 0.00390625 4.265625 -0.046875 C 4.085938 -0.109375 3.957031 -0.210938 3.875 -0.359375 C 3.800781 -0.515625 3.753906 -0.648438 3.734375 -0.765625 C 3.722656 -0.878906 3.71875 -1.050781 3.71875 -1.28125 L 3.71875 -4.046875 L 0.5625 -8.78125 C 0.332031 -9.101562 0.21875 -9.359375 0.21875 -9.546875 C 0.21875 -9.859375 0.429688 -10.15625 0.859375 -10.4375 C 1.285156 -10.726562 1.59375 -10.875 1.78125 -10.875 C 1.96875 -10.875 2.113281 -10.835938 2.21875 -10.765625 C 2.382812 -10.660156 2.5625 -10.460938 2.75 -10.171875 L 5.015625 -6.53125 L 7.28125 -10.171875 C 7.46875 -10.460938 7.628906 -10.648438 7.765625 -10.734375 C 7.898438 -10.828125 8.054688 -10.875 8.234375 -10.875 C 8.421875 -10.875 8.707031 -10.753906 9.09375 -10.515625 Z M 9.09375 -10.515625 "/></g></g></g><g fill="#fdbe10" fill-opacity="1"><g transform="translate(149.575291, 285.44922)"><g/></g></g><g fill="#fdbe10" fill-opacity="1"><g transform="translate(154.738647, 285.44922)"><g><path d="M 11.984375 -10.3125 C 12.054688 -10.164062 12.097656 -10.03125 12.109375 -9.90625 C 12.128906 -9.789062 12.140625 -9.625 12.140625 -9.40625 L 12.140625 -1.28125 C 12.140625 -0.613281 11.953125 -0.222656 11.578125 -0.109375 C 11.398438 -0.046875 11.164062 -0.015625 10.875 -0.015625 C 10.59375 -0.015625 10.367188 -0.0351562 10.203125 -0.078125 C 10.035156 -0.128906 9.910156 -0.1875 9.828125 -0.25 C 9.742188 -0.320312 9.675781 -0.425781 9.625 -0.5625 C 9.570312 -0.71875 9.546875 -0.96875 9.546875 -1.3125 L 9.546875 -6.21875 C 9.304688 -5.914062 8.953125 -5.429688 8.484375 -4.765625 C 8.015625 -4.109375 7.71875 -3.695312 7.59375 -3.53125 C 7.46875 -3.375 7.378906 -3.257812 7.328125 -3.1875 C 7.273438 -3.125 7.15625 -3.035156 6.96875 -2.921875 C 6.78125 -2.816406 6.578125 -2.765625 6.359375 -2.765625 C 6.140625 -2.765625 5.9375 -2.816406 5.75 -2.921875 C 5.570312 -3.023438 5.445312 -3.125 5.375 -3.21875 L 5.25 -3.375 C 5.050781 -3.625 4.664062 -4.144531 4.09375 -4.9375 C 3.519531 -5.726562 3.207031 -6.15625 3.15625 -6.21875 L 3.15625 -1.28125 C 3.15625 -1.0625 3.144531 -0.894531 3.125 -0.78125 C 3.113281 -0.664062 3.070312 -0.539062 3 -0.40625 C 2.851562 -0.144531 2.472656 -0.015625 1.859375 -0.015625 C 1.265625 -0.015625 0.894531 -0.144531 0.75 -0.40625 C 0.664062 -0.539062 0.613281 -0.664062 0.59375 -0.78125 C 0.582031 -0.90625 0.578125 -1.082031 0.578125 -1.3125 L 0.578125 -9.4375 C 0.578125 -9.65625 0.582031 -9.820312 0.59375 -9.9375 C 0.613281 -10.050781 0.664062 -10.179688 0.75 -10.328125 C 0.894531 -10.578125 1.273438 -10.703125 1.890625 -10.703125 C 2.148438 -10.703125 2.375 -10.671875 2.5625 -10.609375 C 2.757812 -10.546875 2.882812 -10.476562 2.9375 -10.40625 L 3.03125 -10.328125 L 6.34375 -5.96875 C 8 -8.15625 9.109375 -9.601562 9.671875 -10.3125 C 9.835938 -10.570312 10.226562 -10.703125 10.84375 -10.703125 C 11.457031 -10.703125 11.835938 -10.570312 11.984375 -10.3125 Z M 11.984375 -10.3125 "/></g></g></g><g fill="#fdbe10" fill-opacity="1"><g transform="translate(168.925635, 285.44922)"><g><path d="M 6.765625 -9.953125 L 10.71875 -1.796875 C 10.882812 -1.460938 10.96875 -1.210938 10.96875 -1.046875 C 10.96875 -0.703125 10.6875 -0.390625 10.125 -0.109375 C 9.789062 0.0546875 9.523438 0.140625 9.328125 0.140625 C 9.140625 0.140625 8.984375 0.0976562 8.859375 0.015625 C 8.742188 -0.0664062 8.660156 -0.15625 8.609375 -0.25 C 8.554688 -0.351562 8.476562 -0.503906 8.375 -0.703125 L 7.625 -2.28125 L 3.5625 -2.28125 L 2.8125 -0.703125 C 2.707031 -0.503906 2.628906 -0.359375 2.578125 -0.265625 C 2.523438 -0.179688 2.4375 -0.09375 2.3125 0 C 2.195312 0.0820312 2.039062 0.125 1.84375 0.125 C 1.65625 0.125 1.394531 0.046875 1.0625 -0.109375 C 0.5 -0.390625 0.21875 -0.703125 0.21875 -1.046875 C 0.21875 -1.210938 0.300781 -1.460938 0.46875 -1.796875 L 4.421875 -9.96875 C 4.523438 -10.195312 4.6875 -10.378906 4.90625 -10.515625 C 5.125 -10.648438 5.351562 -10.71875 5.59375 -10.71875 C 6.125 -10.71875 6.515625 -10.460938 6.765625 -9.953125 Z M 5.59375 -6.453125 L 4.625 -4.453125 L 6.5625 -4.453125 Z M 5.59375 -6.453125 "/></g></g></g><g fill="#fdbe10" fill-opacity="1"><g transform="translate(181.576997, 285.44922)"><g><path d="M 7.515625 -10.265625 C 7.609375 -10.441406 7.742188 -10.554688 7.921875 -10.609375 C 8.109375 -10.671875 8.335938 -10.703125 8.609375 -10.703125 C 8.890625 -10.703125 9.113281 -10.675781 9.28125 -10.625 C 9.457031 -10.582031 9.585938 -10.523438 9.671875 -10.453125 C 9.753906 -10.390625 9.816406 -10.289062 9.859375 -10.15625 C 9.910156 -10 9.9375 -9.75 9.9375 -9.40625 L 9.9375 -1.28125 C 9.9375 -1.050781 9.929688 -0.878906 9.921875 -0.765625 C 9.910156 -0.660156 9.863281 -0.535156 9.78125 -0.390625 C 9.644531 -0.128906 9.265625 0 8.640625 0 C 8.265625 0 8.003906 -0.0234375 7.859375 -0.078125 C 7.710938 -0.140625 7.585938 -0.234375 7.484375 -0.359375 C 5.296875 -3.285156 3.851562 -5.195312 3.15625 -6.09375 L 3.15625 -1.28125 C 3.15625 -1.050781 3.144531 -0.878906 3.125 -0.765625 C 3.113281 -0.660156 3.070312 -0.535156 3 -0.390625 C 2.863281 -0.128906 2.484375 0 1.859375 0 C 1.253906 0 0.882812 -0.128906 0.75 -0.390625 C 0.664062 -0.535156 0.613281 -0.664062 0.59375 -0.78125 C 0.582031 -0.90625 0.578125 -1.078125 0.578125 -1.296875 L 0.578125 -9.46875 C 0.578125 -9.832031 0.625 -10.097656 0.71875 -10.265625 C 0.8125 -10.441406 0.953125 -10.554688 1.140625 -10.609375 C 1.328125 -10.671875 1.566406 -10.703125 1.859375 -10.703125 C 2.148438 -10.703125 2.378906 -10.675781 2.546875 -10.625 C 2.722656 -10.570312 2.84375 -10.507812 2.90625 -10.4375 C 2.945312 -10.40625 3.0625 -10.28125 3.25 -10.0625 C 5.300781 -7.257812 6.675781 -5.410156 7.375 -4.515625 L 7.375 -9.46875 C 7.375 -9.832031 7.421875 -10.097656 7.515625 -10.265625 Z M 7.515625 -10.265625 "/></g></g></g><g fill="#fdbe10" fill-opacity="1"><g transform="translate(193.570233, 285.44922)"><g><path d="M 6.765625 -9.953125 L 10.71875 -1.796875 C 10.882812 -1.460938 10.96875 -1.210938 10.96875 -1.046875 C 10.96875 -0.703125 10.6875 -0.390625 10.125 -0.109375 C 9.789062 0.0546875 9.523438 0.140625 9.328125 0.140625 C 9.140625 0.140625 8.984375 0.0976562 8.859375 0.015625 C 8.742188 -0.0664062 8.660156 -0.15625 8.609375 -0.25 C 8.554688 -0.351562 8.476562 -0.503906 8.375 -0.703125 L 7.625 -2.28125 L 3.5625 -2.28125 L 2.8125 -0.703125 C 2.707031 -0.503906 2.628906 -0.359375 2.578125 -0.265625 C 2.523438 -0.179688 2.4375 -0.09375 2.3125 0 C 2.195312 0.0820312 2.039062 0.125 1.84375 0.125 C 1.65625 0.125 1.394531 0.046875 1.0625 -0.109375 C 0.5 -0.390625 0.21875 -0.703125 0.21875 -1.046875 C 0.21875 -1.210938 0.300781 -1.460938 0.46875 -1.796875 L 4.421875 -9.96875 C 4.523438 -10.195312 4.6875 -10.378906 4.90625 -10.515625 C 5.125 -10.648438 5.351562 -10.71875 5.59375 -10.71875 C 6.125 -10.71875 6.515625 -10.460938 6.765625 -9.953125 Z M 5.59375 -6.453125 L 4.625 -4.453125 L 6.5625 -4.453125 Z M 5.59375 -6.453125 "/></g></g></g><g fill="#fdbe10" fill-opacity="1"><g transform="translate(206.221595, 285.44922)"><g><path d="M 6.171875 -6.46875 L 8.75 -6.46875 C 9.269531 -6.445312 9.59375 -6.3125 9.71875 -6.0625 C 9.8125 -5.875 9.859375 -5.597656 9.859375 -5.234375 L 9.859375 -2.015625 C 9.859375 -1.703125 9.722656 -1.40625 9.453125 -1.125 C 8.628906 -0.28125 7.398438 0.140625 5.765625 0.140625 C 4.304688 0.140625 3.039062 -0.40625 1.96875 -1.5 C 0.894531 -2.59375 0.359375 -3.914062 0.359375 -5.46875 C 0.359375 -7.019531 0.90625 -8.3125 2 -9.34375 C 3.09375 -10.382812 4.378906 -10.90625 5.859375 -10.90625 C 7.015625 -10.90625 8.101562 -10.523438 9.125 -9.765625 C 9.382812 -9.578125 9.515625 -9.363281 9.515625 -9.125 C 9.515625 -8.882812 9.40625 -8.609375 9.1875 -8.296875 C 8.800781 -7.773438 8.453125 -7.515625 8.140625 -7.515625 C 7.960938 -7.515625 7.664062 -7.648438 7.25 -7.921875 C 6.84375 -8.191406 6.359375 -8.328125 5.796875 -8.328125 C 5.054688 -8.328125 4.394531 -8.0625 3.8125 -7.53125 C 3.238281 -7.007812 2.953125 -6.328125 2.953125 -5.484375 C 2.953125 -4.648438 3.242188 -3.9375 3.828125 -3.34375 C 4.410156 -2.75 5.078125 -2.453125 5.828125 -2.453125 C 6.359375 -2.453125 6.835938 -2.539062 7.265625 -2.71875 L 7.265625 -4.3125 L 6.109375 -4.3125 C 5.804688 -4.3125 5.59375 -4.347656 5.46875 -4.421875 C 5.34375 -4.503906 5.257812 -4.617188 5.21875 -4.765625 C 5.175781 -4.921875 5.15625 -5.128906 5.15625 -5.390625 C 5.15625 -5.648438 5.175781 -5.859375 5.21875 -6.015625 C 5.269531 -6.171875 5.351562 -6.273438 5.46875 -6.328125 C 5.644531 -6.421875 5.878906 -6.46875 6.171875 -6.46875 Z M 6.171875 -6.46875 "/></g></g></g><g fill="#fdbe10" fill-opacity="1"><g transform="translate(218.127089, 285.44922)"><g><path d="M 3.171875 -2.59375 L 7.671875 -2.59375 C 7.898438 -2.59375 8.066406 -2.582031 8.171875 -2.5625 C 8.285156 -2.550781 8.414062 -2.503906 8.5625 -2.421875 C 8.832031 -2.285156 8.96875 -1.90625 8.96875 -1.28125 C 8.96875 -0.601562 8.785156 -0.207031 8.421875 -0.09375 C 8.253906 -0.03125 8 0 7.65625 0 L 1.875 0 C 1.1875 0 0.785156 -0.1875 0.671875 -0.5625 C 0.609375 -0.71875 0.578125 -0.960938 0.578125 -1.296875 L 0.578125 -9.4375 C 0.578125 -9.925781 0.671875 -10.257812 0.859375 -10.4375 C 1.046875 -10.625 1.398438 -10.71875 1.921875 -10.71875 L 7.671875 -10.71875 C 7.898438 -10.71875 8.066406 -10.707031 8.171875 -10.6875 C 8.285156 -10.675781 8.414062 -10.632812 8.5625 -10.5625 C 8.832031 -10.425781 8.96875 -10.046875 8.96875 -9.421875 C 8.96875 -8.734375 8.785156 -8.332031 8.421875 -8.21875 C 8.253906 -8.15625 8 -8.125 7.65625 -8.125 L 3.171875 -8.125 L 3.171875 -6.65625 L 6.0625 -6.65625 C 6.289062 -6.65625 6.457031 -6.644531 6.5625 -6.625 C 6.675781 -6.613281 6.8125 -6.570312 6.96875 -6.5 C 7.226562 -6.351562 7.359375 -5.972656 7.359375 -5.359375 C 7.359375 -4.671875 7.171875 -4.269531 6.796875 -4.15625 C 6.628906 -4.09375 6.378906 -4.0625 6.046875 -4.0625 L 3.171875 -4.0625 Z M 3.171875 -2.59375 "/></g></g></g><g fill="#fdbe10" fill-opacity="1"><g transform="translate(228.921076, 285.44922)"><g><path d="M 11.984375 -10.3125 C 12.054688 -10.164062 12.097656 -10.03125 12.109375 -9.90625 C 12.128906 -9.789062 12.140625 -9.625 12.140625 -9.40625 L 12.140625 -1.28125 C 12.140625 -0.613281 11.953125 -0.222656 11.578125 -0.109375 C 11.398438 -0.046875 11.164062 -0.015625 10.875 -0.015625 C 10.59375 -0.015625 10.367188 -0.0351562 10.203125 -0.078125 C 10.035156 -0.128906 9.910156 -0.1875 9.828125 -0.25 C 9.742188 -0.320312 9.675781 -0.425781 9.625 -0.5625 C 9.570312 -0.71875 9.546875 -0.96875 9.546875 -1.3125 L 9.546875 -6.21875 C 9.304688 -5.914062 8.953125 -5.429688 8.484375 -4.765625 C 8.015625 -4.109375 7.71875 -3.695312 7.59375 -3.53125 C 7.46875 -3.375 7.378906 -3.257812 7.328125 -3.1875 C 7.273438 -3.125 7.15625 -3.035156 6.96875 -2.921875 C 6.78125 -2.816406 6.578125 -2.765625 6.359375 -2.765625 C 6.140625 -2.765625 5.9375 -2.816406 5.75 -2.921875 C 5.570312 -3.023438 5.445312 -3.125 5.375 -3.21875 L 5.25 -3.375 C 5.050781 -3.625 4.664062 -4.144531 4.09375 -4.9375 C 3.519531 -5.726562 3.207031 -6.15625 3.15625 -6.21875 L 3.15625 -1.28125 C 3.15625 -1.0625 3.144531 -0.894531 3.125 -0.78125 C 3.113281 -0.664062 3.070312 -0.539062 3 -0.40625 C 2.851562 -0.144531 2.472656 -0.015625 1.859375 -0.015625 C 1.265625 -0.015625 0.894531 -0.144531 0.75 -0.40625 C 0.664062 -0.539062 0.613281 -0.664062 0.59375 -0.78125 C 0.582031 -0.90625 0.578125 -1.082031 0.578125 -1.3125 L 0.578125 -9.4375 C 0.578125 -9.65625 0.582031 -9.820312 0.59375 -9.9375 C 0.613281 -10.050781 0.664062 -10.179688 0.75 -10.328125 C 0.894531 -10.578125 1.273438 -10.703125 1.890625 -10.703125 C 2.148438 -10.703125 2.375 -10.671875 2.5625 -10.609375 C 2.757812 -10.546875 2.882812 -10.476562 2.9375 -10.40625 L 3.03125 -10.328125 L 6.34375 -5.96875 C 8 -8.15625 9.109375 -9.601562 9.671875 -10.3125 C 9.835938 -10.570312 10.226562 -10.703125 10.84375 -10.703125 C 11.457031 -10.703125 11.835938 -10.570312 11.984375 -10.3125 Z M 11.984375 -10.3125 "/></g></g></g><g fill="#fdbe10" fill-opacity="1"><g transform="translate(243.108064, 285.44922)"><g><path d="M 3.171875 -2.59375 L 7.671875 -2.59375 C 7.898438 -2.59375 8.066406 -2.582031 8.171875 -2.5625 C 8.285156 -2.550781 8.414062 -2.503906 8.5625 -2.421875 C 8.832031 -2.285156 8.96875 -1.90625 8.96875 -1.28125 C 8.96875 -0.601562 8.785156 -0.207031 8.421875 -0.09375 C 8.253906 -0.03125 8 0 7.65625 0 L 1.875 0 C 1.1875 0 0.785156 -0.1875 0.671875 -0.5625 C 0.609375 -0.71875 0.578125 -0.960938 0.578125 -1.296875 L 0.578125 -9.4375 C 0.578125 -9.925781 0.671875 -10.257812 0.859375 -10.4375 C 1.046875 -10.625 1.398438 -10.71875 1.921875 -10.71875 L 7.671875 -10.71875 C 7.898438 -10.71875 8.066406 -10.707031 8.171875 -10.6875 C 8.285156 -10.675781 8.414062 -10.632812 8.5625 -10.5625 C 8.832031 -10.425781 8.96875 -10.046875 8.96875 -9.421875 C 8.96875 -8.734375 8.785156 -8.332031 8.421875 -8.21875 C 8.253906 -8.15625 8 -8.125 7.65625 -8.125 L 3.171875 -8.125 L 3.171875 -6.65625 L 6.0625 -6.65625 C 6.289062 -6.65625 6.457031 -6.644531 6.5625 -6.625 C 6.675781 -6.613281 6.8125 -6.570312 6.96875 -6.5 C 7.226562 -6.351562 7.359375 -5.972656 7.359375 -5.359375 C 7.359375 -4.671875 7.171875 -4.269531 6.796875 -4.15625 C 6.628906 -4.09375 6.378906 -4.0625 6.046875 -4.0625 L 3.171875 -4.0625 Z M 3.171875 -2.59375 "/></g></g></g><g fill="#fdbe10" fill-opacity="1"><g transform="translate(253.90205, 285.44922)"><g><path d="M 7.515625 -10.265625 C 7.609375 -10.441406 7.742188 -10.554688 7.921875 -10.609375 C 8.109375 -10.671875 8.335938 -10.703125 8.609375 -10.703125 C 8.890625 -10.703125 9.113281 -10.675781 9.28125 -10.625 C 9.457031 -10.582031 9.585938 -10.523438 9.671875 -10.453125 C 9.753906 -10.390625 9.816406 -10.289062 9.859375 -10.15625 C 9.910156 -10 9.9375 -9.75 9.9375 -9.40625 L 9.9375 -1.28125 C 9.9375 -1.050781 9.929688 -0.878906 9.921875 -0.765625 C 9.910156 -0.660156 9.863281 -0.535156 9.78125 -0.390625 C 9.644531 -0.128906 9.265625 0 8.640625 0 C 8.265625 0 8.003906 -0.0234375 7.859375 -0.078125 C 7.710938 -0.140625 7.585938 -0.234375 7.484375 -0.359375 C 5.296875 -3.285156 3.851562 -5.195312 3.15625 -6.09375 L 3.15625 -1.28125 C 3.15625 -1.050781 3.144531 -0.878906 3.125 -0.765625 C 3.113281 -0.660156 3.070312 -0.535156 3 -0.390625 C 2.863281 -0.128906 2.484375 0 1.859375 0 C 1.253906 0 0.882812 -0.128906 0.75 -0.390625 C 0.664062 -0.535156 0.613281 -0.664062 0.59375 -0.78125 C 0.582031 -0.90625 0.578125 -1.078125 0.578125 -1.296875 L 0.578125 -9.46875 C 0.578125 -9.832031 0.625 -10.097656 0.71875 -10.265625 C 0.8125 -10.441406 0.953125 -10.554688 1.140625 -10.609375 C 1.328125 -10.671875 1.566406 -10.703125 1.859375 -10.703125 C 2.148438 -10.703125 2.378906 -10.675781 2.546875 -10.625 C 2.722656 -10.570312 2.84375 -10.507812 2.90625 -10.4375 C 2.945312 -10.40625 3.0625 -10.28125 3.25 -10.0625 C 5.300781 -7.257812 6.675781 -5.410156 7.375 -4.515625 L 7.375 -9.46875 C 7.375 -9.832031 7.421875 -10.097656 7.515625 -10.265625 Z M 7.515625 -10.265625 "/></g></g></g><g fill="#fdbe10" fill-opacity="1"><g transform="translate(265.895286, 285.44922)"><g><path d="M 1.28125 -10.734375 L 9.421875 -10.734375 C 9.734375 -10.734375 9.960938 -10.695312 10.109375 -10.625 C 10.253906 -10.550781 10.347656 -10.4375 10.390625 -10.28125 C 10.441406 -10.125 10.46875 -9.914062 10.46875 -9.65625 C 10.46875 -9.40625 10.441406 -9.203125 10.390625 -9.046875 C 10.347656 -8.898438 10.269531 -8.800781 10.15625 -8.75 C 9.976562 -8.65625 9.726562 -8.609375 9.40625 -8.609375 L 6.609375 -8.609375 L 6.609375 -1.25 C 6.609375 -1.03125 6.597656 -0.863281 6.578125 -0.75 C 6.566406 -0.644531 6.523438 -0.519531 6.453125 -0.375 C 6.378906 -0.238281 6.25 -0.140625 6.0625 -0.078125 C 5.882812 -0.0234375 5.644531 0 5.34375 0 C 5.039062 0 4.796875 -0.0234375 4.609375 -0.078125 C 4.429688 -0.140625 4.304688 -0.238281 4.234375 -0.375 C 4.160156 -0.519531 4.113281 -0.648438 4.09375 -0.765625 C 4.082031 -0.878906 4.078125 -1.046875 4.078125 -1.265625 L 4.078125 -8.609375 L 1.265625 -8.609375 C 0.953125 -8.609375 0.722656 -8.644531 0.578125 -8.71875 C 0.429688 -8.789062 0.332031 -8.90625 0.28125 -9.0625 C 0.238281 -9.21875 0.21875 -9.421875 0.21875 -9.671875 C 0.21875 -9.929688 0.238281 -10.132812 0.28125 -10.28125 C 0.332031 -10.4375 0.421875 -10.546875 0.546875 -10.609375 C 0.710938 -10.691406 0.957031 -10.734375 1.28125 -10.734375 Z M 1.28125 -10.734375 "/></g></g></g></svg>