<svg xmlns="http://www.w3.org/2000/svg" xmlns:xlink="http://www.w3.org/1999/xlink" width="500" zoomAndPan="magnify" viewBox="0 0 375 74.999997" height="100" preserveAspectRatio="xMidYMid meet" version="1.0"><defs><g/></defs><g fill="#000000" fill-opacity="1"><g transform="translate(0.0000075, 49.944588)"><g><path d="M 22.40625 -10.703125 C 22.425781 -9.023438 22.359375 -7.34375 22.203125 -5.65625 C 22.054688 -3.96875 21.90625 -2.28125 21.75 -0.59375 C 21.6875 -0.0390625 21.488281 0.410156 21.15625 0.765625 C 20.832031 1.117188 20.441406 1.347656 19.984375 1.453125 C 19.523438 1.566406 19.070312 1.566406 18.625 1.453125 C 18.1875 1.347656 17.832031 1.125 17.5625 0.78125 C 17.289062 0.4375 17.1875 -0.0195312 17.25 -0.59375 C 17.382812 -1.914062 17.53125 -3.273438 17.6875 -4.671875 C 17.851562 -6.078125 17.960938 -7.476562 18.015625 -8.875 C 18.066406 -10.28125 17.972656 -11.640625 17.734375 -12.953125 C 17.691406 -13.191406 17.625 -13.429688 17.53125 -13.671875 C 17.445312 -13.921875 17.394531 -14.164062 17.375 -14.40625 C 17.15625 -14.144531 16.910156 -13.890625 16.640625 -13.640625 C 16.367188 -13.390625 16.160156 -13.15625 16.015625 -12.9375 C 15.554688 -12.226562 15.203125 -11.5 14.953125 -10.75 C 14.703125 -10 14.507812 -9.226562 14.375 -8.4375 C 14.289062 -7.9375 14.078125 -7.554688 13.734375 -7.296875 C 13.398438 -7.035156 13.007812 -6.882812 12.5625 -6.84375 C 12.125 -6.800781 11.695312 -6.859375 11.28125 -7.015625 C 10.863281 -7.179688 10.523438 -7.429688 10.265625 -7.765625 C 10.003906 -8.109375 9.898438 -8.53125 9.953125 -9.03125 C 9.992188 -9.570312 10.03125 -10.113281 10.0625 -10.65625 C 10.09375 -11.207031 10.097656 -11.753906 10.078125 -12.296875 C 10.078125 -12.472656 10.082031 -12.726562 10.09375 -13.0625 C 10.101562 -13.394531 10.09375 -13.71875 10.0625 -14.03125 C 10.03125 -14.351562 9.945312 -14.597656 9.8125 -14.765625 C 9.769531 -14.796875 9.757812 -14.832031 9.78125 -14.875 C 9.757812 -14.875 9.75 -14.875 9.75 -14.875 C 9.75 -14.875 9.738281 -14.875 9.71875 -14.875 C 9.539062 -14.832031 9.363281 -14.65625 9.1875 -14.34375 C 9.019531 -14.039062 8.894531 -13.828125 8.8125 -13.703125 C 8.59375 -13.347656 8.398438 -12.972656 8.234375 -12.578125 C 8.066406 -12.191406 7.910156 -11.8125 7.765625 -11.4375 C 7.109375 -9.632812 6.679688 -7.785156 6.484375 -5.890625 C 6.285156 -4.003906 6.125 -2.109375 6 -0.203125 C 5.957031 0.367188 5.773438 0.828125 5.453125 1.171875 C 5.140625 1.515625 4.753906 1.742188 4.296875 1.859375 C 3.847656 1.984375 3.40625 1.984375 2.96875 1.859375 C 2.53125 1.742188 2.164062 1.515625 1.875 1.171875 C 1.582031 0.828125 1.457031 0.367188 1.5 -0.203125 C 1.601562 -1.785156 1.722656 -3.363281 1.859375 -4.9375 C 1.992188 -6.507812 2.234375 -8.0625 2.578125 -9.59375 C 2.773438 -10.539062 3.039062 -11.523438 3.375 -12.546875 C 3.707031 -13.578125 4.117188 -14.5625 4.609375 -15.5 C 5.097656 -16.445312 5.691406 -17.269531 6.390625 -17.96875 C 7.046875 -18.613281 7.816406 -19.050781 8.703125 -19.28125 C 9.597656 -19.507812 10.46875 -19.488281 11.3125 -19.21875 C 12.164062 -18.945312 12.875 -18.398438 13.4375 -17.578125 C 13.457031 -17.515625 13.488281 -17.453125 13.53125 -17.390625 C 13.570312 -17.335938 13.601562 -17.289062 13.625 -17.25 C 14.195312 -17.925781 14.828125 -18.46875 15.515625 -18.875 C 16.210938 -19.289062 16.929688 -19.476562 17.671875 -19.4375 C 18.410156 -19.394531 19.171875 -19.035156 19.953125 -18.359375 C 20.648438 -17.742188 21.164062 -17.003906 21.5 -16.140625 C 21.84375 -15.273438 22.070312 -14.375 22.1875 -13.4375 C 22.3125 -12.5 22.382812 -11.585938 22.40625 -10.703125 Z M 22.40625 -10.703125 "/></g></g></g><g fill="#000000" fill-opacity="1"><g transform="translate(25.409986, 49.944588)"><g><path d="M 15.546875 -13.171875 C 15.597656 -11.171875 15.644531 -9.171875 15.6875 -7.171875 C 15.726562 -5.171875 15.78125 -3.171875 15.84375 -1.171875 C 15.863281 -0.585938 15.722656 -0.125 15.421875 0.21875 C 15.117188 0.570312 14.75 0.800781 14.3125 0.90625 C 13.875 1.019531 13.425781 1.015625 12.96875 0.890625 C 12.519531 0.773438 12.140625 0.546875 11.828125 0.203125 C 11.523438 -0.128906 11.363281 -0.585938 11.34375 -1.171875 C 11.320312 -1.765625 11.304688 -2.363281 11.296875 -2.96875 C 11.285156 -3.570312 11.269531 -4.171875 11.25 -4.765625 L 6.75 -4.921875 C 6.59375 -4.179688 6.441406 -3.429688 6.296875 -2.671875 C 6.160156 -1.910156 6.019531 -1.148438 5.875 -0.390625 C 5.78125 0.171875 5.554688 0.582031 5.203125 0.84375 C 4.859375 1.101562 4.453125 1.234375 3.984375 1.234375 C 3.523438 1.234375 3.085938 1.113281 2.671875 0.875 C 2.265625 0.632812 1.945312 0.304688 1.71875 -0.109375 C 1.488281 -0.535156 1.425781 -1.03125 1.53125 -1.59375 C 1.882812 -3.550781 2.285156 -5.488281 2.734375 -7.40625 C 3.191406 -9.332031 3.832031 -11.203125 4.65625 -13.015625 C 5.050781 -13.921875 5.554688 -14.890625 6.171875 -15.921875 C 6.796875 -16.960938 7.503906 -17.914062 8.296875 -18.78125 C 9.085938 -19.65625 9.960938 -20.304688 10.921875 -20.734375 C 11.816406 -21.109375 12.546875 -21.175781 13.109375 -20.9375 C 13.671875 -20.695312 14.109375 -20.257812 14.421875 -19.625 C 14.742188 -19 14.976562 -18.285156 15.125 -17.484375 C 15.28125 -16.691406 15.382812 -15.90625 15.4375 -15.125 C 15.488281 -14.34375 15.523438 -13.691406 15.546875 -13.171875 Z M 8.15625 -9.875 C 8.132812 -9.789062 8.109375 -9.707031 8.078125 -9.625 C 8.054688 -9.550781 8.023438 -9.472656 7.984375 -9.390625 C 8.523438 -9.367188 9.050781 -9.347656 9.5625 -9.328125 C 10.082031 -9.304688 10.601562 -9.285156 11.125 -9.265625 C 11.101562 -9.910156 11.085938 -10.554688 11.078125 -11.203125 C 11.066406 -11.859375 11.054688 -12.515625 11.046875 -13.171875 C 11.023438 -13.429688 11.015625 -13.707031 11.015625 -14 C 11.015625 -14.289062 11.015625 -14.582031 11.015625 -14.875 C 10.671875 -14.476562 10.378906 -14.085938 10.140625 -13.703125 C 9.742188 -13.109375 9.378906 -12.488281 9.046875 -11.84375 C 8.710938 -11.207031 8.414062 -10.550781 8.15625 -9.875 Z M 8.15625 -9.875 "/></g></g></g><g fill="#000000" fill-opacity="1"><g transform="translate(44.249969, 49.944588)"><g><path d="M 13.203125 -18.203125 C 13.273438 -18.785156 13.484375 -19.207031 13.828125 -19.46875 C 14.171875 -19.726562 14.566406 -19.851562 15.015625 -19.84375 C 15.460938 -19.832031 15.894531 -19.710938 16.3125 -19.484375 C 16.738281 -19.253906 17.070312 -18.921875 17.3125 -18.484375 C 17.550781 -18.054688 17.628906 -17.566406 17.546875 -17.015625 C 16.722656 -11.492188 15.703125 -6.007812 14.484375 -0.5625 C 14.390625 -0.125 14.164062 0.234375 13.8125 0.515625 C 13.46875 0.796875 13.0625 0.96875 12.59375 1.03125 C 12.132812 1.101562 11.703125 1.050781 11.296875 0.875 C 10.890625 0.707031 10.582031 0.40625 10.375 -0.03125 C 9.914062 -1.132812 9.445312 -2.226562 8.96875 -3.3125 C 8.488281 -4.40625 8.007812 -5.5 7.53125 -6.59375 C 7.226562 -5.300781 6.9375 -4 6.65625 -2.6875 C 6.375 -1.375 6.113281 -0.0546875 5.875 1.265625 C 5.78125 1.816406 5.550781 2.222656 5.1875 2.484375 C 4.832031 2.742188 4.425781 2.875 3.96875 2.875 C 3.519531 2.875 3.085938 2.753906 2.671875 2.515625 C 2.265625 2.273438 1.945312 1.945312 1.71875 1.53125 C 1.488281 1.113281 1.4375 0.625 1.5625 0.0625 C 2.4375 -4.695312 3.515625 -9.414062 4.796875 -14.09375 C 4.921875 -14.539062 5.160156 -14.898438 5.515625 -15.171875 C 5.878906 -15.453125 6.285156 -15.632812 6.734375 -15.71875 C 7.179688 -15.800781 7.601562 -15.753906 8 -15.578125 C 8.40625 -15.410156 8.707031 -15.097656 8.90625 -14.640625 L 11.546875 -8.546875 C 11.867188 -10.148438 12.164062 -11.753906 12.4375 -13.359375 C 12.707031 -14.972656 12.960938 -16.585938 13.203125 -18.203125 Z M 13.203125 -18.203125 "/></g></g></g><g fill="#000000" fill-opacity="1"><g transform="translate(64.829947, 49.944588)"><g><path d="M 15.546875 -13.171875 C 15.597656 -11.171875 15.644531 -9.171875 15.6875 -7.171875 C 15.726562 -5.171875 15.78125 -3.171875 15.84375 -1.171875 C 15.863281 -0.585938 15.722656 -0.125 15.421875 0.21875 C 15.117188 0.570312 14.75 0.800781 14.3125 0.90625 C 13.875 1.019531 13.425781 1.015625 12.96875 0.890625 C 12.519531 0.773438 12.140625 0.546875 11.828125 0.203125 C 11.523438 -0.128906 11.363281 -0.585938 11.34375 -1.171875 C 11.320312 -1.765625 11.304688 -2.363281 11.296875 -2.96875 C 11.285156 -3.570312 11.269531 -4.171875 11.25 -4.765625 L 6.75 -4.921875 C 6.59375 -4.179688 6.441406 -3.429688 6.296875 -2.671875 C 6.160156 -1.910156 6.019531 -1.148438 5.875 -0.390625 C 5.78125 0.171875 5.554688 0.582031 5.203125 0.84375 C 4.859375 1.101562 4.453125 1.234375 3.984375 1.234375 C 3.523438 1.234375 3.085938 1.113281 2.671875 0.875 C 2.265625 0.632812 1.945312 0.304688 1.71875 -0.109375 C 1.488281 -0.535156 1.425781 -1.03125 1.53125 -1.59375 C 1.882812 -3.550781 2.285156 -5.488281 2.734375 -7.40625 C 3.191406 -9.332031 3.832031 -11.203125 4.65625 -13.015625 C 5.050781 -13.921875 5.554688 -14.890625 6.171875 -15.921875 C 6.796875 -16.960938 7.503906 -17.914062 8.296875 -18.78125 C 9.085938 -19.65625 9.960938 -20.304688 10.921875 -20.734375 C 11.816406 -21.109375 12.546875 -21.175781 13.109375 -20.9375 C 13.671875 -20.695312 14.109375 -20.257812 14.421875 -19.625 C 14.742188 -19 14.976562 -18.285156 15.125 -17.484375 C 15.28125 -16.691406 15.382812 -15.90625 15.4375 -15.125 C 15.488281 -14.34375 15.523438 -13.691406 15.546875 -13.171875 Z M 8.15625 -9.875 C 8.132812 -9.789062 8.109375 -9.707031 8.078125 -9.625 C 8.054688 -9.550781 8.023438 -9.472656 7.984375 -9.390625 C 8.523438 -9.367188 9.050781 -9.347656 9.5625 -9.328125 C 10.082031 -9.304688 10.601562 -9.285156 11.125 -9.265625 C 11.101562 -9.910156 11.085938 -10.554688 11.078125 -11.203125 C 11.066406 -11.859375 11.054688 -12.515625 11.046875 -13.171875 C 11.023438 -13.429688 11.015625 -13.707031 11.015625 -14 C 11.015625 -14.289062 11.015625 -14.582031 11.015625 -14.875 C 10.671875 -14.476562 10.378906 -14.085938 10.140625 -13.703125 C 9.742188 -13.109375 9.378906 -12.488281 9.046875 -11.84375 C 8.710938 -11.207031 8.414062 -10.550781 8.15625 -9.875 Z M 8.15625 -9.875 "/></g></g></g><g fill="#000000" fill-opacity="1"><g transform="translate(83.66993, 49.944588)"><g><path d="M 13.625 -12.546875 C 14.957031 -12.554688 15.984375 -12.234375 16.703125 -11.578125 C 17.429688 -10.921875 17.765625 -9.898438 17.703125 -8.515625 C 17.660156 -7.335938 17.351562 -6.195312 16.78125 -5.09375 C 16.21875 -4 15.441406 -3.113281 14.453125 -2.4375 C 13.378906 -1.675781 12.207031 -1.28125 10.9375 -1.25 C 9.664062 -1.21875 8.421875 -1.367188 7.203125 -1.703125 C 5.722656 -2.128906 4.539062 -2.789062 3.65625 -3.6875 C 2.78125 -4.59375 2.175781 -5.640625 1.84375 -6.828125 C 1.507812 -8.015625 1.40625 -9.269531 1.53125 -10.59375 C 1.664062 -11.925781 2 -13.238281 2.53125 -14.53125 C 3.0625 -15.820312 3.742188 -17.015625 4.578125 -18.109375 C 5.421875 -19.210938 6.390625 -20.140625 7.484375 -20.890625 C 8.578125 -21.640625 9.757812 -22.125 11.03125 -22.34375 C 12.300781 -22.570312 13.601562 -22.453125 14.9375 -21.984375 C 15.5 -21.785156 15.898438 -21.484375 16.140625 -21.078125 C 16.378906 -20.679688 16.492188 -20.25 16.484375 -19.78125 C 16.472656 -19.3125 16.359375 -18.875 16.140625 -18.46875 C 15.921875 -18.070312 15.601562 -17.789062 15.1875 -17.625 C 14.78125 -17.457031 14.304688 -17.460938 13.765625 -17.640625 C 12.804688 -17.984375 11.878906 -17.984375 10.984375 -17.640625 C 10.097656 -17.296875 9.289062 -16.738281 8.5625 -15.96875 C 7.832031 -15.195312 7.238281 -14.3125 6.78125 -13.3125 C 6.320312 -12.3125 6.039062 -11.3125 5.9375 -10.3125 C 5.84375 -9.3125 5.984375 -8.425781 6.359375 -7.65625 C 6.578125 -7.175781 6.929688 -6.773438 7.421875 -6.453125 C 7.910156 -6.128906 8.457031 -5.898438 9.0625 -5.765625 C 9.675781 -5.640625 10.269531 -5.625 10.84375 -5.71875 C 11.414062 -5.820312 11.890625 -6.066406 12.265625 -6.453125 C 12.546875 -6.734375 12.773438 -7.082031 12.953125 -7.5 C 12.972656 -7.5625 12.988281 -7.640625 13 -7.734375 C 13.007812 -7.835938 13.023438 -7.941406 13.046875 -8.046875 C 13.023438 -8.046875 13 -8.046875 12.96875 -8.046875 C 12.945312 -8.046875 12.925781 -8.046875 12.90625 -8.046875 C 12.820312 -8.023438 12.742188 -8.019531 12.671875 -8.03125 C 12.597656 -8.039062 12.523438 -8.046875 12.453125 -8.046875 C 12.109375 -7.679688 11.664062 -7.445312 11.125 -7.34375 C 10.582031 -7.25 10.054688 -7.316406 9.546875 -7.546875 C 9.046875 -7.773438 8.679688 -8.207031 8.453125 -8.84375 C 8.160156 -9.707031 8.148438 -10.382812 8.421875 -10.875 C 8.703125 -11.363281 9.148438 -11.726562 9.765625 -11.96875 C 10.378906 -12.207031 11.039062 -12.363281 11.75 -12.4375 C 12.457031 -12.507812 13.082031 -12.546875 13.625 -12.546875 Z M 13.625 -12.546875 "/></g></g></g><g fill="#000000" fill-opacity="1"><g transform="translate(104.36991, 49.944588)"><g><path d="M 12.515625 -6.359375 C 13.085938 -6.335938 13.550781 -6.171875 13.90625 -5.859375 C 14.257812 -5.554688 14.488281 -5.175781 14.59375 -4.71875 C 14.707031 -4.269531 14.707031 -3.820312 14.59375 -3.375 C 14.488281 -2.925781 14.257812 -2.554688 13.90625 -2.265625 C 13.550781 -1.972656 13.085938 -1.847656 12.515625 -1.890625 C 11.148438 -1.929688 9.785156 -1.921875 8.421875 -1.859375 C 7.066406 -1.796875 5.707031 -1.65625 4.34375 -1.4375 C 3.925781 -1.351562 3.488281 -1.382812 3.03125 -1.53125 C 2.570312 -1.6875 2.1875 -1.9375 1.875 -2.28125 C 1.5625 -2.625 1.445312 -3.0625 1.53125 -3.59375 C 1.875 -6.375 2.25 -9.144531 2.65625 -11.90625 C 3.0625 -14.664062 3.503906 -17.414062 3.984375 -20.15625 C 4.046875 -20.5 4.164062 -20.800781 4.34375 -21.0625 C 4.507812 -21.34375 4.738281 -21.570312 5.03125 -21.75 C 5.332031 -21.925781 5.707031 -22.023438 6.15625 -22.046875 C 8.3125 -22.128906 10.46875 -22.09375 12.625 -21.9375 C 13.207031 -21.894531 13.671875 -21.707031 14.015625 -21.375 C 14.367188 -21.039062 14.597656 -20.648438 14.703125 -20.203125 C 14.816406 -19.753906 14.816406 -19.304688 14.703125 -18.859375 C 14.597656 -18.421875 14.367188 -18.0625 14.015625 -17.78125 C 13.671875 -17.507812 13.207031 -17.394531 12.625 -17.4375 C 11.144531 -17.53125 9.632812 -17.578125 8.09375 -17.578125 C 8 -16.992188 7.898438 -16.410156 7.796875 -15.828125 C 7.703125 -15.253906 7.613281 -14.675781 7.53125 -14.09375 C 8.351562 -14.070312 9.144531 -14.035156 9.90625 -13.984375 C 10.5 -13.898438 11.019531 -13.664062 11.46875 -13.28125 C 11.925781 -12.90625 12.15625 -12.390625 12.15625 -11.734375 C 12.15625 -11.347656 12.046875 -10.972656 11.828125 -10.609375 C 11.617188 -10.253906 11.34375 -9.96875 11 -9.75 C 10.664062 -9.53125 10.300781 -9.441406 9.90625 -9.484375 C 8.882812 -9.578125 7.863281 -9.613281 6.84375 -9.59375 C 6.757812 -9.039062 6.675781 -8.476562 6.59375 -7.90625 C 6.519531 -7.332031 6.441406 -6.757812 6.359375 -6.1875 C 7.378906 -6.28125 8.398438 -6.347656 9.421875 -6.390625 C 10.441406 -6.429688 11.472656 -6.421875 12.515625 -6.359375 Z M 12.515625 -6.359375 "/></g></g></g><g fill="#000000" fill-opacity="1"><g transform="translate(122.159899, 49.944588)"><g/></g></g><g fill="#000000" fill-opacity="1"><g transform="translate(132.779889, 49.944588)"><g><path d="M 12.125 -19.375 C 12.175781 -19.9375 12.378906 -20.367188 12.734375 -20.671875 C 13.085938 -20.972656 13.488281 -21.132812 13.9375 -21.15625 C 14.382812 -21.1875 14.820312 -21.109375 15.25 -20.921875 C 15.6875 -20.734375 16.03125 -20.4375 16.28125 -20.03125 C 16.53125 -19.632812 16.613281 -19.15625 16.53125 -18.59375 C 16.375 -17.300781 16.222656 -15.925781 16.078125 -14.46875 C 15.941406 -13.019531 15.738281 -11.566406 15.46875 -10.109375 C 15.195312 -8.648438 14.804688 -7.253906 14.296875 -5.921875 C 13.785156 -4.597656 13.085938 -3.410156 12.203125 -2.359375 C 11.328125 -1.304688 10.195312 -0.46875 8.8125 0.15625 C 8.300781 0.394531 7.828125 0.441406 7.390625 0.296875 C 6.960938 0.160156 6.617188 -0.0859375 6.359375 -0.453125 C 6.097656 -0.828125 5.941406 -1.25 5.890625 -1.71875 C 5.835938 -2.195312 5.914062 -2.644531 6.125 -3.0625 C 6.34375 -3.476562 6.710938 -3.804688 7.234375 -4.046875 C 7.910156 -4.347656 8.460938 -4.773438 8.890625 -5.328125 C 9.328125 -5.878906 9.675781 -6.484375 9.9375 -7.140625 C 9.113281 -6.835938 8.273438 -6.695312 7.421875 -6.71875 C 6.578125 -6.738281 5.742188 -6.945312 4.921875 -7.34375 C 3.835938 -7.90625 3.03125 -8.675781 2.5 -9.65625 C 1.96875 -10.632812 1.648438 -11.707031 1.546875 -12.875 C 1.453125 -14.050781 1.507812 -15.222656 1.71875 -16.390625 C 1.9375 -17.566406 2.253906 -18.625 2.671875 -19.5625 C 2.890625 -20.101562 3.207031 -20.46875 3.625 -20.65625 C 4.050781 -20.84375 4.488281 -20.890625 4.9375 -20.796875 C 5.382812 -20.710938 5.785156 -20.523438 6.140625 -20.234375 C 6.503906 -19.941406 6.75 -19.570312 6.875 -19.125 C 7.007812 -18.675781 6.96875 -18.191406 6.75 -17.671875 C 6.59375 -17.304688 6.429688 -16.835938 6.265625 -16.265625 C 6.109375 -15.703125 5.992188 -15.097656 5.921875 -14.453125 C 5.847656 -13.816406 5.875 -13.222656 6 -12.671875 C 6.125 -12.117188 6.40625 -11.707031 6.84375 -11.4375 C 7.238281 -11.175781 7.671875 -11.09375 8.140625 -11.1875 C 8.609375 -11.289062 9.054688 -11.5 9.484375 -11.8125 C 9.921875 -12.132812 10.304688 -12.503906 10.640625 -12.921875 C 10.984375 -13.347656 11.253906 -13.738281 11.453125 -14.09375 C 11.578125 -14.976562 11.6875 -15.859375 11.78125 -16.734375 C 11.882812 -17.617188 12 -18.5 12.125 -19.375 Z M 12.125 -19.375 "/></g></g></g><g fill="#000000" fill-opacity="1"><g transform="translate(152.339866, 49.944588)"><g><path d="M 16.6875 -19.109375 C 17.164062 -18.328125 17.492188 -17.453125 17.671875 -16.484375 C 17.847656 -15.515625 17.925781 -14.535156 17.90625 -13.546875 C 17.882812 -12.554688 17.804688 -11.628906 17.671875 -10.765625 C 17.472656 -9.453125 17.0625 -8.203125 16.4375 -7.015625 C 15.820312 -5.835938 14.992188 -4.816406 13.953125 -3.953125 C 12.953125 -3.140625 11.789062 -2.539062 10.46875 -2.15625 C 9.144531 -1.78125 7.851562 -1.789062 6.59375 -2.1875 C 5.757812 -2.445312 5.03125 -2.875 4.40625 -3.46875 C 3.789062 -4.070312 3.269531 -4.757812 2.84375 -5.53125 C 2.425781 -6.300781 2.117188 -7.085938 1.921875 -7.890625 C 1.679688 -8.765625 1.539062 -9.773438 1.5 -10.921875 C 1.457031 -12.078125 1.535156 -13.253906 1.734375 -14.453125 C 1.941406 -15.660156 2.273438 -16.78125 2.734375 -17.8125 C 3.191406 -18.851562 3.8125 -19.71875 4.59375 -20.40625 C 5.394531 -21.21875 6.351562 -21.796875 7.46875 -22.140625 C 8.59375 -22.484375 9.742188 -22.597656 10.921875 -22.484375 C 12.097656 -22.367188 13.195312 -22.023438 14.21875 -21.453125 C 15.238281 -20.890625 16.0625 -20.109375 16.6875 -19.109375 Z M 11.21875 -7.4375 C 11.894531 -8.082031 12.398438 -8.828125 12.734375 -9.671875 C 13.066406 -10.523438 13.269531 -11.414062 13.34375 -12.34375 C 13.425781 -13.269531 13.410156 -14.175781 13.296875 -15.0625 C 13.171875 -15.9375 12.820312 -16.65625 12.25 -17.21875 C 11.6875 -17.78125 10.929688 -18.050781 9.984375 -18.03125 C 9.460938 -18.03125 8.957031 -17.898438 8.46875 -17.640625 C 7.976562 -17.378906 7.578125 -17.039062 7.265625 -16.625 C 6.898438 -16.125 6.632812 -15.519531 6.46875 -14.8125 C 6.3125 -14.113281 6.195312 -13.46875 6.125 -12.875 C 5.9375 -11.53125 6.003906 -10.207031 6.328125 -8.90625 C 6.429688 -8.53125 6.566406 -8.148438 6.734375 -7.765625 C 6.898438 -7.390625 7.144531 -7.082031 7.46875 -6.84375 C 7.988281 -6.457031 8.582031 -6.316406 9.25 -6.421875 C 9.925781 -6.535156 10.515625 -6.804688 11.015625 -7.234375 C 11.066406 -7.285156 11.132812 -7.351562 11.21875 -7.4375 Z M 11.21875 -7.4375 "/></g></g></g><g fill="#000000" fill-opacity="1"><g transform="translate(173.279851, 49.944588)"><g><path d="M 17.546875 -17.0625 C 17.671875 -15.988281 17.679688 -14.816406 17.578125 -13.546875 C 17.484375 -12.273438 17.253906 -11.003906 16.890625 -9.734375 C 16.523438 -8.460938 16.019531 -7.28125 15.375 -6.1875 C 14.726562 -5.101562 13.925781 -4.1875 12.96875 -3.4375 C 12.019531 -2.6875 10.914062 -2.203125 9.65625 -1.984375 C 8.34375 -1.765625 7.21875 -1.867188 6.28125 -2.296875 C 5.351562 -2.722656 4.582031 -3.367188 3.96875 -4.234375 C 3.363281 -5.109375 2.878906 -6.117188 2.515625 -7.265625 C 2.160156 -8.421875 1.90625 -9.613281 1.75 -10.84375 C 1.601562 -12.070312 1.523438 -13.253906 1.515625 -14.390625 C 1.503906 -15.535156 1.53125 -16.53125 1.59375 -17.375 C 1.632812 -17.945312 1.816406 -18.40625 2.140625 -18.75 C 2.472656 -19.09375 2.863281 -19.320312 3.3125 -19.4375 C 3.757812 -19.5625 4.203125 -19.5625 4.640625 -19.4375 C 5.085938 -19.320312 5.453125 -19.09375 5.734375 -18.75 C 6.015625 -18.40625 6.132812 -17.945312 6.09375 -17.375 C 6.070312 -17.070312 6.050781 -16.566406 6.03125 -15.859375 C 6.007812 -15.148438 6.019531 -14.332031 6.0625 -13.40625 C 6.101562 -12.488281 6.1875 -11.566406 6.3125 -10.640625 C 6.445312 -9.722656 6.640625 -8.90625 6.890625 -8.1875 C 7.140625 -7.46875 7.472656 -6.953125 7.890625 -6.640625 C 8.304688 -6.335938 8.835938 -6.332031 9.484375 -6.625 C 10.359375 -7.03125 11.054688 -7.644531 11.578125 -8.46875 C 12.097656 -9.300781 12.476562 -10.226562 12.71875 -11.25 C 12.957031 -12.269531 13.097656 -13.289062 13.140625 -14.3125 C 13.179688 -15.332031 13.148438 -16.25 13.046875 -17.0625 C 12.972656 -17.644531 13.0625 -18.101562 13.3125 -18.4375 C 13.570312 -18.78125 13.914062 -19.007812 14.34375 -19.125 C 14.78125 -19.238281 15.226562 -19.238281 15.6875 -19.125 C 16.144531 -19.007812 16.550781 -18.773438 16.90625 -18.421875 C 17.257812 -18.078125 17.472656 -17.625 17.546875 -17.0625 Z M 17.546875 -17.0625 "/></g></g></g><g fill="#000000" fill-opacity="1"><g transform="translate(193.91983, 49.944588)"><g><path d="M 17.0625 -2.84375 C 17.40625 -2.382812 17.546875 -1.9375 17.484375 -1.5 C 17.429688 -1.0625 17.242188 -0.6875 16.921875 -0.375 C 16.597656 -0.0625 16.210938 0.15625 15.765625 0.28125 C 15.316406 0.414062 14.859375 0.421875 14.390625 0.296875 C 13.921875 0.179688 13.515625 -0.101562 13.171875 -0.5625 C 12.265625 -1.8125 11.253906 -2.957031 10.140625 -4 C 9.035156 -5.050781 7.84375 -6 6.5625 -6.84375 C 6.46875 -5.644531 6.375 -4.453125 6.28125 -3.265625 C 6.195312 -2.085938 6.101562 -0.898438 6 0.296875 C 5.957031 0.878906 5.769531 1.335938 5.4375 1.671875 C 5.113281 2.015625 4.71875 2.242188 4.25 2.359375 C 3.789062 2.484375 3.347656 2.484375 2.921875 2.359375 C 2.492188 2.242188 2.140625 2.015625 1.859375 1.671875 C 1.578125 1.335938 1.457031 0.878906 1.5 0.296875 C 1.675781 -1.898438 1.8125 -4.128906 1.90625 -6.390625 C 2.007812 -8.648438 2.285156 -10.859375 2.734375 -13.015625 C 2.953125 -14.117188 3.359375 -15.191406 3.953125 -16.234375 C 4.554688 -17.273438 5.320312 -18.140625 6.25 -18.828125 C 7.1875 -19.515625 8.273438 -19.878906 9.515625 -19.921875 C 10.367188 -19.960938 11.179688 -19.800781 11.953125 -19.4375 C 12.722656 -19.082031 13.378906 -18.585938 13.921875 -17.953125 C 14.460938 -17.328125 14.828125 -16.609375 15.015625 -15.796875 C 15.203125 -14.984375 15.15625 -14.148438 14.875 -13.296875 C 14.59375 -12.453125 14.132812 -11.644531 13.5 -10.875 C 12.875 -10.101562 12.15625 -9.4375 11.34375 -8.875 C 13.476562 -7.15625 15.382812 -5.144531 17.0625 -2.84375 Z M 10.65625 -14.875 C 10.570312 -15.28125 10.414062 -15.503906 10.1875 -15.546875 C 9.957031 -15.597656 9.695312 -15.535156 9.40625 -15.359375 C 9.113281 -15.179688 8.828125 -14.953125 8.546875 -14.671875 C 8.265625 -14.390625 8.023438 -14.113281 7.828125 -13.84375 C 7.628906 -13.570312 7.5 -13.378906 7.4375 -13.265625 C 7.28125 -12.816406 7.140625 -12.316406 7.015625 -11.765625 C 7.421875 -11.816406 7.78125 -11.9375 8.09375 -12.125 C 8.414062 -12.320312 8.726562 -12.5625 9.03125 -12.84375 C 9.144531 -12.957031 9.34375 -13.144531 9.625 -13.40625 C 9.90625 -13.664062 10.15625 -13.9375 10.375 -14.21875 C 10.59375 -14.5 10.6875 -14.71875 10.65625 -14.875 Z M 10.65625 -14.875 "/></g></g></g><g fill="#000000" fill-opacity="1"><g transform="translate(214.409811, 49.944588)"><g/></g></g><g fill="#000000" fill-opacity="1"><g transform="translate(225.02979, 49.944588)"><g><path d="M 11.1875 -13.015625 C 12.3125 -12.253906 13.195312 -11.257812 13.84375 -10.03125 C 14.488281 -8.800781 14.742188 -7.507812 14.609375 -6.15625 C 14.472656 -4.945312 14.0625 -3.90625 13.375 -3.03125 C 12.695312 -2.164062 11.863281 -1.5 10.875 -1.03125 C 9.882812 -0.5625 8.832031 -0.300781 7.71875 -0.25 C 6.613281 -0.207031 5.550781 -0.394531 4.53125 -0.8125 C 3.507812 -1.226562 2.648438 -1.894531 1.953125 -2.8125 C 1.585938 -3.300781 1.4375 -3.753906 1.5 -4.171875 C 1.5625 -4.585938 1.742188 -4.957031 2.046875 -5.28125 C 2.359375 -5.601562 2.742188 -5.828125 3.203125 -5.953125 C 3.671875 -6.085938 4.140625 -6.09375 4.609375 -5.96875 C 5.078125 -5.851562 5.476562 -5.5625 5.8125 -5.09375 C 5.976562 -4.875 6.28125 -4.75 6.71875 -4.71875 C 7.15625 -4.695312 7.59375 -4.71875 8.03125 -4.78125 C 8.476562 -4.851562 8.789062 -4.929688 8.96875 -5.015625 C 9.382812 -5.210938 9.695312 -5.503906 9.90625 -5.890625 C 10.125 -6.285156 10.203125 -6.710938 10.140625 -7.171875 C 10.078125 -7.734375 9.875 -8.195312 9.53125 -8.5625 C 9.195312 -8.9375 8.796875 -9.253906 8.328125 -9.515625 C 7.859375 -9.773438 7.382812 -10.03125 6.90625 -10.28125 C 6.425781 -10.53125 6.003906 -10.800781 5.640625 -11.09375 C 4.640625 -11.976562 4.03125 -12.941406 3.8125 -13.984375 C 3.59375 -15.023438 3.664062 -16.050781 4.03125 -17.0625 C 4.40625 -18.082031 4.984375 -19.015625 5.765625 -19.859375 C 6.546875 -20.703125 7.4375 -21.363281 8.4375 -21.84375 C 8.96875 -22.082031 9.460938 -22.144531 9.921875 -22.03125 C 10.390625 -21.925781 10.785156 -21.703125 11.109375 -21.359375 C 11.441406 -21.015625 11.664062 -20.625 11.78125 -20.1875 C 11.90625 -19.75 11.882812 -19.328125 11.71875 -18.921875 C 11.5625 -18.523438 11.222656 -18.195312 10.703125 -17.9375 C 10.367188 -17.78125 9.972656 -17.5625 9.515625 -17.28125 C 9.066406 -17 8.695312 -16.660156 8.40625 -16.265625 C 8.125 -15.878906 8.070312 -15.445312 8.25 -14.96875 C 8.351562 -14.644531 8.585938 -14.367188 8.953125 -14.140625 C 9.328125 -13.910156 9.722656 -13.707031 10.140625 -13.53125 C 10.554688 -13.351562 10.90625 -13.179688 11.1875 -13.015625 Z M 11.1875 -13.015625 "/></g></g></g><g fill="#000000" fill-opacity="1"><g transform="translate(242.669757, 49.944588)"><g><path d="M 13.34375 -7.265625 C 13.90625 -7.398438 14.390625 -7.375 14.796875 -7.1875 C 15.210938 -7 15.535156 -6.703125 15.765625 -6.296875 C 15.992188 -5.898438 16.113281 -5.46875 16.125 -5 C 16.132812 -4.53125 16.015625 -4.101562 15.765625 -3.71875 C 15.515625 -3.34375 15.109375 -3.070312 14.546875 -2.90625 C 13.523438 -2.625 12.476562 -2.410156 11.40625 -2.265625 C 10.34375 -2.117188 9.285156 -2.113281 8.234375 -2.25 C 7.179688 -2.382812 6.175781 -2.722656 5.21875 -3.265625 C 3.976562 -3.960938 3.03125 -4.929688 2.375 -6.171875 C 1.726562 -7.421875 1.4375 -8.765625 1.5 -10.203125 C 1.582031 -11.597656 1.929688 -12.9375 2.546875 -14.21875 C 3.171875 -15.5 3.992188 -16.632812 5.015625 -17.625 C 6.046875 -18.613281 7.21875 -19.375 8.53125 -19.90625 C 9.84375 -20.4375 11.207031 -20.640625 12.625 -20.515625 C 13.207031 -20.472656 13.671875 -20.285156 14.015625 -19.953125 C 14.367188 -19.628906 14.597656 -19.238281 14.703125 -18.78125 C 14.816406 -18.320312 14.816406 -17.867188 14.703125 -17.421875 C 14.597656 -16.984375 14.367188 -16.628906 14.015625 -16.359375 C 13.671875 -16.085938 13.207031 -15.972656 12.625 -16.015625 C 11.582031 -16.097656 10.597656 -15.90625 9.671875 -15.4375 C 8.742188 -14.96875 7.957031 -14.316406 7.3125 -13.484375 C 6.675781 -12.648438 6.269531 -11.71875 6.09375 -10.6875 C 5.90625 -9.78125 5.945312 -9.050781 6.21875 -8.5 C 6.488281 -7.957031 6.894531 -7.550781 7.4375 -7.28125 C 7.976562 -7.007812 8.59375 -6.847656 9.28125 -6.796875 C 9.96875 -6.742188 10.664062 -6.757812 11.375 -6.84375 C 12.09375 -6.9375 12.75 -7.078125 13.34375 -7.265625 Z M 13.34375 -7.265625 "/></g></g></g><g fill="#000000" fill-opacity="1"><g transform="translate(261.809724, 49.944588)"><g><path d="M 12.875 -21 C 12.96875 -21.582031 13.191406 -22.003906 13.546875 -22.265625 C 13.910156 -22.523438 14.316406 -22.648438 14.765625 -22.640625 C 15.222656 -22.628906 15.65625 -22.507812 16.0625 -22.28125 C 16.476562 -22.050781 16.800781 -21.722656 17.03125 -21.296875 C 17.257812 -20.878906 17.3125 -20.378906 17.1875 -19.796875 C 16.101562 -14.296875 15.363281 -8.75 14.96875 -3.15625 C 14.925781 -2.570312 14.738281 -2.101562 14.40625 -1.75 C 14.082031 -1.40625 13.691406 -1.175781 13.234375 -1.0625 C 12.773438 -0.957031 12.328125 -0.957031 11.890625 -1.0625 C 11.460938 -1.175781 11.109375 -1.40625 10.828125 -1.75 C 10.546875 -2.101562 10.425781 -2.570312 10.46875 -3.15625 C 10.53125 -4.09375 10.601562 -5.023438 10.6875 -5.953125 C 10.78125 -6.878906 10.878906 -7.816406 10.984375 -8.765625 L 6.875 -8.765625 C 6.726562 -7.578125 6.582031 -6.390625 6.4375 -5.203125 C 6.300781 -4.015625 6.164062 -2.820312 6.03125 -1.625 C 5.945312 -1.0625 5.734375 -0.609375 5.390625 -0.265625 C 5.054688 0.0664062 4.660156 0.289062 4.203125 0.40625 C 3.742188 0.53125 3.289062 0.535156 2.84375 0.421875 C 2.40625 0.316406 2.054688 0.09375 1.796875 -0.25 C 1.535156 -0.601562 1.445312 -1.0625 1.53125 -1.625 C 1.707031 -3.28125 1.894531 -4.929688 2.09375 -6.578125 C 2.300781 -8.234375 2.492188 -9.878906 2.671875 -11.515625 C 2.765625 -12.316406 2.863281 -13.113281 2.96875 -13.90625 C 3.070312 -14.695312 3.160156 -15.492188 3.234375 -16.296875 C 3.316406 -16.992188 3.382812 -17.734375 3.4375 -18.515625 C 3.488281 -19.296875 3.644531 -20.023438 3.90625 -20.703125 C 4.101562 -21.242188 4.40625 -21.632812 4.8125 -21.875 C 5.226562 -22.113281 5.671875 -22.226562 6.140625 -22.21875 C 6.609375 -22.207031 7.039062 -22.085938 7.4375 -21.859375 C 7.84375 -21.628906 8.128906 -21.3125 8.296875 -20.90625 C 8.460938 -20.507812 8.4375 -20.039062 8.21875 -19.5 C 7.976562 -18.84375 7.835938 -18.128906 7.796875 -17.359375 C 7.753906 -16.585938 7.695312 -15.863281 7.625 -15.1875 C 7.582031 -14.863281 7.539062 -14.539062 7.5 -14.21875 C 7.457031 -13.894531 7.414062 -13.578125 7.375 -13.265625 L 11.546875 -13.265625 C 11.722656 -14.554688 11.921875 -15.847656 12.140625 -17.140625 C 12.367188 -18.429688 12.613281 -19.71875 12.875 -21 Z M 12.875 -21 "/></g></g></g><g fill="#000000" fill-opacity="1"><g transform="translate(282.059699, 49.944588)"><g><path d="M 12.515625 -6.359375 C 13.085938 -6.335938 13.550781 -6.171875 13.90625 -5.859375 C 14.257812 -5.554688 14.488281 -5.175781 14.59375 -4.71875 C 14.707031 -4.269531 14.707031 -3.820312 14.59375 -3.375 C 14.488281 -2.925781 14.257812 -2.554688 13.90625 -2.265625 C 13.550781 -1.972656 13.085938 -1.847656 12.515625 -1.890625 C 11.148438 -1.929688 9.785156 -1.921875 8.421875 -1.859375 C 7.066406 -1.796875 5.707031 -1.65625 4.34375 -1.4375 C 3.925781 -1.351562 3.488281 -1.382812 3.03125 -1.53125 C 2.570312 -1.6875 2.1875 -1.9375 1.875 -2.28125 C 1.5625 -2.625 1.445312 -3.0625 1.53125 -3.59375 C 1.875 -6.375 2.25 -9.144531 2.65625 -11.90625 C 3.0625 -14.664062 3.503906 -17.414062 3.984375 -20.15625 C 4.046875 -20.5 4.164062 -20.800781 4.34375 -21.0625 C 4.507812 -21.34375 4.738281 -21.570312 5.03125 -21.75 C 5.332031 -21.925781 5.707031 -22.023438 6.15625 -22.046875 C 8.3125 -22.128906 10.46875 -22.09375 12.625 -21.9375 C 13.207031 -21.894531 13.671875 -21.707031 14.015625 -21.375 C 14.367188 -21.039062 14.597656 -20.648438 14.703125 -20.203125 C 14.816406 -19.753906 14.816406 -19.304688 14.703125 -18.859375 C 14.597656 -18.421875 14.367188 -18.0625 14.015625 -17.78125 C 13.671875 -17.507812 13.207031 -17.394531 12.625 -17.4375 C 11.144531 -17.53125 9.632812 -17.578125 8.09375 -17.578125 C 8 -16.992188 7.898438 -16.410156 7.796875 -15.828125 C 7.703125 -15.253906 7.613281 -14.675781 7.53125 -14.09375 C 8.351562 -14.070312 9.144531 -14.035156 9.90625 -13.984375 C 10.5 -13.898438 11.019531 -13.664062 11.46875 -13.28125 C 11.925781 -12.90625 12.15625 -12.390625 12.15625 -11.734375 C 12.15625 -11.347656 12.046875 -10.972656 11.828125 -10.609375 C 11.617188 -10.253906 11.34375 -9.96875 11 -9.75 C 10.664062 -9.53125 10.300781 -9.441406 9.90625 -9.484375 C 8.882812 -9.578125 7.863281 -9.613281 6.84375 -9.59375 C 6.757812 -9.039062 6.675781 -8.476562 6.59375 -7.90625 C 6.519531 -7.332031 6.441406 -6.757812 6.359375 -6.1875 C 7.378906 -6.28125 8.398438 -6.347656 9.421875 -6.390625 C 10.441406 -6.429688 11.472656 -6.421875 12.515625 -6.359375 Z M 12.515625 -6.359375 "/></g></g></g><g fill="#000000" fill-opacity="1"><g transform="translate(299.849698, 49.944588)"><g><path d="M 6.515625 -21.515625 C 7.691406 -21.296875 8.828125 -20.960938 9.921875 -20.515625 C 11.023438 -20.078125 12.046875 -19.4375 12.984375 -18.59375 C 14.003906 -17.675781 14.796875 -16.582031 15.359375 -15.3125 C 15.921875 -14.039062 16.117188 -12.71875 15.953125 -11.34375 C 15.816406 -10.15625 15.441406 -9.0625 14.828125 -8.0625 C 14.222656 -7.0625 13.476562 -6.1875 12.59375 -5.4375 C 11.613281 -4.59375 10.457031 -3.914062 9.125 -3.40625 C 7.800781 -2.894531 6.53125 -2.441406 5.3125 -2.046875 C 4.96875 -1.941406 4.617188 -1.847656 4.265625 -1.765625 C 3.921875 -1.691406 3.578125 -1.671875 3.234375 -1.703125 C 2.753906 -1.785156 2.335938 -2.015625 1.984375 -2.390625 C 1.640625 -2.773438 1.476562 -3.207031 1.5 -3.6875 C 1.632812 -9.125 1.90625 -14.582031 2.3125 -20.0625 C 2.351562 -20.6875 2.554688 -21.117188 2.921875 -21.359375 C 3.296875 -21.597656 3.738281 -21.726562 4.25 -21.75 C 4.757812 -21.769531 5.253906 -21.738281 5.734375 -21.65625 C 5.992188 -21.613281 6.253906 -21.566406 6.515625 -21.515625 Z M 11.3125 -11.0625 C 11.59375 -11.882812 11.632812 -12.617188 11.4375 -13.265625 C 11.25 -13.921875 10.90625 -14.492188 10.40625 -14.984375 C 9.90625 -15.472656 9.316406 -15.878906 8.640625 -16.203125 C 7.960938 -16.523438 7.269531 -16.753906 6.5625 -16.890625 C 6.363281 -13.585938 6.207031 -10.328125 6.09375 -7.109375 C 6.832031 -7.347656 7.546875 -7.625 8.234375 -7.9375 C 8.921875 -8.25 9.535156 -8.65625 10.078125 -9.15625 C 10.617188 -9.65625 11.03125 -10.289062 11.3125 -11.0625 Z M 11.3125 -11.0625 "/></g></g></g><g fill="#000000" fill-opacity="1"><g transform="translate(318.869686, 49.944588)"><g><path d="M 17.546875 -17.0625 C 17.671875 -15.988281 17.679688 -14.816406 17.578125 -13.546875 C 17.484375 -12.273438 17.253906 -11.003906 16.890625 -9.734375 C 16.523438 -8.460938 16.019531 -7.28125 15.375 -6.1875 C 14.726562 -5.101562 13.925781 -4.1875 12.96875 -3.4375 C 12.019531 -2.6875 10.914062 -2.203125 9.65625 -1.984375 C 8.34375 -1.765625 7.21875 -1.867188 6.28125 -2.296875 C 5.351562 -2.722656 4.582031 -3.367188 3.96875 -4.234375 C 3.363281 -5.109375 2.878906 -6.117188 2.515625 -7.265625 C 2.160156 -8.421875 1.90625 -9.613281 1.75 -10.84375 C 1.601562 -12.070312 1.523438 -13.253906 1.515625 -14.390625 C 1.503906 -15.535156 1.53125 -16.53125 1.59375 -17.375 C 1.632812 -17.945312 1.816406 -18.40625 2.140625 -18.75 C 2.472656 -19.09375 2.863281 -19.320312 3.3125 -19.4375 C 3.757812 -19.5625 4.203125 -19.5625 4.640625 -19.4375 C 5.085938 -19.320312 5.453125 -19.09375 5.734375 -18.75 C 6.015625 -18.40625 6.132812 -17.945312 6.09375 -17.375 C 6.070312 -17.070312 6.050781 -16.566406 6.03125 -15.859375 C 6.007812 -15.148438 6.019531 -14.332031 6.0625 -13.40625 C 6.101562 -12.488281 6.1875 -11.566406 6.3125 -10.640625 C 6.445312 -9.722656 6.640625 -8.90625 6.890625 -8.1875 C 7.140625 -7.46875 7.472656 -6.953125 7.890625 -6.640625 C 8.304688 -6.335938 8.835938 -6.332031 9.484375 -6.625 C 10.359375 -7.03125 11.054688 -7.644531 11.578125 -8.46875 C 12.097656 -9.300781 12.476562 -10.226562 12.71875 -11.25 C 12.957031 -12.269531 13.097656 -13.289062 13.140625 -14.3125 C 13.179688 -15.332031 13.148438 -16.25 13.046875 -17.0625 C 12.972656 -17.644531 13.0625 -18.101562 13.3125 -18.4375 C 13.570312 -18.78125 13.914062 -19.007812 14.34375 -19.125 C 14.78125 -19.238281 15.226562 -19.238281 15.6875 -19.125 C 16.144531 -19.007812 16.550781 -18.773438 16.90625 -18.421875 C 17.257812 -18.078125 17.472656 -17.625 17.546875 -17.0625 Z M 17.546875 -17.0625 "/></g></g></g><g fill="#000000" fill-opacity="1"><g transform="translate(339.509652, 49.944588)"><g><path d="M 13.234375 -7.46875 C 13.804688 -7.507812 14.265625 -7.394531 14.609375 -7.125 C 14.953125 -6.851562 15.179688 -6.5 15.296875 -6.0625 C 15.421875 -5.625 15.421875 -5.171875 15.296875 -4.703125 C 15.179688 -4.242188 14.945312 -3.847656 14.59375 -3.515625 C 14.238281 -3.191406 13.785156 -3.007812 13.234375 -2.96875 C 11.710938 -2.863281 10.21875 -2.671875 8.75 -2.390625 C 7.28125 -2.117188 5.8125 -1.769531 4.34375 -1.34375 C 3.925781 -1.226562 3.488281 -1.253906 3.03125 -1.421875 C 2.570312 -1.597656 2.191406 -1.867188 1.890625 -2.234375 C 1.585938 -2.609375 1.457031 -3.046875 1.5 -3.546875 C 1.738281 -5.878906 1.972656 -8.210938 2.203125 -10.546875 C 2.429688 -12.890625 2.65625 -15.234375 2.875 -17.578125 C 2.9375 -18.140625 3.132812 -18.59375 3.46875 -18.9375 C 3.8125 -19.289062 4.210938 -19.519531 4.671875 -19.625 C 5.140625 -19.738281 5.585938 -19.738281 6.015625 -19.625 C 6.441406 -19.519531 6.789062 -19.296875 7.0625 -18.953125 C 7.332031 -18.617188 7.4375 -18.160156 7.375 -17.578125 C 7.195312 -15.722656 7.015625 -13.867188 6.828125 -12.015625 C 6.648438 -10.160156 6.472656 -8.316406 6.296875 -6.484375 C 8.554688 -6.960938 10.867188 -7.289062 13.234375 -7.46875 Z M 13.234375 -7.46875 "/></g></g></g><g fill="#000000" fill-opacity="1"><g transform="translate(357.899619, 49.944588)"><g><path d="M 12.515625 -6.359375 C 13.085938 -6.335938 13.550781 -6.171875 13.90625 -5.859375 C 14.257812 -5.554688 14.488281 -5.175781 14.59375 -4.71875 C 14.707031 -4.269531 14.707031 -3.820312 14.59375 -3.375 C 14.488281 -2.925781 14.257812 -2.554688 13.90625 -2.265625 C 13.550781 -1.972656 13.085938 -1.847656 12.515625 -1.890625 C 11.148438 -1.929688 9.785156 -1.921875 8.421875 -1.859375 C 7.066406 -1.796875 5.707031 -1.65625 4.34375 -1.4375 C 3.925781 -1.351562 3.488281 -1.382812 3.03125 -1.53125 C 2.570312 -1.6875 2.1875 -1.9375 1.875 -2.28125 C 1.5625 -2.625 1.445312 -3.0625 1.53125 -3.59375 C 1.875 -6.375 2.25 -9.144531 2.65625 -11.90625 C 3.0625 -14.664062 3.503906 -17.414062 3.984375 -20.15625 C 4.046875 -20.5 4.164062 -20.800781 4.34375 -21.0625 C 4.507812 -21.34375 4.738281 -21.570312 5.03125 -21.75 C 5.332031 -21.925781 5.707031 -22.023438 6.15625 -22.046875 C 8.3125 -22.128906 10.46875 -22.09375 12.625 -21.9375 C 13.207031 -21.894531 13.671875 -21.707031 14.015625 -21.375 C 14.367188 -21.039062 14.597656 -20.648438 14.703125 -20.203125 C 14.816406 -19.753906 14.816406 -19.304688 14.703125 -18.859375 C 14.597656 -18.421875 14.367188 -18.0625 14.015625 -17.78125 C 13.671875 -17.507812 13.207031 -17.394531 12.625 -17.4375 C 11.144531 -17.53125 9.632812 -17.578125 8.09375 -17.578125 C 8 -16.992188 7.898438 -16.410156 7.796875 -15.828125 C 7.703125 -15.253906 7.613281 -14.675781 7.53125 -14.09375 C 8.351562 -14.070312 9.144531 -14.035156 9.90625 -13.984375 C 10.5 -13.898438 11.019531 -13.664062 11.46875 -13.28125 C 11.925781 -12.90625 12.15625 -12.390625 12.15625 -11.734375 C 12.15625 -11.347656 12.046875 -10.972656 11.828125 -10.609375 C 11.617188 -10.253906 11.34375 -9.96875 11 -9.75 C 10.664062 -9.53125 10.300781 -9.441406 9.90625 -9.484375 C 8.882812 -9.578125 7.863281 -9.613281 6.84375 -9.59375 C 6.757812 -9.039062 6.675781 -8.476562 6.59375 -7.90625 C 6.519531 -7.332031 6.441406 -6.757812 6.359375 -6.1875 C 7.378906 -6.28125 8.398438 -6.347656 9.421875 -6.390625 C 10.441406 -6.429688 11.472656 -6.421875 12.515625 -6.359375 Z M 12.515625 -6.359375 "/></g></g></g></svg>