<svg xmlns="http://www.w3.org/2000/svg" xmlns:xlink="http://www.w3.org/1999/xlink" width="100" zoomAndPan="magnify" viewBox="0 0 75 74.999997" height="100" preserveAspectRatio="xMidYMid meet" version="1.0"><defs><g/><clipPath id="9cc4c98008"><path d="M 50 31 L 55.363281 31 L 55.363281 33 L 50 33 Z M 50 31 " clip-rule="nonzero"/></clipPath><clipPath id="7c060dfe8f"><path d="M 24 23 L 49 23 L 49 56.59375 L 24 56.59375 Z M 24 23 " clip-rule="nonzero"/></clipPath><clipPath id="a538f9a92d"><path d="M 33 16.09375 L 35 16.09375 L 35 20 L 33 20 Z M 33 16.09375 " clip-rule="nonzero"/></clipPath><clipPath id="eefbbb4bc8"><path d="M 16.363281 31 L 20 31 L 20 35 L 16.363281 35 Z M 16.363281 31 " clip-rule="nonzero"/></clipPath></defs><g clip-path="url(#9cc4c98008)"><path fill="#000000" d="M 54.761719 31.71875 C 53.570312 31.359375 52.351562 31.695312 51.140625 31.710938 C 50.550781 31.71875 50.625 32.636719 51.210938 32.628906 C 52.335938 32.613281 53.476562 32.285156 54.582031 32.621094 C 55.152344 32.792969 55.320312 31.886719 54.761719 31.71875 Z M 54.761719 31.71875 " fill-opacity="1" fill-rule="nonzero"/></g><path fill="#000000" d="M 52.035156 40.828125 C 51.617188 40.40625 51.011719 41.101562 51.425781 41.519531 C 52.035156 42.132812 52.707031 42.871094 52.742188 43.78125 C 52.765625 44.375 53.683594 44.300781 53.660156 43.710938 C 53.609375 42.554688 52.808594 41.617188 52.035156 40.828125 Z M 52.035156 40.828125 " fill-opacity="1" fill-rule="nonzero"/><path fill="#73a0b1" d="M 42.410156 46.851562 L 42.410156 46.847656 C 42.347656 46.769531 42.277344 46.699219 42.199219 46.636719 C 41.476562 46.058594 40.320312 46.0625 39.441406 46.039062 C 38.222656 46.007812 36.996094 45.910156 35.78125 46.070312 C 35.222656 46.144531 34.667969 46.300781 34.105469 46.34375 C 33.703125 46.375 33.296875 46.386719 32.898438 46.421875 C 32.457031 46.457031 31.984375 46.488281 31.574219 46.664062 C 31.234375 46.808594 31.125 47.242188 31.621094 47.179688 C 31.773438 47.152344 31.894531 47.195312 31.996094 47.3125 C 32.289062 47.3125 32.585938 47.3125 32.882812 47.304688 C 34.382812 47.289062 35.882812 47.253906 37.378906 47.324219 C 38.265625 47.363281 39.136719 47.488281 40.023438 47.417969 C 40.65625 47.367188 41.316406 47.300781 41.917969 47.101562 C 42.046875 47.0625 42.171875 47.011719 42.289062 46.949219 C 42.332031 46.921875 42.375 46.894531 42.417969 46.863281 C 42.402344 46.871094 42.402344 46.863281 42.410156 46.851562 Z M 42.410156 46.851562 " fill-opacity="1" fill-rule="nonzero"/><path fill="#fdbe10" d="M 38.203125 39.820312 C 38.488281 38.675781 38.894531 37.574219 39.421875 36.519531 C 39.210938 36.429688 39.027344 36.304688 38.867188 36.144531 C 38.375 36.390625 37.867188 36.429688 37.34375 36.261719 C 37.074219 36.175781 36.824219 36.054688 36.589844 35.898438 C 36.144531 36.09375 35.636719 36.117188 35.144531 36.125 L 34.867188 36.125 C 36.265625 38.8125 36.550781 42.132812 36.558594 45.066406 L 36.558594 45.078125 C 36.671875 45.070312 36.789062 45.0625 36.902344 45.058594 C 37.082031 45.058594 37.261719 45.058594 37.441406 45.066406 C 37.308594 44.953125 37.261719 44.816406 37.304688 44.644531 C 37.621094 43.042969 37.8125 41.410156 38.203125 39.820312 Z M 38.203125 39.820312 " fill-opacity="1" fill-rule="nonzero"/><path fill="#73a0b1" d="M 40.789062 53.882812 C 40.476562 53.875 40.246094 53.625 40.308594 53.324219 C 40.285156 53.328125 40.261719 53.332031 40.238281 53.332031 C 38.414062 53.339844 36.59375 53.515625 34.765625 53.46875 C 34.007812 53.453125 32.90625 53.464844 32.09375 53.105469 C 31.847656 53.96875 32.082031 54.933594 33.101562 55.203125 C 34.277344 55.511719 35.5 55.148438 36.695312 55.171875 C 37.347656 55.1875 38 55.25 38.65625 55.257812 C 39.226562 55.265625 39.933594 55.304688 40.464844 55.058594 C 40.804688 54.890625 41.050781 54.632812 41.195312 54.28125 C 41.328125 53.941406 41.105469 53.890625 40.789062 53.882812 Z M 40.789062 53.882812 " fill-opacity="1" fill-rule="nonzero"/><path fill="#fdbe10" d="M 36.554688 33.253906 C 36.28125 33.621094 36.4375 34.21875 36.621094 34.585938 C 36.644531 34.628906 36.667969 34.671875 36.691406 34.710938 L 36.753906 34.652344 C 37.058594 34.355469 37.640625 33.792969 37.617188 33.3125 C 37.589844 32.917969 36.746094 33.003906 36.554688 33.253906 Z M 36.554688 33.253906 " fill-opacity="1" fill-rule="nonzero"/><path fill="#73a0b1" d="M 40.789062 50.925781 C 40.738281 50.847656 40.714844 50.761719 40.714844 50.671875 C 40.222656 50.898438 39.617188 50.9375 39.105469 50.96875 C 38.371094 51.015625 37.640625 51.003906 36.902344 50.992188 C 35.308594 50.96875 33.5625 51.070312 32.105469 50.332031 C 31.878906 50.582031 31.703125 50.867188 31.585938 51.1875 C 31.5 51.445312 31.53125 51.609375 31.664062 51.722656 C 31.796875 51.714844 31.902344 51.761719 31.988281 51.863281 L 32.019531 51.871094 C 32.203125 51.914062 32.324219 52.03125 32.378906 52.214844 C 32.683594 52.367188 33.082031 52.414062 33.371094 52.453125 C 33.988281 52.53125 34.605469 52.5625 35.226562 52.554688 C 36.875 52.554688 38.519531 52.417969 40.167969 52.410156 C 40.378906 52.40625 40.523438 52.5 40.605469 52.695312 C 40.898438 52.121094 41.175781 51.519531 40.789062 50.925781 Z M 40.789062 50.925781 " fill-opacity="1" fill-rule="nonzero"/><path fill="#73a0b1" d="M 40.925781 48.304688 C 40.910156 48.285156 40.898438 48.265625 40.886719 48.246094 C 40.457031 48.304688 40.015625 48.34375 39.582031 48.363281 C 39.128906 48.378906 38.683594 48.3125 38.238281 48.28125 C 37.488281 48.230469 36.742188 48.207031 35.996094 48.199219 C 34.789062 48.191406 33.589844 48.214844 32.386719 48.226562 C 32.265625 48.320312 32.132812 48.355469 31.980469 48.332031 C 31.832031 48.625 31.722656 48.980469 31.867188 49.21875 C 31.964844 49.210938 32.054688 49.234375 32.136719 49.289062 C 33.550781 50.191406 35.320312 50.046875 36.925781 50.074219 C 37.59375 50.085938 38.257812 50.097656 38.925781 50.058594 C 39.417969 50.027344 40.085938 50.039062 40.503906 49.734375 C 40.820312 49.5 41.152344 49.757812 41.199219 50.058594 C 41.609375 49.570312 41.3125 48.808594 40.925781 48.304688 Z M 40.925781 48.304688 " fill-opacity="1" fill-rule="nonzero"/><path fill="#fdbe10" d="M 47.753906 32.574219 C 47.597656 30.566406 47.230469 28.3125 46.015625 26.640625 C 44.589844 24.675781 42.273438 24.328125 40 24.140625 C 38.546875 24.035156 37.09375 24.007812 35.636719 24.066406 C 34.464844 24.105469 33.296875 24.167969 32.167969 24.507812 C 30.230469 25.085938 28.65625 26.289062 27.515625 27.949219 C 26.839844 28.9375 26.210938 30.027344 25.910156 31.191406 C 25.589844 32.429688 25.488281 33.6875 25.601562 34.960938 C 25.800781 37.355469 26.367188 40.136719 28.523438 41.539062 C 29.417969 42.121094 30.425781 42.59375 31.117188 43.433594 C 31.546875 43.960938 31.832031 44.648438 32.085938 45.277344 C 32.125 45.371094 32.132812 45.464844 32.105469 45.5625 C 32.601562 45.484375 33.121094 45.480469 33.570312 45.457031 C 34.265625 45.417969 34.949219 45.285156 35.636719 45.179688 L 35.636719 45.136719 C 35.636719 43.300781 35.511719 41.4375 35.101562 39.644531 C 34.816406 38.402344 34.414062 37.144531 33.761719 36.035156 C 33.539062 35.992188 33.328125 35.914062 33.132812 35.804688 C 32.527344 35.453125 32.386719 34.835938 32.742188 34.238281 C 32.878906 34.003906 33.242188 33.859375 33.457031 34.097656 C 33.765625 34.433594 34.046875 34.792969 34.296875 35.175781 C 34.738281 35.21875 35.179688 35.21875 35.621094 35.175781 C 35.714844 35.164062 35.800781 35.15625 35.878906 35.140625 C 35.800781 35.011719 35.734375 34.871094 35.683594 34.730469 C 35.441406 34.082031 35.386719 33.28125 35.820312 32.699219 C 36.273438 32.09375 37.21875 31.976562 37.882812 32.300781 C 38.582031 32.644531 38.652344 33.402344 38.335938 34.054688 C 38.101562 34.527344 37.792969 34.945312 37.410156 35.3125 C 37.746094 35.421875 38.082031 35.410156 38.410156 35.277344 C 38.183594 34.226562 38.773438 32.871094 40.050781 33.257812 C 40.234375 33.3125 40.425781 33.457031 40.421875 33.671875 C 40.386719 34.410156 40.117188 35.046875 39.613281 35.582031 C 39.683594 35.636719 39.761719 35.679688 39.847656 35.707031 C 40.101562 35.234375 40.40625 34.792969 40.753906 34.382812 C 41.183594 33.894531 41.914062 33.472656 42.421875 34.136719 C 42.867188 34.71875 42.0625 35.542969 41.675781 35.898438 C 41.289062 36.257812 40.878906 36.554688 40.382812 36.632812 C 40.089844 37.164062 39.832031 37.710938 39.617188 38.277344 C 38.84375 40.382812 38.636719 42.632812 38.203125 44.820312 C 38.1875 44.925781 38.132812 45.015625 38.046875 45.085938 C 38.285156 45.097656 38.523438 45.105469 38.761719 45.109375 C 39.261719 45.113281 39.765625 45.125 40.265625 45.167969 C 40.722656 45.195312 41.175781 45.257812 41.621094 45.363281 C 42.210938 42.964844 45.003906 41.765625 46.230469 39.746094 C 47.554688 37.574219 47.949219 35.078125 47.753906 32.574219 Z M 47.753906 32.574219 " fill-opacity="1" fill-rule="nonzero"/><path fill="#73a0b1" d="M 39.285156 34.523438 C 39.339844 34.425781 39.386719 34.320312 39.421875 34.210938 C 39.34375 34.300781 39.296875 34.40625 39.285156 34.523438 Z M 39.285156 34.523438 " fill-opacity="1" fill-rule="nonzero"/><g clip-path="url(#7c060dfe8f)"><path fill="#000000" d="M 47.835938 28.234375 C 47.210938 26.417969 46.039062 24.867188 44.257812 24.058594 C 43.097656 23.53125 41.777344 23.394531 40.519531 23.273438 C 39.101562 23.144531 37.675781 23.097656 36.25 23.132812 C 34 23.171875 31.8125 23.382812 29.820312 24.519531 C 27.988281 25.566406 26.777344 27.28125 25.769531 29.082031 C 24.550781 31.269531 24.460938 33.949219 24.851562 36.367188 C 25.207031 38.566406 25.910156 40.785156 27.796875 42.144531 C 28.621094 42.742188 29.578125 43.152344 30.292969 43.886719 C 30.734375 44.335938 30.984375 45.007812 31.214844 45.582031 C 31.242188 45.648438 31.28125 45.707031 31.335938 45.753906 C 31.144531 45.824219 30.964844 45.921875 30.804688 46.046875 C 30.011719 46.660156 30.324219 47.742188 31.105469 48.027344 C 31.058594 48.140625 31.023438 48.25 30.996094 48.335938 C 30.8125 48.902344 30.847656 49.539062 31.226562 49.941406 C 30.921875 50.34375 30.679688 50.8125 30.625 51.308594 C 30.558594 51.894531 30.84375 52.320312 31.292969 52.566406 C 30.800781 53.804688 31.113281 55.273438 32.414062 55.898438 C 33.859375 56.59375 35.574219 56.03125 37.109375 56.09375 C 38.574219 56.152344 40.441406 56.507812 41.578125 55.339844 C 41.933594 54.976562 42.226562 54.410156 42.140625 53.890625 C 42.070312 53.449219 41.777344 53.199219 41.417969 53.078125 C 41.769531 52.320312 42.0625 51.597656 41.757812 50.808594 C 42.53125 50.117188 42.398438 48.929688 41.871094 48.058594 C 42.320312 47.953125 42.757812 47.789062 43.09375 47.46875 C 43.574219 47.007812 43.265625 46.371094 42.867188 45.996094 C 42.75 45.886719 42.621094 45.792969 42.484375 45.710938 C 42.671875 44.878906 43.230469 44.214844 43.816406 43.605469 C 44.546875 42.847656 45.359375 42.175781 46.078125 41.410156 C 47.679688 39.703125 48.484375 37.324219 48.675781 35.027344 C 48.863281 32.707031 48.582031 30.441406 47.835938 28.234375 Z M 31.664062 51.722656 C 31.53125 51.609375 31.5 51.441406 31.585938 51.1875 C 31.703125 50.867188 31.875 50.582031 32.105469 50.332031 C 33.5625 51.070312 35.308594 50.96875 36.902344 50.992188 C 37.636719 51.003906 38.367188 51.015625 39.105469 50.96875 C 39.617188 50.9375 40.226562 50.898438 40.710938 50.671875 C 40.714844 50.761719 40.738281 50.847656 40.785156 50.925781 C 41.171875 51.519531 40.898438 52.121094 40.601562 52.695312 C 40.523438 52.503906 40.378906 52.410156 40.167969 52.414062 C 38.519531 52.421875 36.875 52.558594 35.222656 52.558594 C 34.601562 52.566406 33.984375 52.535156 33.371094 52.457031 C 33.082031 52.417969 32.679688 52.371094 32.378906 52.21875 C 32.324219 52.035156 32.203125 51.917969 32.015625 51.875 L 31.984375 51.867188 C 31.902344 51.765625 31.796875 51.71875 31.664062 51.722656 Z M 41.195312 54.277344 C 41.050781 54.625 40.804688 54.882812 40.464844 55.050781 C 39.929688 55.296875 39.226562 55.257812 38.65625 55.25 C 38 55.242188 37.347656 55.179688 36.695312 55.164062 C 35.5 55.140625 34.28125 55.503906 33.101562 55.195312 C 32.082031 54.925781 31.847656 53.960938 32.09375 53.101562 C 32.910156 53.457031 34.011719 53.445312 34.765625 53.464844 C 36.59375 53.507812 38.414062 53.332031 40.238281 53.324219 C 40.261719 53.324219 40.285156 53.324219 40.308594 53.320312 C 40.246094 53.617188 40.476562 53.867188 40.789062 53.875 C 41.105469 53.882812 41.328125 53.941406 41.195312 54.277344 Z M 41.195312 50.054688 C 41.144531 49.753906 40.8125 49.5 40.496094 49.730469 C 40.078125 50.039062 39.410156 50.027344 38.917969 50.058594 C 38.253906 50.097656 37.585938 50.085938 36.921875 50.074219 C 35.316406 50.046875 33.546875 50.191406 32.132812 49.289062 C 32.050781 49.230469 31.960938 49.210938 31.863281 49.21875 C 31.722656 48.980469 31.824219 48.621094 31.976562 48.332031 C 32.128906 48.351562 32.261719 48.316406 32.382812 48.222656 C 33.589844 48.210938 34.789062 48.1875 35.992188 48.195312 C 36.738281 48.203125 37.488281 48.226562 38.230469 48.277344 C 38.679688 48.308594 39.125 48.375 39.578125 48.359375 C 40.011719 48.339844 40.449219 48.300781 40.882812 48.242188 C 40.894531 48.261719 40.90625 48.285156 40.921875 48.300781 C 41.3125 48.808594 41.609375 49.570312 41.195312 50.054688 Z M 42.285156 46.945312 C 42.167969 47.007812 42.042969 47.058594 41.914062 47.09375 C 41.3125 47.296875 40.652344 47.359375 40.019531 47.410156 C 39.132812 47.484375 38.261719 47.359375 37.375 47.316406 C 35.878906 47.25 34.378906 47.28125 32.878906 47.300781 C 32.582031 47.304688 32.289062 47.304688 31.992188 47.308594 C 31.894531 47.191406 31.769531 47.144531 31.617188 47.175781 C 31.125 47.238281 31.230469 46.804688 31.570312 46.65625 C 31.980469 46.484375 32.453125 46.453125 32.894531 46.414062 C 33.296875 46.382812 33.699219 46.371094 34.101562 46.339844 C 34.664062 46.296875 35.222656 46.140625 35.777344 46.066406 C 36.992188 45.90625 38.21875 46 39.4375 46.035156 C 40.316406 46.058594 41.472656 46.050781 42.195312 46.632812 C 42.273438 46.691406 42.34375 46.761719 42.40625 46.84375 L 42.40625 46.847656 C 42.398438 46.859375 42.394531 46.867188 42.410156 46.855469 C 42.371094 46.886719 42.328125 46.917969 42.289062 46.945312 Z M 36.589844 35.898438 C 36.824219 36.054688 37.074219 36.175781 37.34375 36.261719 C 37.867188 36.429688 38.375 36.390625 38.867188 36.144531 C 39.027344 36.304688 39.210938 36.429688 39.421875 36.519531 C 38.894531 37.574219 38.488281 38.675781 38.203125 39.820312 C 37.8125 41.410156 37.621094 43.042969 37.304688 44.644531 C 37.261719 44.8125 37.308594 44.953125 37.441406 45.0625 C 37.261719 45.058594 37.085938 45.054688 36.902344 45.058594 C 36.789062 45.058594 36.671875 45.066406 36.558594 45.074219 L 36.558594 45.0625 C 36.554688 42.128906 36.265625 38.808594 34.867188 36.125 L 35.144531 36.125 C 35.636719 36.117188 36.144531 36.09375 36.589844 35.898438 Z M 36.554688 33.253906 C 36.746094 32.996094 37.589844 32.917969 37.613281 33.3125 C 37.640625 33.789062 37.058594 34.355469 36.75 34.652344 L 36.6875 34.710938 C 36.664062 34.671875 36.640625 34.625 36.617188 34.585938 C 36.4375 34.21875 36.28125 33.621094 36.554688 33.253906 Z M 39.285156 34.523438 C 39.296875 34.40625 39.34375 34.300781 39.421875 34.210938 C 39.386719 34.320312 39.339844 34.425781 39.285156 34.523438 Z M 46.230469 39.746094 C 45.003906 41.765625 42.214844 42.96875 41.621094 45.367188 C 41.175781 45.261719 40.726562 45.199219 40.269531 45.171875 C 39.769531 45.128906 39.265625 45.117188 38.761719 45.113281 C 38.523438 45.113281 38.285156 45.097656 38.046875 45.089844 C 38.136719 45.019531 38.1875 44.929688 38.207031 44.820312 C 38.636719 42.636719 38.84375 40.386719 39.621094 38.28125 C 39.835938 37.714844 40.089844 37.167969 40.382812 36.636719 C 40.878906 36.558594 41.277344 36.269531 41.675781 35.902344 C 42.074219 35.535156 42.867188 34.71875 42.425781 34.140625 C 41.917969 33.476562 41.191406 33.898438 40.757812 34.386719 C 40.40625 34.792969 40.105469 35.234375 39.847656 35.707031 C 39.761719 35.679688 39.683594 35.636719 39.613281 35.582031 C 40.117188 35.046875 40.386719 34.410156 40.421875 33.671875 C 40.425781 33.457031 40.234375 33.3125 40.050781 33.257812 C 38.773438 32.871094 38.183594 34.226562 38.410156 35.277344 C 38.082031 35.410156 37.746094 35.421875 37.410156 35.3125 C 37.792969 34.949219 38.105469 34.53125 38.339844 34.058594 C 38.65625 33.40625 38.585938 32.648438 37.886719 32.304688 C 37.226562 31.980469 36.277344 32.097656 35.824219 32.703125 C 35.394531 33.285156 35.445312 34.085938 35.6875 34.734375 C 35.742188 34.875 35.804688 35.011719 35.886719 35.144531 C 35.804688 35.160156 35.722656 35.167969 35.625 35.179688 C 35.183594 35.222656 34.742188 35.222656 34.304688 35.179688 C 34.050781 34.796875 33.769531 34.4375 33.460938 34.101562 C 33.246094 33.863281 32.882812 34.007812 32.746094 34.238281 C 32.390625 34.84375 32.53125 35.457031 33.136719 35.808594 C 33.335938 35.917969 33.542969 35.996094 33.769531 36.039062 C 34.417969 37.148438 34.824219 38.40625 35.105469 39.648438 C 35.515625 41.441406 35.636719 43.304688 35.640625 45.140625 L 35.640625 45.183594 C 34.953125 45.285156 34.269531 45.421875 33.574219 45.460938 C 33.125 45.484375 32.605469 45.488281 32.109375 45.5625 C 32.136719 45.46875 32.128906 45.371094 32.089844 45.28125 C 31.835938 44.652344 31.554688 43.964844 31.121094 43.4375 C 30.429688 42.597656 29.421875 42.125 28.527344 41.542969 C 26.375 40.140625 25.804688 37.359375 25.605469 34.964844 C 25.492188 33.691406 25.59375 32.433594 25.914062 31.195312 C 26.21875 30.03125 26.84375 28.941406 27.519531 27.953125 C 28.660156 26.289062 30.234375 25.085938 32.171875 24.511719 C 33.300781 24.171875 34.46875 24.109375 35.640625 24.066406 C 37.097656 24.011719 38.550781 24.035156 40.003906 24.144531 C 42.277344 24.328125 44.59375 24.679688 46.019531 26.644531 C 47.234375 28.308594 47.597656 30.5625 47.753906 32.574219 C 47.949219 35.078125 47.554688 37.574219 46.230469 39.746094 Z M 46.230469 39.746094 " fill-opacity="1" fill-rule="nonzero"/></g><g clip-path="url(#a538f9a92d)"><path fill="#000000" d="M 33.988281 16.757812 L 33.988281 19.34375 C 33.988281 19.933594 34.902344 19.859375 34.902344 19.273438 L 34.902344 16.6875 C 34.902344 16.09375 33.988281 16.167969 33.988281 16.757812 Z M 33.988281 16.757812 " fill-opacity="1" fill-rule="nonzero"/></g><path fill="#000000" d="M 25.527344 19.820312 C 25.507812 19.230469 24.59375 19.304688 24.609375 19.890625 C 24.625 20.496094 24.804688 21.058594 25.039062 21.609375 C 25.257812 22.125 25.511719 22.628906 25.527344 23.199219 C 25.546875 23.792969 26.464844 23.71875 26.445312 23.128906 C 26.40625 21.953125 25.558594 21 25.527344 19.820312 Z M 25.527344 19.820312 " fill-opacity="1" fill-rule="nonzero"/><g clip-path="url(#eefbbb4bc8)"><path fill="#000000" d="M 19.5625 33.566406 C 19.023438 32.707031 18.160156 32.15625 17.542969 31.363281 C 17.179688 30.894531 16.414062 31.40625 16.777344 31.878906 C 17.398438 32.671875 18.261719 33.226562 18.800781 34.085938 C 19.117188 34.582031 19.878906 34.066406 19.5625 33.566406 Z M 19.5625 33.566406 " fill-opacity="1" fill-rule="nonzero"/></g><path fill="#000000" d="M 46.691406 18.558594 C 45.929688 19.128906 45.152344 19.714844 44.699219 20.570312 C 44.421875 21.097656 45.246094 21.503906 45.523438 20.980469 C 45.898438 20.269531 46.578125 19.789062 47.207031 19.320312 C 47.679688 18.96875 47.167969 18.199219 46.691406 18.558594 Z M 46.691406 18.558594 " fill-opacity="1" fill-rule="nonzero"/><path fill="#000000" d="M 23.53125 42.117188 C 22.503906 41.21875 21.613281 43.074219 20.953125 43.550781 C 20.472656 43.894531 20.984375 44.660156 21.46875 44.3125 C 21.804688 44.074219 22.058594 43.734375 22.324219 43.425781 C 22.464844 43.253906 22.621094 43.09375 22.785156 42.941406 C 22.871094 42.875 22.988281 42.855469 22.929688 42.804688 C 23.371094 43.195312 23.976562 42.503906 23.53125 42.117188 Z M 23.53125 42.117188 " fill-opacity="1" fill-rule="nonzero"/><g fill="#000000" fill-opacity="1"><g transform="translate(6.82635, 72.016384)"><g><path d="M 6.5 -7.515625 C 7.144531 -7.078125 7.65625 -6.503906 8.03125 -5.796875 C 8.40625 -5.085938 8.554688 -4.332031 8.484375 -3.53125 C 8.398438 -2.832031 8.160156 -2.234375 7.765625 -1.734375 C 7.367188 -1.234375 6.882812 -0.84375 6.3125 -0.5625 C 5.738281 -0.289062 5.128906 -0.140625 4.484375 -0.109375 C 3.835938 -0.078125 3.21875 -0.179688 2.625 -0.421875 C 2.03125 -0.671875 1.53125 -1.070312 1.125 -1.625 C 0.914062 -1.882812 0.828125 -2.140625 0.859375 -2.390625 C 0.898438 -2.640625 1.007812 -2.859375 1.1875 -3.046875 C 1.375 -3.234375 1.597656 -3.363281 1.859375 -3.4375 C 2.128906 -3.507812 2.398438 -3.507812 2.671875 -3.4375 C 2.941406 -3.375 3.175781 -3.207031 3.375 -2.9375 C 3.46875 -2.8125 3.640625 -2.738281 3.890625 -2.71875 C 4.148438 -2.707031 4.40625 -2.71875 4.65625 -2.75 C 4.914062 -2.789062 5.097656 -2.835938 5.203125 -2.890625 C 5.441406 -3.003906 5.625 -3.175781 5.75 -3.40625 C 5.875 -3.632812 5.921875 -3.878906 5.890625 -4.140625 C 5.847656 -4.460938 5.726562 -4.726562 5.53125 -4.9375 C 5.332031 -5.144531 5.097656 -5.328125 4.828125 -5.484375 C 4.554688 -5.648438 4.28125 -5.800781 4 -5.9375 C 3.71875 -6.082031 3.472656 -6.242188 3.265625 -6.421875 C 2.691406 -6.929688 2.335938 -7.484375 2.203125 -8.078125 C 2.078125 -8.679688 2.117188 -9.28125 2.328125 -9.875 C 2.546875 -10.476562 2.878906 -11.019531 3.328125 -11.5 C 3.785156 -11.988281 4.304688 -12.367188 4.890625 -12.640625 C 5.203125 -12.785156 5.488281 -12.820312 5.75 -12.75 C 6.019531 -12.6875 6.25 -12.554688 6.4375 -12.359375 C 6.632812 -12.171875 6.765625 -11.945312 6.828125 -11.6875 C 6.898438 -11.4375 6.890625 -11.191406 6.796875 -10.953125 C 6.710938 -10.710938 6.519531 -10.523438 6.21875 -10.390625 C 6.019531 -10.296875 5.789062 -10.164062 5.53125 -10 C 5.269531 -9.84375 5.050781 -9.648438 4.875 -9.421875 C 4.707031 -9.203125 4.675781 -8.953125 4.78125 -8.671875 C 4.84375 -8.484375 4.976562 -8.320312 5.1875 -8.1875 C 5.40625 -8.050781 5.632812 -7.929688 5.875 -7.828125 C 6.125 -7.722656 6.332031 -7.617188 6.5 -7.515625 Z M 6.5 -7.515625 "/></g></g></g><g fill="#000000" fill-opacity="1"><g transform="translate(16.187629, 72.016384)"><g><path d="M 7.75 -4.171875 C 8.070312 -4.265625 8.351562 -4.253906 8.59375 -4.140625 C 8.832031 -4.023438 9.015625 -3.847656 9.140625 -3.609375 C 9.273438 -3.378906 9.34375 -3.128906 9.34375 -2.859375 C 9.351562 -2.597656 9.285156 -2.351562 9.140625 -2.125 C 8.992188 -1.90625 8.757812 -1.753906 8.4375 -1.671875 C 7.84375 -1.492188 7.234375 -1.363281 6.609375 -1.28125 C 5.992188 -1.207031 5.378906 -1.207031 4.765625 -1.28125 C 4.160156 -1.351562 3.582031 -1.546875 3.03125 -1.859375 C 2.3125 -2.273438 1.757812 -2.84375 1.375 -3.5625 C 1 -4.28125 0.832031 -5.054688 0.875 -5.890625 C 0.914062 -6.703125 1.113281 -7.476562 1.46875 -8.21875 C 1.832031 -8.96875 2.3125 -9.625 2.90625 -10.1875 C 3.507812 -10.757812 4.191406 -11.195312 4.953125 -11.5 C 5.710938 -11.8125 6.503906 -11.941406 7.328125 -11.890625 C 7.660156 -11.859375 7.925781 -11.742188 8.125 -11.546875 C 8.332031 -11.359375 8.46875 -11.132812 8.53125 -10.875 C 8.601562 -10.613281 8.601562 -10.351562 8.53125 -10.09375 C 8.46875 -9.84375 8.332031 -9.632812 8.125 -9.46875 C 7.925781 -9.300781 7.660156 -9.238281 7.328125 -9.28125 C 6.722656 -9.320312 6.148438 -9.207031 5.609375 -8.9375 C 5.066406 -8.664062 4.609375 -8.285156 4.234375 -7.796875 C 3.867188 -7.304688 3.632812 -6.765625 3.53125 -6.171875 C 3.425781 -5.640625 3.453125 -5.210938 3.609375 -4.890625 C 3.765625 -4.578125 4 -4.34375 4.3125 -4.1875 C 4.625 -4.039062 4.976562 -3.945312 5.375 -3.90625 C 5.78125 -3.875 6.1875 -3.882812 6.59375 -3.9375 C 7.007812 -4 7.394531 -4.078125 7.75 -4.171875 Z M 7.75 -4.171875 "/></g></g></g><g fill="#000000" fill-opacity="1"><g transform="translate(26.418916, 72.016384)"><g><path d="M 7.46875 -12.171875 C 7.519531 -12.492188 7.648438 -12.726562 7.859375 -12.875 C 8.078125 -13.03125 8.316406 -13.109375 8.578125 -13.109375 C 8.835938 -13.109375 9.082031 -13.035156 9.3125 -12.890625 C 9.550781 -12.753906 9.738281 -12.5625 9.875 -12.3125 C 10.007812 -12.070312 10.039062 -11.789062 9.96875 -11.46875 C 9.34375 -8.269531 8.914062 -5.046875 8.6875 -1.796875 C 8.664062 -1.472656 8.554688 -1.207031 8.359375 -1 C 8.171875 -0.800781 7.941406 -0.664062 7.671875 -0.59375 C 7.410156 -0.519531 7.15625 -0.519531 6.90625 -0.59375 C 6.65625 -0.664062 6.445312 -0.796875 6.28125 -0.984375 C 6.125 -1.179688 6.054688 -1.453125 6.078125 -1.796875 C 6.109375 -2.335938 6.148438 -2.878906 6.203125 -3.421875 C 6.253906 -3.972656 6.3125 -4.519531 6.375 -5.0625 L 3.984375 -5.0625 C 3.898438 -4.363281 3.816406 -3.671875 3.734375 -2.984375 C 3.660156 -2.296875 3.582031 -1.609375 3.5 -0.921875 C 3.445312 -0.585938 3.320312 -0.320312 3.125 -0.125 C 2.9375 0.0703125 2.707031 0.203125 2.4375 0.265625 C 2.164062 0.328125 1.898438 0.328125 1.640625 0.265625 C 1.390625 0.203125 1.1875 0.0703125 1.03125 -0.125 C 0.882812 -0.320312 0.835938 -0.585938 0.890625 -0.921875 C 0.992188 -1.867188 1.101562 -2.820312 1.21875 -3.78125 C 1.332031 -4.738281 1.441406 -5.703125 1.546875 -6.671875 C 1.609375 -7.117188 1.664062 -7.570312 1.71875 -8.03125 C 1.769531 -8.5 1.820312 -8.96875 1.875 -9.4375 C 1.925781 -9.84375 1.960938 -10.269531 1.984375 -10.71875 C 2.015625 -11.175781 2.109375 -11.59375 2.265625 -11.96875 C 2.378906 -12.289062 2.554688 -12.519531 2.796875 -12.65625 C 3.035156 -12.800781 3.289062 -12.867188 3.5625 -12.859375 C 3.832031 -12.859375 4.082031 -12.789062 4.3125 -12.65625 C 4.550781 -12.53125 4.71875 -12.347656 4.8125 -12.109375 C 4.90625 -11.878906 4.890625 -11.601562 4.765625 -11.28125 C 4.628906 -10.90625 4.546875 -10.492188 4.515625 -10.046875 C 4.492188 -9.597656 4.460938 -9.179688 4.421875 -8.796875 C 4.398438 -8.609375 4.375 -8.421875 4.34375 -8.234375 C 4.320312 -8.046875 4.300781 -7.859375 4.28125 -7.671875 L 6.703125 -7.671875 C 6.804688 -8.421875 6.921875 -9.171875 7.046875 -9.921875 C 7.171875 -10.671875 7.3125 -11.421875 7.46875 -12.171875 Z M 7.46875 -12.171875 "/></g></g></g><g fill="#000000" fill-opacity="1"><g transform="translate(37.294009, 72.016384)"><g><path d="M 7.265625 -3.671875 C 7.597656 -3.660156 7.863281 -3.5625 8.0625 -3.375 C 8.269531 -3.1875 8.40625 -2.960938 8.46875 -2.703125 C 8.53125 -2.441406 8.53125 -2.179688 8.46875 -1.921875 C 8.40625 -1.671875 8.269531 -1.460938 8.0625 -1.296875 C 7.863281 -1.128906 7.597656 -1.050781 7.265625 -1.0625 C 6.472656 -1.09375 5.679688 -1.085938 4.890625 -1.046875 C 4.097656 -1.003906 3.3125 -0.921875 2.53125 -0.796875 C 2.28125 -0.765625 2.019531 -0.789062 1.75 -0.875 C 1.488281 -0.96875 1.265625 -1.109375 1.078125 -1.296875 C 0.898438 -1.492188 0.835938 -1.753906 0.890625 -2.078125 C 1.085938 -3.671875 1.300781 -5.269531 1.53125 -6.875 C 1.769531 -8.476562 2.03125 -10.078125 2.3125 -11.671875 C 2.351562 -11.867188 2.425781 -12.039062 2.53125 -12.1875 C 2.613281 -12.34375 2.742188 -12.476562 2.921875 -12.59375 C 3.097656 -12.707031 3.3125 -12.769531 3.5625 -12.78125 C 4.820312 -12.8125 6.078125 -12.785156 7.328125 -12.703125 C 7.660156 -12.679688 7.925781 -12.570312 8.125 -12.375 C 8.332031 -12.1875 8.46875 -11.960938 8.53125 -11.703125 C 8.601562 -11.441406 8.601562 -11.179688 8.53125 -10.921875 C 8.46875 -10.671875 8.332031 -10.460938 8.125 -10.296875 C 7.925781 -10.140625 7.660156 -10.070312 7.328125 -10.09375 C 6.472656 -10.15625 5.597656 -10.1875 4.703125 -10.1875 C 4.640625 -9.84375 4.578125 -9.503906 4.515625 -9.171875 C 4.460938 -8.835938 4.414062 -8.5 4.375 -8.15625 C 4.84375 -8.144531 5.300781 -8.117188 5.75 -8.078125 C 6.09375 -8.046875 6.394531 -7.914062 6.65625 -7.6875 C 6.914062 -7.457031 7.046875 -7.148438 7.046875 -6.765625 C 7.046875 -6.546875 6.984375 -6.332031 6.859375 -6.125 C 6.742188 -5.914062 6.585938 -5.75 6.390625 -5.625 C 6.191406 -5.5 5.976562 -5.445312 5.75 -5.46875 C 5.15625 -5.519531 4.5625 -5.546875 3.96875 -5.546875 C 3.925781 -5.222656 3.878906 -4.894531 3.828125 -4.5625 C 3.785156 -4.226562 3.738281 -3.894531 3.6875 -3.5625 C 4.28125 -3.625 4.875 -3.660156 5.46875 -3.671875 C 6.0625 -3.691406 6.660156 -3.691406 7.265625 -3.671875 Z M 7.265625 -3.671875 "/></g></g></g><g fill="#000000" fill-opacity="1"><g transform="translate(46.742287, 72.016384)"><g><path d="M 7.53125 -10.78125 C 8.125 -10.238281 8.582031 -9.597656 8.90625 -8.859375 C 9.238281 -8.128906 9.359375 -7.359375 9.265625 -6.546875 C 9.179688 -5.867188 8.960938 -5.238281 8.609375 -4.65625 C 8.253906 -4.070312 7.820312 -3.566406 7.3125 -3.140625 C 6.738281 -2.648438 6.066406 -2.253906 5.296875 -1.953125 C 4.523438 -1.660156 3.785156 -1.398438 3.078125 -1.171875 C 2.878906 -1.097656 2.675781 -1.039062 2.46875 -1 C 2.269531 -0.957031 2.070312 -0.945312 1.875 -0.96875 C 1.601562 -1.007812 1.363281 -1.140625 1.15625 -1.359375 C 0.957031 -1.585938 0.863281 -1.84375 0.875 -2.125 C 0.945312 -5.28125 1.101562 -8.441406 1.34375 -11.609375 C 1.363281 -11.972656 1.476562 -12.222656 1.6875 -12.359375 C 1.90625 -12.503906 2.160156 -12.582031 2.453125 -12.59375 C 2.753906 -12.601562 3.046875 -12.582031 3.328125 -12.53125 C 3.484375 -12.507812 3.632812 -12.488281 3.78125 -12.46875 C 4.457031 -12.320312 5.113281 -12.125 5.75 -11.875 C 6.394531 -11.625 6.988281 -11.257812 7.53125 -10.78125 Z M 6.5625 -6.40625 C 6.726562 -6.875 6.753906 -7.296875 6.640625 -7.671875 C 6.523438 -8.054688 6.320312 -8.390625 6.03125 -8.671875 C 5.75 -8.953125 5.410156 -9.179688 5.015625 -9.359375 C 4.617188 -9.546875 4.21875 -9.6875 3.8125 -9.78125 C 3.695312 -7.875 3.601562 -5.984375 3.53125 -4.109375 C 3.957031 -4.242188 4.367188 -4.398438 4.765625 -4.578125 C 5.171875 -4.765625 5.53125 -5 5.84375 -5.28125 C 6.15625 -5.5625 6.394531 -5.9375 6.5625 -6.40625 Z M 6.5625 -6.40625 "/></g></g></g><g fill="#000000" fill-opacity="1"><g transform="translate(56.903976, 72.016384)"><g><path d="M 9.671875 -10.640625 C 9.953125 -10.179688 10.144531 -9.671875 10.25 -9.109375 C 10.351562 -8.546875 10.398438 -7.976562 10.390625 -7.40625 C 10.378906 -6.832031 10.332031 -6.296875 10.25 -5.796875 C 10.132812 -5.023438 9.894531 -4.296875 9.53125 -3.609375 C 9.175781 -2.929688 8.695312 -2.34375 8.09375 -1.84375 C 7.507812 -1.363281 6.832031 -1.015625 6.0625 -0.796875 C 5.300781 -0.578125 4.554688 -0.582031 3.828125 -0.8125 C 3.335938 -0.96875 2.910156 -1.21875 2.546875 -1.5625 C 2.191406 -1.914062 1.890625 -2.3125 1.640625 -2.75 C 1.398438 -3.195312 1.222656 -3.65625 1.109375 -4.125 C 0.972656 -4.632812 0.890625 -5.222656 0.859375 -5.890625 C 0.835938 -6.554688 0.882812 -7.238281 1 -7.9375 C 1.125 -8.632812 1.316406 -9.285156 1.578125 -9.890625 C 1.847656 -10.492188 2.207031 -10.992188 2.65625 -11.390625 C 3.125 -11.859375 3.679688 -12.191406 4.328125 -12.390625 C 4.984375 -12.585938 5.648438 -12.65625 6.328125 -12.59375 C 7.015625 -12.53125 7.65625 -12.332031 8.25 -12 C 8.84375 -11.664062 9.316406 -11.210938 9.671875 -10.640625 Z M 6.515625 -3.859375 C 6.910156 -4.234375 7.203125 -4.664062 7.390625 -5.15625 C 7.578125 -5.65625 7.691406 -6.171875 7.734375 -6.703125 C 7.785156 -7.242188 7.78125 -7.769531 7.71875 -8.28125 C 7.644531 -8.789062 7.441406 -9.207031 7.109375 -9.53125 C 6.773438 -9.863281 6.335938 -10.023438 5.796875 -10.015625 C 5.492188 -10.015625 5.195312 -9.9375 4.90625 -9.78125 C 4.625 -9.632812 4.394531 -9.4375 4.21875 -9.1875 C 4.007812 -8.894531 3.859375 -8.546875 3.765625 -8.140625 C 3.671875 -7.734375 3.597656 -7.359375 3.546875 -7.015625 C 3.441406 -6.234375 3.484375 -5.46875 3.671875 -4.71875 C 3.734375 -4.5 3.8125 -4.273438 3.90625 -4.046875 C 4.007812 -3.828125 4.148438 -3.648438 4.328125 -3.515625 C 4.628906 -3.296875 4.972656 -3.21875 5.359375 -3.28125 C 5.753906 -3.34375 6.097656 -3.5 6.390625 -3.75 C 6.421875 -3.78125 6.460938 -3.816406 6.515625 -3.859375 Z M 6.515625 -3.859375 "/></g></g></g><path fill="#fdbe10" d="M 4.296875 22.132812 C 3.960938 21.882812 3.679688 21.582031 3.457031 21.226562 C 3.238281 20.875 3.089844 20.488281 3.019531 20.078125 C 2.949219 19.664062 2.957031 19.253906 3.042969 18.847656 C 3.128906 18.4375 3.289062 18.058594 3.523438 17.710938 C 4.035156 17.066406 4.566406 16.433594 5.109375 15.816406 C 5.65625 15.195312 6.222656 14.59375 6.800781 14.007812 C 7.382812 13.421875 7.980469 12.855469 8.59375 12.300781 C 9.207031 11.75 9.832031 11.214844 10.476562 10.699219 C 11.117188 10.183594 11.777344 9.683594 12.445312 9.207031 C 13.117188 8.726562 13.800781 8.265625 14.5 7.824219 C 15.195312 7.382812 15.90625 6.964844 16.625 6.5625 C 17.347656 6.164062 18.078125 5.78125 18.820312 5.421875 C 19.5625 5.0625 20.316406 4.726562 21.078125 4.410156 C 21.839844 4.089844 22.609375 3.796875 23.386719 3.523438 C 24.164062 3.25 24.949219 3 25.742188 2.769531 C 26.535156 2.539062 27.332031 2.332031 28.136719 2.148438 C 28.941406 1.964844 29.75 1.804688 30.5625 1.667969 C 31.375 1.527344 32.191406 1.414062 33.011719 1.320312 C 33.832031 1.230469 34.652344 1.160156 35.476562 1.113281 C 36.300781 1.070312 37.125 1.046875 37.949219 1.046875 C 38.773438 1.050781 39.597656 1.074219 40.421875 1.121094 C 41.246094 1.167969 42.066406 1.238281 42.886719 1.332031 C 43.707031 1.425781 44.523438 1.542969 45.335938 1.683594 C 46.148438 1.824219 46.957031 1.988281 47.757812 2.171875 C 48.5625 2.359375 49.359375 2.566406 50.152344 2.796875 C 50.945312 3.027344 51.730469 3.28125 52.507812 3.554688 C 53.285156 3.832031 54.054688 4.128906 54.8125 4.445312 C 55.574219 4.765625 56.324219 5.105469 57.066406 5.464844 C 57.808594 5.828125 58.539062 6.210938 59.261719 6.613281 C 59.980469 7.015625 60.6875 7.4375 61.382812 7.878906 C 62.082031 8.320312 62.761719 8.785156 63.433594 9.265625 C 64.101562 9.746094 64.757812 10.246094 65.402344 10.761719 C 66.042969 11.28125 66.667969 11.816406 67.28125 12.371094 C 67.890625 12.921875 68.488281 13.492188 69.066406 14.082031 C 69.648438 14.667969 70.207031 15.269531 70.753906 15.890625 C 71.300781 16.507812 71.828125 17.144531 72.335938 17.792969 C 72.570312 18.136719 72.730469 18.515625 72.816406 18.925781 C 72.902344 19.335938 72.910156 19.746094 72.835938 20.15625 C 72.761719 20.570312 72.617188 20.953125 72.394531 21.308594 C 72.171875 21.664062 71.890625 21.960938 71.554688 22.207031 L 69.253906 23.753906 C 68.898438 24.019531 68.507812 24.199219 68.078125 24.304688 C 67.648438 24.40625 67.214844 24.417969 66.78125 24.34375 C 66.34375 24.269531 65.941406 24.113281 65.570312 23.875 C 65.199219 23.632812 64.890625 23.328125 64.644531 22.964844 C 63.839844 21.976562 62.980469 21.039062 62.070312 20.148438 C 61.160156 19.253906 60.203125 18.417969 59.199219 17.632812 C 58.195312 16.84375 57.152344 16.117188 56.070312 15.449219 C 54.984375 14.777344 53.867188 14.167969 52.71875 13.621094 C 51.566406 13.078125 50.386719 12.59375 49.183594 12.179688 C 47.980469 11.761719 46.757812 11.414062 45.511719 11.132812 C 44.269531 10.851562 43.015625 10.640625 41.75 10.5 C 40.484375 10.355469 39.214844 10.285156 37.9375 10.285156 C 36.664062 10.28125 35.394531 10.351562 34.128906 10.492188 C 32.863281 10.628906 31.605469 10.839844 30.363281 11.117188 C 29.121094 11.394531 27.894531 11.738281 26.691406 12.152344 C 25.484375 12.566406 24.304688 13.046875 23.152344 13.589844 C 22 14.132812 20.882812 14.738281 19.796875 15.40625 C 18.710938 16.074219 17.667969 16.800781 16.660156 17.582031 C 15.65625 18.367188 14.699219 19.203125 13.785156 20.089844 C 12.871094 20.980469 12.011719 21.917969 11.203125 22.902344 C 10.957031 23.269531 10.648438 23.570312 10.273438 23.808594 C 9.902344 24.046875 9.5 24.203125 9.066406 24.277344 C 8.628906 24.351562 8.195312 24.335938 7.769531 24.234375 C 7.339844 24.128906 6.945312 23.945312 6.59375 23.683594 Z M 4.296875 22.132812 " fill-opacity="1" fill-rule="nonzero"/><g fill="#000000" fill-opacity="1"><g transform="translate(8.000708, 22.21086)"><g><path d="M 1.25 -4.609375 C 1.488281 -4.398438 1.722656 -4.175781 1.953125 -3.9375 C 2.179688 -3.707031 2.414062 -3.476562 2.65625 -3.25 C 2.707031 -3.164062 2.738281 -3.078125 2.75 -2.984375 C 2.769531 -2.898438 2.757812 -2.816406 2.71875 -2.734375 C 2.675781 -2.648438 2.617188 -2.582031 2.546875 -2.53125 C 2.472656 -2.488281 2.394531 -2.46875 2.3125 -2.46875 C 2.226562 -2.46875 2.148438 -2.507812 2.078125 -2.59375 C 1.898438 -2.78125 1.71875 -2.972656 1.53125 -3.171875 C 1.351562 -3.367188 1.164062 -3.554688 0.96875 -3.734375 C 0.769531 -3.921875 0.554688 -4.078125 0.328125 -4.203125 C 0.285156 -4.234375 0.242188 -4.253906 0.203125 -4.265625 C 0.160156 -4.285156 0.125 -4.304688 0.09375 -4.328125 C 0.101562 -4.265625 0.101562 -4.195312 0.09375 -4.125 C 0.09375 -4.0625 0.0976562 -4.003906 0.109375 -3.953125 C 0.160156 -3.796875 0.226562 -3.648438 0.3125 -3.515625 C 0.394531 -3.390625 0.476562 -3.269531 0.5625 -3.15625 C 0.632812 -3.070312 0.664062 -2.988281 0.65625 -2.90625 C 0.65625 -2.832031 0.628906 -2.757812 0.578125 -2.6875 C 0.523438 -2.613281 0.460938 -2.554688 0.390625 -2.515625 C 0.316406 -2.472656 0.238281 -2.457031 0.15625 -2.46875 C 0.0703125 -2.476562 0 -2.515625 -0.0625 -2.578125 C -0.144531 -2.648438 -0.222656 -2.722656 -0.296875 -2.796875 C -0.367188 -2.867188 -0.441406 -2.9375 -0.515625 -3 C -0.554688 -3.03125 -0.597656 -3.066406 -0.640625 -3.109375 C -0.691406 -3.148438 -0.742188 -3.1875 -0.796875 -3.21875 C -0.847656 -3.257812 -0.890625 -3.285156 -0.921875 -3.296875 C -0.929688 -3.285156 -0.941406 -3.28125 -0.953125 -3.28125 C -0.960938 -3.25 -0.957031 -3.195312 -0.9375 -3.125 C -0.914062 -3.0625 -0.90625 -3.019531 -0.90625 -3 C -0.875 -2.925781 -0.835938 -2.847656 -0.796875 -2.765625 C -0.765625 -2.691406 -0.726562 -2.628906 -0.6875 -2.578125 C -0.507812 -2.242188 -0.296875 -1.945312 -0.046875 -1.6875 C 0.203125 -1.425781 0.457031 -1.164062 0.71875 -0.90625 C 0.800781 -0.820312 0.847656 -0.734375 0.859375 -0.640625 C 0.867188 -0.546875 0.851562 -0.460938 0.8125 -0.390625 C 0.769531 -0.316406 0.710938 -0.25 0.640625 -0.1875 C 0.566406 -0.132812 0.488281 -0.113281 0.40625 -0.125 C 0.320312 -0.132812 0.238281 -0.175781 0.15625 -0.25 C -0.0625 -0.457031 -0.273438 -0.671875 -0.484375 -0.890625 C -0.703125 -1.109375 -0.894531 -1.335938 -1.0625 -1.578125 C -1.175781 -1.722656 -1.285156 -1.882812 -1.390625 -2.0625 C -1.503906 -2.238281 -1.597656 -2.421875 -1.671875 -2.609375 C -1.753906 -2.804688 -1.800781 -3 -1.8125 -3.1875 C -1.832031 -3.363281 -1.800781 -3.53125 -1.71875 -3.6875 C -1.632812 -3.84375 -1.519531 -3.96875 -1.375 -4.0625 C -1.226562 -4.15625 -1.0625 -4.1875 -0.875 -4.15625 C -0.863281 -4.15625 -0.847656 -4.15625 -0.828125 -4.15625 C -0.816406 -4.15625 -0.804688 -4.148438 -0.796875 -4.140625 C -0.835938 -4.316406 -0.84375 -4.476562 -0.8125 -4.625 C -0.78125 -4.78125 -0.710938 -4.90625 -0.609375 -5 C -0.503906 -5.101562 -0.359375 -5.171875 -0.171875 -5.203125 C 0.00390625 -5.234375 0.175781 -5.21875 0.34375 -5.15625 C 0.507812 -5.09375 0.664062 -5.007812 0.8125 -4.90625 C 0.96875 -4.800781 1.113281 -4.703125 1.25 -4.609375 Z M 1.25 -4.609375 "/></g></g></g><g fill="#000000" fill-opacity="1"><g transform="translate(11.093036, 18.676463)"><g><path d="M 0.453125 -3.875 C 0.722656 -3.601562 0.992188 -3.328125 1.265625 -3.046875 C 1.535156 -2.773438 1.800781 -2.503906 2.0625 -2.234375 C 2.132812 -2.160156 2.171875 -2.078125 2.171875 -1.984375 C 2.179688 -1.898438 2.164062 -1.820312 2.125 -1.75 C 2.082031 -1.6875 2.019531 -1.628906 1.9375 -1.578125 C 1.851562 -1.523438 1.765625 -1.503906 1.671875 -1.515625 C 1.585938 -1.535156 1.507812 -1.578125 1.4375 -1.640625 C 1.363281 -1.722656 1.285156 -1.804688 1.203125 -1.890625 C 1.117188 -1.984375 1.035156 -2.066406 0.953125 -2.140625 L 0.296875 -1.59375 C 0.367188 -1.457031 0.445312 -1.328125 0.53125 -1.203125 C 0.613281 -1.078125 0.695312 -0.953125 0.78125 -0.828125 C 0.832031 -0.734375 0.847656 -0.644531 0.828125 -0.5625 C 0.816406 -0.488281 0.78125 -0.421875 0.71875 -0.359375 C 0.65625 -0.296875 0.578125 -0.253906 0.484375 -0.234375 C 0.390625 -0.210938 0.300781 -0.21875 0.21875 -0.25 C 0.132812 -0.28125 0.0625 -0.34375 0 -0.4375 C -0.207031 -0.75 -0.40625 -1.070312 -0.59375 -1.40625 C -0.78125 -1.738281 -0.929688 -2.082031 -1.046875 -2.4375 C -1.117188 -2.613281 -1.175781 -2.8125 -1.21875 -3.03125 C -1.269531 -3.257812 -1.296875 -3.488281 -1.296875 -3.71875 C -1.304688 -3.945312 -1.269531 -4.15625 -1.1875 -4.34375 C -1.113281 -4.507812 -1.019531 -4.613281 -0.90625 -4.65625 C -0.789062 -4.695312 -0.671875 -4.691406 -0.546875 -4.640625 C -0.421875 -4.597656 -0.296875 -4.53125 -0.171875 -4.4375 C -0.046875 -4.34375 0.0703125 -4.242188 0.1875 -4.140625 C 0.300781 -4.046875 0.390625 -3.957031 0.453125 -3.875 Z M -0.15625 -2.4375 C -0.144531 -2.4375 -0.132812 -2.425781 -0.125 -2.40625 C -0.125 -2.394531 -0.117188 -2.378906 -0.109375 -2.359375 C -0.0351562 -2.429688 0.0351562 -2.5 0.109375 -2.5625 C 0.191406 -2.625 0.269531 -2.691406 0.34375 -2.765625 C 0.257812 -2.859375 0.171875 -2.945312 0.078125 -3.03125 C -0.00390625 -3.125 -0.09375 -3.210938 -0.1875 -3.296875 C -0.21875 -3.328125 -0.25 -3.359375 -0.28125 -3.390625 C -0.320312 -3.429688 -0.363281 -3.476562 -0.40625 -3.53125 C -0.40625 -3.4375 -0.394531 -3.34375 -0.375 -3.25 C -0.363281 -3.113281 -0.335938 -2.976562 -0.296875 -2.84375 C -0.253906 -2.71875 -0.207031 -2.582031 -0.15625 -2.4375 Z M -0.15625 -2.4375 "/></g></g></g><g fill="#000000" fill-opacity="1"><g transform="translate(13.614424, 16.314947)"><g><path d="M -0.125 -4.328125 C -0.175781 -4.421875 -0.191406 -4.503906 -0.171875 -4.578125 C -0.148438 -4.660156 -0.101562 -4.726562 -0.03125 -4.78125 C 0.03125 -4.84375 0.109375 -4.875 0.203125 -4.875 C 0.296875 -4.882812 0.382812 -4.867188 0.46875 -4.828125 C 0.550781 -4.796875 0.625 -4.738281 0.6875 -4.65625 C 1.207031 -3.707031 1.691406 -2.75 2.140625 -1.78125 C 2.179688 -1.695312 2.1875 -1.613281 2.15625 -1.53125 C 2.132812 -1.445312 2.09375 -1.375 2.03125 -1.3125 C 1.976562 -1.25 1.910156 -1.207031 1.828125 -1.1875 C 1.742188 -1.164062 1.664062 -1.175781 1.59375 -1.21875 C 1.375 -1.332031 1.164062 -1.441406 0.96875 -1.546875 C 0.769531 -1.660156 0.578125 -1.773438 0.390625 -1.890625 C 0.484375 -1.648438 0.585938 -1.414062 0.703125 -1.1875 C 0.816406 -0.957031 0.925781 -0.726562 1.03125 -0.5 C 1.09375 -0.394531 1.109375 -0.300781 1.078125 -0.21875 C 1.046875 -0.144531 1 -0.0820312 0.9375 -0.03125 C 0.875 0.0195312 0.796875 0.0507812 0.703125 0.0625 C 0.609375 0.0820312 0.519531 0.0703125 0.4375 0.03125 C 0.351562 0 0.289062 -0.0664062 0.25 -0.171875 C -0.175781 -0.992188 -0.5625 -1.835938 -0.90625 -2.703125 C -0.957031 -2.785156 -0.96875 -2.867188 -0.9375 -2.953125 C -0.914062 -3.046875 -0.875 -3.125 -0.8125 -3.1875 C -0.757812 -3.25 -0.691406 -3.289062 -0.609375 -3.3125 C -0.523438 -3.34375 -0.441406 -3.332031 -0.359375 -3.28125 L 0.765625 -2.640625 C 0.617188 -2.929688 0.472656 -3.210938 0.328125 -3.484375 C 0.179688 -3.765625 0.03125 -4.046875 -0.125 -4.328125 Z M -0.125 -4.328125 "/></g></g></g><g fill="#000000" fill-opacity="1"><g transform="translate(16.62738, 14.018521)"><g><path d="M 1.1875 -3.71875 C 1.40625 -3.40625 1.617188 -3.085938 1.828125 -2.765625 C 2.046875 -2.441406 2.257812 -2.117188 2.46875 -1.796875 C 2.519531 -1.703125 2.539062 -1.609375 2.53125 -1.515625 C 2.519531 -1.429688 2.484375 -1.359375 2.421875 -1.296875 C 2.367188 -1.242188 2.296875 -1.203125 2.203125 -1.171875 C 2.117188 -1.140625 2.035156 -1.132812 1.953125 -1.15625 C 1.867188 -1.1875 1.796875 -1.25 1.734375 -1.34375 C 1.671875 -1.4375 1.609375 -1.535156 1.546875 -1.640625 C 1.484375 -1.742188 1.414062 -1.835938 1.34375 -1.921875 L 0.59375 -1.5 C 0.644531 -1.351562 0.695312 -1.210938 0.75 -1.078125 C 0.8125 -0.941406 0.863281 -0.800781 0.90625 -0.65625 C 0.945312 -0.550781 0.953125 -0.460938 0.921875 -0.390625 C 0.898438 -0.316406 0.851562 -0.253906 0.78125 -0.203125 C 0.707031 -0.160156 0.617188 -0.132812 0.515625 -0.125 C 0.421875 -0.125 0.332031 -0.144531 0.25 -0.1875 C 0.175781 -0.238281 0.117188 -0.316406 0.078125 -0.421875 C -0.0664062 -0.773438 -0.195312 -1.128906 -0.3125 -1.484375 C -0.425781 -1.847656 -0.515625 -2.21875 -0.578125 -2.59375 C -0.597656 -2.78125 -0.609375 -2.988281 -0.609375 -3.21875 C -0.617188 -3.445312 -0.601562 -3.675781 -0.5625 -3.90625 C -0.519531 -4.132812 -0.441406 -4.328125 -0.328125 -4.484375 C -0.222656 -4.640625 -0.113281 -4.726562 0 -4.75 C 0.125 -4.769531 0.238281 -4.742188 0.34375 -4.671875 C 0.457031 -4.597656 0.566406 -4.503906 0.671875 -4.390625 C 0.785156 -4.273438 0.882812 -4.15625 0.96875 -4.03125 C 1.0625 -3.914062 1.132812 -3.8125 1.1875 -3.71875 Z M 0.328125 -2.4375 C 0.328125 -2.425781 0.328125 -2.410156 0.328125 -2.390625 C 0.335938 -2.367188 0.34375 -2.351562 0.34375 -2.34375 C 0.4375 -2.394531 0.523438 -2.441406 0.609375 -2.484375 C 0.703125 -2.535156 0.789062 -2.59375 0.875 -2.65625 C 0.800781 -2.757812 0.726562 -2.859375 0.65625 -2.953125 C 0.59375 -3.054688 0.523438 -3.160156 0.453125 -3.265625 C 0.429688 -3.304688 0.40625 -3.347656 0.375 -3.390625 C 0.34375 -3.429688 0.3125 -3.476562 0.28125 -3.53125 C 0.257812 -3.4375 0.25 -3.347656 0.25 -3.265625 C 0.238281 -3.128906 0.238281 -2.992188 0.25 -2.859375 C 0.269531 -2.722656 0.296875 -2.582031 0.328125 -2.4375 Z M 0.328125 -2.4375 "/></g></g></g><g fill="#000000" fill-opacity="1"><g transform="translate(19.555415, 12.186299)"><g><path d="M 1.265625 -3.328125 C 1.492188 -3.441406 1.695312 -3.46875 1.875 -3.40625 C 2.0625 -3.351562 2.207031 -3.210938 2.3125 -2.984375 C 2.40625 -2.773438 2.453125 -2.550781 2.453125 -2.3125 C 2.453125 -2.070312 2.394531 -1.851562 2.28125 -1.65625 C 2.164062 -1.425781 1.992188 -1.253906 1.765625 -1.140625 C 1.546875 -1.023438 1.328125 -0.953125 1.109375 -0.921875 C 0.804688 -0.859375 0.539062 -0.867188 0.3125 -0.953125 C 0.0820312 -1.035156 -0.109375 -1.164062 -0.265625 -1.34375 C -0.421875 -1.519531 -0.546875 -1.722656 -0.640625 -1.953125 C -0.734375 -2.191406 -0.785156 -2.445312 -0.796875 -2.71875 C -0.816406 -2.988281 -0.800781 -3.253906 -0.75 -3.515625 C -0.707031 -3.773438 -0.625 -4.015625 -0.5 -4.234375 C -0.382812 -4.460938 -0.222656 -4.648438 -0.015625 -4.796875 C 0.179688 -4.941406 0.421875 -5.03125 0.703125 -5.0625 C 0.804688 -5.070312 0.894531 -5.050781 0.96875 -5 C 1.050781 -4.957031 1.109375 -4.894531 1.140625 -4.8125 C 1.179688 -4.726562 1.195312 -4.640625 1.1875 -4.546875 C 1.1875 -4.460938 1.15625 -4.390625 1.09375 -4.328125 C 1.039062 -4.273438 0.957031 -4.234375 0.84375 -4.203125 C 0.664062 -4.191406 0.515625 -4.117188 0.390625 -3.984375 C 0.265625 -3.847656 0.171875 -3.679688 0.109375 -3.484375 C 0.046875 -3.285156 0.015625 -3.078125 0.015625 -2.859375 C 0.0234375 -2.648438 0.0664062 -2.457031 0.140625 -2.28125 C 0.210938 -2.101562 0.3125 -1.960938 0.4375 -1.859375 C 0.507812 -1.785156 0.601562 -1.738281 0.71875 -1.71875 C 0.84375 -1.707031 0.957031 -1.722656 1.0625 -1.765625 C 1.175781 -1.804688 1.28125 -1.851562 1.375 -1.90625 C 1.46875 -1.96875 1.53125 -2.050781 1.5625 -2.15625 C 1.582031 -2.226562 1.585938 -2.304688 1.578125 -2.390625 C 1.585938 -2.398438 1.585938 -2.414062 1.578125 -2.4375 C 1.566406 -2.457031 1.5625 -2.484375 1.5625 -2.515625 C 1.550781 -2.503906 1.539062 -2.5 1.53125 -2.5 C 1.519531 -2.488281 1.507812 -2.476562 1.5 -2.46875 C 1.488281 -2.46875 1.472656 -2.460938 1.453125 -2.453125 C 1.429688 -2.347656 1.375 -2.265625 1.28125 -2.203125 C 1.195312 -2.148438 1.101562 -2.117188 1 -2.109375 C 0.894531 -2.109375 0.796875 -2.15625 0.703125 -2.25 C 0.578125 -2.375 0.515625 -2.488281 0.515625 -2.59375 C 0.523438 -2.695312 0.566406 -2.796875 0.640625 -2.890625 C 0.722656 -2.984375 0.828125 -3.066406 0.953125 -3.140625 C 1.078125 -3.210938 1.179688 -3.273438 1.265625 -3.328125 Z M 1.265625 -3.328125 "/></g></g></g><g fill="#000000" fill-opacity="1"><g transform="translate(22.980808, 10.50617)"><g><path d="M 1.8125 -2 C 1.914062 -2.039062 2.003906 -2.039062 2.078125 -2 C 2.160156 -1.96875 2.226562 -1.914062 2.28125 -1.84375 C 2.34375 -1.78125 2.375 -1.703125 2.375 -1.609375 C 2.382812 -1.515625 2.367188 -1.429688 2.328125 -1.359375 C 2.296875 -1.285156 2.226562 -1.226562 2.125 -1.1875 C 1.863281 -1.101562 1.613281 -1.007812 1.375 -0.90625 C 1.144531 -0.8125 0.914062 -0.695312 0.6875 -0.5625 C 0.613281 -0.507812 0.53125 -0.484375 0.4375 -0.484375 C 0.34375 -0.484375 0.253906 -0.5 0.171875 -0.53125 C 0.0976562 -0.570312 0.0507812 -0.644531 0.03125 -0.75 C -0.101562 -1.28125 -0.226562 -1.800781 -0.34375 -2.3125 C -0.46875 -2.832031 -0.578125 -3.363281 -0.671875 -3.90625 C -0.679688 -3.957031 -0.679688 -4.015625 -0.671875 -4.078125 C -0.671875 -4.128906 -0.644531 -4.179688 -0.59375 -4.234375 C -0.550781 -4.296875 -0.488281 -4.34375 -0.40625 -4.375 C -0.0390625 -4.539062 0.34375 -4.6875 0.75 -4.8125 C 0.863281 -4.832031 0.960938 -4.828125 1.046875 -4.796875 C 1.128906 -4.765625 1.195312 -4.710938 1.25 -4.640625 C 1.300781 -4.566406 1.332031 -4.484375 1.34375 -4.390625 C 1.351562 -4.304688 1.332031 -4.226562 1.28125 -4.15625 C 1.238281 -4.082031 1.164062 -4.03125 1.0625 -4 C 0.800781 -3.914062 0.53125 -3.820312 0.25 -3.71875 C 0.257812 -3.601562 0.273438 -3.488281 0.296875 -3.375 C 0.328125 -3.269531 0.359375 -3.160156 0.390625 -3.046875 C 0.535156 -3.109375 0.675781 -3.160156 0.8125 -3.203125 C 0.925781 -3.222656 1.035156 -3.210938 1.140625 -3.171875 C 1.242188 -3.128906 1.316406 -3.046875 1.359375 -2.921875 C 1.390625 -2.859375 1.398438 -2.789062 1.390625 -2.71875 C 1.390625 -2.644531 1.359375 -2.570312 1.296875 -2.5 C 1.242188 -2.4375 1.1875 -2.398438 1.125 -2.390625 C 0.9375 -2.328125 0.75 -2.257812 0.5625 -2.1875 C 0.582031 -2.09375 0.609375 -1.988281 0.640625 -1.875 C 0.671875 -1.769531 0.695312 -1.660156 0.71875 -1.546875 C 0.894531 -1.640625 1.070312 -1.722656 1.25 -1.796875 C 1.4375 -1.867188 1.625 -1.9375 1.8125 -2 Z M 1.8125 -2 "/></g></g></g><g fill="#000000" fill-opacity="1"><g transform="translate(26.070563, 9.352348)"><g/></g></g><g fill="#000000" fill-opacity="1"><g transform="translate(27.892021, 8.768209)"><g><path d="M 1.4375 -4.140625 C 1.425781 -4.253906 1.445312 -4.347656 1.5 -4.421875 C 1.5625 -4.492188 1.632812 -4.539062 1.71875 -4.5625 C 1.800781 -4.59375 1.882812 -4.597656 1.96875 -4.578125 C 2.0625 -4.554688 2.140625 -4.507812 2.203125 -4.4375 C 2.265625 -4.375 2.296875 -4.289062 2.296875 -4.1875 C 2.328125 -3.9375 2.359375 -3.671875 2.390625 -3.390625 C 2.429688 -3.109375 2.457031 -2.828125 2.46875 -2.546875 C 2.476562 -2.265625 2.460938 -1.988281 2.421875 -1.71875 C 2.378906 -1.445312 2.300781 -1.195312 2.1875 -0.96875 C 2.070312 -0.738281 1.890625 -0.53125 1.640625 -0.34375 C 1.566406 -0.28125 1.484375 -0.25 1.390625 -0.25 C 1.304688 -0.257812 1.226562 -0.296875 1.15625 -0.359375 C 1.09375 -0.421875 1.046875 -0.492188 1.015625 -0.578125 C 0.992188 -0.660156 0.992188 -0.742188 1.015625 -0.828125 C 1.035156 -0.910156 1.09375 -0.992188 1.1875 -1.078125 C 1.300781 -1.148438 1.382812 -1.25 1.4375 -1.375 C 1.488281 -1.5 1.53125 -1.628906 1.5625 -1.765625 C 1.414062 -1.671875 1.265625 -1.609375 1.109375 -1.578125 C 0.953125 -1.546875 0.785156 -1.546875 0.609375 -1.578125 C 0.390625 -1.648438 0.207031 -1.765625 0.0625 -1.921875 C -0.0820312 -2.085938 -0.1875 -2.273438 -0.25 -2.484375 C -0.320312 -2.703125 -0.363281 -2.925781 -0.375 -3.15625 C -0.382812 -3.382812 -0.367188 -3.59375 -0.328125 -3.78125 C -0.304688 -3.894531 -0.257812 -3.976562 -0.1875 -4.03125 C -0.125 -4.082031 -0.0507812 -4.109375 0.03125 -4.109375 C 0.125 -4.109375 0.207031 -4.085938 0.28125 -4.046875 C 0.363281 -4.015625 0.425781 -3.957031 0.46875 -3.875 C 0.519531 -3.789062 0.535156 -3.695312 0.515625 -3.59375 C 0.492188 -3.53125 0.476562 -3.4375 0.46875 -3.3125 C 0.46875 -3.195312 0.472656 -3.078125 0.484375 -2.953125 C 0.503906 -2.835938 0.535156 -2.726562 0.578125 -2.625 C 0.628906 -2.53125 0.703125 -2.472656 0.796875 -2.453125 C 0.890625 -2.410156 0.972656 -2.40625 1.046875 -2.4375 C 1.128906 -2.476562 1.207031 -2.535156 1.28125 -2.609375 C 1.351562 -2.691406 1.410156 -2.78125 1.453125 -2.875 C 1.492188 -2.96875 1.53125 -3.050781 1.5625 -3.125 C 1.53125 -3.300781 1.503906 -3.472656 1.484375 -3.640625 C 1.472656 -3.804688 1.457031 -3.972656 1.4375 -4.140625 Z M 1.4375 -4.140625 "/></g></g></g><g fill="#000000" fill-opacity="1"><g transform="translate(31.391693, 7.975481)"><g><path d="M 2.71875 -4.03125 C 2.832031 -3.894531 2.914062 -3.738281 2.96875 -3.5625 C 3.03125 -3.382812 3.070312 -3.195312 3.09375 -3 C 3.113281 -2.8125 3.117188 -2.632812 3.109375 -2.46875 C 3.109375 -2.207031 3.0625 -1.957031 2.96875 -1.71875 C 2.882812 -1.488281 2.753906 -1.28125 2.578125 -1.09375 C 2.398438 -0.914062 2.1875 -0.773438 1.9375 -0.671875 C 1.695312 -0.566406 1.453125 -0.535156 1.203125 -0.578125 C 1.046875 -0.609375 0.898438 -0.671875 0.765625 -0.765625 C 0.628906 -0.867188 0.507812 -0.984375 0.40625 -1.109375 C 0.3125 -1.242188 0.238281 -1.390625 0.1875 -1.546875 C 0.113281 -1.703125 0.0625 -1.890625 0.03125 -2.109375 C 0 -2.335938 -0.0078125 -2.566406 0 -2.796875 C 0 -3.023438 0.03125 -3.242188 0.09375 -3.453125 C 0.164062 -3.660156 0.265625 -3.84375 0.390625 -4 C 0.515625 -4.175781 0.679688 -4.3125 0.890625 -4.40625 C 1.109375 -4.5 1.328125 -4.546875 1.546875 -4.546875 C 1.773438 -4.554688 1.992188 -4.519531 2.203125 -4.4375 C 2.421875 -4.351562 2.59375 -4.21875 2.71875 -4.03125 Z M 1.96875 -1.6875 C 2.082031 -1.820312 2.160156 -1.972656 2.203125 -2.140625 C 2.242188 -2.316406 2.257812 -2.492188 2.25 -2.671875 C 2.25 -2.847656 2.222656 -3.019531 2.171875 -3.1875 C 2.128906 -3.34375 2.046875 -3.46875 1.921875 -3.5625 C 1.804688 -3.65625 1.660156 -3.691406 1.484375 -3.671875 C 1.378906 -3.660156 1.28125 -3.625 1.1875 -3.5625 C 1.101562 -3.5 1.035156 -3.421875 0.984375 -3.328125 C 0.929688 -3.234375 0.894531 -3.113281 0.875 -2.96875 C 0.863281 -2.832031 0.859375 -2.707031 0.859375 -2.59375 C 0.859375 -2.34375 0.90625 -2.097656 1 -1.859375 C 1.019531 -1.785156 1.050781 -1.710938 1.09375 -1.640625 C 1.132812 -1.578125 1.191406 -1.519531 1.265625 -1.46875 C 1.367188 -1.40625 1.484375 -1.390625 1.609375 -1.421875 C 1.734375 -1.460938 1.835938 -1.535156 1.921875 -1.640625 C 1.941406 -1.648438 1.957031 -1.664062 1.96875 -1.6875 Z M 1.96875 -1.6875 "/></g></g></g><g fill="#000000" fill-opacity="1"><g transform="translate(35.21245, 7.510047)"><g><path d="M 3.3125 -3.359375 C 3.332031 -3.148438 3.332031 -2.921875 3.3125 -2.671875 C 3.300781 -2.421875 3.265625 -2.171875 3.203125 -1.921875 C 3.140625 -1.679688 3.046875 -1.457031 2.921875 -1.25 C 2.804688 -1.039062 2.65625 -0.859375 2.46875 -0.703125 C 2.289062 -0.554688 2.082031 -0.457031 1.84375 -0.40625 C 1.59375 -0.363281 1.375 -0.378906 1.1875 -0.453125 C 1.007812 -0.535156 0.863281 -0.660156 0.75 -0.828125 C 0.632812 -0.992188 0.535156 -1.1875 0.453125 -1.40625 C 0.378906 -1.632812 0.328125 -1.863281 0.296875 -2.09375 C 0.265625 -2.320312 0.242188 -2.546875 0.234375 -2.765625 C 0.222656 -2.984375 0.226562 -3.175781 0.25 -3.34375 C 0.238281 -3.445312 0.265625 -3.535156 0.328125 -3.609375 C 0.390625 -3.679688 0.460938 -3.726562 0.546875 -3.75 C 0.640625 -3.769531 0.726562 -3.769531 0.8125 -3.75 C 0.894531 -3.726562 0.960938 -3.6875 1.015625 -3.625 C 1.078125 -3.5625 1.109375 -3.476562 1.109375 -3.375 C 1.109375 -3.3125 1.101562 -3.210938 1.09375 -3.078125 C 1.09375 -2.941406 1.097656 -2.785156 1.109375 -2.609375 C 1.117188 -2.429688 1.140625 -2.253906 1.171875 -2.078125 C 1.203125 -1.898438 1.238281 -1.738281 1.28125 -1.59375 C 1.332031 -1.457031 1.398438 -1.359375 1.484375 -1.296875 C 1.566406 -1.242188 1.671875 -1.25 1.796875 -1.3125 C 1.960938 -1.394531 2.09375 -1.515625 2.1875 -1.671875 C 2.28125 -1.835938 2.347656 -2.015625 2.390625 -2.203125 C 2.441406 -2.398438 2.46875 -2.597656 2.46875 -2.796875 C 2.46875 -2.992188 2.460938 -3.171875 2.453125 -3.328125 C 2.421875 -3.441406 2.429688 -3.53125 2.484375 -3.59375 C 2.535156 -3.664062 2.601562 -3.710938 2.6875 -3.734375 C 2.769531 -3.753906 2.851562 -3.753906 2.9375 -3.734375 C 3.019531 -3.710938 3.09375 -3.664062 3.15625 -3.59375 C 3.226562 -3.53125 3.28125 -3.453125 3.3125 -3.359375 Z M 3.3125 -3.359375 "/></g></g></g><g fill="#000000" fill-opacity="1"><g transform="translate(39.004942, 7.437146)"><g><path d="M 3.3125 -0.28125 C 3.363281 -0.195312 3.378906 -0.109375 3.359375 -0.015625 C 3.347656 0.0664062 3.304688 0.132812 3.234375 0.1875 C 3.171875 0.238281 3.097656 0.273438 3.015625 0.296875 C 2.929688 0.316406 2.84375 0.304688 2.75 0.265625 C 2.65625 0.234375 2.582031 0.175781 2.53125 0.09375 C 2.375 -0.15625 2.195312 -0.390625 2 -0.609375 C 1.8125 -0.835938 1.601562 -1.039062 1.375 -1.21875 C 1.332031 -0.988281 1.289062 -0.757812 1.25 -0.53125 C 1.21875 -0.300781 1.1875 -0.0703125 1.15625 0.15625 C 1.132812 0.257812 1.085938 0.34375 1.015625 0.40625 C 0.953125 0.46875 0.875 0.503906 0.78125 0.515625 C 0.695312 0.535156 0.613281 0.53125 0.53125 0.5 C 0.445312 0.46875 0.378906 0.414062 0.328125 0.34375 C 0.285156 0.269531 0.269531 0.179688 0.28125 0.078125 C 0.351562 -0.335938 0.414062 -0.757812 0.46875 -1.1875 C 0.519531 -1.625 0.609375 -2.039062 0.734375 -2.4375 C 0.785156 -2.644531 0.878906 -2.84375 1.015625 -3.03125 C 1.148438 -3.226562 1.3125 -3.382812 1.5 -3.5 C 1.6875 -3.613281 1.898438 -3.671875 2.140625 -3.671875 C 2.304688 -3.660156 2.457031 -3.613281 2.59375 -3.53125 C 2.726562 -3.445312 2.84375 -3.34375 2.9375 -3.21875 C 3.03125 -3.09375 3.085938 -2.945312 3.109375 -2.78125 C 3.128906 -2.625 3.109375 -2.460938 3.046875 -2.296875 C 2.984375 -2.160156 2.890625 -2.023438 2.765625 -1.890625 C 2.640625 -1.753906 2.488281 -1.632812 2.3125 -1.53125 C 2.6875 -1.164062 3.019531 -0.75 3.3125 -0.28125 Z M 2.28125 -2.6875 C 2.269531 -2.757812 2.238281 -2.800781 2.1875 -2.8125 C 2.144531 -2.820312 2.09375 -2.8125 2.03125 -2.78125 C 1.976562 -2.757812 1.921875 -2.722656 1.859375 -2.671875 C 1.804688 -2.617188 1.757812 -2.566406 1.71875 -2.515625 C 1.675781 -2.472656 1.648438 -2.441406 1.640625 -2.421875 C 1.597656 -2.347656 1.5625 -2.257812 1.53125 -2.15625 C 1.613281 -2.15625 1.6875 -2.171875 1.75 -2.203125 C 1.8125 -2.242188 1.875 -2.28125 1.9375 -2.3125 C 1.957031 -2.332031 2 -2.363281 2.0625 -2.40625 C 2.125 -2.457031 2.175781 -2.503906 2.21875 -2.546875 C 2.257812 -2.597656 2.28125 -2.644531 2.28125 -2.6875 Z M 2.28125 -2.6875 "/></g></g></g><g fill="#000000" fill-opacity="1"><g transform="translate(42.794811, 7.783896)"><g/></g></g><g fill="#000000" fill-opacity="1"><g transform="translate(44.694629, 8.065805)"><g><path d="M 2.65625 -1.953125 C 2.832031 -1.765625 2.953125 -1.539062 3.015625 -1.28125 C 3.085938 -1.019531 3.082031 -0.769531 3 -0.53125 C 2.914062 -0.3125 2.789062 -0.132812 2.625 0 C 2.46875 0.144531 2.285156 0.238281 2.078125 0.28125 C 1.867188 0.320312 1.660156 0.320312 1.453125 0.28125 C 1.242188 0.25 1.050781 0.164062 0.875 0.03125 C 0.707031 -0.09375 0.578125 -0.253906 0.484375 -0.453125 C 0.441406 -0.554688 0.429688 -0.644531 0.453125 -0.71875 C 0.484375 -0.789062 0.535156 -0.847656 0.609375 -0.890625 C 0.679688 -0.941406 0.765625 -0.96875 0.859375 -0.96875 C 0.953125 -0.976562 1.035156 -0.957031 1.109375 -0.90625 C 1.191406 -0.863281 1.257812 -0.796875 1.3125 -0.703125 C 1.332031 -0.648438 1.382812 -0.613281 1.46875 -0.59375 C 1.550781 -0.582031 1.628906 -0.566406 1.703125 -0.546875 C 1.785156 -0.535156 1.847656 -0.535156 1.890625 -0.546875 C 1.984375 -0.566406 2.054688 -0.609375 2.109375 -0.671875 C 2.171875 -0.742188 2.207031 -0.820312 2.21875 -0.90625 C 2.226562 -1.007812 2.207031 -1.101562 2.15625 -1.1875 C 2.101562 -1.269531 2.039062 -1.347656 1.96875 -1.421875 C 1.894531 -1.492188 1.816406 -1.5625 1.734375 -1.625 C 1.648438 -1.695312 1.582031 -1.773438 1.53125 -1.859375 C 1.382812 -2.054688 1.3125 -2.253906 1.3125 -2.453125 C 1.320312 -2.648438 1.378906 -2.835938 1.484375 -3.015625 C 1.597656 -3.191406 1.742188 -3.34375 1.921875 -3.46875 C 2.109375 -3.59375 2.304688 -3.679688 2.515625 -3.734375 C 2.628906 -3.742188 2.726562 -3.726562 2.8125 -3.6875 C 2.894531 -3.65625 2.957031 -3.597656 3 -3.515625 C 3.039062 -3.429688 3.0625 -3.347656 3.0625 -3.265625 C 3.070312 -3.179688 3.050781 -3.101562 3 -3.03125 C 2.945312 -2.957031 2.878906 -2.910156 2.796875 -2.890625 C 2.710938 -2.878906 2.617188 -2.859375 2.515625 -2.828125 C 2.421875 -2.796875 2.335938 -2.75 2.265625 -2.6875 C 2.203125 -2.625 2.171875 -2.539062 2.171875 -2.4375 C 2.179688 -2.375 2.21875 -2.316406 2.28125 -2.265625 C 2.34375 -2.210938 2.410156 -2.15625 2.484375 -2.09375 C 2.554688 -2.039062 2.613281 -1.992188 2.65625 -1.953125 Z M 2.65625 -1.953125 "/></g></g></g><g fill="#000000" fill-opacity="1"><g transform="translate(47.847017, 8.790074)"><g><path d="M 2.875 -0.53125 C 2.988281 -0.519531 3.078125 -0.484375 3.140625 -0.421875 C 3.203125 -0.367188 3.238281 -0.296875 3.25 -0.203125 C 3.269531 -0.117188 3.265625 -0.0351562 3.234375 0.046875 C 3.210938 0.140625 3.164062 0.210938 3.09375 0.265625 C 3.03125 0.316406 2.941406 0.34375 2.828125 0.34375 C 2.628906 0.332031 2.425781 0.304688 2.21875 0.265625 C 2.019531 0.234375 1.828125 0.171875 1.640625 0.078125 C 1.453125 -0.00390625 1.285156 -0.125 1.140625 -0.28125 C 0.953125 -0.476562 0.835938 -0.710938 0.796875 -0.984375 C 0.753906 -1.253906 0.78125 -1.515625 0.875 -1.765625 C 0.976562 -2.023438 1.125 -2.253906 1.3125 -2.453125 C 1.507812 -2.648438 1.726562 -2.804688 1.96875 -2.921875 C 2.21875 -3.035156 2.476562 -3.101562 2.75 -3.125 C 3.019531 -3.144531 3.273438 -3.097656 3.515625 -2.984375 C 3.628906 -2.941406 3.707031 -2.878906 3.75 -2.796875 C 3.789062 -2.710938 3.804688 -2.628906 3.796875 -2.546875 C 3.796875 -2.460938 3.769531 -2.378906 3.71875 -2.296875 C 3.675781 -2.222656 3.613281 -2.171875 3.53125 -2.140625 C 3.457031 -2.109375 3.363281 -2.117188 3.25 -2.171875 C 3.070312 -2.253906 2.882812 -2.273438 2.6875 -2.234375 C 2.488281 -2.203125 2.304688 -2.132812 2.140625 -2.03125 C 1.972656 -1.925781 1.84375 -1.773438 1.75 -1.578125 C 1.664062 -1.429688 1.628906 -1.296875 1.640625 -1.171875 C 1.660156 -1.046875 1.707031 -0.945312 1.78125 -0.875 C 1.863281 -0.8125 1.96875 -0.75 2.09375 -0.6875 C 2.226562 -0.632812 2.359375 -0.59375 2.484375 -0.5625 C 2.617188 -0.539062 2.75 -0.53125 2.875 -0.53125 Z M 2.875 -0.53125 "/></g></g></g><g fill="#000000" fill-opacity="1"><g transform="translate(51.184598, 9.883527)"><g><path d="M 3.890625 -2.703125 C 3.953125 -2.796875 4.019531 -2.851562 4.09375 -2.875 C 4.175781 -2.90625 4.257812 -2.898438 4.34375 -2.859375 C 4.425781 -2.816406 4.492188 -2.757812 4.546875 -2.6875 C 4.597656 -2.613281 4.628906 -2.53125 4.640625 -2.4375 C 4.648438 -2.34375 4.617188 -2.25 4.546875 -2.15625 C 3.941406 -1.269531 3.390625 -0.351562 2.890625 0.59375 C 2.828125 0.6875 2.753906 0.753906 2.671875 0.796875 C 2.585938 0.835938 2.5 0.847656 2.40625 0.828125 C 2.3125 0.816406 2.226562 0.78125 2.15625 0.71875 C 2.09375 0.664062 2.050781 0.597656 2.03125 0.515625 C 2.007812 0.429688 2.03125 0.34375 2.09375 0.25 C 2.164062 0.09375 2.242188 -0.0625 2.328125 -0.21875 C 2.421875 -0.375 2.515625 -0.535156 2.609375 -0.703125 L 1.890625 -1.015625 C 1.773438 -0.816406 1.660156 -0.613281 1.546875 -0.40625 C 1.429688 -0.207031 1.3125 -0.0078125 1.1875 0.1875 C 1.132812 0.269531 1.0625 0.328125 0.96875 0.359375 C 0.882812 0.398438 0.796875 0.410156 0.703125 0.390625 C 0.609375 0.367188 0.53125 0.332031 0.46875 0.28125 C 0.40625 0.238281 0.363281 0.175781 0.34375 0.09375 C 0.320312 0.0078125 0.335938 -0.0703125 0.390625 -0.15625 C 0.546875 -0.445312 0.707031 -0.726562 0.875 -1 C 1.039062 -1.269531 1.203125 -1.546875 1.359375 -1.828125 C 1.441406 -1.953125 1.519531 -2.082031 1.59375 -2.21875 C 1.675781 -2.351562 1.753906 -2.484375 1.828125 -2.609375 C 1.898438 -2.734375 1.96875 -2.863281 2.03125 -3 C 2.09375 -3.132812 2.175781 -3.253906 2.28125 -3.359375 C 2.363281 -3.429688 2.445312 -3.46875 2.53125 -3.46875 C 2.625 -3.476562 2.710938 -3.460938 2.796875 -3.421875 C 2.878906 -3.390625 2.945312 -3.335938 3 -3.265625 C 3.050781 -3.203125 3.070312 -3.128906 3.0625 -3.046875 C 3.0625 -2.960938 3.023438 -2.878906 2.953125 -2.796875 C 2.867188 -2.703125 2.789062 -2.585938 2.71875 -2.453125 C 2.644531 -2.316406 2.578125 -2.191406 2.515625 -2.078125 C 2.484375 -2.035156 2.453125 -1.984375 2.421875 -1.921875 C 2.390625 -1.867188 2.351562 -1.8125 2.3125 -1.75 L 3.046875 -1.4375 C 3.179688 -1.65625 3.316406 -1.867188 3.453125 -2.078125 C 3.597656 -2.285156 3.742188 -2.492188 3.890625 -2.703125 Z M 3.890625 -2.703125 "/></g></g></g><g fill="#000000" fill-opacity="1"><g transform="translate(54.59463, 11.396633)"><g><path d="M 2.703125 0.109375 C 2.796875 0.160156 2.851562 0.226562 2.875 0.3125 C 2.90625 0.394531 2.910156 0.476562 2.890625 0.5625 C 2.867188 0.644531 2.828125 0.71875 2.765625 0.78125 C 2.703125 0.851562 2.628906 0.894531 2.546875 0.90625 C 2.460938 0.925781 2.375 0.910156 2.28125 0.859375 C 2.0625 0.722656 1.832031 0.59375 1.59375 0.46875 C 1.363281 0.351562 1.125 0.25 0.875 0.15625 C 0.789062 0.132812 0.71875 0.0859375 0.65625 0.015625 C 0.59375 -0.046875 0.546875 -0.117188 0.515625 -0.203125 C 0.492188 -0.296875 0.519531 -0.378906 0.59375 -0.453125 C 0.914062 -0.898438 1.238281 -1.332031 1.5625 -1.75 C 1.882812 -2.175781 2.210938 -2.597656 2.546875 -3.015625 C 2.585938 -3.066406 2.640625 -3.101562 2.703125 -3.125 C 2.742188 -3.164062 2.796875 -3.1875 2.859375 -3.1875 C 2.929688 -3.1875 3.003906 -3.164062 3.078125 -3.125 C 3.453125 -2.945312 3.816406 -2.742188 4.171875 -2.515625 C 4.265625 -2.441406 4.328125 -2.363281 4.359375 -2.28125 C 4.390625 -2.195312 4.390625 -2.109375 4.359375 -2.015625 C 4.328125 -1.929688 4.285156 -1.859375 4.234375 -1.796875 C 4.179688 -1.734375 4.109375 -1.691406 4.015625 -1.671875 C 3.929688 -1.660156 3.84375 -1.6875 3.75 -1.75 C 3.507812 -1.90625 3.257812 -2.050781 3 -2.1875 C 2.9375 -2.101562 2.863281 -2.015625 2.78125 -1.921875 C 2.707031 -1.835938 2.640625 -1.75 2.578125 -1.65625 C 2.710938 -1.582031 2.84375 -1.503906 2.96875 -1.421875 C 3.050781 -1.347656 3.113281 -1.257812 3.15625 -1.15625 C 3.195312 -1.050781 3.1875 -0.945312 3.125 -0.84375 C 3.082031 -0.78125 3.03125 -0.722656 2.96875 -0.671875 C 2.90625 -0.628906 2.832031 -0.601562 2.75 -0.59375 C 2.675781 -0.59375 2.613281 -0.617188 2.5625 -0.671875 C 2.382812 -0.773438 2.207031 -0.875 2.03125 -0.96875 C 1.976562 -0.882812 1.914062 -0.796875 1.84375 -0.703125 C 1.78125 -0.617188 1.710938 -0.53125 1.640625 -0.4375 C 1.828125 -0.363281 2.003906 -0.28125 2.171875 -0.1875 C 2.347656 -0.09375 2.523438 0.00390625 2.703125 0.109375 Z M 2.703125 0.109375 "/></g></g></g><g fill="#000000" fill-opacity="1"><g transform="translate(57.447794, 12.980153)"><g><path d="M 3.359375 -2.71875 C 3.523438 -2.5625 3.664062 -2.382812 3.78125 -2.1875 C 3.90625 -2 4.003906 -1.785156 4.078125 -1.546875 C 4.140625 -1.285156 4.144531 -1.023438 4.09375 -0.765625 C 4.050781 -0.503906 3.9375 -0.273438 3.75 -0.078125 C 3.601562 0.0859375 3.425781 0.21875 3.21875 0.3125 C 3.019531 0.40625 2.8125 0.46875 2.59375 0.5 C 2.34375 0.53125 2.082031 0.515625 1.8125 0.453125 C 1.550781 0.390625 1.300781 0.320312 1.0625 0.25 C 1 0.226562 0.929688 0.203125 0.859375 0.171875 C 0.796875 0.148438 0.742188 0.117188 0.703125 0.078125 C 0.640625 0.00390625 0.597656 -0.078125 0.578125 -0.171875 C 0.566406 -0.273438 0.582031 -0.359375 0.625 -0.421875 C 1.238281 -1.273438 1.875 -2.113281 2.53125 -2.9375 C 2.601562 -3.03125 2.679688 -3.078125 2.765625 -3.078125 C 2.859375 -3.078125 2.945312 -3.050781 3.03125 -3 C 3.113281 -2.945312 3.1875 -2.890625 3.25 -2.828125 C 3.289062 -2.796875 3.328125 -2.757812 3.359375 -2.71875 Z M 2.984375 -0.53125 C 3.117188 -0.632812 3.203125 -0.75 3.234375 -0.875 C 3.273438 -1 3.285156 -1.125 3.265625 -1.25 C 3.242188 -1.382812 3.195312 -1.515625 3.125 -1.640625 C 3.050781 -1.765625 2.96875 -1.875 2.875 -1.96875 C 2.488281 -1.476562 2.109375 -0.976562 1.734375 -0.46875 C 1.890625 -0.425781 2.035156 -0.390625 2.171875 -0.359375 C 2.304688 -0.335938 2.445312 -0.335938 2.59375 -0.359375 C 2.738281 -0.390625 2.867188 -0.445312 2.984375 -0.53125 Z M 2.984375 -0.53125 "/></g></g></g><g fill="#000000" fill-opacity="1"><g transform="translate(60.333355, 14.939848)"><g><path d="M 4.6875 -0.359375 C 4.582031 -0.179688 4.441406 -0.0078125 4.265625 0.15625 C 4.085938 0.332031 3.890625 0.492188 3.671875 0.640625 C 3.460938 0.785156 3.242188 0.894531 3.015625 0.96875 C 2.796875 1.050781 2.566406 1.085938 2.328125 1.078125 C 2.097656 1.078125 1.875 1.019531 1.65625 0.90625 C 1.4375 0.769531 1.285156 0.609375 1.203125 0.421875 C 1.117188 0.242188 1.085938 0.0546875 1.109375 -0.140625 C 1.128906 -0.335938 1.179688 -0.546875 1.265625 -0.765625 C 1.347656 -0.984375 1.457031 -1.191406 1.59375 -1.390625 C 1.726562 -1.585938 1.863281 -1.769531 2 -1.9375 C 2.132812 -2.101562 2.257812 -2.242188 2.375 -2.359375 C 2.4375 -2.441406 2.515625 -2.488281 2.609375 -2.5 C 2.710938 -2.519531 2.800781 -2.507812 2.875 -2.46875 C 2.957031 -2.425781 3.023438 -2.367188 3.078125 -2.296875 C 3.128906 -2.222656 3.148438 -2.140625 3.140625 -2.046875 C 3.140625 -1.960938 3.109375 -1.882812 3.046875 -1.8125 C 3.003906 -1.769531 2.9375 -1.695312 2.84375 -1.59375 C 2.75 -1.5 2.648438 -1.378906 2.546875 -1.234375 C 2.441406 -1.097656 2.335938 -0.953125 2.234375 -0.796875 C 2.140625 -0.648438 2.066406 -0.503906 2.015625 -0.359375 C 1.960938 -0.222656 1.953125 -0.101562 1.984375 0 C 2.015625 0.09375 2.09375 0.15625 2.21875 0.1875 C 2.394531 0.238281 2.570312 0.234375 2.75 0.171875 C 2.9375 0.109375 3.109375 0.0195312 3.265625 -0.09375 C 3.421875 -0.21875 3.5625 -0.351562 3.6875 -0.5 C 3.820312 -0.644531 3.9375 -0.78125 4.03125 -0.90625 C 4.082031 -1.007812 4.148438 -1.066406 4.234375 -1.078125 C 4.316406 -1.097656 4.394531 -1.085938 4.46875 -1.046875 C 4.550781 -1.015625 4.613281 -0.960938 4.65625 -0.890625 C 4.707031 -0.816406 4.738281 -0.734375 4.75 -0.640625 C 4.757812 -0.546875 4.738281 -0.453125 4.6875 -0.359375 Z M 4.6875 -0.359375 "/></g></g></g><g fill="#000000" fill-opacity="1"><g transform="translate(63.244331, 17.384624)"><g><path d="M 2.8125 0.796875 C 2.894531 0.867188 2.941406 0.945312 2.953125 1.03125 C 2.960938 1.113281 2.941406 1.191406 2.890625 1.265625 C 2.847656 1.347656 2.785156 1.410156 2.703125 1.453125 C 2.628906 1.503906 2.546875 1.523438 2.453125 1.515625 C 2.359375 1.515625 2.273438 1.476562 2.203125 1.40625 C 1.984375 1.207031 1.75 1.023438 1.5 0.859375 C 1.257812 0.703125 1.019531 0.550781 0.78125 0.40625 C 0.695312 0.375 0.632812 0.3125 0.59375 0.21875 C 0.5625 0.132812 0.550781 0.0507812 0.5625 -0.03125 C 0.570312 -0.125 0.613281 -0.207031 0.6875 -0.28125 C 1.039062 -0.5625 1.390625 -0.84375 1.734375 -1.125 C 2.085938 -1.414062 2.4375 -1.703125 2.78125 -1.984375 C 2.875 -2.054688 2.960938 -2.085938 3.046875 -2.078125 C 3.140625 -2.078125 3.222656 -2.054688 3.296875 -2.015625 C 3.378906 -1.972656 3.441406 -1.910156 3.484375 -1.828125 C 3.535156 -1.753906 3.554688 -1.675781 3.546875 -1.59375 C 3.535156 -1.519531 3.484375 -1.441406 3.390625 -1.359375 C 3.109375 -1.140625 2.832031 -0.914062 2.5625 -0.6875 C 2.289062 -0.457031 2.015625 -0.234375 1.734375 -0.015625 C 2.109375 0.222656 2.46875 0.492188 2.8125 0.796875 Z M 2.8125 0.796875 "/></g></g></g><g fill="#000000" fill-opacity="1"><g transform="translate(65.617057, 19.793412)"><g><path d="M 2.46875 1.078125 C 2.539062 1.160156 2.570312 1.242188 2.5625 1.328125 C 2.5625 1.421875 2.535156 1.503906 2.484375 1.578125 C 2.441406 1.648438 2.375 1.703125 2.28125 1.734375 C 2.195312 1.773438 2.113281 1.785156 2.03125 1.765625 C 1.957031 1.753906 1.882812 1.707031 1.8125 1.625 C 1.644531 1.414062 1.472656 1.210938 1.296875 1.015625 C 1.128906 0.828125 0.945312 0.648438 0.75 0.484375 C 0.675781 0.421875 0.625 0.34375 0.59375 0.25 C 0.5625 0.164062 0.550781 0.0820312 0.5625 0 C 0.570312 -0.09375 0.625 -0.160156 0.71875 -0.203125 C 1.175781 -0.503906 1.632812 -0.789062 2.09375 -1.0625 C 2.550781 -1.34375 3.007812 -1.613281 3.46875 -1.875 C 3.53125 -1.90625 3.585938 -1.921875 3.640625 -1.921875 C 3.703125 -1.941406 3.765625 -1.941406 3.828125 -1.921875 C 3.898438 -1.898438 3.960938 -1.851562 4.015625 -1.78125 C 4.285156 -1.476562 4.546875 -1.160156 4.796875 -0.828125 C 4.859375 -0.734375 4.882812 -0.640625 4.875 -0.546875 C 4.875 -0.453125 4.847656 -0.367188 4.796875 -0.296875 C 4.742188 -0.222656 4.675781 -0.164062 4.59375 -0.125 C 4.519531 -0.09375 4.441406 -0.0820312 4.359375 -0.09375 C 4.273438 -0.113281 4.195312 -0.171875 4.125 -0.265625 C 3.957031 -0.492188 3.78125 -0.722656 3.59375 -0.953125 C 3.5 -0.898438 3.398438 -0.84375 3.296875 -0.78125 C 3.203125 -0.726562 3.101562 -0.664062 3 -0.59375 C 3.101562 -0.476562 3.195312 -0.363281 3.28125 -0.25 C 3.34375 -0.144531 3.367188 -0.0351562 3.359375 0.078125 C 3.359375 0.191406 3.3125 0.285156 3.21875 0.359375 C 3.164062 0.410156 3.101562 0.441406 3.03125 0.453125 C 2.957031 0.460938 2.878906 0.453125 2.796875 0.421875 C 2.710938 0.398438 2.65625 0.359375 2.625 0.296875 C 2.507812 0.140625 2.390625 -0.0078125 2.265625 -0.15625 C 2.171875 -0.101562 2.078125 -0.046875 1.984375 0.015625 C 1.890625 0.078125 1.796875 0.132812 1.703125 0.1875 C 1.835938 0.320312 1.96875 0.460938 2.09375 0.609375 C 2.226562 0.765625 2.351562 0.921875 2.46875 1.078125 Z M 2.46875 1.078125 "/></g></g></g></svg>