<svg xmlns="http://www.w3.org/2000/svg" xmlns:xlink="http://www.w3.org/1999/xlink" width="100" zoomAndPan="magnify" viewBox="0 0 75 52.499999" height="70" preserveAspectRatio="xMidYMid meet" version="1.0"><defs><g/><clipPath id="ebcab46ae5"><path d="M 25 20 L 48 20 L 48 50.421875 L 25 50.421875 Z M 25 20 " clip-rule="nonzero"/></clipPath><clipPath id="da3d447f11"><path d="M 33 14.019531 L 35 14.019531 L 35 18 L 33 18 Z M 33 14.019531 " clip-rule="nonzero"/></clipPath><clipPath id="fb9a70fc43"><path d="M 18.09375 27 L 22 27 L 22 31 L 18.09375 31 Z M 18.09375 27 " clip-rule="nonzero"/></clipPath></defs><path fill="#000000" d="M 52.472656 28.066406 C 51.40625 27.742188 50.316406 28.042969 49.230469 28.058594 C 48.699219 28.066406 48.769531 28.890625 49.292969 28.882812 C 50.300781 28.867188 51.320312 28.574219 52.3125 28.875 C 52.820312 29.027344 52.972656 28.214844 52.472656 28.066406 Z M 52.472656 28.066406 " fill-opacity="1" fill-rule="nonzero"/><path fill="#000000" d="M 50.03125 36.253906 C 49.65625 35.875 49.117188 36.496094 49.484375 36.875 C 50.03125 37.425781 50.632812 38.089844 50.664062 38.90625 C 50.6875 39.4375 51.507812 39.375 51.484375 38.84375 C 51.441406 37.804688 50.726562 36.960938 50.03125 36.253906 Z M 50.03125 36.253906 " fill-opacity="1" fill-rule="nonzero"/><path fill="#73a0b1" d="M 41.414062 41.667969 L 41.414062 41.664062 C 41.359375 41.589844 41.296875 41.527344 41.222656 41.472656 C 40.578125 40.953125 39.542969 40.957031 38.753906 40.9375 C 37.664062 40.90625 36.566406 40.820312 35.480469 40.964844 C 34.980469 41.03125 34.484375 41.171875 33.980469 41.210938 C 33.617188 41.238281 33.257812 41.25 32.898438 41.277344 C 32.503906 41.3125 32.082031 41.339844 31.710938 41.496094 C 31.410156 41.628906 31.3125 42.019531 31.753906 41.960938 C 31.890625 41.9375 32 41.976562 32.089844 42.082031 C 32.355469 42.082031 32.621094 42.082031 32.882812 42.074219 C 34.226562 42.058594 35.570312 42.027344 36.910156 42.089844 C 37.703125 42.125 38.484375 42.238281 39.277344 42.175781 C 39.84375 42.128906 40.433594 42.070312 40.972656 41.890625 C 41.089844 41.855469 41.199219 41.8125 41.304688 41.753906 C 41.347656 41.730469 41.382812 41.707031 41.421875 41.675781 C 41.40625 41.683594 41.40625 41.675781 41.414062 41.667969 Z M 41.414062 41.667969 " fill-opacity="1" fill-rule="nonzero"/><path fill="#fdbe10" d="M 37.648438 35.347656 C 37.902344 34.316406 38.265625 33.328125 38.738281 32.378906 C 38.550781 32.300781 38.386719 32.1875 38.246094 32.042969 C 37.804688 32.261719 37.347656 32.296875 36.878906 32.148438 C 36.636719 32.074219 36.414062 31.964844 36.203125 31.820312 C 35.804688 32 35.347656 32.019531 34.910156 32.023438 L 34.660156 32.023438 C 35.914062 34.441406 36.167969 37.425781 36.175781 40.0625 L 36.175781 40.070312 C 36.277344 40.066406 36.382812 40.058594 36.484375 40.058594 C 36.644531 40.058594 36.804688 40.058594 36.964844 40.0625 C 36.847656 39.960938 36.804688 39.835938 36.84375 39.683594 C 37.125 38.242188 37.296875 36.777344 37.648438 35.347656 Z M 37.648438 35.347656 " fill-opacity="1" fill-rule="nonzero"/><path fill="#73a0b1" d="M 39.964844 47.984375 C 39.683594 47.980469 39.476562 47.753906 39.535156 47.484375 C 39.511719 47.488281 39.492188 47.492188 39.472656 47.492188 C 37.835938 47.496094 36.207031 47.65625 34.570312 47.617188 C 33.890625 47.601562 32.90625 47.613281 32.179688 47.289062 C 31.960938 48.0625 32.167969 48.929688 33.078125 49.171875 C 34.136719 49.449219 35.230469 49.125 36.296875 49.144531 C 36.882812 49.15625 37.46875 49.214844 38.054688 49.222656 C 38.566406 49.230469 39.199219 49.265625 39.671875 49.042969 C 39.976562 48.894531 40.195312 48.660156 40.328125 48.347656 C 40.445312 48.042969 40.246094 47.992188 39.964844 47.984375 Z M 39.964844 47.984375 " fill-opacity="1" fill-rule="nonzero"/><path fill="#fdbe10" d="M 36.171875 29.445312 C 35.929688 29.773438 36.066406 30.3125 36.230469 30.640625 C 36.253906 30.683594 36.273438 30.71875 36.296875 30.757812 L 36.351562 30.703125 C 36.621094 30.433594 37.144531 29.929688 37.121094 29.5 C 37.097656 29.144531 36.34375 29.222656 36.171875 29.445312 Z M 36.171875 29.445312 " fill-opacity="1" fill-rule="nonzero"/><path fill="#73a0b1" d="M 39.960938 45.328125 C 39.917969 45.257812 39.894531 45.183594 39.894531 45.101562 C 39.457031 45.304688 38.914062 45.339844 38.457031 45.367188 C 37.800781 45.410156 37.144531 45.398438 36.484375 45.386719 C 35.058594 45.367188 33.492188 45.457031 32.1875 44.792969 C 31.984375 45.019531 31.832031 45.277344 31.726562 45.5625 C 31.648438 45.796875 31.675781 45.945312 31.792969 46.046875 C 31.910156 46.039062 32.007812 46.082031 32.082031 46.171875 L 32.109375 46.179688 C 32.277344 46.21875 32.386719 46.320312 32.433594 46.488281 C 32.707031 46.625 33.066406 46.667969 33.324219 46.703125 C 33.875 46.769531 34.425781 46.800781 34.980469 46.792969 C 36.460938 46.792969 37.933594 46.671875 39.410156 46.664062 C 39.597656 46.660156 39.726562 46.746094 39.796875 46.917969 C 40.0625 46.40625 40.308594 45.863281 39.960938 45.328125 Z M 39.960938 45.328125 " fill-opacity="1" fill-rule="nonzero"/><path fill="#73a0b1" d="M 40.085938 42.972656 C 40.074219 42.957031 40.0625 42.9375 40.050781 42.921875 C 39.664062 42.972656 39.273438 43.007812 38.882812 43.023438 C 38.476562 43.039062 38.078125 42.980469 37.679688 42.953125 C 37.011719 42.90625 36.339844 42.886719 35.671875 42.878906 C 34.59375 42.871094 33.519531 42.890625 32.441406 42.902344 C 32.332031 42.984375 32.214844 43.019531 32.078125 43 C 31.945312 43.261719 31.847656 43.582031 31.976562 43.796875 C 32.066406 43.785156 32.144531 43.808594 32.21875 43.859375 C 33.484375 44.667969 35.066406 44.539062 36.503906 44.5625 C 37.101562 44.574219 37.699219 44.585938 38.292969 44.546875 C 38.734375 44.523438 39.332031 44.53125 39.707031 44.257812 C 39.988281 44.046875 40.285156 44.277344 40.332031 44.546875 C 40.699219 44.113281 40.429688 43.425781 40.085938 42.972656 Z M 40.085938 42.972656 " fill-opacity="1" fill-rule="nonzero"/><path fill="#fdbe10" d="M 46.199219 28.835938 C 46.058594 27.027344 45.730469 25 44.640625 23.5 C 43.363281 21.734375 41.292969 21.421875 39.257812 21.253906 C 37.957031 21.15625 36.652344 21.132812 35.351562 21.183594 C 34.300781 21.21875 33.257812 21.277344 32.246094 21.582031 C 30.511719 22.101562 29.101562 23.183594 28.078125 24.679688 C 27.476562 25.566406 26.914062 26.546875 26.640625 27.589844 C 26.355469 28.703125 26.265625 29.835938 26.367188 30.980469 C 26.542969 33.132812 27.050781 35.632812 28.984375 36.894531 C 29.78125 37.414062 30.6875 37.839844 31.304688 38.59375 C 31.691406 39.070312 31.945312 39.6875 32.171875 40.253906 C 32.207031 40.335938 32.214844 40.417969 32.1875 40.507812 C 32.632812 40.4375 33.097656 40.433594 33.5 40.414062 C 34.125 40.378906 34.734375 40.257812 35.351562 40.164062 L 35.351562 40.125 C 35.351562 38.476562 35.238281 36.800781 34.871094 35.191406 C 34.617188 34.074219 34.253906 32.941406 33.671875 31.945312 C 33.472656 31.90625 33.285156 31.835938 33.109375 31.738281 C 32.566406 31.421875 32.441406 30.867188 32.757812 30.328125 C 32.878906 30.121094 33.207031 29.992188 33.398438 30.203125 C 33.675781 30.503906 33.925781 30.828125 34.152344 31.171875 C 34.546875 31.210938 34.941406 31.210938 35.335938 31.171875 C 35.421875 31.164062 35.496094 31.152344 35.570312 31.140625 C 35.5 31.023438 35.441406 30.898438 35.390625 30.769531 C 35.175781 30.1875 35.128906 29.46875 35.515625 28.945312 C 35.921875 28.402344 36.769531 28.296875 37.359375 28.589844 C 37.988281 28.898438 38.050781 29.578125 37.765625 30.164062 C 37.558594 30.589844 37.28125 30.964844 36.9375 31.292969 C 37.242188 31.394531 37.539062 31.382812 37.832031 31.261719 C 37.632812 30.320312 38.15625 29.097656 39.300781 29.445312 C 39.464844 29.496094 39.640625 29.625 39.632812 29.820312 C 39.601562 30.484375 39.363281 31.054688 38.910156 31.539062 C 38.972656 31.585938 39.042969 31.625 39.121094 31.648438 C 39.347656 31.222656 39.621094 30.828125 39.933594 30.460938 C 40.316406 30.019531 40.972656 29.640625 41.425781 30.238281 C 41.824219 30.761719 41.101562 31.5 40.757812 31.824219 C 40.410156 32.144531 40.042969 32.414062 39.597656 32.480469 C 39.335938 32.957031 39.109375 33.453125 38.914062 33.960938 C 38.222656 35.851562 38.035156 37.875 37.648438 39.839844 C 37.632812 39.9375 37.585938 40.019531 37.507812 40.078125 C 37.722656 40.089844 37.933594 40.097656 38.148438 40.101562 C 38.597656 40.105469 39.046875 40.117188 39.496094 40.152344 C 39.90625 40.175781 40.308594 40.234375 40.707031 40.328125 C 41.238281 38.171875 43.734375 37.09375 44.835938 35.277344 C 46.019531 33.328125 46.375 31.082031 46.199219 28.835938 Z M 46.199219 28.835938 " fill-opacity="1" fill-rule="nonzero"/><path fill="#73a0b1" d="M 38.617188 30.585938 C 38.667969 30.496094 38.707031 30.402344 38.738281 30.304688 C 38.667969 30.386719 38.628906 30.480469 38.617188 30.585938 Z M 38.617188 30.585938 " fill-opacity="1" fill-rule="nonzero"/><g clip-path="url(#ebcab46ae5)"><path fill="#000000" d="M 46.273438 24.933594 C 45.710938 23.300781 44.664062 21.90625 43.070312 21.179688 C 42.03125 20.707031 40.847656 20.582031 39.722656 20.472656 C 38.449219 20.359375 37.175781 20.316406 35.902344 20.347656 C 33.882812 20.382812 31.929688 20.570312 30.144531 21.59375 C 28.503906 22.535156 27.417969 24.074219 26.519531 25.695312 C 25.425781 27.660156 25.34375 30.070312 25.695312 32.246094 C 26.015625 34.21875 26.644531 36.214844 28.332031 37.4375 C 29.070312 37.972656 29.925781 38.339844 30.566406 39.003906 C 30.960938 39.40625 31.183594 40.007812 31.390625 40.523438 C 31.417969 40.585938 31.453125 40.636719 31.5 40.679688 C 31.328125 40.746094 31.167969 40.832031 31.023438 40.941406 C 30.316406 41.496094 30.59375 42.464844 31.292969 42.722656 C 31.253906 42.824219 31.21875 42.921875 31.195312 43.003906 C 31.03125 43.507812 31.0625 44.082031 31.402344 44.441406 C 31.128906 44.804688 30.910156 45.226562 30.863281 45.671875 C 30.804688 46.203125 31.0625 46.582031 31.460938 46.804688 C 31.023438 47.914062 31.300781 49.238281 32.464844 49.796875 C 33.761719 50.425781 35.296875 49.917969 36.667969 49.976562 C 37.980469 50.027344 39.652344 50.347656 40.667969 49.296875 C 40.988281 48.96875 41.25 48.460938 41.175781 47.992188 C 41.113281 47.597656 40.847656 47.375 40.527344 47.261719 C 40.839844 46.582031 41.105469 45.929688 40.828125 45.222656 C 41.523438 44.601562 41.40625 43.535156 40.933594 42.753906 C 41.332031 42.65625 41.726562 42.511719 42.027344 42.222656 C 42.457031 41.808594 42.179688 41.238281 41.820312 40.898438 C 41.71875 40.800781 41.605469 40.714844 41.480469 40.640625 C 41.648438 39.890625 42.148438 39.296875 42.675781 38.75 C 43.328125 38.066406 44.054688 37.464844 44.699219 36.773438 C 46.132812 35.242188 46.855469 33.101562 47.023438 31.039062 C 47.191406 28.953125 46.941406 26.917969 46.273438 24.933594 Z M 31.792969 46.046875 C 31.675781 45.945312 31.648438 45.792969 31.726562 45.5625 C 31.828125 45.277344 31.984375 45.019531 32.1875 44.792969 C 33.492188 45.457031 35.054688 45.367188 36.484375 45.386719 C 37.140625 45.398438 37.796875 45.410156 38.457031 45.367188 C 38.914062 45.339844 39.457031 45.304688 39.894531 45.101562 C 39.894531 45.183594 39.917969 45.257812 39.960938 45.328125 C 40.308594 45.863281 40.0625 46.402344 39.796875 46.921875 C 39.722656 46.746094 39.59375 46.664062 39.40625 46.667969 C 37.929688 46.671875 36.457031 46.796875 34.980469 46.796875 C 34.425781 46.804688 33.871094 46.773438 33.320312 46.707031 C 33.0625 46.671875 32.703125 46.628906 32.433594 46.492188 C 32.386719 46.324219 32.277344 46.222656 32.109375 46.179688 L 32.082031 46.175781 C 32.007812 46.082031 31.910156 46.039062 31.792969 46.046875 Z M 40.328125 48.339844 C 40.195312 48.65625 39.976562 48.886719 39.671875 49.035156 C 39.195312 49.257812 38.5625 49.222656 38.054688 49.21875 C 37.46875 49.207031 36.882812 49.152344 36.296875 49.140625 C 35.230469 49.117188 34.136719 49.445312 33.078125 49.164062 C 32.167969 48.925781 31.960938 48.058594 32.179688 47.285156 C 32.910156 47.605469 33.894531 47.59375 34.570312 47.609375 C 36.207031 47.648438 37.835938 47.492188 39.472656 47.484375 C 39.492188 47.484375 39.511719 47.484375 39.535156 47.480469 C 39.476562 47.746094 39.683594 47.972656 39.964844 47.980469 C 40.246094 47.988281 40.445312 48.042969 40.328125 48.339844 Z M 40.328125 44.546875 C 40.28125 44.277344 39.984375 44.046875 39.703125 44.257812 C 39.328125 44.53125 38.730469 44.523438 38.289062 44.546875 C 37.695312 44.585938 37.09375 44.574219 36.5 44.5625 C 35.0625 44.539062 33.480469 44.667969 32.214844 43.855469 C 32.140625 43.804688 32.058594 43.785156 31.972656 43.796875 C 31.84375 43.582031 31.9375 43.257812 32.074219 43 C 32.207031 43.015625 32.328125 42.984375 32.4375 42.898438 C 33.515625 42.890625 34.589844 42.867188 35.667969 42.875 C 36.339844 42.882812 37.007812 42.902344 37.675781 42.949219 C 38.074219 42.976562 38.472656 43.039062 38.878906 43.023438 C 39.269531 43.007812 39.660156 42.972656 40.046875 42.917969 C 40.058594 42.9375 40.070312 42.953125 40.082031 42.972656 C 40.429688 43.425781 40.699219 44.113281 40.328125 44.546875 Z M 41.304688 41.75 C 41.199219 41.808594 41.085938 41.851562 40.972656 41.886719 C 40.429688 42.066406 39.839844 42.125 39.273438 42.171875 C 38.480469 42.234375 37.699219 42.121094 36.90625 42.085938 C 35.566406 42.023438 34.222656 42.054688 32.882812 42.070312 C 32.617188 42.074219 32.351562 42.074219 32.085938 42.078125 C 32 41.972656 31.886719 41.933594 31.753906 41.957031 C 31.308594 42.015625 31.40625 41.625 31.710938 41.492188 C 32.078125 41.339844 32.5 41.308594 32.894531 41.273438 C 33.253906 41.246094 33.617188 41.234375 33.976562 41.207031 C 34.480469 41.167969 34.980469 41.027344 35.476562 40.960938 C 36.5625 40.816406 37.660156 40.902344 38.753906 40.933594 C 39.542969 40.953125 40.578125 40.949219 41.222656 41.46875 C 41.292969 41.523438 41.355469 41.585938 41.410156 41.660156 L 41.410156 41.664062 C 41.402344 41.671875 41.402344 41.679688 41.414062 41.671875 C 41.378906 41.699219 41.34375 41.726562 41.304688 41.753906 Z M 36.203125 31.820312 C 36.414062 31.964844 36.636719 32.074219 36.878906 32.148438 C 37.347656 32.296875 37.804688 32.261719 38.246094 32.042969 C 38.386719 32.1875 38.550781 32.300781 38.738281 32.378906 C 38.265625 33.328125 37.902344 34.316406 37.648438 35.347656 C 37.296875 36.777344 37.125 38.242188 36.84375 39.683594 C 36.804688 39.832031 36.847656 39.960938 36.96875 40.058594 C 36.808594 40.054688 36.648438 40.050781 36.484375 40.054688 C 36.382812 40.054688 36.277344 40.0625 36.175781 40.070312 L 36.175781 40.058594 C 36.171875 37.421875 35.914062 34.4375 34.660156 32.023438 L 34.910156 32.023438 C 35.347656 32.019531 35.804688 32 36.203125 31.820312 Z M 36.171875 29.445312 C 36.34375 29.214844 37.097656 29.144531 37.121094 29.5 C 37.144531 29.925781 36.621094 30.433594 36.347656 30.703125 L 36.292969 30.757812 C 36.269531 30.71875 36.25 30.679688 36.230469 30.640625 C 36.066406 30.3125 35.929688 29.773438 36.171875 29.445312 Z M 38.617188 30.585938 C 38.628906 30.480469 38.667969 30.386719 38.738281 30.304688 C 38.707031 30.402344 38.667969 30.496094 38.617188 30.585938 Z M 44.835938 35.28125 C 43.738281 37.097656 41.238281 38.175781 40.707031 40.332031 C 40.308594 40.238281 39.90625 40.179688 39.496094 40.15625 C 39.050781 40.121094 38.597656 40.109375 38.148438 40.101562 C 37.9375 40.101562 37.722656 40.089844 37.511719 40.082031 C 37.585938 40.019531 37.632812 39.941406 37.652344 39.84375 C 38.035156 37.878906 38.222656 35.855469 38.917969 33.964844 C 39.109375 33.453125 39.335938 32.960938 39.601562 32.484375 C 40.042969 32.417969 40.398438 32.15625 40.757812 31.824219 C 41.113281 31.496094 41.824219 30.761719 41.425781 30.242188 C 40.972656 29.644531 40.324219 30.023438 39.933594 30.460938 C 39.621094 30.828125 39.351562 31.222656 39.121094 31.648438 C 39.042969 31.625 38.972656 31.585938 38.910156 31.539062 C 39.363281 31.054688 39.601562 30.484375 39.632812 29.820312 C 39.640625 29.625 39.464844 29.496094 39.300781 29.445312 C 38.15625 29.097656 37.632812 30.320312 37.832031 31.261719 C 37.539062 31.382812 37.242188 31.394531 36.9375 31.292969 C 37.28125 30.96875 37.558594 30.59375 37.769531 30.167969 C 38.054688 29.582031 37.992188 28.902344 37.363281 28.589844 C 36.773438 28.296875 35.925781 28.402344 35.519531 28.949219 C 35.132812 29.472656 35.179688 30.191406 35.394531 30.773438 C 35.445312 30.902344 35.503906 31.027344 35.574219 31.144531 C 35.503906 31.15625 35.425781 31.167969 35.339844 31.175781 C 34.945312 31.214844 34.550781 31.214844 34.15625 31.175781 C 33.929688 30.832031 33.679688 30.507812 33.402344 30.203125 C 33.210938 29.992188 32.882812 30.125 32.761719 30.332031 C 32.445312 30.871094 32.570312 31.425781 33.113281 31.738281 C 33.289062 31.839844 33.476562 31.910156 33.675781 31.949219 C 34.261719 32.945312 34.621094 34.074219 34.875 35.191406 C 35.242188 36.804688 35.351562 38.480469 35.355469 40.128906 L 35.355469 40.167969 C 34.738281 40.257812 34.128906 40.382812 33.503906 40.414062 C 33.101562 40.4375 32.636719 40.441406 32.191406 40.511719 C 32.21875 40.421875 32.210938 40.335938 32.175781 40.253906 C 31.949219 39.6875 31.695312 39.074219 31.308594 38.597656 C 30.691406 37.84375 29.785156 37.417969 28.988281 36.894531 C 27.058594 35.632812 26.546875 33.132812 26.371094 30.984375 C 26.269531 29.835938 26.359375 28.707031 26.644531 27.59375 C 26.917969 26.550781 27.480469 25.566406 28.082031 24.679688 C 29.105469 23.1875 30.511719 22.105469 32.25 21.585938 C 33.261719 21.28125 34.304688 21.222656 35.355469 21.1875 C 36.65625 21.136719 37.960938 21.160156 39.261719 21.257812 C 41.296875 21.421875 43.367188 21.734375 44.644531 23.503906 C 45.734375 25 46.058594 27.023438 46.199219 28.835938 C 46.375 31.082031 46.019531 33.328125 44.835938 35.28125 Z M 44.835938 35.28125 " fill-opacity="1" fill-rule="nonzero"/></g><g clip-path="url(#da3d447f11)"><path fill="#000000" d="M 33.875 14.617188 L 33.875 16.941406 C 33.875 17.472656 34.695312 17.40625 34.695312 16.875 L 34.695312 14.554688 C 34.695312 14.023438 33.875 14.085938 33.875 14.617188 Z M 33.875 14.617188 " fill-opacity="1" fill-rule="nonzero"/></g><path fill="#000000" d="M 26.296875 17.371094 C 26.285156 16.839844 25.464844 16.90625 25.476562 17.433594 C 25.492188 17.976562 25.652344 18.480469 25.863281 18.976562 C 26.058594 19.441406 26.285156 19.894531 26.300781 20.410156 C 26.316406 20.941406 27.136719 20.871094 27.121094 20.34375 C 27.089844 19.285156 26.328125 18.433594 26.296875 17.371094 Z M 26.296875 17.371094 " fill-opacity="1" fill-rule="nonzero"/><g clip-path="url(#fb9a70fc43)"><path fill="#000000" d="M 20.960938 29.726562 C 20.476562 28.953125 19.703125 28.457031 19.152344 27.746094 C 18.824219 27.324219 18.140625 27.785156 18.46875 28.207031 C 19.019531 28.921875 19.796875 29.421875 20.28125 30.191406 C 20.5625 30.640625 21.242188 30.175781 20.960938 29.726562 Z M 20.960938 29.726562 " fill-opacity="1" fill-rule="nonzero"/></g><path fill="#000000" d="M 45.246094 16.234375 C 44.566406 16.75 43.871094 17.273438 43.464844 18.046875 C 43.214844 18.519531 43.953125 18.882812 44.199219 18.414062 C 44.535156 17.773438 45.144531 17.34375 45.707031 16.921875 C 46.132812 16.605469 45.671875 15.914062 45.246094 16.234375 Z M 45.246094 16.234375 " fill-opacity="1" fill-rule="nonzero"/><path fill="#000000" d="M 24.515625 37.410156 C 23.59375 36.601562 22.796875 38.269531 22.203125 38.699219 C 21.773438 39.007812 22.234375 39.695312 22.667969 39.382812 C 22.96875 39.167969 23.195312 38.867188 23.433594 38.589844 C 23.558594 38.433594 23.695312 38.289062 23.84375 38.152344 C 23.921875 38.089844 24.027344 38.078125 23.976562 38.03125 C 24.371094 38.382812 24.914062 37.761719 24.515625 37.410156 Z M 24.515625 37.410156 " fill-opacity="1" fill-rule="nonzero"/><path fill="#fdbe10" d="M 7.222656 19.460938 C 6.917969 19.238281 6.667969 18.964844 6.46875 18.648438 C 6.269531 18.328125 6.136719 17.980469 6.070312 17.609375 C 6.007812 17.238281 6.015625 16.867188 6.09375 16.5 C 6.171875 16.132812 6.316406 15.792969 6.527344 15.480469 C 6.988281 14.894531 7.464844 14.324219 7.957031 13.769531 C 8.449219 13.210938 8.957031 12.671875 9.480469 12.140625 C 10.003906 11.613281 10.539062 11.101562 11.09375 10.605469 C 11.644531 10.105469 12.210938 9.625 12.789062 9.160156 C 13.371094 8.695312 13.960938 8.246094 14.566406 7.8125 C 15.171875 7.382812 15.789062 6.96875 16.414062 6.570312 C 17.042969 6.171875 17.683594 5.792969 18.332031 5.433594 C 18.980469 5.070312 19.640625 4.730469 20.308594 4.40625 C 20.980469 4.082031 21.65625 3.777344 22.34375 3.492188 C 23.027344 3.207031 23.722656 2.941406 24.421875 2.695312 C 25.125 2.449219 25.832031 2.222656 26.546875 2.015625 C 27.261719 1.808594 27.980469 1.621094 28.703125 1.457031 C 29.429688 1.292969 30.15625 1.144531 30.890625 1.019531 C 31.621094 0.898438 32.359375 0.792969 33.097656 0.710938 C 33.835938 0.628906 34.574219 0.566406 35.316406 0.523438 C 36.058594 0.484375 36.800781 0.464844 37.542969 0.464844 C 38.289062 0.464844 39.03125 0.488281 39.773438 0.527344 C 40.515625 0.570312 41.253906 0.636719 41.992188 0.71875 C 42.730469 0.804688 43.464844 0.910156 44.199219 1.035156 C 44.929688 1.164062 45.660156 1.308594 46.382812 1.476562 C 47.109375 1.644531 47.828125 1.832031 48.539062 2.039062 C 49.253906 2.246094 49.960938 2.476562 50.660156 2.722656 C 51.363281 2.972656 52.054688 3.238281 52.738281 3.527344 C 53.425781 3.8125 54.101562 4.121094 54.769531 4.445312 C 55.4375 4.769531 56.097656 5.113281 56.746094 5.476562 C 57.394531 5.839844 58.03125 6.21875 58.660156 6.617188 C 59.285156 7.015625 59.902344 7.433594 60.507812 7.867188 C 61.109375 8.300781 61.699219 8.75 62.277344 9.21875 C 62.855469 9.683594 63.421875 10.167969 63.972656 10.664062 C 64.523438 11.164062 65.058594 11.679688 65.582031 12.207031 C 66.105469 12.734375 66.609375 13.277344 67.101562 13.835938 C 67.59375 14.394531 68.070312 14.964844 68.527344 15.550781 C 68.738281 15.863281 68.882812 16.203125 68.960938 16.574219 C 69.039062 16.941406 69.042969 17.3125 68.976562 17.683594 C 68.914062 18.054688 68.78125 18.398438 68.578125 18.71875 C 68.378906 19.039062 68.128906 19.308594 67.824219 19.53125 L 65.75 20.921875 C 65.429688 21.160156 65.078125 21.324219 64.691406 21.417969 C 64.304688 21.507812 63.914062 21.523438 63.523438 21.453125 C 63.128906 21.386719 62.765625 21.246094 62.433594 21.03125 C 62.097656 20.8125 61.820312 20.539062 61.597656 20.210938 C 60.871094 19.320312 60.097656 18.476562 59.277344 17.671875 C 58.457031 16.867188 57.59375 16.113281 56.691406 15.40625 C 55.789062 14.699219 54.847656 14.042969 53.871094 13.4375 C 52.894531 12.835938 51.886719 12.285156 50.851562 11.792969 C 49.8125 11.300781 48.753906 10.867188 47.667969 10.492188 C 46.582031 10.117188 45.480469 9.804688 44.359375 9.550781 C 43.238281 9.296875 42.109375 9.109375 40.96875 8.980469 C 39.828125 8.851562 38.683594 8.785156 37.535156 8.785156 C 36.386719 8.785156 35.242188 8.847656 34.101562 8.972656 C 32.960938 9.097656 31.828125 9.285156 30.707031 9.535156 C 29.589844 9.785156 28.484375 10.097656 27.398438 10.46875 C 26.3125 10.84375 25.25 11.273438 24.210938 11.761719 C 23.175781 12.253906 22.167969 12.800781 21.1875 13.402344 C 20.210938 14.003906 19.269531 14.65625 18.363281 15.363281 C 17.457031 16.066406 16.59375 16.820312 15.773438 17.621094 C 14.949219 18.421875 14.175781 19.269531 13.445312 20.15625 C 13.222656 20.484375 12.945312 20.757812 12.609375 20.972656 C 12.273438 21.1875 11.910156 21.328125 11.519531 21.394531 C 11.125 21.460938 10.738281 21.449219 10.351562 21.355469 C 9.964844 21.261719 9.609375 21.097656 9.292969 20.859375 Z M 7.222656 19.460938 " fill-opacity="1" fill-rule="nonzero"/><g fill="#000000" fill-opacity="1"><g transform="translate(10.559828, 19.532015)"><g><path d="M 1.125 -4.171875 C 1.34375 -3.972656 1.550781 -3.769531 1.75 -3.5625 C 1.957031 -3.351562 2.164062 -3.144531 2.375 -2.9375 C 2.4375 -2.851562 2.472656 -2.769531 2.484375 -2.6875 C 2.492188 -2.613281 2.484375 -2.535156 2.453125 -2.453125 C 2.421875 -2.378906 2.367188 -2.320312 2.296875 -2.28125 C 2.234375 -2.238281 2.160156 -2.21875 2.078125 -2.21875 C 2.003906 -2.21875 1.9375 -2.257812 1.875 -2.34375 C 1.707031 -2.507812 1.539062 -2.679688 1.375 -2.859375 C 1.21875 -3.035156 1.050781 -3.207031 0.875 -3.375 C 0.695312 -3.539062 0.503906 -3.679688 0.296875 -3.796875 C 0.265625 -3.816406 0.226562 -3.832031 0.1875 -3.84375 C 0.144531 -3.863281 0.109375 -3.882812 0.078125 -3.90625 C 0.078125 -3.851562 0.078125 -3.789062 0.078125 -3.71875 C 0.0859375 -3.65625 0.0976562 -3.609375 0.109375 -3.578125 C 0.148438 -3.429688 0.207031 -3.300781 0.28125 -3.1875 C 0.351562 -3.070312 0.429688 -2.957031 0.515625 -2.84375 C 0.578125 -2.769531 0.601562 -2.695312 0.59375 -2.625 C 0.59375 -2.550781 0.566406 -2.484375 0.515625 -2.421875 C 0.472656 -2.359375 0.414062 -2.304688 0.34375 -2.265625 C 0.28125 -2.234375 0.210938 -2.21875 0.140625 -2.21875 C 0.0664062 -2.226562 0 -2.265625 -0.0625 -2.328125 C -0.132812 -2.390625 -0.203125 -2.453125 -0.265625 -2.515625 C -0.335938 -2.585938 -0.410156 -2.65625 -0.484375 -2.71875 C -0.503906 -2.738281 -0.535156 -2.765625 -0.578125 -2.796875 C -0.617188 -2.835938 -0.660156 -2.875 -0.703125 -2.90625 C -0.753906 -2.9375 -0.796875 -2.957031 -0.828125 -2.96875 C -0.835938 -2.957031 -0.84375 -2.960938 -0.84375 -2.984375 C -0.851562 -2.972656 -0.859375 -2.96875 -0.859375 -2.96875 C -0.867188 -2.9375 -0.863281 -2.890625 -0.84375 -2.828125 C -0.820312 -2.765625 -0.804688 -2.722656 -0.796875 -2.703125 C -0.785156 -2.628906 -0.757812 -2.5625 -0.71875 -2.5 C -0.6875 -2.4375 -0.65625 -2.375 -0.625 -2.3125 C -0.46875 -2.019531 -0.273438 -1.753906 -0.046875 -1.515625 C 0.179688 -1.273438 0.414062 -1.039062 0.65625 -0.8125 C 0.71875 -0.738281 0.753906 -0.660156 0.765625 -0.578125 C 0.773438 -0.503906 0.757812 -0.425781 0.71875 -0.34375 C 0.6875 -0.269531 0.640625 -0.210938 0.578125 -0.171875 C 0.515625 -0.140625 0.441406 -0.117188 0.359375 -0.109375 C 0.273438 -0.109375 0.203125 -0.144531 0.140625 -0.21875 C -0.0546875 -0.414062 -0.25 -0.609375 -0.4375 -0.796875 C -0.625 -0.992188 -0.800781 -1.207031 -0.96875 -1.4375 C -1.0625 -1.5625 -1.160156 -1.703125 -1.265625 -1.859375 C -1.367188 -2.023438 -1.457031 -2.191406 -1.53125 -2.359375 C -1.601562 -2.535156 -1.640625 -2.707031 -1.640625 -2.875 C -1.648438 -3.03125 -1.617188 -3.179688 -1.546875 -3.328125 C -1.472656 -3.472656 -1.367188 -3.582031 -1.234375 -3.65625 C -1.109375 -3.738281 -0.960938 -3.769531 -0.796875 -3.75 C -0.773438 -3.75 -0.757812 -3.742188 -0.75 -3.734375 C -0.75 -3.734375 -0.742188 -3.734375 -0.734375 -3.734375 C -0.753906 -3.890625 -0.75 -4.035156 -0.71875 -4.171875 C -0.695312 -4.316406 -0.640625 -4.429688 -0.546875 -4.515625 C -0.460938 -4.609375 -0.335938 -4.671875 -0.171875 -4.703125 C 0.00390625 -4.722656 0.164062 -4.707031 0.3125 -4.65625 C 0.457031 -4.601562 0.597656 -4.53125 0.734375 -4.4375 C 0.867188 -4.34375 1 -4.253906 1.125 -4.171875 Z M 1.125 -4.171875 "/></g></g></g><g fill="#000000" fill-opacity="1"><g transform="translate(13.346096, 16.347434)"><g><path d="M 0.40625 -3.5 C 0.644531 -3.257812 0.890625 -3.015625 1.140625 -2.765625 C 1.390625 -2.523438 1.632812 -2.273438 1.875 -2.015625 C 1.945312 -1.941406 1.976562 -1.863281 1.96875 -1.78125 C 1.96875 -1.707031 1.945312 -1.640625 1.90625 -1.578125 C 1.875 -1.515625 1.820312 -1.460938 1.75 -1.421875 C 1.675781 -1.390625 1.597656 -1.375 1.515625 -1.375 C 1.441406 -1.375 1.367188 -1.410156 1.296875 -1.484375 C 1.222656 -1.566406 1.148438 -1.640625 1.078125 -1.703125 C 1.003906 -1.773438 0.929688 -1.851562 0.859375 -1.9375 L 0.265625 -1.421875 C 0.335938 -1.304688 0.410156 -1.191406 0.484375 -1.078125 C 0.554688 -0.960938 0.625 -0.847656 0.6875 -0.734375 C 0.75 -0.660156 0.773438 -0.585938 0.765625 -0.515625 C 0.753906 -0.441406 0.71875 -0.375 0.65625 -0.3125 C 0.601562 -0.257812 0.535156 -0.222656 0.453125 -0.203125 C 0.367188 -0.191406 0.285156 -0.195312 0.203125 -0.21875 C 0.128906 -0.238281 0.0625 -0.296875 0 -0.390625 C -0.175781 -0.679688 -0.347656 -0.972656 -0.515625 -1.265625 C -0.691406 -1.554688 -0.835938 -1.875 -0.953125 -2.21875 C -1.015625 -2.375 -1.0625 -2.550781 -1.09375 -2.75 C -1.132812 -2.957031 -1.15625 -3.160156 -1.15625 -3.359375 C -1.164062 -3.566406 -1.140625 -3.753906 -1.078125 -3.921875 C -1.003906 -4.066406 -0.914062 -4.160156 -0.8125 -4.203125 C -0.71875 -4.242188 -0.609375 -4.238281 -0.484375 -4.1875 C -0.367188 -4.144531 -0.257812 -4.082031 -0.15625 -4 C -0.0507812 -3.914062 0.0507812 -3.828125 0.15625 -3.734375 C 0.257812 -3.640625 0.34375 -3.5625 0.40625 -3.5 Z M -0.140625 -2.21875 C -0.128906 -2.195312 -0.117188 -2.179688 -0.109375 -2.171875 C -0.109375 -2.160156 -0.101562 -2.148438 -0.09375 -2.140625 C -0.0195312 -2.203125 0.046875 -2.257812 0.109375 -2.3125 C 0.179688 -2.375 0.253906 -2.4375 0.328125 -2.5 C 0.234375 -2.570312 0.148438 -2.648438 0.078125 -2.734375 C 0.00390625 -2.816406 -0.0703125 -2.898438 -0.15625 -2.984375 C -0.195312 -3.003906 -0.234375 -3.03125 -0.265625 -3.0625 C -0.296875 -3.101562 -0.332031 -3.144531 -0.375 -3.1875 C -0.375 -3.101562 -0.359375 -3.019531 -0.328125 -2.9375 C -0.316406 -2.8125 -0.296875 -2.6875 -0.265625 -2.5625 C -0.234375 -2.445312 -0.191406 -2.332031 -0.140625 -2.21875 Z M -0.140625 -2.21875 "/></g></g></g><g fill="#000000" fill-opacity="1"><g transform="translate(15.617932, 14.219646)"><g><path d="M -0.09375 -3.90625 C -0.15625 -3.988281 -0.175781 -4.0625 -0.15625 -4.125 C -0.132812 -4.195312 -0.09375 -4.253906 -0.03125 -4.296875 C 0.03125 -4.347656 0.101562 -4.378906 0.1875 -4.390625 C 0.269531 -4.410156 0.347656 -4.398438 0.421875 -4.359375 C 0.492188 -4.328125 0.5625 -4.273438 0.625 -4.203125 C 1.09375 -3.347656 1.53125 -2.484375 1.9375 -1.609375 C 1.96875 -1.535156 1.972656 -1.460938 1.953125 -1.390625 C 1.929688 -1.316406 1.894531 -1.25 1.84375 -1.1875 C 1.789062 -1.125 1.722656 -1.082031 1.640625 -1.0625 C 1.566406 -1.039062 1.492188 -1.050781 1.421875 -1.09375 C 1.242188 -1.207031 1.0625 -1.3125 0.875 -1.40625 C 0.695312 -1.507812 0.523438 -1.609375 0.359375 -1.703125 C 0.441406 -1.492188 0.53125 -1.28125 0.625 -1.0625 C 0.726562 -0.851562 0.835938 -0.648438 0.953125 -0.453125 C 0.992188 -0.367188 1 -0.289062 0.96875 -0.21875 C 0.945312 -0.144531 0.90625 -0.0820312 0.84375 -0.03125 C 0.78125 0.0078125 0.707031 0.0351562 0.625 0.046875 C 0.550781 0.0664062 0.472656 0.0625 0.390625 0.03125 C 0.316406 0 0.257812 -0.0546875 0.21875 -0.140625 C -0.164062 -0.898438 -0.519531 -1.671875 -0.84375 -2.453125 C -0.863281 -2.523438 -0.863281 -2.597656 -0.84375 -2.671875 C -0.820312 -2.742188 -0.785156 -2.8125 -0.734375 -2.875 C -0.679688 -2.9375 -0.617188 -2.972656 -0.546875 -2.984375 C -0.472656 -3.003906 -0.394531 -2.992188 -0.3125 -2.953125 L 0.6875 -2.390625 C 0.5625 -2.660156 0.429688 -2.914062 0.296875 -3.15625 C 0.160156 -3.40625 0.03125 -3.65625 -0.09375 -3.90625 Z M -0.09375 -3.90625 "/></g></g></g><g fill="#000000" fill-opacity="1"><g transform="translate(18.332683, 12.150506)"><g><path d="M 1.078125 -3.359375 C 1.265625 -3.078125 1.453125 -2.789062 1.640625 -2.5 C 1.835938 -2.207031 2.03125 -1.914062 2.21875 -1.625 C 2.269531 -1.539062 2.289062 -1.457031 2.28125 -1.375 C 2.269531 -1.300781 2.238281 -1.234375 2.1875 -1.171875 C 2.132812 -1.117188 2.066406 -1.082031 1.984375 -1.0625 C 1.910156 -1.039062 1.832031 -1.039062 1.75 -1.0625 C 1.675781 -1.082031 1.613281 -1.132812 1.5625 -1.21875 C 1.507812 -1.3125 1.453125 -1.394531 1.390625 -1.46875 C 1.328125 -1.550781 1.269531 -1.640625 1.21875 -1.734375 L 0.546875 -1.359375 C 0.585938 -1.222656 0.632812 -1.09375 0.6875 -0.96875 C 0.738281 -0.84375 0.785156 -0.710938 0.828125 -0.578125 C 0.867188 -0.503906 0.875 -0.429688 0.84375 -0.359375 C 0.8125 -0.285156 0.757812 -0.226562 0.6875 -0.1875 C 0.625 -0.144531 0.550781 -0.117188 0.46875 -0.109375 C 0.394531 -0.109375 0.320312 -0.128906 0.25 -0.171875 C 0.175781 -0.210938 0.113281 -0.28125 0.0625 -0.375 C -0.0390625 -0.6875 -0.148438 -1.003906 -0.265625 -1.328125 C -0.378906 -1.660156 -0.460938 -2.003906 -0.515625 -2.359375 C -0.546875 -2.523438 -0.5625 -2.710938 -0.5625 -2.921875 C -0.5625 -3.128906 -0.539062 -3.332031 -0.5 -3.53125 C -0.46875 -3.726562 -0.398438 -3.898438 -0.296875 -4.046875 C -0.203125 -4.179688 -0.101562 -4.253906 0 -4.265625 C 0.101562 -4.285156 0.207031 -4.265625 0.3125 -4.203125 C 0.414062 -4.140625 0.515625 -4.054688 0.609375 -3.953125 C 0.703125 -3.859375 0.789062 -3.753906 0.875 -3.640625 C 0.957031 -3.523438 1.023438 -3.429688 1.078125 -3.359375 Z M 0.296875 -2.203125 C 0.296875 -2.191406 0.296875 -2.175781 0.296875 -2.15625 C 0.296875 -2.144531 0.300781 -2.128906 0.3125 -2.109375 C 0.394531 -2.160156 0.472656 -2.207031 0.546875 -2.25 C 0.628906 -2.289062 0.707031 -2.335938 0.78125 -2.390625 C 0.71875 -2.484375 0.65625 -2.578125 0.59375 -2.671875 C 0.539062 -2.765625 0.484375 -2.859375 0.421875 -2.953125 C 0.378906 -2.992188 0.34375 -3.035156 0.3125 -3.078125 C 0.289062 -3.117188 0.269531 -3.160156 0.25 -3.203125 C 0.238281 -3.117188 0.238281 -3.035156 0.25 -2.953125 C 0.238281 -2.816406 0.238281 -2.6875 0.25 -2.5625 C 0.257812 -2.445312 0.273438 -2.328125 0.296875 -2.203125 Z M 0.296875 -2.203125 "/></g></g></g><g fill="#000000" fill-opacity="1"><g transform="translate(20.970919, 10.499627)"><g><path d="M 1.140625 -2.984375 C 1.347656 -3.097656 1.53125 -3.132812 1.6875 -3.09375 C 1.851562 -3.050781 1.988281 -2.914062 2.09375 -2.6875 C 2.1875 -2.5 2.226562 -2.296875 2.21875 -2.078125 C 2.21875 -1.867188 2.164062 -1.675781 2.0625 -1.5 C 1.957031 -1.300781 1.804688 -1.144531 1.609375 -1.03125 C 1.410156 -0.925781 1.207031 -0.859375 1 -0.828125 C 0.71875 -0.765625 0.472656 -0.769531 0.265625 -0.84375 C 0.0664062 -0.925781 -0.101562 -1.046875 -0.25 -1.203125 C -0.394531 -1.367188 -0.503906 -1.554688 -0.578125 -1.765625 C -0.660156 -1.972656 -0.707031 -2.195312 -0.71875 -2.4375 C -0.738281 -2.6875 -0.722656 -2.925781 -0.671875 -3.15625 C -0.628906 -3.394531 -0.554688 -3.613281 -0.453125 -3.8125 C -0.347656 -4.019531 -0.203125 -4.191406 -0.015625 -4.328125 C 0.171875 -4.460938 0.382812 -4.546875 0.625 -4.578125 C 0.726562 -4.585938 0.8125 -4.566406 0.875 -4.515625 C 0.945312 -4.460938 1 -4.398438 1.03125 -4.328125 C 1.070312 -4.265625 1.085938 -4.191406 1.078125 -4.109375 C 1.078125 -4.023438 1.050781 -3.957031 1 -3.90625 C 0.945312 -3.851562 0.875 -3.820312 0.78125 -3.8125 C 0.613281 -3.78125 0.46875 -3.703125 0.34375 -3.578125 C 0.226562 -3.460938 0.144531 -3.316406 0.09375 -3.140625 C 0.0390625 -2.960938 0.0195312 -2.773438 0.03125 -2.578125 C 0.0390625 -2.390625 0.0703125 -2.210938 0.125 -2.046875 C 0.175781 -1.890625 0.269531 -1.769531 0.40625 -1.6875 C 0.46875 -1.625 0.550781 -1.582031 0.65625 -1.5625 C 0.757812 -1.550781 0.859375 -1.5625 0.953125 -1.59375 C 1.054688 -1.625 1.148438 -1.664062 1.234375 -1.71875 C 1.316406 -1.78125 1.375 -1.851562 1.40625 -1.9375 C 1.425781 -2.007812 1.4375 -2.082031 1.4375 -2.15625 C 1.4375 -2.164062 1.429688 -2.179688 1.421875 -2.203125 C 1.421875 -2.234375 1.414062 -2.253906 1.40625 -2.265625 C 1.40625 -2.265625 1.398438 -2.257812 1.390625 -2.25 C 1.390625 -2.25 1.382812 -2.25 1.375 -2.25 C 1.363281 -2.238281 1.351562 -2.226562 1.34375 -2.21875 C 1.332031 -2.21875 1.320312 -2.210938 1.3125 -2.203125 C 1.289062 -2.117188 1.238281 -2.050781 1.15625 -2 C 1.082031 -1.945312 1 -1.921875 0.90625 -1.921875 C 0.8125 -1.921875 0.71875 -1.957031 0.625 -2.03125 C 0.519531 -2.144531 0.46875 -2.25 0.46875 -2.34375 C 0.476562 -2.445312 0.519531 -2.539062 0.59375 -2.625 C 0.675781 -2.707031 0.765625 -2.773438 0.859375 -2.828125 C 0.960938 -2.890625 1.054688 -2.941406 1.140625 -2.984375 Z M 1.140625 -2.984375 "/></g></g></g><g fill="#000000" fill-opacity="1"><g transform="translate(24.057287, 8.985788)"><g><path d="M 1.640625 -1.8125 C 1.734375 -1.832031 1.816406 -1.828125 1.890625 -1.796875 C 1.960938 -1.773438 2.019531 -1.734375 2.0625 -1.671875 C 2.113281 -1.609375 2.140625 -1.535156 2.140625 -1.453125 C 2.148438 -1.367188 2.140625 -1.289062 2.109375 -1.21875 C 2.078125 -1.15625 2.007812 -1.113281 1.90625 -1.09375 C 1.675781 -1.019531 1.453125 -0.929688 1.234375 -0.828125 C 1.023438 -0.734375 0.816406 -0.625 0.609375 -0.5 C 0.546875 -0.46875 0.472656 -0.445312 0.390625 -0.4375 C 0.304688 -0.4375 0.226562 -0.453125 0.15625 -0.484375 C 0.09375 -0.523438 0.0507812 -0.585938 0.03125 -0.671875 C -0.09375 -1.140625 -0.207031 -1.609375 -0.3125 -2.078125 C -0.414062 -2.554688 -0.515625 -3.035156 -0.609375 -3.515625 C -0.617188 -3.566406 -0.617188 -3.617188 -0.609375 -3.671875 C -0.585938 -3.722656 -0.554688 -3.773438 -0.515625 -3.828125 C -0.484375 -3.878906 -0.441406 -3.921875 -0.390625 -3.953125 C -0.0351562 -4.097656 0.320312 -4.222656 0.6875 -4.328125 C 0.78125 -4.367188 0.863281 -4.375 0.9375 -4.34375 C 1.019531 -4.3125 1.082031 -4.257812 1.125 -4.1875 C 1.164062 -4.125 1.191406 -4.050781 1.203125 -3.96875 C 1.222656 -3.894531 1.210938 -3.820312 1.171875 -3.75 C 1.128906 -3.6875 1.0625 -3.632812 0.96875 -3.59375 C 0.71875 -3.53125 0.46875 -3.445312 0.21875 -3.34375 C 0.238281 -3.25 0.257812 -3.148438 0.28125 -3.046875 C 0.300781 -2.941406 0.320312 -2.847656 0.34375 -2.765625 C 0.476562 -2.804688 0.609375 -2.84375 0.734375 -2.875 C 0.835938 -2.90625 0.9375 -2.898438 1.03125 -2.859375 C 1.125 -2.828125 1.191406 -2.753906 1.234375 -2.640625 C 1.265625 -2.585938 1.273438 -2.523438 1.265625 -2.453125 C 1.253906 -2.390625 1.222656 -2.328125 1.171875 -2.265625 C 1.128906 -2.210938 1.078125 -2.171875 1.015625 -2.140625 C 0.847656 -2.097656 0.679688 -2.046875 0.515625 -1.984375 C 0.535156 -1.890625 0.554688 -1.789062 0.578125 -1.6875 C 0.597656 -1.59375 0.617188 -1.492188 0.640625 -1.390625 C 0.804688 -1.472656 0.96875 -1.550781 1.125 -1.625 C 1.289062 -1.695312 1.460938 -1.757812 1.640625 -1.8125 Z M 1.640625 -1.8125 "/></g></g></g><g fill="#000000" fill-opacity="1"><g transform="translate(26.841236, 7.946163)"><g/></g></g><g fill="#000000" fill-opacity="1"><g transform="translate(28.482416, 7.41984)"><g><path d="M 1.328125 -3.75 C 1.316406 -3.832031 1.328125 -3.90625 1.359375 -3.96875 C 1.398438 -4.03125 1.457031 -4.070312 1.53125 -4.09375 C 1.613281 -4.125 1.691406 -4.128906 1.765625 -4.109375 C 1.847656 -4.097656 1.914062 -4.066406 1.96875 -4.015625 C 2.03125 -3.960938 2.066406 -3.878906 2.078125 -3.765625 C 2.109375 -3.546875 2.140625 -3.3125 2.171875 -3.0625 C 2.203125 -2.820312 2.222656 -2.570312 2.234375 -2.3125 C 2.242188 -2.050781 2.226562 -1.796875 2.1875 -1.546875 C 2.144531 -1.304688 2.070312 -1.082031 1.96875 -0.875 C 1.863281 -0.664062 1.707031 -0.476562 1.5 -0.3125 C 1.414062 -0.25 1.332031 -0.222656 1.25 -0.234375 C 1.175781 -0.242188 1.109375 -0.273438 1.046875 -0.328125 C 0.992188 -0.378906 0.953125 -0.441406 0.921875 -0.515625 C 0.898438 -0.585938 0.898438 -0.664062 0.921875 -0.75 C 0.941406 -0.832031 0.988281 -0.90625 1.0625 -0.96875 C 1.175781 -1.039062 1.253906 -1.128906 1.296875 -1.234375 C 1.347656 -1.335938 1.382812 -1.453125 1.40625 -1.578125 C 1.289062 -1.492188 1.15625 -1.4375 1 -1.40625 C 0.84375 -1.382812 0.695312 -1.394531 0.5625 -1.4375 C 0.351562 -1.488281 0.1875 -1.585938 0.0625 -1.734375 C -0.0625 -1.878906 -0.15625 -2.050781 -0.21875 -2.25 C -0.28125 -2.445312 -0.316406 -2.644531 -0.328125 -2.84375 C -0.335938 -3.039062 -0.328125 -3.234375 -0.296875 -3.421875 C -0.285156 -3.503906 -0.242188 -3.566406 -0.171875 -3.609375 C -0.109375 -3.660156 -0.0390625 -3.6875 0.03125 -3.6875 C 0.101562 -3.695312 0.175781 -3.6875 0.25 -3.65625 C 0.320312 -3.625 0.378906 -3.570312 0.421875 -3.5 C 0.472656 -3.425781 0.488281 -3.34375 0.46875 -3.25 C 0.445312 -3.175781 0.429688 -3.085938 0.421875 -2.984375 C 0.421875 -2.890625 0.425781 -2.785156 0.4375 -2.671875 C 0.457031 -2.554688 0.488281 -2.457031 0.53125 -2.375 C 0.570312 -2.289062 0.632812 -2.234375 0.71875 -2.203125 C 0.800781 -2.171875 0.878906 -2.171875 0.953125 -2.203125 C 1.023438 -2.242188 1.09375 -2.300781 1.15625 -2.375 C 1.21875 -2.445312 1.269531 -2.519531 1.3125 -2.59375 C 1.351562 -2.675781 1.378906 -2.753906 1.390625 -2.828125 C 1.378906 -2.972656 1.367188 -3.117188 1.359375 -3.265625 C 1.347656 -3.421875 1.335938 -3.582031 1.328125 -3.75 Z M 1.328125 -3.75 "/></g></g></g><g fill="#000000" fill-opacity="1"><g transform="translate(31.635712, 6.705571)"><g><path d="M 2.46875 -3.640625 C 2.570312 -3.515625 2.644531 -3.367188 2.6875 -3.203125 C 2.738281 -3.046875 2.773438 -2.878906 2.796875 -2.703125 C 2.816406 -2.535156 2.820312 -2.378906 2.8125 -2.234375 C 2.8125 -2.003906 2.769531 -1.78125 2.6875 -1.5625 C 2.601562 -1.34375 2.484375 -1.148438 2.328125 -0.984375 C 2.160156 -0.816406 1.96875 -0.6875 1.75 -0.59375 C 1.53125 -0.507812 1.304688 -0.484375 1.078125 -0.515625 C 0.929688 -0.546875 0.800781 -0.609375 0.6875 -0.703125 C 0.570312 -0.796875 0.46875 -0.898438 0.375 -1.015625 C 0.289062 -1.128906 0.21875 -1.257812 0.15625 -1.40625 C 0.09375 -1.539062 0.046875 -1.707031 0.015625 -1.90625 C -0.00390625 -2.113281 -0.0078125 -2.320312 0 -2.53125 C 0.0078125 -2.738281 0.0390625 -2.9375 0.09375 -3.125 C 0.15625 -3.3125 0.242188 -3.46875 0.359375 -3.59375 C 0.484375 -3.757812 0.632812 -3.882812 0.8125 -3.96875 C 1 -4.050781 1.195312 -4.09375 1.40625 -4.09375 C 1.613281 -4.101562 1.8125 -4.066406 2 -3.984375 C 2.1875 -3.910156 2.34375 -3.796875 2.46875 -3.640625 Z M 1.78125 -1.515625 C 1.882812 -1.640625 1.953125 -1.78125 1.984375 -1.9375 C 2.023438 -2.09375 2.039062 -2.25 2.03125 -2.40625 C 2.03125 -2.570312 2.015625 -2.726562 1.984375 -2.875 C 1.941406 -3.03125 1.863281 -3.144531 1.75 -3.21875 C 1.632812 -3.300781 1.492188 -3.332031 1.328125 -3.3125 C 1.234375 -3.300781 1.148438 -3.269531 1.078125 -3.21875 C 1.003906 -3.164062 0.941406 -3.097656 0.890625 -3.015625 C 0.835938 -2.921875 0.800781 -2.8125 0.78125 -2.6875 C 0.769531 -2.5625 0.765625 -2.445312 0.765625 -2.34375 C 0.773438 -2.113281 0.816406 -1.890625 0.890625 -1.671875 C 0.921875 -1.609375 0.953125 -1.546875 0.984375 -1.484375 C 1.023438 -1.421875 1.078125 -1.367188 1.140625 -1.328125 C 1.234375 -1.273438 1.335938 -1.265625 1.453125 -1.296875 C 1.566406 -1.328125 1.660156 -1.382812 1.734375 -1.46875 C 1.742188 -1.476562 1.757812 -1.492188 1.78125 -1.515625 Z M 1.78125 -1.515625 "/></g></g></g><g fill="#000000" fill-opacity="1"><g transform="translate(35.078315, 6.286203)"><g><path d="M 2.984375 -3.015625 C 3.003906 -2.828125 3.003906 -2.625 2.984375 -2.40625 C 2.972656 -2.1875 2.9375 -1.96875 2.875 -1.75 C 2.820312 -1.53125 2.742188 -1.320312 2.640625 -1.125 C 2.535156 -0.9375 2.398438 -0.773438 2.234375 -0.640625 C 2.066406 -0.515625 1.878906 -0.425781 1.671875 -0.375 C 1.441406 -0.332031 1.242188 -0.347656 1.078125 -0.421875 C 0.910156 -0.492188 0.773438 -0.601562 0.671875 -0.75 C 0.566406 -0.90625 0.476562 -1.078125 0.40625 -1.265625 C 0.34375 -1.460938 0.296875 -1.664062 0.265625 -1.875 C 0.234375 -2.09375 0.210938 -2.300781 0.203125 -2.5 C 0.203125 -2.695312 0.207031 -2.867188 0.21875 -3.015625 C 0.21875 -3.109375 0.242188 -3.1875 0.296875 -3.25 C 0.359375 -3.320312 0.425781 -3.367188 0.5 -3.390625 C 0.570312 -3.410156 0.648438 -3.410156 0.734375 -3.390625 C 0.816406 -3.367188 0.878906 -3.328125 0.921875 -3.265625 C 0.972656 -3.203125 1 -3.125 1 -3.03125 C 0.988281 -2.976562 0.984375 -2.890625 0.984375 -2.765625 C 0.992188 -2.640625 1 -2.5 1 -2.34375 C 1.007812 -2.1875 1.023438 -2.03125 1.046875 -1.875 C 1.078125 -1.71875 1.113281 -1.578125 1.15625 -1.453125 C 1.207031 -1.328125 1.269531 -1.238281 1.34375 -1.1875 C 1.425781 -1.132812 1.515625 -1.132812 1.609375 -1.1875 C 1.765625 -1.257812 1.882812 -1.367188 1.96875 -1.515625 C 2.0625 -1.660156 2.125 -1.820312 2.15625 -2 C 2.195312 -2.175781 2.21875 -2.351562 2.21875 -2.53125 C 2.226562 -2.707031 2.222656 -2.863281 2.203125 -3 C 2.191406 -3.101562 2.207031 -3.179688 2.25 -3.234375 C 2.289062 -3.296875 2.347656 -3.335938 2.421875 -3.359375 C 2.492188 -3.378906 2.570312 -3.378906 2.65625 -3.359375 C 2.738281 -3.347656 2.804688 -3.3125 2.859375 -3.25 C 2.921875 -3.195312 2.960938 -3.117188 2.984375 -3.015625 Z M 2.984375 -3.015625 "/></g></g></g><g fill="#000000" fill-opacity="1"><g transform="translate(38.495444, 6.220517)"><g><path d="M 2.984375 -0.265625 C 3.035156 -0.171875 3.050781 -0.0859375 3.03125 -0.015625 C 3.019531 0.0546875 2.984375 0.117188 2.921875 0.171875 C 2.859375 0.222656 2.785156 0.253906 2.703125 0.265625 C 2.628906 0.273438 2.554688 0.265625 2.484375 0.234375 C 2.410156 0.210938 2.34375 0.164062 2.28125 0.09375 C 2.144531 -0.144531 1.988281 -0.359375 1.8125 -0.546875 C 1.632812 -0.742188 1.441406 -0.925781 1.234375 -1.09375 C 1.191406 -0.882812 1.15625 -0.679688 1.125 -0.484375 C 1.09375 -0.285156 1.066406 -0.0820312 1.046875 0.125 C 1.023438 0.226562 0.984375 0.304688 0.921875 0.359375 C 0.859375 0.410156 0.785156 0.441406 0.703125 0.453125 C 0.628906 0.472656 0.550781 0.46875 0.46875 0.4375 C 0.394531 0.414062 0.335938 0.375 0.296875 0.3125 C 0.253906 0.25 0.242188 0.164062 0.265625 0.0625 C 0.328125 -0.300781 0.378906 -0.679688 0.421875 -1.078125 C 0.472656 -1.472656 0.550781 -1.859375 0.65625 -2.234375 C 0.707031 -2.398438 0.789062 -2.566406 0.90625 -2.734375 C 1.03125 -2.910156 1.175781 -3.050781 1.34375 -3.15625 C 1.519531 -3.257812 1.71875 -3.3125 1.9375 -3.3125 C 2.082031 -3.300781 2.21875 -3.257812 2.34375 -3.1875 C 2.476562 -3.113281 2.582031 -3.019531 2.65625 -2.90625 C 2.726562 -2.789062 2.773438 -2.660156 2.796875 -2.515625 C 2.828125 -2.367188 2.8125 -2.234375 2.75 -2.109375 C 2.695312 -1.960938 2.613281 -1.828125 2.5 -1.703125 C 2.382812 -1.578125 2.25 -1.472656 2.09375 -1.390625 C 2.4375 -1.054688 2.734375 -0.679688 2.984375 -0.265625 Z M 2.046875 -2.421875 C 2.046875 -2.492188 2.023438 -2.53125 1.984375 -2.53125 C 1.941406 -2.539062 1.894531 -2.53125 1.84375 -2.5 C 1.789062 -2.476562 1.738281 -2.445312 1.6875 -2.40625 C 1.632812 -2.363281 1.585938 -2.320312 1.546875 -2.28125 C 1.515625 -2.238281 1.492188 -2.207031 1.484375 -2.1875 C 1.441406 -2.125 1.40625 -2.046875 1.375 -1.953125 C 1.457031 -1.953125 1.523438 -1.960938 1.578125 -1.984375 C 1.628906 -2.015625 1.679688 -2.054688 1.734375 -2.109375 C 1.765625 -2.128906 1.804688 -2.15625 1.859375 -2.1875 C 1.910156 -2.226562 1.957031 -2.269531 2 -2.3125 C 2.039062 -2.351562 2.054688 -2.390625 2.046875 -2.421875 Z M 2.046875 -2.421875 "/></g></g></g><g fill="#000000" fill-opacity="1"><g transform="translate(41.910217, 6.532948)"><g/></g></g><g fill="#000000" fill-opacity="1"><g transform="translate(43.622002, 6.786955)"><g><path d="M 2.390625 -1.765625 C 2.554688 -1.597656 2.664062 -1.394531 2.71875 -1.15625 C 2.78125 -0.925781 2.773438 -0.695312 2.703125 -0.46875 C 2.640625 -0.269531 2.53125 -0.113281 2.375 0 C 2.226562 0.125 2.0625 0.203125 1.875 0.234375 C 1.6875 0.273438 1.492188 0.28125 1.296875 0.25 C 1.109375 0.21875 0.9375 0.144531 0.78125 0.03125 C 0.632812 -0.0820312 0.519531 -0.222656 0.4375 -0.390625 C 0.40625 -0.484375 0.398438 -0.566406 0.421875 -0.640625 C 0.453125 -0.710938 0.492188 -0.769531 0.546875 -0.8125 C 0.609375 -0.851562 0.679688 -0.875 0.765625 -0.875 C 0.847656 -0.875 0.925781 -0.851562 1 -0.8125 C 1.070312 -0.78125 1.132812 -0.722656 1.1875 -0.640625 C 1.195312 -0.597656 1.238281 -0.566406 1.3125 -0.546875 C 1.394531 -0.523438 1.472656 -0.507812 1.546875 -0.5 C 1.628906 -0.488281 1.6875 -0.492188 1.71875 -0.515625 C 1.789062 -0.515625 1.851562 -0.539062 1.90625 -0.59375 C 1.957031 -0.65625 1.988281 -0.734375 2 -0.828125 C 2.007812 -0.921875 1.988281 -1.003906 1.9375 -1.078125 C 1.894531 -1.148438 1.84375 -1.21875 1.78125 -1.28125 C 1.71875 -1.34375 1.644531 -1.40625 1.5625 -1.46875 C 1.488281 -1.53125 1.429688 -1.59375 1.390625 -1.65625 C 1.253906 -1.84375 1.1875 -2.023438 1.1875 -2.203125 C 1.195312 -2.390625 1.25 -2.5625 1.34375 -2.71875 C 1.445312 -2.882812 1.578125 -3.019531 1.734375 -3.125 C 1.898438 -3.238281 2.082031 -3.316406 2.28125 -3.359375 C 2.375 -3.378906 2.457031 -3.375 2.53125 -3.34375 C 2.601562 -3.3125 2.660156 -3.253906 2.703125 -3.171875 C 2.753906 -3.097656 2.78125 -3.019531 2.78125 -2.9375 C 2.789062 -2.863281 2.769531 -2.796875 2.71875 -2.734375 C 2.675781 -2.671875 2.609375 -2.628906 2.515625 -2.609375 C 2.441406 -2.597656 2.363281 -2.578125 2.28125 -2.546875 C 2.195312 -2.515625 2.125 -2.472656 2.0625 -2.421875 C 2 -2.367188 1.972656 -2.296875 1.984375 -2.203125 C 1.984375 -2.148438 2.007812 -2.09375 2.0625 -2.03125 C 2.113281 -1.976562 2.171875 -1.925781 2.234375 -1.875 C 2.304688 -1.832031 2.359375 -1.796875 2.390625 -1.765625 Z M 2.390625 -1.765625 "/></g></g></g><g fill="#000000" fill-opacity="1"><g transform="translate(46.462388, 7.439541)"><g><path d="M 2.59375 -0.484375 C 2.695312 -0.472656 2.773438 -0.441406 2.828125 -0.390625 C 2.890625 -0.335938 2.925781 -0.269531 2.9375 -0.1875 C 2.957031 -0.101562 2.953125 -0.0234375 2.921875 0.046875 C 2.898438 0.117188 2.859375 0.179688 2.796875 0.234375 C 2.742188 0.285156 2.664062 0.3125 2.5625 0.3125 C 2.382812 0.289062 2.203125 0.265625 2.015625 0.234375 C 1.828125 0.203125 1.644531 0.144531 1.46875 0.0625 C 1.300781 -0.0078125 1.15625 -0.113281 1.03125 -0.25 C 0.863281 -0.4375 0.757812 -0.648438 0.71875 -0.890625 C 0.6875 -1.128906 0.710938 -1.363281 0.796875 -1.59375 C 0.890625 -1.820312 1.019531 -2.023438 1.1875 -2.203125 C 1.363281 -2.378906 1.5625 -2.519531 1.78125 -2.625 C 2 -2.726562 2.234375 -2.789062 2.484375 -2.8125 C 2.734375 -2.84375 2.96875 -2.804688 3.1875 -2.703125 C 3.289062 -2.660156 3.359375 -2.601562 3.390625 -2.53125 C 3.429688 -2.457031 3.445312 -2.378906 3.4375 -2.296875 C 3.4375 -2.222656 3.414062 -2.148438 3.375 -2.078125 C 3.332031 -2.015625 3.273438 -1.96875 3.203125 -1.9375 C 3.128906 -1.90625 3.039062 -1.910156 2.9375 -1.953125 C 2.78125 -2.023438 2.609375 -2.046875 2.421875 -2.015625 C 2.242188 -1.984375 2.078125 -1.914062 1.921875 -1.8125 C 1.773438 -1.71875 1.664062 -1.59375 1.59375 -1.4375 C 1.507812 -1.300781 1.472656 -1.175781 1.484375 -1.0625 C 1.492188 -0.957031 1.535156 -0.863281 1.609375 -0.78125 C 1.691406 -0.707031 1.785156 -0.648438 1.890625 -0.609375 C 2.003906 -0.566406 2.117188 -0.535156 2.234375 -0.515625 C 2.359375 -0.492188 2.476562 -0.484375 2.59375 -0.484375 Z M 2.59375 -0.484375 "/></g></g></g><g fill="#000000" fill-opacity="1"><g transform="translate(49.469636, 8.42477)"><g><path d="M 3.515625 -2.4375 C 3.578125 -2.53125 3.644531 -2.582031 3.71875 -2.59375 C 3.789062 -2.601562 3.859375 -2.59375 3.921875 -2.5625 C 3.992188 -2.53125 4.050781 -2.484375 4.09375 -2.421875 C 4.144531 -2.359375 4.175781 -2.285156 4.1875 -2.203125 C 4.195312 -2.117188 4.171875 -2.03125 4.109375 -1.9375 C 3.546875 -1.144531 3.039062 -0.316406 2.59375 0.546875 C 2.539062 0.628906 2.476562 0.6875 2.40625 0.71875 C 2.34375 0.75 2.265625 0.757812 2.171875 0.75 C 2.085938 0.738281 2.015625 0.707031 1.953125 0.65625 C 1.898438 0.601562 1.863281 0.539062 1.84375 0.46875 C 1.820312 0.40625 1.832031 0.328125 1.875 0.234375 C 1.945312 0.078125 2.023438 -0.0664062 2.109375 -0.203125 C 2.191406 -0.347656 2.273438 -0.488281 2.359375 -0.625 L 1.703125 -0.90625 C 1.597656 -0.726562 1.488281 -0.550781 1.375 -0.375 C 1.269531 -0.195312 1.164062 -0.015625 1.0625 0.171875 C 1.019531 0.242188 0.957031 0.296875 0.875 0.328125 C 0.789062 0.367188 0.707031 0.378906 0.625 0.359375 C 0.550781 0.347656 0.484375 0.316406 0.421875 0.265625 C 0.359375 0.222656 0.320312 0.160156 0.3125 0.078125 C 0.300781 0.00390625 0.316406 -0.0664062 0.359375 -0.140625 C 0.492188 -0.398438 0.640625 -0.65625 0.796875 -0.90625 C 0.953125 -1.15625 1.09375 -1.398438 1.21875 -1.640625 C 1.289062 -1.765625 1.363281 -1.882812 1.4375 -2 C 1.507812 -2.113281 1.582031 -2.238281 1.65625 -2.375 C 1.707031 -2.46875 1.765625 -2.570312 1.828125 -2.6875 C 1.898438 -2.8125 1.972656 -2.925781 2.046875 -3.03125 C 2.128906 -3.09375 2.207031 -3.128906 2.28125 -3.140625 C 2.363281 -3.148438 2.441406 -3.132812 2.515625 -3.09375 C 2.597656 -3.050781 2.660156 -3 2.703125 -2.9375 C 2.753906 -2.882812 2.773438 -2.816406 2.765625 -2.734375 C 2.765625 -2.660156 2.726562 -2.585938 2.65625 -2.515625 C 2.570312 -2.429688 2.5 -2.328125 2.4375 -2.203125 C 2.382812 -2.085938 2.328125 -1.976562 2.265625 -1.875 C 2.234375 -1.820312 2.203125 -1.773438 2.171875 -1.734375 C 2.148438 -1.691406 2.125 -1.644531 2.09375 -1.59375 L 2.75 -1.3125 C 2.875 -1.5 3 -1.6875 3.125 -1.875 C 3.25 -2.0625 3.378906 -2.25 3.515625 -2.4375 Z M 3.515625 -2.4375 "/></g></g></g><g fill="#000000" fill-opacity="1"><g transform="translate(52.542159, 9.788118)"><g><path d="M 2.4375 0.078125 C 2.519531 0.140625 2.570312 0.207031 2.59375 0.28125 C 2.625 0.363281 2.628906 0.441406 2.609375 0.515625 C 2.585938 0.597656 2.550781 0.664062 2.5 0.71875 C 2.445312 0.78125 2.378906 0.816406 2.296875 0.828125 C 2.222656 0.847656 2.144531 0.828125 2.0625 0.765625 C 1.851562 0.640625 1.644531 0.523438 1.4375 0.421875 C 1.226562 0.316406 1.007812 0.222656 0.78125 0.140625 C 0.707031 0.117188 0.644531 0.078125 0.59375 0.015625 C 0.539062 -0.0351562 0.503906 -0.0976562 0.484375 -0.171875 C 0.460938 -0.253906 0.476562 -0.335938 0.53125 -0.421875 C 0.820312 -0.804688 1.109375 -1.191406 1.390625 -1.578125 C 1.679688 -1.972656 1.984375 -2.359375 2.296875 -2.734375 C 2.328125 -2.765625 2.375 -2.800781 2.4375 -2.84375 C 2.476562 -2.851562 2.523438 -2.859375 2.578125 -2.859375 C 2.640625 -2.859375 2.707031 -2.847656 2.78125 -2.828125 C 3.113281 -2.660156 3.4375 -2.46875 3.75 -2.25 C 3.84375 -2.195312 3.90625 -2.128906 3.9375 -2.046875 C 3.96875 -1.972656 3.96875 -1.898438 3.9375 -1.828125 C 3.90625 -1.753906 3.863281 -1.6875 3.8125 -1.625 C 3.769531 -1.5625 3.707031 -1.523438 3.625 -1.515625 C 3.550781 -1.503906 3.46875 -1.523438 3.375 -1.578125 C 3.164062 -1.722656 2.945312 -1.859375 2.71875 -1.984375 C 2.644531 -1.898438 2.578125 -1.816406 2.515625 -1.734375 C 2.453125 -1.660156 2.390625 -1.582031 2.328125 -1.5 C 2.453125 -1.425781 2.566406 -1.359375 2.671875 -1.296875 C 2.765625 -1.234375 2.828125 -1.148438 2.859375 -1.046875 C 2.890625 -0.941406 2.878906 -0.84375 2.828125 -0.75 C 2.796875 -0.6875 2.75 -0.640625 2.6875 -0.609375 C 2.625 -0.578125 2.554688 -0.554688 2.484375 -0.546875 C 2.421875 -0.546875 2.359375 -0.566406 2.296875 -0.609375 C 2.148438 -0.710938 2 -0.804688 1.84375 -0.890625 C 1.789062 -0.804688 1.734375 -0.722656 1.671875 -0.640625 C 1.609375 -0.554688 1.546875 -0.476562 1.484375 -0.40625 C 1.648438 -0.320312 1.8125 -0.242188 1.96875 -0.171875 C 2.132812 -0.0976562 2.289062 -0.015625 2.4375 0.078125 Z M 2.4375 0.078125 "/></g></g></g><g fill="#000000" fill-opacity="1"><g transform="translate(55.112935, 11.214911)"><g><path d="M 3.03125 -2.46875 C 3.175781 -2.300781 3.304688 -2.128906 3.421875 -1.953125 C 3.546875 -1.785156 3.628906 -1.597656 3.671875 -1.390625 C 3.722656 -1.160156 3.726562 -0.925781 3.6875 -0.6875 C 3.65625 -0.457031 3.554688 -0.25 3.390625 -0.0625 C 3.265625 0.0820312 3.109375 0.195312 2.921875 0.28125 C 2.734375 0.375 2.539062 0.429688 2.34375 0.453125 C 2.125 0.484375 1.890625 0.46875 1.640625 0.40625 C 1.390625 0.34375 1.164062 0.28125 0.96875 0.21875 C 0.90625 0.207031 0.84375 0.191406 0.78125 0.171875 C 0.726562 0.148438 0.679688 0.113281 0.640625 0.0625 C 0.566406 0.0078125 0.523438 -0.0546875 0.515625 -0.140625 C 0.503906 -0.234375 0.523438 -0.3125 0.578125 -0.375 C 1.128906 -1.144531 1.703125 -1.898438 2.296875 -2.640625 C 2.359375 -2.734375 2.425781 -2.773438 2.5 -2.765625 C 2.570312 -2.765625 2.644531 -2.742188 2.71875 -2.703125 C 2.800781 -2.660156 2.875 -2.601562 2.9375 -2.53125 C 2.96875 -2.507812 3 -2.488281 3.03125 -2.46875 Z M 2.703125 -0.484375 C 2.828125 -0.578125 2.90625 -0.675781 2.9375 -0.78125 C 2.976562 -0.894531 2.984375 -1.007812 2.953125 -1.125 C 2.921875 -1.25 2.875 -1.363281 2.8125 -1.46875 C 2.75 -1.582031 2.671875 -1.6875 2.578125 -1.78125 C 2.242188 -1.332031 1.90625 -0.878906 1.5625 -0.421875 C 1.695312 -0.390625 1.828125 -0.359375 1.953125 -0.328125 C 2.078125 -0.304688 2.203125 -0.304688 2.328125 -0.328125 C 2.460938 -0.347656 2.585938 -0.398438 2.703125 -0.484375 Z M 2.703125 -0.484375 "/></g></g></g><g fill="#000000" fill-opacity="1"><g transform="translate(57.712899, 12.980647)"><g><path d="M 4.234375 -0.3125 C 4.117188 -0.15625 3.984375 0 3.828125 0.15625 C 3.679688 0.3125 3.515625 0.453125 3.328125 0.578125 C 3.140625 0.703125 2.941406 0.800781 2.734375 0.875 C 2.535156 0.945312 2.328125 0.976562 2.109375 0.96875 C 1.898438 0.96875 1.695312 0.910156 1.5 0.796875 C 1.300781 0.679688 1.160156 0.546875 1.078125 0.390625 C 1.003906 0.234375 0.976562 0.0625 1 -0.125 C 1.019531 -0.3125 1.066406 -0.5 1.140625 -0.6875 C 1.222656 -0.882812 1.320312 -1.070312 1.4375 -1.25 C 1.550781 -1.425781 1.671875 -1.59375 1.796875 -1.75 C 1.929688 -1.90625 2.050781 -2.03125 2.15625 -2.125 C 2.207031 -2.195312 2.273438 -2.238281 2.359375 -2.25 C 2.441406 -2.257812 2.519531 -2.25 2.59375 -2.21875 C 2.675781 -2.195312 2.738281 -2.148438 2.78125 -2.078125 C 2.820312 -2.003906 2.835938 -1.925781 2.828125 -1.84375 C 2.828125 -1.769531 2.800781 -1.695312 2.75 -1.625 C 2.695312 -1.59375 2.628906 -1.53125 2.546875 -1.4375 C 2.472656 -1.34375 2.390625 -1.234375 2.296875 -1.109375 C 2.203125 -0.984375 2.109375 -0.851562 2.015625 -0.71875 C 1.929688 -0.582031 1.867188 -0.453125 1.828125 -0.328125 C 1.785156 -0.203125 1.773438 -0.09375 1.796875 0 C 1.816406 0.0820312 1.882812 0.132812 2 0.15625 C 2.15625 0.21875 2.3125 0.21875 2.46875 0.15625 C 2.632812 0.101562 2.789062 0.0234375 2.9375 -0.078125 C 3.082031 -0.191406 3.21875 -0.3125 3.34375 -0.4375 C 3.46875 -0.570312 3.5625 -0.695312 3.625 -0.8125 C 3.6875 -0.90625 3.75 -0.957031 3.8125 -0.96875 C 3.882812 -0.988281 3.957031 -0.984375 4.03125 -0.953125 C 4.101562 -0.921875 4.160156 -0.867188 4.203125 -0.796875 C 4.253906 -0.734375 4.28125 -0.660156 4.28125 -0.578125 C 4.289062 -0.492188 4.273438 -0.40625 4.234375 -0.3125 Z M 4.234375 -0.3125 "/></g></g></g><g fill="#000000" fill-opacity="1"><g transform="translate(60.335767, 15.183454)"><g><path d="M 2.53125 0.71875 C 2.613281 0.789062 2.65625 0.859375 2.65625 0.921875 C 2.664062 0.992188 2.648438 1.066406 2.609375 1.140625 C 2.578125 1.210938 2.523438 1.265625 2.453125 1.296875 C 2.378906 1.335938 2.300781 1.359375 2.21875 1.359375 C 2.132812 1.359375 2.050781 1.328125 1.96875 1.265625 C 1.78125 1.097656 1.578125 0.941406 1.359375 0.796875 C 1.148438 0.648438 0.929688 0.503906 0.703125 0.359375 C 0.628906 0.328125 0.578125 0.269531 0.546875 0.1875 C 0.515625 0.113281 0.5 0.0351562 0.5 -0.046875 C 0.507812 -0.128906 0.550781 -0.191406 0.625 -0.234375 C 0.9375 -0.492188 1.25 -0.753906 1.5625 -1.015625 C 1.882812 -1.273438 2.207031 -1.53125 2.53125 -1.78125 C 2.59375 -1.851562 2.664062 -1.890625 2.75 -1.890625 C 2.832031 -1.890625 2.910156 -1.863281 2.984375 -1.8125 C 3.054688 -1.769531 3.109375 -1.710938 3.140625 -1.640625 C 3.179688 -1.578125 3.195312 -1.507812 3.1875 -1.4375 C 3.1875 -1.363281 3.148438 -1.296875 3.078125 -1.234375 C 2.828125 -1.023438 2.570312 -0.816406 2.3125 -0.609375 C 2.0625 -0.410156 1.8125 -0.210938 1.5625 -0.015625 C 1.90625 0.210938 2.226562 0.457031 2.53125 0.71875 Z M 2.53125 0.71875 "/></g></g></g><g fill="#000000" fill-opacity="1"><g transform="translate(62.473653, 17.353834)"><g><path d="M 2.25 0.96875 C 2.300781 1.050781 2.320312 1.128906 2.3125 1.203125 C 2.3125 1.285156 2.289062 1.359375 2.25 1.421875 C 2.207031 1.484375 2.144531 1.53125 2.0625 1.5625 C 1.988281 1.601562 1.910156 1.617188 1.828125 1.609375 C 1.753906 1.597656 1.691406 1.550781 1.640625 1.46875 C 1.492188 1.269531 1.335938 1.082031 1.171875 0.90625 C 1.015625 0.738281 0.847656 0.578125 0.671875 0.421875 C 0.617188 0.367188 0.578125 0.300781 0.546875 0.21875 C 0.515625 0.144531 0.503906 0.0703125 0.515625 0 C 0.523438 -0.0820312 0.570312 -0.148438 0.65625 -0.203125 C 1.0625 -0.453125 1.46875 -0.703125 1.875 -0.953125 C 2.289062 -1.210938 2.710938 -1.460938 3.140625 -1.703125 C 3.179688 -1.722656 3.234375 -1.738281 3.296875 -1.75 C 3.347656 -1.757812 3.398438 -1.753906 3.453125 -1.734375 C 3.515625 -1.710938 3.570312 -1.675781 3.625 -1.625 C 3.863281 -1.34375 4.09375 -1.046875 4.3125 -0.734375 C 4.382812 -0.648438 4.414062 -0.566406 4.40625 -0.484375 C 4.40625 -0.398438 4.378906 -0.328125 4.328125 -0.265625 C 4.273438 -0.203125 4.210938 -0.148438 4.140625 -0.109375 C 4.078125 -0.078125 4.007812 -0.0664062 3.9375 -0.078125 C 3.863281 -0.0976562 3.789062 -0.148438 3.71875 -0.234375 C 3.570312 -0.441406 3.410156 -0.648438 3.234375 -0.859375 C 3.140625 -0.804688 3.050781 -0.753906 2.96875 -0.703125 C 2.882812 -0.660156 2.804688 -0.609375 2.734375 -0.546875 C 2.804688 -0.429688 2.878906 -0.320312 2.953125 -0.21875 C 3.023438 -0.132812 3.054688 -0.0390625 3.046875 0.0625 C 3.046875 0.164062 3 0.253906 2.90625 0.328125 C 2.863281 0.367188 2.804688 0.394531 2.734375 0.40625 C 2.660156 0.425781 2.59375 0.421875 2.53125 0.390625 C 2.46875 0.367188 2.410156 0.332031 2.359375 0.28125 C 2.253906 0.132812 2.144531 -0.00390625 2.03125 -0.140625 C 1.957031 -0.0859375 1.875 -0.0390625 1.78125 0 C 1.695312 0.0507812 1.613281 0.109375 1.53125 0.171875 C 1.65625 0.296875 1.773438 0.421875 1.890625 0.546875 C 2.015625 0.679688 2.132812 0.820312 2.25 0.96875 Z M 2.25 0.96875 "/></g></g></g></svg>