<svg width="19" height="18" viewBox="0 0 19 18" fill="none" xmlns="http://www.w3.org/2000/svg">
<path d="M7.2871 9.00002L12.9366 14.6495C13.0856 14.7986 13.1582 14.976 13.1544 15.1817C13.1505 15.3875 13.0741 15.5649 12.9251 15.7139C12.776 15.863 12.5986 15.9375 12.3929 15.9375C12.1871 15.9375 12.0097 15.863 11.8607 15.7139L6.1188 9.96058C5.9833 9.82501 5.8828 9.67309 5.8174 9.50482C5.752 9.33655 5.7193 9.16828 5.7193 9.00002C5.7193 8.83176 5.752 8.66349 5.8174 8.49521C5.8828 8.32695 5.9833 8.17503 6.1188 8.03946L11.8722 2.2861C12.0212 2.1371 12.1967 2.0645 12.3986 2.0683C12.6005 2.0721 12.776 2.1486 12.9251 2.2976C13.0741 2.4467 13.1486 2.6241 13.1486 2.8298C13.1486 3.0356 13.0741 3.213 12.9251 3.362L7.2871 9.00002Z" fill="#C1C3C5"/>
</svg>
