<svg width="10" height="10" viewBox="0 0 10 10" fill="none" xmlns="http://www.w3.org/2000/svg">
<path d="M4.2416 5.75778H0.956104C0.743293 5.75778 0.563698 5.68459 0.417321 5.53822C0.270943 5.39184 0.197754 5.21225 0.197754 4.99945C0.197754 4.78665 0.270943 4.60706 0.417321 4.46068C0.563698 4.3143 0.743293 4.24112 0.956104 4.24112H4.2416V0.955615C4.2416 0.742804 4.31479 0.56321 4.46117 0.416832C4.60755 0.270455 4.78714 0.197266 4.99994 0.197266C5.21274 0.197266 5.39233 0.270455 5.5387 0.416832C5.68508 0.56321 5.75827 0.742804 5.75827 0.955615V4.24112H9.04377C9.25658 4.24112 9.43618 4.3143 9.58255 4.46068C9.72893 4.60706 9.80212 4.78665 9.80212 4.99945C9.80212 5.21225 9.72893 5.39184 9.58255 5.53822C9.43618 5.68459 9.25658 5.75778 9.04377 5.75778H5.75827V9.04328C5.75827 9.25609 5.68508 9.43569 5.5387 9.58207C5.39233 9.72844 5.21274 9.80163 4.99994 9.80163C4.78714 9.80163 4.60755 9.72844 4.46117 9.58207C4.31479 9.43569 4.2416 9.25609 4.2416 9.04328V5.75778Z" fill="#5534DA"/>
</svg>
 