<svg width="34" height="34" viewBox="0 0 34 34" fill="none" xmlns="http://www.w3.org/2000/svg">
<rect width="34" height="34" rx="6" fill="#5534DA"/>
<path fill-rule="evenodd" clip-rule="evenodd" d="M16.531 21.0905C15.7529 20.9736 15.0244 20.6534 14.4416 20.1475C14.416 20.1249 14.3904 20.1008 14.3661 20.0781L14.3661 20.0781L14.3615 20.0738C14.3071 20.0242 14.2559 19.9729 14.2046 19.9201C14.1534 19.8673 14.1054 19.8128 14.0573 19.7584L14.0573 19.7584L14.0328 19.7298C13.9942 19.6848 13.9553 19.6394 13.9196 19.5919C13.3769 18.8954 13.0807 18.0452 13.0807 17.1454C13.0807 16.22 13.3929 15.3442 13.9661 14.6365C13.9717 14.6293 13.9773 14.6225 13.9829 14.6157L13.9829 14.6157C13.9885 14.6089 13.9941 14.6021 13.9997 14.5949C14.0781 14.5004 14.1598 14.4092 14.2479 14.3227C14.4272 14.1434 14.6209 13.9865 14.8258 13.8472L14.8259 13.8472L14.8259 13.8472C14.8851 13.8071 14.9443 13.7671 15.0052 13.7319C15.0172 13.7247 15.0296 13.7175 15.042 13.7103L15.042 13.7103C15.0544 13.7031 15.0668 13.6959 15.0788 13.6887C15.5239 13.4389 16.0171 13.2708 16.5326 13.1923C16.8768 13.1411 17.1795 12.9586 17.386 12.6784C17.5925 12.3982 17.679 12.0539 17.6262 11.7097C17.5733 11.3655 17.3908 11.0613 17.1122 10.8547C16.8496 10.661 16.5326 10.5761 16.2108 10.6082V10.6066L16.182 10.6114C16.1756 10.6122 16.1692 10.6126 16.1628 10.613C16.1564 10.6134 16.15 10.6138 16.1435 10.6146C16.0283 10.6322 15.9146 10.653 15.8009 10.6754C14.5216 10.922 13.3432 11.5384 12.4034 12.4782C9.83525 15.0464 9.83044 19.2236 12.3906 21.7966L12.405 21.811L12.4066 21.8126L12.4082 21.8142C13.4473 22.8517 14.773 23.4969 16.2092 23.6827V23.6747C16.531 23.7067 16.8496 23.6218 17.1106 23.4281C17.3908 23.2216 17.5733 22.9174 17.6246 22.5731C17.6758 22.2289 17.5909 21.8846 17.3844 21.6045C17.1779 21.3243 16.8752 21.1417 16.531 21.0905ZM20.6874 14.6317C21.7346 14.6317 22.5863 13.8039 22.5863 12.7873C22.5863 11.7401 21.7346 10.8884 20.6874 10.8884C19.6708 10.8884 18.843 11.7401 18.843 12.7873C18.843 13.8039 19.6708 14.6317 20.6874 14.6317ZM20.5273 18.5448C21.845 18.5448 22.3302 19.2685 22.5047 19.8753C22.8713 21.1498 22.1316 23.3625 20.6266 24.3039L20.3384 24.4848V22.2257C19.4018 22.1296 18.6813 21.3419 18.6813 20.3892C18.6813 19.3725 19.5106 18.5448 20.5273 18.5448Z" fill="white"/>
</svg>
