<svg width="24" height="24" viewBox="0 0 24 24" fill="none" xmlns="http://www.w3.org/2000/svg">
<rect width="24" height="24" rx="4" fill="#5534DA"/>
<path fill-rule="evenodd" clip-rule="evenodd" d="M11.4664 15.2894C10.8741 15.2004 10.3195 14.9566 9.87587 14.5715C9.85636 14.5543 9.83686 14.536 9.81837 14.5186L9.81836 14.5186L9.81493 14.5154C9.77349 14.4776 9.73449 14.4386 9.69548 14.3984C9.65648 14.3582 9.61992 14.3167 9.58336 14.2753L9.58335 14.2753L9.56472 14.2535C9.53532 14.2193 9.50568 14.1847 9.47853 14.1485C9.06535 13.6183 8.83987 12.9711 8.83987 12.2862C8.83987 11.5817 9.07754 10.915 9.51388 10.3763C9.51815 10.3708 9.52241 10.3656 9.52668 10.3604L9.52668 10.3604C9.53094 10.3552 9.53521 10.3501 9.53948 10.3446C9.5992 10.2727 9.66136 10.2032 9.72839 10.1374C9.8649 10.0009 10.0124 9.88143 10.1684 9.77539L10.1684 9.77539C10.2135 9.74492 10.2586 9.71445 10.3049 9.68764C10.314 9.68215 10.3235 9.67667 10.3329 9.67118L10.3329 9.67118L10.3329 9.67118C10.3424 9.6657 10.3518 9.66021 10.361 9.65473C10.6998 9.46459 11.0752 9.33662 11.4677 9.27689C11.7297 9.23789 11.9601 9.09895 12.1173 8.88565C12.2745 8.67236 12.3403 8.41031 12.3001 8.14826C12.2599 7.88622 12.1209 7.65464 11.9089 7.49741C11.709 7.34993 11.4677 7.28534 11.2227 7.30971V7.30849L11.2007 7.31215C11.1959 7.31276 11.191 7.31306 11.1861 7.31337C11.1812 7.31367 11.1764 7.31398 11.1715 7.31459C11.0837 7.32799 10.9972 7.34384 10.9107 7.3609C9.93681 7.5486 9.03976 8.01785 8.32431 8.7333C6.36931 10.6883 6.36566 13.8682 8.31456 15.8269L8.32553 15.8378L8.32675 15.839L8.32796 15.8403C9.11898 16.6301 10.1282 17.1212 11.2215 17.2626V17.2565C11.4664 17.2809 11.709 17.2163 11.9076 17.0688C12.1209 16.9116 12.2599 16.68 12.2989 16.418C12.3379 16.1559 12.2733 15.8939 12.1161 15.6806C11.9588 15.4673 11.7285 15.3284 11.4664 15.2894ZM14.6305 10.3726C15.4276 10.3726 16.076 9.74249 16.076 8.96854C16.076 8.17142 15.4276 7.52301 14.6305 7.52301C13.8566 7.52301 13.2264 8.17142 13.2264 8.96854C13.2264 9.74249 13.8566 10.3726 14.6305 10.3726ZM14.5086 13.3514C15.5117 13.3514 15.881 13.9023 16.0139 14.3643C16.293 15.3345 15.7299 17.0189 14.5842 17.7355L14.3648 17.8733V16.1535C13.6518 16.0804 13.1033 15.4807 13.1033 14.7555C13.1033 13.9816 13.7347 13.3514 14.5086 13.3514Z" fill="white"/>
</svg>
